<svg id="Logo_2" data-name="Logo 2" xmlns="http://www.w3.org/2000/svg" viewBox="0 0 192.4 117.4"><defs><style>.cls-1,.cls-2{fill:#353531;}.cls-2{fill-rule:evenodd;}.cls-3{fill:none;stroke:#353531;stroke-linecap:round;stroke-linejoin:round;stroke-width:2.48px;}</style></defs><title>logo-2</title><path class="cls-1" d="M6.86,54.39L1.3,55.68V50.19l16.33-3.78V51.9l-5.54,1.28V83.87L6.86,85.08V54.39Z" transform="translate(-1.3 -5.28)"/><path class="cls-1" d="M27.06,65.07V80.4l-5.23,1.21V45.44l5.23-1.21V59.59l6.31-1.46V42.77l5.23-1.21V77.73l-5.23,1.21V63.61Z" transform="translate(-1.3 -5.28)"/><path class="cls-1" d="M43.28,76.65V40.45L58.17,37v5.48l-9.66,2.24v9.87L55.57,53v5.49l-7.06,1.63V70l9.66-2.24V73.2Z" transform="translate(-1.3 -5.28)"/><path class="cls-1" d="M69,70.7V34.5l7.83-1.81a8.56,8.56,0,0,1,5.59.41,5.77,5.77,0,0,1,3,3.77,11.93,11.93,0,0,1,.5,3.72,10.57,10.57,0,0,1-1.85,6.26,7.37,7.37,0,0,1-1.83,1.84,4.48,4.48,0,0,1,3,2.06A8.87,8.87,0,0,1,86.4,54a14.15,14.15,0,0,1,.19,2.47,14.38,14.38,0,0,1-1.25,6.12,10.69,10.69,0,0,1-2.74,3.64,9.33,9.33,0,0,1-4,2.19ZM74.61,48l2.19-.51a4.35,4.35,0,0,0,3.27-3.24,8.08,8.08,0,0,0,.3-2.35,4,4,0,0,0-1.05-3.16,2.7,2.7,0,0,0-2.52-.48l-2.19.51V48Zm0,16,2.19-.51a5,5,0,0,0,3.68-3.71,7.25,7.25,0,0,0,.36-2.33q0-3-1.11-4.16a2.9,2.9,0,0,0-2.93-.59l-2.19.51V64Z" transform="translate(-1.3 -5.28)"/><path class="cls-1" d="M96.91,55.92l-1.27,8.61-5.45,1.26,5.9-37.54,7.19-1.67,5.81,34.83-5.5,1.27-1.22-8Zm2.75-20.21L97.72,50.42l3.88-.9Z" transform="translate(-1.3 -5.28)"/><path class="cls-1" d="M121.74,22.31q4.37-1,6.42,1Q130,25.11,130,29v5.25a10.85,10.85,0,0,1-2.79,7.14L131,56.33l-5.66,1.31-3.17-12.89-0.47.11-3,.7V59.18l-5.23,1.21V24.22Zm3.13,8q0-3.15-3-2.45l-3.16.73V40.16l3.16-.73A3.69,3.69,0,0,0,124,38a3.89,3.89,0,0,0,.87-2.42V30.31Z" transform="translate(-1.3 -5.28)"/><path class="cls-1" d="M135.52,55.29V19.09l7.83-1.81a8.57,8.57,0,0,1,5.59.41,5.77,5.77,0,0,1,3,3.77,11.93,11.93,0,0,1,.5,3.72,10.57,10.57,0,0,1-1.85,6.26,7.39,7.39,0,0,1-1.83,1.84,4.47,4.47,0,0,1,3,2.06,8.86,8.86,0,0,1,1.19,3.3,14.1,14.1,0,0,1,.19,2.47,14.39,14.39,0,0,1-1.25,6.12,10.7,10.7,0,0,1-2.74,3.64,9.34,9.34,0,0,1-4,2.19Zm5.65-22.73,2.19-.51a4.35,4.35,0,0,0,3.27-3.24,8.1,8.1,0,0,0,.3-2.35,4,4,0,0,0-1.05-3.16,2.7,2.7,0,0,0-2.52-.49l-2.19.51v9.24Zm0,16,2.19-.51A5.05,5.05,0,0,0,147,44.37,7.26,7.26,0,0,0,147.4,42q0-3-1.11-4.16a2.9,2.9,0,0,0-2.93-.59l-2.19.51v10.8Z" transform="translate(-1.3 -5.28)"/><path class="cls-1" d="M157.67,50.17V14l14.89-3.45V16l-9.66,2.24v9.87L170,26.48V32L162.9,33.6v9.87l9.66-2.24v5.49Z" transform="translate(-1.3 -5.28)"/><path class="cls-1" d="M184.4,7.81q4.37-1,6.42,1,1.8,1.78,1.8,5.7v5.25a10.85,10.85,0,0,1-2.79,7.14l3.88,14.89L188,43.14l-3.17-12.89-0.47.11-3,.7V44.68l-5.23,1.21V9.72Zm3.13,8q0-3.15-3-2.45l-3.15.73V25.65l3.15-.73a3.69,3.69,0,0,0,2.12-1.41,3.89,3.89,0,0,0,.87-2.42V15.8Z" transform="translate(-1.3 -5.28)"/><path class="cls-1" d="M16,15.49l0.56-.11,1.14,3Q18,19,18.26,19.75q0.62,1.64.66,1.72a4.48,4.48,0,0,0,.39.77l0.53,0.05,0,0.55-0.71,0-1,0-0.47,0-0.25,0-0.05-.55,0.73-.07a4.67,4.67,0,0,0-.16-0.76l-0.41-1.08-2.57,0L14.54,21.6q-0.07.32-.11,0.6h0l0.81,0.08-0.06.55-0.64,0-1,0-0.48,0-0.2,0,0-.54,0.59-.08q0.57-1,.58-1.09Zm-0.87,4.36,0.8,0,0.7,0,0.68,0L16.2,16.9Z" transform="translate(-1.3 -5.28)"/><path class="cls-1" d="M27.53,19.71v3.15H26.9L22.83,17v4a6.36,6.36,0,0,0,0,.77l0,0.37,0.81,0.06-0.06.57-0.37,0-0.85,0a5.19,5.19,0,0,0-.74.05l-0.37,0-0.07-.59L22,22.2q0-.09.06-0.36a2.78,2.78,0,0,0,0-.47V16.91a2.9,2.9,0,0,0,0-.45q0-.28-0.06-0.39L21.25,16l0.05-.55,0.43,0,0.7,0,0.54,0,0.26,0,0.05,0.06q0.16,0.37.46,1a7.23,7.23,0,0,0,.39.77l2.71,3.8V17a3.15,3.15,0,0,0,0-.49q0-.29-0.06-0.45L25.94,16,26,15.43l0.33,0,0.84,0a7.48,7.48,0,0,0,.82,0l0.48,0L28.51,16l-0.81.06-0.09.42a5.18,5.18,0,0,0-.08.82v2.39Z" transform="translate(-1.3 -5.28)"/><path class="cls-1" d="M33.53,16.07l-0.06,1.15v3.85a6.27,6.27,0,0,0,0,.76l0,0.36,0.91,0.08-0.06.57-0.6,0-1,0-0.74,0-0.33,0-0.05-.54,0.8-.09q0-.09.06-0.36a2.78,2.78,0,0,0,0-.47V16.91a4.23,4.23,0,0,0,0-.45,3.23,3.23,0,0,0-.06-0.39H31.62q-0.49,0-.69.05a1.38,1.38,0,0,0-.21.37l-0.1.54L30,17l0.07-1.48,0.1-.11q1,0.1,1.27.1h3.06q0.27,0,1.27-.1l0.1,0.11L36,17l-0.6.05q-0.08-.45-0.12-0.58a1.12,1.12,0,0,0-.2-0.33c-0.13,0-.36,0-0.68-0.05H33.53Z" transform="translate(-1.3 -5.28)"/><path class="cls-1" d="M41,15.33a3.11,3.11,0,0,1,2.52,1,4.16,4.16,0,0,1,.87,2.77,4.16,4.16,0,0,1-.87,2.77,3.58,3.58,0,0,1-5,0,4.16,4.16,0,0,1-.87-2.77,4.16,4.16,0,0,1,.87-2.77A3.11,3.11,0,0,1,41,15.33Zm-1.7,1.47a4.27,4.27,0,0,0-.59,2.35,4.24,4.24,0,0,0,.59,2.34,2,2,0,0,0,3.39,0,4.25,4.25,0,0,0,.59-2.34,4.27,4.27,0,0,0-.59-2.35A2,2,0,0,0,39.32,16.8Z" transform="translate(-1.3 -5.28)"/><path class="cls-1" d="M52.51,19.71v3.15H51.88L47.8,17v4a6.36,6.36,0,0,0,0,.77l0,0.37,0.81,0.06-0.06.57-0.37,0-0.85,0a5.19,5.19,0,0,0-.74.05l-0.37,0-0.07-.59L47,22.2q0-.09.06-0.36a2.78,2.78,0,0,0,0-.47V16.91a2.9,2.9,0,0,0,0-.45q0-.28-0.06-0.39L46.22,16l0.05-.55,0.43,0,0.7,0,0.54,0,0.26,0,0.05,0.06q0.16,0.37.46,1a7.23,7.23,0,0,0,.39.77l2.71,3.8V17a3.15,3.15,0,0,0,0-.49q0-.29-0.06-0.45L50.91,16,51,15.43l0.33,0,0.84,0a7.48,7.48,0,0,0,.82,0l0.48,0L53.49,16l-0.81.06-0.09.42a5.18,5.18,0,0,0-.08.82v2.39Z" transform="translate(-1.3 -5.28)"/><path class="cls-1" d="M56.15,21.37V16.91a2.55,2.55,0,0,0,0-.42q0-.26-0.06-0.41L55.25,16l0.05-.55,0.33,0,0.85,0q0.45,0,.88,0l0.55,0L58,16l-0.81.06,0,0.37a6.26,6.26,0,0,0,0,.77v3.85a6.26,6.26,0,0,0,0,.77l0,0.37L58,22.26l-0.06.57-0.55,0-1,0-0.74,0-0.33,0-0.05-.54L56,22.2q0-.09.06-0.36A2.73,2.73,0,0,0,56.15,21.37Z" transform="translate(-1.3 -5.28)"/><path class="cls-1" d="M63.27,15.33a3.11,3.11,0,0,1,2.52,1,4.16,4.16,0,0,1,.87,2.77,4.16,4.16,0,0,1-.87,2.77,3.58,3.58,0,0,1-5,0,4.16,4.16,0,0,1-.87-2.77,4.16,4.16,0,0,1,.87-2.77A3.11,3.11,0,0,1,63.27,15.33Zm-1.7,1.47A4.27,4.27,0,0,0,61,19.14a4.24,4.24,0,0,0,.59,2.34,2,2,0,0,0,3.39,0,4.25,4.25,0,0,0,.59-2.34A4.27,4.27,0,0,0,65,16.8,2,2,0,0,0,61.57,16.8Z" transform="translate(-1.3 -5.28)"/><path class="cls-1" d="M29.62,103.4a2.36,2.36,0,0,1,.43-0.05,0.79,0.79,0,0,1,.41.07,0.55,0.55,0,0,1,.25.28,0.89,0.89,0,0,1,0,.57,4.26,4.26,0,0,1-.24.65,2.53,2.53,0,0,1-.42.64,3,3,0,0,1-.68.56,3.36,3.36,0,0,1-1,.4l-6.08,1.41a1.08,1.08,0,0,1-.7,0,0.61,0.61,0,0,1-.31-0.34,1,1,0,0,1,0-.51,3.9,3.9,0,0,1,.1-0.52,3,3,0,0,1,.16-0.44,1.79,1.79,0,0,1,.3-0.47,2.1,2.1,0,0,1,.52-0.42,2.74,2.74,0,0,1,.79-0.3Z" transform="translate(-1.3 -5.28)"/><path class="cls-1" d="M66.46,94.2q-1,2-1.78,3.78a22.05,22.05,0,0,0-1.08,3,2.32,2.32,0,0,0,0,1.57,1,1,0,0,0,1.22.28,3.51,3.51,0,0,0,.94-0.43,12.7,12.7,0,0,0,1.36-1q0.79-.64,1.81-1.59t2.3-2.25c0,0.06,0,.19.06,0.4s0.05,0.46.09,0.82,0.08,0.87.15,1.51q-1.43,1.49-2.79,2.69T66.13,105a18.61,18.61,0,0,1-2.26,1.42,8.1,8.1,0,0,1-1.85.73,3.34,3.34,0,0,1-1.62,0,1.83,1.83,0,0,1-1.08-.76,3,3,0,0,1-.45-1.52,7.13,7.13,0,0,1,.29-2.26c0.08-.3.21-0.69,0.39-1.16s0.41-1,.68-1.62,0.58-1.28.92-2,0.72-1.5,1.12-2.32l-3.87,1.28L54.72,98l-1.5,2.76q-0.74,1.35-1.41,2.54l-1.23,2.18-1,1.68a15.55,15.55,0,0,1-2,2.67,3.51,3.51,0,0,1-1.41,1,1.74,1.74,0,0,1-.65,0,1,1,0,0,1-.5-0.22,0.84,0.84,0,0,1-.27-0.47,1.49,1.49,0,0,1,0-.7A2.77,2.77,0,0,1,45,109q1.26-2.54,2.58-4.93t2.64-4.68a8.77,8.77,0,0,1-1.51.22,3.31,3.31,0,0,1-1.25-.15,1.74,1.74,0,0,1-.88-0.65,2.62,2.62,0,0,1-.42-1.28c0-.18,0-0.34,0-0.48a2.75,2.75,0,0,1,.08-0.43,1,1,0,0,1,.64-0.79,0.56,0.56,0,0,1,.53.18,3.94,3.94,0,0,1,.59.82l1.39-.36,1.48-.36,1.41-.33,1.76-3q0.84-1.46,1.6-2.86,0.47-.89.84-1.75a12.28,12.28,0,0,0,.57-1.61,6,6,0,0,0,.2-1.1,1.67,1.67,0,0,0-.1-0.8,0.78,0.78,0,0,0-.45-0.42,1.49,1.49,0,0,0-.85,0,5.62,5.62,0,0,0-1.06.39,12.14,12.14,0,0,0-1.42.81c-0.53.34-1.12,0.77-1.78,1.28s-1.38,1.12-2.17,1.83a5,5,0,0,1-.74.57,2,2,0,0,1-.55.25c-0.08,0-.1-0.11-0.06-0.37a8.16,8.16,0,0,1,.22-1,5.43,5.43,0,0,1,.77-1.63,10.61,10.61,0,0,1,1.32-1.58,16.32,16.32,0,0,1,1.69-1.45A20.05,20.05,0,0,1,53.94,82a16.27,16.27,0,0,1,1.79-.92,9.15,9.15,0,0,1,1.56-.54,5.94,5.94,0,0,1,1.88-.16,2.31,2.31,0,0,1,1.39.57,2.36,2.36,0,0,1,.67,1.45A6.37,6.37,0,0,1,61,84.87a15.89,15.89,0,0,1-.62,1.76q-0.43,1.05-1,2.33T58,91.68q-0.73,1.45-1.52,3l3.46-1,3.85-1.1q1.45-2.79,3.1-5.79t3.38-5.93a7.61,7.61,0,0,1,1.27-1.63A3.11,3.11,0,0,1,73,78.37a1.73,1.73,0,0,1,.57,0,0.76,0.76,0,0,1,.43.17,0.67,0.67,0,0,1,.21.42,1.72,1.72,0,0,1-.07.68q-0.1.36-.27,0.85a6.87,6.87,0,0,1-.51,1.08l-1.27,2.24-1.38,2.45-1.42,2.57q-0.72,1.31-1.39,2.6l1.64-.49,1.06-.33,0.31-.09,0.26-.07a2,2,0,0,1,.68-0.07,0.5,0.5,0,0,1,.35.17,0.54,0.54,0,0,1,.1.36,2.25,2.25,0,0,1-.09.52,1.65,1.65,0,0,1-.28.58,2.33,2.33,0,0,1-.42.43,2.38,2.38,0,0,1-.47.28,3.6,3.6,0,0,1-.43.17L70,93l-0.26.09-0.1,0-0.11,0-0.32.1-0.69.22-1.06.35Z" transform="translate(-1.3 -5.28)"/><path class="cls-1" d="M86.11,97.06q-0.47.58-1.21,1.38T83.28,100a15.87,15.87,0,0,1-1.78,1.38,5.38,5.38,0,0,1-1.72.8,1.38,1.38,0,0,1-1.43-.29,3,3,0,0,1-.59-1.68,15.41,15.41,0,0,1-1.1,1.09,15.58,15.58,0,0,1-1.34,1.08,12.7,12.7,0,0,1-1.43.9,5.63,5.63,0,0,1-1.38.54,2.69,2.69,0,0,1-1.29,0,1.72,1.72,0,0,1-.94-0.6,2.3,2.3,0,0,1-.45-1.2,4.87,4.87,0,0,1,.19-1.78,14,14,0,0,1,1-2.48,24,24,0,0,1,1.5-2.62,27.66,27.66,0,0,1,1.88-2.53,22.27,22.27,0,0,1,2.11-2.21,15.65,15.65,0,0,1,2.19-1.67,7,7,0,0,1,2.11-.92,0.66,0.66,0,0,1,.49,0,0.62,0.62,0,0,1,.23.25l0.15,0.3a0.33,0.33,0,0,0,.23.18,0.93,0.93,0,0,0,.33,0l0.37-.06,0.33-.08,0.33-.08a1.64,1.64,0,0,1,.4,0,0.36,0.36,0,0,1,.28.13,0.61,0.61,0,0,1,.11.39,2.9,2.9,0,0,1-.12.75,14,14,0,0,1-.59,1.7q-0.39.95-.83,2t-0.84,2A15.81,15.81,0,0,0,81,97.09a4.17,4.17,0,0,0-.18,1.12c0,0.26.15,0.36,0.42,0.29a2.27,2.27,0,0,0,.69-0.31,7.73,7.73,0,0,0,.8-0.59c0.28-.23.56-0.48,0.85-0.76s0.57-.56.84-0.85q0.94-1,2-2.24ZM73.94,98.72a6,6,0,0,0-.15.75,1.87,1.87,0,0,0,0,.61,0.63,0.63,0,0,0,.22.39,0.6,0.6,0,0,0,.51.05,2.34,2.34,0,0,0,1.11-.73,9.69,9.69,0,0,0,1.08-1.38,16,16,0,0,0,.91-1.58q0.4-.8.59-1.31l2.13-4.81a3.75,3.75,0,0,0-1.26.59,9.07,9.07,0,0,0-1.31,1.12,15.63,15.63,0,0,0-1.27,1.47,18.92,18.92,0,0,0-1.13,1.65,16.42,16.42,0,0,0-.89,1.67A9.59,9.59,0,0,0,73.94,98.72Z" transform="translate(-1.3 -5.28)"/><path class="cls-1" d="M93.15,95.9q-0.67.64-1.61,1.41t-2,1.47A22.58,22.58,0,0,1,87.49,100a8,8,0,0,1-1.88.74,2.8,2.8,0,0,1-1.22.07,1,1,0,0,1-.67-0.44,1.52,1.52,0,0,1-.2-0.89,5.7,5.7,0,0,1,.21-1.26,19.42,19.42,0,0,1,.83-2.34q0.56-1.36,1.25-2.83t1.4-2.94q0.72-1.47,1.3-2.71a2.72,2.72,0,0,1,.6-0.79A5,5,0,0,1,89.91,86a6.18,6.18,0,0,1,.88-0.45,5,5,0,0,1,.78-0.26,0.8,0.8,0,0,1,.77,0,0.67,0.67,0,0,1,0,.6A6.86,6.86,0,0,1,92,87q-0.32.68-.76,1.56l-0.94,1.88q-0.5,1-1,2t-0.86,1.93A13.78,13.78,0,0,0,87.85,96a3.37,3.37,0,0,0-.15,1.08c0,0.25.19,0.35,0.49,0.28a3.8,3.8,0,0,0,1.28-.66q0.75-.54,1.56-1.25T92.61,94L94,92.72ZM90.92,81.33a3.92,3.92,0,0,1,.36-0.85,5,5,0,0,1,.7-1A5.38,5.38,0,0,1,93,78.64,4.55,4.55,0,0,1,94.49,78a3.45,3.45,0,0,1,.93-0.1,1.33,1.33,0,0,1,.69.2,0.87,0.87,0,0,1,.35.56,2.05,2.05,0,0,1-.07,1A4.83,4.83,0,0,1,96,80.73a4.74,4.74,0,0,1-.75,1,5.27,5.27,0,0,1-1.06.84,4.51,4.51,0,0,1-1.35.54,1.73,1.73,0,0,1-1.73-.21A1.69,1.69,0,0,1,90.92,81.33Z" transform="translate(-1.3 -5.28)"/><path class="cls-1" d="M92.09,96.2q0.19-.69.5-1.62t0.72-2q0.4-1,.85-2.14t0.9-2.09c0.3-.67.58-1.28,0.85-1.84s0.51-1,.73-1.4a5.84,5.84,0,0,1,.38-0.6,2.18,2.18,0,0,1,.36-0.38,1.52,1.52,0,0,1,.42-0.25,4.48,4.48,0,0,1,.57-0.17,3.76,3.76,0,0,1,.58-0.1,0.26,0.26,0,0,1,.27.11,0.68,0.68,0,0,1,0,.4c0,0.18-.1.44-0.18,0.76l-0.38,1.4c-0.15.55-.28,1.08-0.41,1.61l0.16,0,1-1.55a18.18,18.18,0,0,1,1.24-1.64,10.74,10.74,0,0,1,1.4-1.39,3.81,3.81,0,0,1,1.54-.79,1.29,1.29,0,0,1,.51,0,0.7,0.7,0,0,1,.38.18,0.69,0.69,0,0,1,.19.39,1.4,1.4,0,0,1,0,.59,7,7,0,0,1-.27.76l-0.43,1-0.43,1.05a7.57,7.57,0,0,0-.29.84,3.67,3.67,0,0,0-.15.92,1.12,1.12,0,0,0,.11.54,0.46,0.46,0,0,0,.29.23,0.92,0.92,0,0,0,.42,0,5.06,5.06,0,0,0,1.45-.63,16.7,16.7,0,0,0,1.48-1q0.81-.61,1.62-1.34l-1.2,3.71-1,.79c-0.38.29-.78,0.58-1.2,0.86a13.39,13.39,0,0,1-1.27.75,5.46,5.46,0,0,1-1.26.47,2.29,2.29,0,0,1-1.64-.07,1.6,1.6,0,0,1-.73-1A4.76,4.76,0,0,1,100,90q0.07-.92.22-1.88l-0.23.05-4.72,8.42c-0.25.44-.47,0.8-0.66,1.1a6.93,6.93,0,0,1-.55.74,2.3,2.3,0,0,1-.5.45,1.7,1.7,0,0,1-.51.21A1.18,1.18,0,0,1,92.18,99a0.87,0.87,0,0,1-.37-0.61,3,3,0,0,1,0-1A12.21,12.21,0,0,1,92.09,96.2Z" transform="translate(-1.3 -5.28)"/><path class="cls-1" d="M108.38,95.5a4.1,4.1,0,0,1-2.22,0,2.39,2.39,0,0,1-1.32-1,3.66,3.66,0,0,1-.49-1.82,8.1,8.1,0,0,1,.3-2.36,14.43,14.43,0,0,1,.68-1.93,18.94,18.94,0,0,1,1-2.05,20.63,20.63,0,0,1,1.33-2,14.74,14.74,0,0,1,1.58-1.78,10.9,10.9,0,0,1,1.76-1.38,6.3,6.3,0,0,1,1.9-.8,3.79,3.79,0,0,1,1.47-.08,1.86,1.86,0,0,1,1,.48,1.73,1.73,0,0,1,.48,1,3.15,3.15,0,0,1-.1,1.37,5.89,5.89,0,0,1-.41,1.08,6.07,6.07,0,0,1-.64,1,4.56,4.56,0,0,1-.8.81,2.3,2.3,0,0,1-.89.44c-0.46.11-.72,0-0.8-0.18a2,2,0,0,1,.08-1q0.08-.28.18-0.6c0.07-.21.13-0.4,0.17-0.57a2.34,2.34,0,0,0,.09-0.61c0-.16-0.09-0.21-0.25-0.18a2.77,2.77,0,0,0-1.11.54,5.51,5.51,0,0,0-.94,1,8,8,0,0,0-.77,1.22q-0.34.66-.61,1.29t-0.44,1.2q-0.18.56-.28,0.94a7.91,7.91,0,0,0-.22,1.15,2.67,2.67,0,0,0,.06,1,1.14,1.14,0,0,0,.49.68,1.42,1.42,0,0,0,1.08.07,5.26,5.26,0,0,0,1.67-.82,21.63,21.63,0,0,0,2-1.56q1-.9,2-1.93t1.76-1.9l0.52,1.58a41.22,41.22,0,0,1-3.17,3.54c-0.46.46-1,.92-1.47,1.37s-1,.87-1.58,1.25a14.31,14.31,0,0,1-1.63,1A6.69,6.69,0,0,1,108.38,95.5Z" transform="translate(-1.3 -5.28)"/><path class="cls-1" d="M129.34,77.51q-0.11.42-.39,1.17t-0.66,1.65l-0.78,1.86L126.75,84q-0.35.83-.6,1.45c-0.17.42-.27,0.7-0.31,0.86s-0.15.56-.2,0.8a2.79,2.79,0,0,0-.08.62,0.5,0.5,0,0,0,.11.37,0.43,0.43,0,0,0,.41,0,3.46,3.46,0,0,0,.83-0.35q0.51-.28,1.1-0.69t1.24-.9q0.64-.5,1.24-1c0.4-.35.77-0.69,1.11-1s0.62-.63.85-0.89q-0.14.52-.24,0.94L132,85l-0.21.79c-0.07.27-.15,0.57-0.24,0.91q-0.41.42-1,.92t-1.26,1q-0.69.53-1.43,1t-1.48.94q-0.73.43-1.42,0.74a6.76,6.76,0,0,1-1.24.44,1.45,1.45,0,0,1-.89,0,1,1,0,0,1-.5-0.5,2.49,2.49,0,0,1-.21-0.9,8.61,8.61,0,0,1,0-1.23q-0.72.86-1.48,1.61a19.42,19.42,0,0,1-1.48,1.35,11,11,0,0,1-1.42,1,4.67,4.67,0,0,1-1.28.54,2.07,2.07,0,0,1-.86,0,0.9,0.9,0,0,1-.6-0.41,1.78,1.78,0,0,1-.23-1,6.12,6.12,0,0,1,.25-1.61,29.07,29.07,0,0,1,1.09-3.13q0.77-1.92,1.81-4.41,0.09-.24.28-0.66c0.13-.28.28-0.58,0.45-0.92s0.38-.68.6-1a8.6,8.6,0,0,1,.72-1,5.24,5.24,0,0,1,.82-0.79,2.6,2.6,0,0,1,.91-0.46,2.35,2.35,0,0,1,1.05,0,0.28,0.28,0,0,1,.22.37l-0.78,1.91-0.87,2.12-0.85,2.08-0.73,1.81-0.52,1.28-0.2.5a2.79,2.79,0,0,0-.09.53,1.32,1.32,0,0,0,0,.43,0.45,0.45,0,0,0,.18.27,0.43,0.43,0,0,0,.35,0,2.21,2.21,0,0,0,.71-0.33,4.79,4.79,0,0,0,.78-0.66,7.08,7.08,0,0,0,.76-1,7.63,7.63,0,0,0,.65-1.2L126,78.19a1.94,1.94,0,0,1,.76-0.77,4,4,0,0,1,1.25-.53,1.73,1.73,0,0,1,1.11,0A0.47,0.47,0,0,1,129.34,77.51Z" transform="translate(-1.3 -5.28)"/><path class="cls-1" d="M141.84,84.47l-2.91,2.11q-1.28.91-2.25,1.55a19.26,19.26,0,0,1-1.7,1,5.6,5.6,0,0,1-1.27.5,2,2,0,0,1-1.77-.27,2.73,2.73,0,0,1-.87-1.75,10.86,10.86,0,0,1,0-3.08,32.09,32.09,0,0,1,.88-4.27q0.25-.94.61-2t0.77-2.16l-0.65,0h-0.48l-0.66,0-1.17.12a0.86,0.86,0,0,1-.49-0.05,0.39,0.39,0,0,1-.19-0.25,0.83,0.83,0,0,1,0-.35c0-.13.05-0.24,0.08-0.33a1,1,0,0,1,.41-0.54,3.72,3.72,0,0,1,.8-0.41,8.17,8.17,0,0,1,1-.31l1-.23,0.87-.18a3.31,3.31,0,0,0,.54-0.15q1-2.2,2.1-4.32a43.3,43.3,0,0,1,2.31-3.84,19.62,19.62,0,0,1,2.31-2.85,4.7,4.7,0,0,1,2.12-1.36,1.36,1.36,0,0,1,1,.11,1.5,1.5,0,0,1,.62.8,3.58,3.58,0,0,1,.17,1.33,7.56,7.56,0,0,1-.27,1.7,9.69,9.69,0,0,1-.64,1.67q-0.44.9-1,1.87c-0.39.65-.83,1.31-1.31,2s-1,1.36-1.49,2l0.43-.08,0.7-.14,0.86-.16,0.9-.17,0.81-.16,0.62-.11a0.26,0.26,0,0,1,.34.21,1.67,1.67,0,0,1-.07.72,2.25,2.25,0,0,1-.53,1,1.55,1.55,0,0,1-.74.49l-5.62,1.3-1.19,1.43-1.09,1.27c-0.21.66-.42,1.3-0.61,1.93l-0.25.85-0.26.86-0.24.82-0.2.72a6,6,0,0,0-.24,1.39,1.63,1.63,0,0,0,.17.85,0.77,0.77,0,0,0,.54.37,2.05,2.05,0,0,0,.86,0,3.66,3.66,0,0,0,.81-0.33q0.5-.26,1.13-0.66t1.33-.92c0.47-.34.95-0.71,1.42-1.1s0.94-.79,1.39-1.2,0.87-.83,1.25-1.24Zm0.63-18.73c0-.12.06-0.24,0.08-0.38a1.21,1.21,0,0,0,0-.38,0.37,0.37,0,0,0-.14-0.26,0.49,0.49,0,0,0-.4,0,2.14,2.14,0,0,0-1,.9,19.67,19.67,0,0,0-1.24,2q-0.66,1.2-1.34,2.62T137.21,73l0.43,0,0.44-.05q0.65-.9,1.38-1.94t1.35-2q0.62-1,1.08-1.83A6.58,6.58,0,0,0,142.47,65.74Z" transform="translate(-1.3 -5.28)"/><path class="cls-1" d="M141.59,82.18l1.67-1.56q0.65-.62,1.12-1.12t0.89-1l1-1.17,1.38-1.65q0.81-1,2.08-2.44c0.18-.22.37-0.43,0.57-0.65a6.81,6.81,0,0,1,.65-0.6,5,5,0,0,1,.72-0.49,3,3,0,0,1,.8-0.31,2.56,2.56,0,0,1,1-.09,0.66,0.66,0,0,1,.45.27,0.66,0.66,0,0,1,.07.45c0,0.17-.06.31-0.09,0.44a2.69,2.69,0,0,1-.5.89q-0.4.52-.85,1l-0.84.92a3.19,3.19,0,0,0-.48.6,5.41,5.41,0,0,0-.21,1.61c0,0.24,0,.49,0,0.76s0,0.58,0,.94a12.25,12.25,0,0,1-.17,1.26q-0.13.72-.4,1.72,0.63-.5,1.32-0.94l1.44-.93q0.75-.48,1.55-1t1.66-1.29l-0.93,3.5a27.41,27.41,0,0,1-2.48,1.9q-1.37.93-2.81,1.74a29.33,29.33,0,0,1-2.86,1.4,16.14,16.14,0,0,1-2.62.88,7,7,0,0,1-1.56.2,2.55,2.55,0,0,1-1.17-.24,1.32,1.32,0,0,1-.66-0.75,2.55,2.55,0,0,1,0-1.34l-0.42.16-0.39.1-0.44.09a0.48,0.48,0,0,1-.32,0,0.35,0.35,0,0,1-.15-0.27,1.8,1.8,0,0,1,.09-0.63,2.24,2.24,0,0,1,.36-0.74,5.67,5.67,0,0,1,.56-0.67c0.2-.2.4-0.39,0.59-0.55Zm1.34,1.57a0.32,0.32,0,0,1,.33.14c0.1,0.12.22,0.26,0.35,0.4a1.75,1.75,0,0,0,.51.37,1.14,1.14,0,0,0,.77,0,3,3,0,0,0,1-.42,3.32,3.32,0,0,0,.74-0.68,3.87,3.87,0,0,0,.52-0.85,6.31,6.31,0,0,0,.34-1,8.06,8.06,0,0,0,.18-0.85c0-.28.08-0.55,0.09-0.81s0-.49,0-0.71,0-.41,0-0.56Z" transform="translate(-1.3 -5.28)"/><path class="cls-1" d="M171.07,70.65a2.34,2.34,0,0,1,.43-0.05,0.82,0.82,0,0,1,.41.07,0.55,0.55,0,0,1,.25.28,0.88,0.88,0,0,1,0,.57,4.26,4.26,0,0,1-.23.65,2.51,2.51,0,0,1-.42.64,3,3,0,0,1-.68.56,3.37,3.37,0,0,1-1,.4l-6.08,1.41a1.08,1.08,0,0,1-.7,0,0.62,0.62,0,0,1-.31-0.34,1.06,1.06,0,0,1,0-.51,4.11,4.11,0,0,1,.1-0.52,3,3,0,0,1,.16-0.44,1.77,1.77,0,0,1,.3-0.47,2.08,2.08,0,0,1,.52-0.42,2.71,2.71,0,0,1,.79-0.3Z" transform="translate(-1.3 -5.28)"/><path class="cls-1" d="M110,111a4.94,4.94,0,0,0-.78-0.48l-0.46-.24-0.06,0a5,5,0,0,1-1.31-.88,1.73,1.73,0,0,1-.46-1.29,1.63,1.63,0,0,1,.63-1.33,2.32,2.32,0,0,1,1.5-.51,9.36,9.36,0,0,1,2.2.33l-0.14,1.52-0.61-.06v-0.41a3.16,3.16,0,0,0-.14-0.58,2.94,2.94,0,0,0-1.14-.23,1.34,1.34,0,0,0-.93.3,1.08,1.08,0,0,0-.34.85,1.15,1.15,0,0,0,.52.93,5.52,5.52,0,0,0,.77.46l0.43,0.21q0.48,0.25.76,0.42a5,5,0,0,1,.58.44,1.86,1.86,0,0,1,.59,1.46,1.72,1.72,0,0,1-.69,1.45,2.67,2.67,0,0,1-1.66.52,5.57,5.57,0,0,1-1.77-.27,3.25,3.25,0,0,1-.62-0.28l0.16-1.6,0.68,0.06v0.5a4.3,4.3,0,0,0,.11.68,3.3,3.3,0,0,0,1.31.28,1.47,1.47,0,0,0,1-.34A1.28,1.28,0,0,0,110,111Z" transform="translate(-1.3 -5.28)"/><path class="cls-1" d="M114.39,112.35v-4.47a2.62,2.62,0,0,0,0-.42c0-.18-0.05-0.31-0.06-0.41l-0.8-.09,0.05-.55,0.33,0,0.85,0c0.3,0,.6,0,0.88,0l0.55,0,0.06,0.61-0.81.06,0,0.37a6.43,6.43,0,0,0,0,.77V112a6.41,6.41,0,0,0,0,.77l0,0.37,0.81,0.06-0.06.57-0.55,0-1,0-0.74,0-0.33,0-0.05-.54,0.8-.09c0-.06,0-0.18.06-0.36A2.82,2.82,0,0,0,114.39,112.35Z" transform="translate(-1.3 -5.28)"/><path class="cls-1" d="M124.27,110.69v3.15h-0.62L119.56,108v4a6.41,6.41,0,0,0,0,.77l0,0.37,0.81,0.06-0.06.57-0.37,0-0.85,0a5.26,5.26,0,0,0-.74.05l-0.37,0-0.07-.59,0.8-.09c0-.06,0-0.18.06-0.36a2.72,2.72,0,0,0,0-.47v-4.47a2.82,2.82,0,0,0,0-.45c0-.19,0-0.32-0.06-0.39L118,107l0.05-.55,0.43,0,0.7,0,0.54,0,0.26,0,0.05,0.06c0.1,0.25.26,0.59,0.46,1a7.62,7.62,0,0,0,.39.77l2.71,3.8V108a3.14,3.14,0,0,0,0-.49c0-.19,0-0.34-0.06-0.45l-0.8-.08,0.05-.56,0.33,0,0.84,0a7.49,7.49,0,0,0,.82,0l0.48,0,0.06,0.61-0.81.06-0.09.42a5.14,5.14,0,0,0-.08.82v2.39Z" transform="translate(-1.3 -5.28)"/><path class="cls-1" d="M132.71,112l0.06,1.56a10.87,10.87,0,0,1-2.37.35,3.21,3.21,0,0,1-2.56-1,4.78,4.78,0,0,1,0-5.55,3.19,3.19,0,0,1,2.56-1,6.85,6.85,0,0,1,1.66.21l0.61,0.15-0.11,1.53-0.63,0v-0.49a1.76,1.76,0,0,0-.12-0.52,4.86,4.86,0,0,0-1.4-.24,2,2,0,0,0-1.75.9,4.67,4.67,0,0,0,0,4.62,2,2,0,0,0,1.75.9,5.34,5.34,0,0,0,1.49-.23,3,3,0,0,0,.17-0.59c0-.09,0-0.18,0-0.27V112Z" transform="translate(-1.3 -5.28)"/><path class="cls-1" d="M137.8,110.28l-0.49,0h-0.55l-0.43,0V112a8.44,8.44,0,0,0,.06,1.14h1.49a5.21,5.21,0,0,0,.9-0.08,1.58,1.58,0,0,0,.22-0.39c0-.06,0-0.17.08-0.36s0.07-.3.08-0.34l0.57,0.05-0.15,1.64-0.1.11-0.56,0-0.71,0h-2.47a5.76,5.76,0,0,0-.74.05l-0.42,0-0.07-.59,0.8-.09c0-.06,0-0.18.06-0.36a2.72,2.72,0,0,0,0-.47v-4.47a2.51,2.51,0,0,0,0-.42c0-.18,0-0.31-0.06-0.41l-0.8-.12,0.05-.52,0.29,0,0.59,0h2.65q0.27,0,1.27-.1l0.1,0.11L139.5,108l-0.6.05c-0.05-.3-0.1-0.49-0.12-0.58a1.1,1.1,0,0,0-.2-0.33,6.3,6.3,0,0,0-.84-0.05h-1.35a8.27,8.27,0,0,0-.06,1.15v1.49l0.43,0h0.75a2.62,2.62,0,0,0,.62-0.09l0.09-.68,0.48,0.05c0,0.08,0,.2,0,0.34v0.49q0,0.54,0,.76l0,0.37-0.5.06-0.09-.69Z" transform="translate(-1.3 -5.28)"/><path class="cls-1" d="M145.22,109l-0.28-.44,0.63-.5,0.52-.41,0.26-.21a1.38,1.38,0,0,0,.19-0.2c0.17-.21.28-0.34,0.31-0.39l0.49,0.12,0,1q0,0.54,0,1.41V112a6.36,6.36,0,0,0,0,.77l0,0.37,0.86,0.06-0.06.57-0.57,0-1,0-0.75,0-0.34,0-0.05-.51,0.9-.12c0-.06,0-0.18.06-0.36a2.73,2.73,0,0,0,0-.47v-4Z" transform="translate(-1.3 -5.28)"/><path class="cls-1" d="M152.47,111.2a2.26,2.26,0,0,1-1.59-.57,2,2,0,0,1-.62-1.52,2.08,2.08,0,0,1,.66-1.58,2.38,2.38,0,0,1,1.72-.63,2.11,2.11,0,0,1,1.7.75,2.92,2.92,0,0,1,.64,2,5.56,5.56,0,0,1-1,3.22,4.48,4.48,0,0,1-1.35,1.27,5.84,5.84,0,0,1-1.95.77l-0.12-.47a5.38,5.38,0,0,0,1.67-.86,3.85,3.85,0,0,0,1.06-1.22,5.5,5.5,0,0,0,.69-2.73,2.92,2.92,0,0,0-.37-1.48,1.18,1.18,0,0,0-2-.17,1.88,1.88,0,0,0-.33,1.11,1.62,1.62,0,0,0,.36,1.08,1.09,1.09,0,0,0,.86.43,5.76,5.76,0,0,0,.72,0l0.07,0.49A2,2,0,0,1,152.47,111.2Z" transform="translate(-1.3 -5.28)"/><path class="cls-1" d="M157.49,106.92q1,0.09,1.34.09h2.71l0.17,0.4-3,7.44-0.81-.26,2.21-5.2q0.08-.21.45-1.63h-1.68a5.71,5.71,0,0,0-.88.06,2.3,2.3,0,0,0-.14.35l-0.05.52-0.57,0,0.1-1.64Z" transform="translate(-1.3 -5.28)"/><path class="cls-1" d="M164,112.9a5.44,5.44,0,0,1,0-5,2.28,2.28,0,0,1,3.74,0,5.44,5.44,0,0,1,0,5A2.28,2.28,0,0,1,164,112.9Zm1.87,0.36q1.46,0,1.46-2.86t-1.46-2.86q-1.46,0-1.46,2.86T165.92,113.25Z" transform="translate(-1.3 -5.28)"/><path class="cls-2" d="M176,108l-2.36,7.42a6.52,6.52,0,0,0-.22,3l0.12,0.71c0.71-1.73,2.26-6.56,3.39-9.93,1,3.31,2.51,8.32,3.24,10l0.11-.8a5.41,5.41,0,0,0-.11-2.11L177.87,108l-0.12-.43,0.3-1c0.38-1.59.49-.46,1.31-3.38a0.39,0.39,0,0,1,.11-0.26,0.12,0.12,0,0,1,.13.06l0,0h0a1.33,1.33,0,0,0,1.22.52,2.19,2.19,0,0,0,1.74-2.29,1.89,1.89,0,0,0-1.89-1.92,1.8,1.8,0,0,0-.87.34h0a3.6,3.6,0,0,0-.59.35l-0.06.16a1.29,1.29,0,0,0,0,.15,2.84,2.84,0,0,1-.11.42,12.84,12.84,0,0,1-.09,1.91,5.51,5.51,0,0,1-2.07,3.08,4.75,4.75,0,0,1-1.12-1.07,5.63,5.63,0,0,1-.59-1.1,9.79,9.79,0,0,1-.33-1,13.17,13.17,0,0,1,0-1.91,2.67,2.67,0,0,1-.09-0.42,1.35,1.35,0,0,0,0-.15l0-.17a3.53,3.53,0,0,0-.59-0.38h0a1.82,1.82,0,0,0-.87-0.38,1.88,1.88,0,0,0-1.93,1.89,2.15,2.15,0,0,0,1.61,2.33,1.47,1.47,0,0,0,1.31-.49h0l0,0a0.12,0.12,0,0,1,.13-0.06,0.41,0.41,0,0,1,.11.26c0.08,0.32.16,0.59,0.23,0.83s0.19,0.59.3,0.88a9,9,0,0,1,.87,2.07l0.18,0.66L176,108h0Zm0.81,0a0.35,0.35,0,0,1-.23-0.37l0.64,0.23a0.34,0.34,0,0,1-.41.14h0Zm-0.17-.52a0.34,0.34,0,0,1,.41-0.14,0.35,0.35,0,0,1,.23.37l-0.63-.23h0Zm-4.82-6c0-.74.3-1.77,1.12-1.82a1.75,1.75,0,0,1,1.52,1.68,1.56,1.56,0,0,1-1.14,1.79,1.7,1.7,0,0,1-1.49-1.65h0Zm10.3,0.15c0.09-.74-0.2-1.78-1-1.87a1.74,1.74,0,0,0-1.6,1.59,1.56,1.56,0,0,0,1,1.85,1.7,1.7,0,0,0,1.58-1.56h0Z" transform="translate(-1.3 -5.28)"/><line class="cls-3" x1="26.54" y1="32.87" x2="165.86" y2="1.24"/><line class="cls-3" x1="26.54" y1="116.16" x2="165.86" y2="82.23"/></svg>