<svg id="Logo_9" data-name="Logo 9" xmlns="http://www.w3.org/2000/svg" viewBox="0 0 132.29 127.71"><defs><style>.cls-1{fill:#353531;}.cls-2{fill:none;stroke:#353531;stroke-linecap:round;stroke-linejoin:round;stroke-width:2.69px;}</style></defs><title>logo-9</title><path class="cls-1" d="M32.95,52s0-.27-0.06-0.74-0.09-1.08-.15-1.86-0.12-1.66-.2-2.67-0.16-2.06-.23-3.17-0.15-2.23-.23-3.38-0.14-2.25-.2-3.29-0.1-2-.14-2.89-0.05-1.61-.05-2.19a4.8,4.8,0,0,1,.33-2,2.53,2.53,0,0,1,.79-1,2,2,0,0,1,1-.38,8.85,8.85,0,0,1,.89-0.05,3.29,3.29,0,0,1,1.28.21,1.77,1.77,0,0,1,.78.62,2.53,2.53,0,0,1,.39,1,7.67,7.67,0,0,1,.11,1.33l0.93,25.11L51.88,30.23a2.92,2.92,0,0,1,.51-1,3.82,3.82,0,0,1,.87-0.81,4.37,4.37,0,0,1,1.12-.55,4.05,4.05,0,0,1,1.27-.2,1.35,1.35,0,0,1,1.19.67,3.15,3.15,0,0,1,.43,1.74,7.14,7.14,0,0,1-.4,2Q56.46,33.4,55.8,35t-1.55,3.4q-0.89,1.82-1.85,3.7T50.46,45.8q-1,1.85-1.87,3.47a4.41,4.41,0,0,0-.38,1,4.51,4.51,0,0,0-.13,1.06,4,4,0,0,0,.32,1.56,3.7,3.7,0,0,0,1,1.35,4.85,4.85,0,0,0,1.69.94,7.6,7.6,0,0,0,2.44.35,2.23,2.23,0,0,0,.75-0.15A6,6,0,0,0,55.11,55q0.44-.24.91-0.56l0.91-.63q1-.76,2.09-1.73l-0.49,4.37A18.47,18.47,0,0,1,55,58.68a7.43,7.43,0,0,1-5.8.44A5.41,5.41,0,0,1,47.34,58a4.63,4.63,0,0,1-1.18-1.73,6.09,6.09,0,0,1-.4-2.26,8.15,8.15,0,0,1,.13-1.37,53.31,53.31,0,0,1-2.33,4.87,18.85,18.85,0,0,1-2.1,3.13,7,7,0,0,1-2,1.67,4,4,0,0,1-1.88.5,4.43,4.43,0,0,1-2.07-.42,3.3,3.3,0,0,1-1.28-1.17,5.43,5.43,0,0,1-.7-1.78,17.13,17.13,0,0,1-.32-2.24q-0.1-1.2-.14-2.53T32.95,52Z" transform="translate(-31.68 -1.31)"/><path class="cls-1" d="M68.85,57.62A18.73,18.73,0,0,1,67,59.11a20.17,20.17,0,0,1-2.44,1.46,18.64,18.64,0,0,1-2.67,1.11,8.36,8.36,0,0,1-2.59.44,4.9,4.9,0,0,1-1.85-.31A3.07,3.07,0,0,1,56.21,61a3.3,3.3,0,0,1-.67-1.34,7.09,7.09,0,0,1-.2-1.74,18.36,18.36,0,0,1,.31-3.09Q56,53,56.4,51.13t0.94-3.77q0.5-1.88.88-3.46A1.88,1.88,0,0,1,58.8,43a3.8,3.8,0,0,1,1-.63A5.58,5.58,0,0,1,61,42a5.81,5.81,0,0,1,1.09-.12,1.68,1.68,0,0,1,1.2.33,1.21,1.21,0,0,1,.32.88,6.23,6.23,0,0,1-.21,1.34q-0.21.88-.53,2l-0.68,2.39Q61.8,50,61.48,51.31T61,53.81A12.89,12.89,0,0,0,60.75,56,4.39,4.39,0,0,0,61,57.5a0.84,0.84,0,0,0,.87.56,3.48,3.48,0,0,0,1.69-.53,15,15,0,0,0,1.88-1.28q0.95-.75,1.86-1.55t1.6-1.37v4.29ZM59.42,35.91a3.55,3.55,0,0,1,.9-2.25,3.81,3.81,0,0,1,1.27-.91,4.66,4.66,0,0,1,2-.37,5.55,5.55,0,0,1,1.39.17,3.39,3.39,0,0,1,1.14.52,2.47,2.47,0,0,1,.77.92,3,3,0,0,1,.29,1.35,4.26,4.26,0,0,1-.23,1.39,3.24,3.24,0,0,1-.74,1.2,3.8,3.8,0,0,1-1.28.85,4.7,4.7,0,0,1-1.85.33,3.77,3.77,0,0,1-2.74-.88A3.13,3.13,0,0,1,59.42,35.91Z" transform="translate(-31.68 -1.31)"/><path class="cls-1" d="M67.35,57.7q0-1.39.17-3.22t0.42-3.72q0.25-1.89.57-3.64t0.61-3A3.31,3.31,0,0,1,70,42.5a2.46,2.46,0,0,1,1.8-.65,1.73,1.73,0,0,1,1.58.7,3.43,3.43,0,0,1,.44,1.86,7.67,7.67,0,0,1-.06.86q-0.06.54-.16,1.18l-0.2,1.33q-0.11.69-.2,1.27t-0.16,1a5,5,0,0,0-.06.58h0.42l0.4-.75,0.63-1.19,0.77-1.43q0.41-.75.77-1.44t0.65-1.21l0.44-.78a3.82,3.82,0,0,1,1.54-1.56,4.32,4.32,0,0,1,1.92-.42,2,2,0,0,1,1.68.89,4.21,4.21,0,0,1,.62,2.45,5.27,5.27,0,0,1-.1.78q-0.1.55-.24,1.31L82.2,48.94q-0.18.91-.33,1.86t-0.24,1.88a16.88,16.88,0,0,0-.1,1.71,6,6,0,0,0,.33,2.15,1.1,1.1,0,0,0,1,.84,1.77,1.77,0,0,0,.73-0.19,7.31,7.31,0,0,0,.89-0.5,11.27,11.27,0,0,0,1-.71q0.5-.4,1-0.82,1.12-1,2.34-2.24l0.36,4.73-1.06.8-1.76,1.31a15.64,15.64,0,0,1-1.87,1.17,11.6,11.6,0,0,1-2,.84,7.44,7.44,0,0,1-2.22.33q-1.16,0-2-1.68a11.92,11.92,0,0,1-.79-4.91,24,24,0,0,1,.17-2.73q0.17-1.47.42-3.16H77.73l-5.53,11a2.71,2.71,0,0,1-.95,1.18,2.33,2.33,0,0,1-1.22.32,2.38,2.38,0,0,1-1.39-.37,2.4,2.4,0,0,1-.81-1,4.74,4.74,0,0,1-.38-1.42A13.8,13.8,0,0,1,67.35,57.7Z" transform="translate(-31.68 -1.31)"/><path class="cls-1" d="M104.48,57.39q-2,1.18-3.61,2.07T98,60.93a16.25,16.25,0,0,1-2.19.89,6,6,0,0,1-1.74.3,4.42,4.42,0,0,1-2.83-1,7.33,7.33,0,0,1-2-2.8A17.48,17.48,0,0,1,88,53.92a37.6,37.6,0,0,1-.41-5.85q0-1.27.11-2.7T88,42.52q-0.63-.08-1-0.16l-0.74-.15-1-.16-1.74-.21a1.86,1.86,0,0,1-.78-0.24,1.14,1.14,0,0,1-.4-0.42,1.31,1.31,0,0,1-.15-0.51q0-.26,0-0.45a0.7,0.7,0,0,1,.41-0.64,3.42,3.42,0,0,1,1.06-.33,9.62,9.62,0,0,1,1.41-.12q0.77,0,1.48,0l1.27,0a4.22,4.22,0,0,0,.77,0A47.75,47.75,0,0,1,90,33.62a31.41,31.41,0,0,1,2-4.75,13.11,13.11,0,0,1,2.37-3.34,3.85,3.85,0,0,1,2.7-1.26,2.9,2.9,0,0,1,1.66.51A4.46,4.46,0,0,1,100,26.14a6.9,6.9,0,0,1,.81,2,9.62,9.62,0,0,1,.28,2.35,8.78,8.78,0,0,1-.3,2.19A16.6,16.6,0,0,1,100,35a24.85,24.85,0,0,1-1.19,2.42q-0.69,1.22-1.45,2.43l0.63,0,1,0L100.28,40,101.58,40l1.18,0,0.91,0a0.68,0.68,0,0,1,.61.42,2.36,2.36,0,0,1,.19,1,1.72,1.72,0,0,1-.42,1.2,1.24,1.24,0,0,1-.93.46H95q-0.61.84-1.23,1.66t-1.15,1.47q-0.08,1.31-.15,2.58,0,0.55,0,1.13l0,1.15q0,0.57,0,1.1t0,1a7.46,7.46,0,0,0,.21,1.92,3.43,3.43,0,0,0,.61,1.28,2.29,2.29,0,0,0,1,.72,3.61,3.61,0,0,0,1.3.22,3.81,3.81,0,0,0,1.11-.21A12.19,12.19,0,0,0,98,56.59q0.79-.37,1.67-0.88t1.73-1.11q0.86-.6,1.64-1.27A15.39,15.39,0,0,0,104.48,52v5.41ZM97.72,30.65a4.76,4.76,0,0,0,0-.52,2,2,0,0,0-.14-0.54,1,1,0,0,0-.33-0.42A1,1,0,0,0,96.6,29a1.53,1.53,0,0,0-1.11,1,14.4,14.4,0,0,0-1.08,2.48q-0.52,1.51-1,3.33t-0.83,3.53l0.63,0.07,0.65,0.07q0.63-1.08,1.32-2.33t1.23-2.47q0.55-1.21.91-2.27A5.66,5.66,0,0,0,97.72,30.65Z" transform="translate(-31.68 -1.31)"/><path class="cls-1" d="M125.9,56.94a19.74,19.74,0,0,1-1.3,1.58,16,16,0,0,1-1.83,1.73,11.4,11.4,0,0,1-2.17,1.39,5.23,5.23,0,0,1-2.32.57,3.21,3.21,0,0,1-2.32-.9,7.32,7.32,0,0,1-1.6-2.61,10.23,10.23,0,0,1-1.25,1.2A11.08,11.08,0,0,1,111.49,61a10.34,10.34,0,0,1-1.83.81,6,6,0,0,1-1.9.32,5,5,0,0,1-2-.41,5.13,5.13,0,0,1-1.7-1.18,5.78,5.78,0,0,1-1.18-1.88,6.7,6.7,0,0,1-.44-2.5,12.66,12.66,0,0,1,.44-3.25,17.69,17.69,0,0,1,1.22-3.26,18.49,18.49,0,0,1,1.85-3,14.76,14.76,0,0,1,2.33-2.47A11.37,11.37,0,0,1,111,42.51a7,7,0,0,1,2.86-.62,1.32,1.32,0,0,1,.76.19,1.91,1.91,0,0,1,.45.43L115.41,43a1,1,0,0,0,.42.34,1.93,1.93,0,0,0,.52.14,4.54,4.54,0,0,0,.54,0h0.95a2.64,2.64,0,0,1,.59.06,1,1,0,0,1,.49.27,1.4,1.4,0,0,1,.33.59,3.68,3.68,0,0,1,.12,1,13.46,13.46,0,0,1-.21,2.25q-0.21,1.23-.46,2.53t-0.46,2.6a15.27,15.27,0,0,0-.21,2.46,5.3,5.3,0,0,0,.18,1.55,0.74,0.74,0,0,0,.77.56,2.23,2.23,0,0,0,.93-0.22,5.71,5.71,0,0,0,1-.58,11.09,11.09,0,0,0,1-.81q0.5-.45.94-0.94a32.25,32.25,0,0,0,2.09-2.58Zm-18-1.67a7,7,0,0,0,.07,1,3.08,3.08,0,0,0,.26.89,1.75,1.75,0,0,0,.51.63,1.28,1.28,0,0,0,.8.24,1.9,1.9,0,0,0,1.41-.68,6.53,6.53,0,0,0,1.1-1.63,11.69,11.69,0,0,0,.75-2,12.08,12.08,0,0,0,.37-1.69l1.29-6.21a3.59,3.59,0,0,0-1.69.43,6.3,6.3,0,0,0-1.55,1.17,10.51,10.51,0,0,0-1.34,1.69,13.1,13.1,0,0,0-1.05,2,12.61,12.61,0,0,0-.69,2.1A8.87,8.87,0,0,0,107.87,55.27Z" transform="translate(-31.68 -1.31)"/><path class="cls-1" d="M133,59.9a11.11,11.11,0,0,1-2.37,1.64,5.32,5.32,0,0,1-2.4.62,5,5,0,0,1-2-.41,5.13,5.13,0,0,1-1.7-1.18,5.78,5.78,0,0,1-1.18-1.88,6.69,6.69,0,0,1-.44-2.5,12.62,12.62,0,0,1,.44-3.25,17.76,17.76,0,0,1,1.22-3.26,18.5,18.5,0,0,1,1.85-3,14.8,14.8,0,0,1,2.33-2.47,11.38,11.38,0,0,1,2.67-1.68,7,7,0,0,1,2.86-.62,1.31,1.31,0,0,1,.76.19,1.91,1.91,0,0,1,.46.43L135.86,43a1,1,0,0,0,.42.34,1.92,1.92,0,0,0,.52.14,4.54,4.54,0,0,0,.54,0h1a2.63,2.63,0,0,1,.59.06,1,1,0,0,1,.49.27,1.4,1.4,0,0,1,.33.59,3.64,3.64,0,0,1,.12,1c0,0.37,0,.86-0.08,1.48s-0.13,1.31-.23,2.07-0.21,1.57-.33,2.42-0.24,1.69-.37,2.5q-0.44,2.91-1,6.23a15.69,15.69,0,0,0,1.37-.89,14.42,14.42,0,0,0,1.65-1.41q0.91-.89,2-2.23t2.51-3.35l1,4.69a8.67,8.67,0,0,1-1,1.34q-0.6.69-1.33,1.37T142.52,61q-0.79.64-1.55,1.21-1.79,1.35-3.86,2.62-0.4,2.26-1,4.4a32.48,32.48,0,0,1-1.3,4,22.65,22.65,0,0,1-1.71,3.43A12.56,12.56,0,0,1,131,79.34a9.16,9.16,0,0,1-2.71,1.74,8.56,8.56,0,0,1-3.31.62,9,9,0,0,1-1.55-.15,4.27,4.27,0,0,1-1.54-.59,3.46,3.46,0,0,1-1.17-1.27,4.47,4.47,0,0,1-.46-2.2,5.77,5.77,0,0,1,.48-2.14A15.68,15.68,0,0,1,122,72.85a29.68,29.68,0,0,1,2-2.75q1.16-1.43,2.52-2.84t2.85-2.79q1.49-1.37,3-2.62ZM125.2,77.66a3,3,0,0,0,1.68-.52,6.12,6.12,0,0,0,1.46-1.36,11.63,11.63,0,0,0,1.21-1.92,21.3,21.3,0,0,0,1-2.21q0.42-1.13.72-2.21t0.46-1.92A15.46,15.46,0,0,0,130,68.83q-0.86.76-1.67,1.64t-1.54,1.81q-0.73.93-1.28,1.78a11,11,0,0,0-.87,1.59,3.27,3.27,0,0,0-.32,1.22A0.72,0.72,0,0,0,125.2,77.66Zm3.12-22.38a7,7,0,0,0,.07,1,3,3,0,0,0,.26.89,1.75,1.75,0,0,0,.51.63,1.28,1.28,0,0,0,.8.24,1.9,1.9,0,0,0,1.41-.68,6.59,6.59,0,0,0,1.1-1.63,11.77,11.77,0,0,0,.75-2,12,12,0,0,0,.37-1.69l1.29-6.21a3.59,3.59,0,0,0-1.69.43,6.32,6.32,0,0,0-1.55,1.17,10.51,10.51,0,0,0-1.34,1.69,13.1,13.1,0,0,0-1.05,2,12.53,12.53,0,0,0-.69,2.1A8.87,8.87,0,0,0,128.32,55.27Z" transform="translate(-31.68 -1.31)"/><path class="cls-1" d="M151,62.12a7.9,7.9,0,0,1-3.47-.72A7.19,7.19,0,0,1,145,59.47a8.24,8.24,0,0,1-1.49-2.81,11.21,11.21,0,0,1-.5-3.35,14.93,14.93,0,0,1,.94-5.09,13.53,13.53,0,0,1,1.19-2.42,9.59,9.59,0,0,1,1.68-2A7.75,7.75,0,0,1,149,42.38a6.59,6.59,0,0,1,2.65-.52,6.2,6.2,0,0,1,2.2.38,5.35,5.35,0,0,1,1.76,1.07A4.82,4.82,0,0,1,156.8,45a5.4,5.4,0,0,1,.42,2.17,5.9,5.9,0,0,1-.64,2.62,9.52,9.52,0,0,1-1.79,2.47,12.6,12.6,0,0,1-2.71,2.07,14.52,14.52,0,0,1-3.41,1.41,6.8,6.8,0,0,0,.62,1,2.87,2.87,0,0,0,.62.59,2.07,2.07,0,0,0,.67.3,3.15,3.15,0,0,0,.75.08,7.86,7.86,0,0,0,2.67-.51,17.4,17.4,0,0,0,2.73-1.27,23.17,23.17,0,0,0,2.51-1.66,21.63,21.63,0,0,0,2-1.7L164,55.34a27.82,27.82,0,0,1-3.95,3.4c-0.6.42-1.26,0.84-2,1.25a17.58,17.58,0,0,1-2.2,1.09,15.21,15.21,0,0,1-2.38.76A11.09,11.09,0,0,1,151,62.12Zm-2.81-9.92a4.17,4.17,0,0,0,1.66-.39,7.39,7.39,0,0,0,1.67-1,7,7,0,0,0,1.3-1.33,2.37,2.37,0,0,0,.53-1.39,3.15,3.15,0,0,0-.35-1.56,1,1,0,0,0-.86-0.61,3.29,3.29,0,0,0-1.55.34,3.35,3.35,0,0,0-1.08.88,4.53,4.53,0,0,0-.7,1.22,8.21,8.21,0,0,0-.4,1.38,10.3,10.3,0,0,0-.18,1.35C148.2,51.51,148.18,51.88,148.18,52.19Z" transform="translate(-31.68 -1.31)"/><path class="cls-1" d="M71,14.42L73,17c-0.4.31-.59,0.47-1,0.79l-4.91-5.93c0.47-.39.7-0.58,1.18-0.95l2,2.59c0.53-.41.81-0.61,1.35-1l-1.9-2.66C70.25,9.48,70.5,9.31,71,9l4.26,6.41-1,.71-1.89-2.66C71.8,13.82,71.54,14,71,14.42Z" transform="translate(-31.68 -1.31)"/><path class="cls-1" d="M76.6,12.48c0.24,0.68.37,1,.62,1.69-0.44.26-.66,0.39-1.1,0.66-1.16-2.9-1.69-4.38-2.65-7.39,0.7-.41,1.06-0.6,1.78-1,2,2.43,3,3.68,4.76,6.23l-1.15.57-1.08-1.43C77.31,12.08,77.07,12.21,76.6,12.48Zm-1.41-4c0.4,1.17.61,1.75,1,2.9l0.86-.47C76.34,9.95,76,9.46,75.19,8.5Z" transform="translate(-31.68 -1.31)"/><path class="cls-1" d="M79.32,4.59c1.49,1.64,2.19,2.48,3.52,4.2L81.13,3.91l1.37-.46,2.33,7.34-1.23.41c-1.29-1.64-2-2.44-3.41-4l1.85,4.57-1.12.47-3.12-7C78.42,5,78.72,4.83,79.32,4.59Z" transform="translate(-31.68 -1.31)"/><path class="cls-1" d="M89.19,7.82a1.78,1.78,0,0,1-.31,1.38,1.93,1.93,0,0,1-1.2.81c-0.73.17-1.1,0.27-1.82,0.47l-2.13-7.4c0.87-.25,1.31-0.36,2.19-0.57a2.3,2.3,0,0,1,1.67.19,1.61,1.61,0,0,1,.87,1.15ZM86.74,9.06l0.72-.18a0.69,0.69,0,0,0,.44-0.3,0.64,0.64,0,0,0,.1-0.5L87.16,4.14a0.59,0.59,0,0,0-.33-0.41,0.82,0.82,0,0,0-.59-0.07l-0.82.2Z" transform="translate(-31.68 -1.31)"/><path class="cls-1" d="M92.43,9.31A2,2,0,0,1,91,8.94a1.77,1.77,0,0,1-.75-1.2L89.63,3.59a1.59,1.59,0,0,1,.45-1.39,2.35,2.35,0,0,1,1.52-.73,2.32,2.32,0,0,1,1.64.4A1.61,1.61,0,0,1,94,3.13L94,4l-1.4.1-0.08-.9a0.59,0.59,0,0,0-.28-0.45,0.85,0.85,0,0,0-.58-0.14,0.83,0.83,0,0,0-.54.26,0.59,0.59,0,0,0-.17.5l0.52,4.18a0.63,0.63,0,0,0,.26.44,0.71,0.71,0,0,0,.52.14,0.72,0.72,0,0,0,.48-0.24,0.62,0.62,0,0,0,.17-0.49L92.82,6.35l1.32-.09L94.2,7.33a1.77,1.77,0,0,1-.49,1.33A2,2,0,0,1,92.43,9.31Z" transform="translate(-31.68 -1.31)"/><path class="cls-1" d="M97.3,1.32a2.33,2.33,0,0,1,1.72.6,1.7,1.7,0,0,1,.4,1.33L99.35,4.36a1.76,1.76,0,0,1-.79,1.34c0.31,1.36.46,2,.71,3.41L98,9c-0.24-1.17-.37-1.75-0.66-2.92H96.47c0,1.16,0,1.74,0,2.9L95.28,9C95.18,5.95,95.14,4.41,95,1.33,95.95,1.3,96.4,1.3,97.3,1.32Zm0.78,1.88a0.65,0.65,0,0,0-.77-0.69H96.48c0,1,0,1.48,0,2.46h0.79a0.79,0.79,0,0,0,.54-0.18A0.62,0.62,0,0,0,98,4.32Z" transform="translate(-31.68 -1.31)"/><path class="cls-1" d="M102,7.62c-0.22.68-.33,1-0.53,1.71l-1.23-.14c0.84-3,1.32-4.51,2.37-7.47,0.78,0.11,1.17.17,1.95,0.31,0.08,3.14.07,4.71-.06,7.83l-1.23-.24c0-.72,0-1.07,0-1.79Zm1.3-4c-0.39,1.17-.58,1.75-0.94,2.93l0.94,0.15C103.3,5.45,103.3,4.84,103.29,3.61Z" transform="translate(-31.68 -1.31)"/><path class="cls-1" d="M106.63,10.39l-1.16-.3,1.82-7.48a38.22,38.22,0,0,1,3.94,1.15l-0.38,1.1c-1-.34-1.48-0.49-2.48-0.77l-0.56,2c0.7,0.19,1,.3,1.73.52l-0.36,1.11c-0.67-.22-1-0.32-1.69-0.51Z" transform="translate(-31.68 -1.31)"/><path class="cls-1" d="M113.18,5.72c-0.56-.23-0.84-0.33-1.4-0.54l0.4-1.1a38.13,38.13,0,0,1,4.19,1.77l-0.51,1.05c-0.54-.26-0.82-0.39-1.37-0.63l-2.63,6-1.12-.47Z" transform="translate(-31.68 -1.31)"/><path class="cls-1" d="M113.9,13.23l3.52-6.85a38.2,38.2,0,0,1,3.65,2.09l-0.63,1c-0.9-.57-1.36-0.85-2.29-1.36l-1,1.84c0.65,0.36,1,.55,1.6.93l-0.61,1c-0.62-.38-0.93-0.56-1.56-0.91l-1,1.84c0.82,0.45,1.22.69,2,1.2l-0.63,1A31.79,31.79,0,0,0,113.9,13.23Z" transform="translate(-31.68 -1.31)"/><path class="cls-1" d="M122,16.36a1.74,1.74,0,0,1-1.29.63,2.1,2.1,0,0,1-1.44-.43c-0.63-.47-1-0.7-1.6-1.13L121.92,9c0.78,0.52,1.16.79,1.92,1.36a2.49,2.49,0,0,1,1,1.45,1.58,1.58,0,0,1-.29,1.43Zm-2.64-1.16L120,15.67a0.74,0.74,0,0,0,.54.15,0.63,0.63,0,0,0,.46-0.24l2.47-3.19a0.58,0.58,0,0,0,.1-0.52,0.89,0.89,0,0,0-.35-0.51l-0.71-.52Z" transform="translate(-31.68 -1.31)"/><path class="cls-1" d="M34.06,78l0.22-.15,0.36-.24,0.45-.31L35.57,77l0-.34A11.65,11.65,0,0,1,36,74.75a10.12,10.12,0,0,1,.58-1.58,7.28,7.28,0,0,1,.72-1.24,5.66,5.66,0,0,1,.8-0.89,3.25,3.25,0,0,1,.8-0.53,1.82,1.82,0,0,1,.74-0.18,1.1,1.1,0,0,1,.46.09,1,1,0,0,1,.36.28,1.42,1.42,0,0,1,.23.47,2.33,2.33,0,0,1,.08.66,3.67,3.67,0,0,1-.14,1,5.69,5.69,0,0,1-.4,1,8.11,8.11,0,0,1-.62,1,9.63,9.63,0,0,1-.8,1,9.92,9.92,0,0,1-.94.91,8.58,8.58,0,0,1-1.05.76c0,0.2,0,.36,0,0.48s0,0.21,0,.27,0,0.1,0,.13v0.06a0.19,0.19,0,0,0,0,.08,0.13,0.13,0,0,0,.07.06l0.14,0h0.24a2.31,2.31,0,0,0,.6-0.11l1.67-.48,0.08,0h0.07a0.43,0.43,0,0,1,.36.17,0.58,0.58,0,0,1,.09.18,0.78,0.78,0,0,1,0,.21,0.64,0.64,0,0,1,0,.19A0.62,0.62,0,0,1,40,79a0.59,0.59,0,0,1-.15.14,0.52,0.52,0,0,1-.21.08q-0.49.19-1,.35l-0.46.13-0.49.11-0.51.08-0.5,0a1.27,1.27,0,0,1-.61-0.13,1,1,0,0,1-.37-0.34,1.45,1.45,0,0,1-.19-0.5,3.18,3.18,0,0,1-.06-0.6q-0.43.31-.73,0.5a1.12,1.12,0,0,1-.38.18A0.27,0.27,0,0,1,34.21,79a0.62,0.62,0,0,1-.14-0.15,0.8,0.8,0,0,1-.1-0.21,0.76,0.76,0,0,1,0-.23,0.78,0.78,0,0,1,0-.19A0.24,0.24,0,0,1,34.06,78Zm2.83-1.75,0.53-.58q0.28-.31.55-0.65t0.52-.7q0.25-.36.45-0.71A5.88,5.88,0,0,0,39.29,73a2.56,2.56,0,0,0,.18-0.63c0-.07,0-0.13,0-0.19s0-.12,0-0.17a0.85,0.85,0,0,0-.08-0.41,0.24,0.24,0,0,0-.21-0.13,0.65,0.65,0,0,0-.37.17,2.57,2.57,0,0,0-.45.48,6.07,6.07,0,0,0-.47.75,7.89,7.89,0,0,0-.44,1A9.7,9.7,0,0,0,37.1,75,9,9,0,0,0,36.89,76.29Z" transform="translate(-31.68 -1.31)"/><path class="cls-1" d="M45.64,78.45a4.52,4.52,0,0,1-.31.37,3.72,3.72,0,0,1-.43.41,2.7,2.7,0,0,1-.51.33,1.24,1.24,0,0,1-.55.13,0.76,0.76,0,0,1-.55-0.21,1.73,1.73,0,0,1-.38-0.62,2.35,2.35,0,0,1-.29.28,2.59,2.59,0,0,1-.38.26,2.5,2.5,0,0,1-.43.19,1.42,1.42,0,0,1-.45.07,1.18,1.18,0,0,1-.47-0.1,1.21,1.21,0,0,1-.4-0.28,1.36,1.36,0,0,1-.28-0.44,1.58,1.58,0,0,1-.1-0.59,3,3,0,0,1,.1-0.77,4.23,4.23,0,0,1,.29-0.77A4.38,4.38,0,0,1,40.93,76a3.48,3.48,0,0,1,.55-0.58,2.68,2.68,0,0,1,.63-0.4,1.65,1.65,0,0,1,.68-0.15,0.31,0.31,0,0,1,.18,0,0.46,0.46,0,0,1,.11.1l0.08,0.11a0.23,0.23,0,0,0,.1.08l0.12,0h0.35l0.14,0a0.24,0.24,0,0,1,.11.06,0.33,0.33,0,0,1,.08.14,0.88,0.88,0,0,1,0,.25,3.18,3.18,0,0,1,0,.53c0,0.19-.07.39-0.11,0.6s-0.08.41-.11,0.61a3.63,3.63,0,0,0,0,.58,1.25,1.25,0,0,0,0,.37,0.17,0.17,0,0,0,.18.13,0.54,0.54,0,0,0,.22-0.05,1.39,1.39,0,0,0,.23-0.14l0.23-.19L44.91,78a7.74,7.74,0,0,0,.49-0.61Zm-4.26-.39a1.63,1.63,0,0,0,0,.24,0.71,0.71,0,0,0,.06.21,0.41,0.41,0,0,0,.12.15,0.3,0.3,0,0,0,.19.06,0.45,0.45,0,0,0,.33-0.16,1.56,1.56,0,0,0,.26-0.38,3,3,0,0,0,.26-0.86l0.3-1.47a0.85,0.85,0,0,0-.4.1,1.5,1.5,0,0,0-.37.28,2.51,2.51,0,0,0-.32.4,3.16,3.16,0,0,0-.25.47,3,3,0,0,0-.16.5A2.07,2.07,0,0,0,41.38,78.06Z" transform="translate(-31.68 -1.31)"/><path class="cls-1" d="M46.67,75.66a4.94,4.94,0,0,1,.51-0.56,0.69,0.69,0,0,1,.46-0.21,1,1,0,0,1,.52.13,1.24,1.24,0,0,1,.39.34,1.59,1.59,0,0,1,.24.49,2,2,0,0,1,.08.58c0,0.17,0,.33,0,0.48a3,3,0,0,1-.07.44,2.65,2.65,0,0,1-.14.43,2.92,2.92,0,0,1-.24.44l0.36-.2,0.37-.22,0.38-.27a4.23,4.23,0,0,0,.39-0.35L50.29,78a4.85,4.85,0,0,1-.55.43,4.35,4.35,0,0,1-.56.32,4.8,4.8,0,0,1-.6.24q-0.31.1-.66,0.18a1.12,1.12,0,0,1-.23.17l-0.29.16L47,79.67H46.92a3.09,3.09,0,0,1-.84-0.12,6.38,6.38,0,0,1-.76-0.26,5.91,5.91,0,0,1-.75-0.38q0-.4.06-0.91c0-.29.06-0.64,0.11-1s0.11-.84.19-1.33c0.05-.33.12-0.69,0.2-1.09s0.17-.81.28-1.22,0.23-.81.36-1.2a6.94,6.94,0,0,1,.45-1,2.88,2.88,0,0,1,.54-0.73,0.9,0.9,0,0,1,.63-0.27,1.24,1.24,0,0,1,.61.13,0.91,0.91,0,0,1,.35.35,1.44,1.44,0,0,1,.17.52,4.87,4.87,0,0,1,0,.64,3,3,0,0,1-.18,1,6.22,6.22,0,0,1-.46,1,10,10,0,0,1-.64,1q-0.35.48-.7,0.9ZM47.12,76a0.91,0.91,0,0,0-.35.07,1,1,0,0,0-.32.22,1.45,1.45,0,0,0-.26.39,2.09,2.09,0,0,0-.17.57c0,0.18-.05.34-0.07,0.5s0,0.29,0,.4l0,0.37,0.33,0.08,0.3,0.05,0.3,0a0.52,0.52,0,0,0,.31-0.1,1,1,0,0,0,.25-0.27A1.88,1.88,0,0,0,47.54,78a3.2,3.2,0,0,0,.13-0.45c0-.16.06-0.31,0.08-0.46a3.86,3.86,0,0,0,0-.42,1,1,0,0,0,0-.24,0.47,0.47,0,0,0-.1-0.2,0.5,0.5,0,0,0-.2-0.14A0.84,0.84,0,0,0,47.12,76Zm0.49-4.57a0.85,0.85,0,0,0,0-.08,0.55,0.55,0,0,0,0-.13,0.41,0.41,0,0,0-.08-0.12,0.17,0.17,0,0,0-.13-0.05,0.28,0.28,0,0,0-.21.14,1.92,1.92,0,0,0-.21.38,5.79,5.79,0,0,0-.2.56c-0.07.21-.13,0.43-0.19,0.66s-0.12.47-.18,0.71l-0.15.68q-0.07.32-.12,0.59L46,75.21q0.13-.26.3-0.54l0.34-.58c0.11-.2.22-0.41,0.33-0.62s0.21-.43.29-0.65a5.48,5.48,0,0,0,.22-0.67A3.94,3.94,0,0,0,47.61,71.45Z" transform="translate(-31.68 -1.31)"/><path class="cls-1" d="M51.48,79.67a1.87,1.87,0,0,1-.82-0.17A1.7,1.7,0,0,1,50.07,79a2,2,0,0,1-.35-0.66,2.63,2.63,0,0,1-.12-0.79A3.42,3.42,0,0,1,49.66,77a3.46,3.46,0,0,1,.17-0.61,3.23,3.23,0,0,1,.28-0.57,2.29,2.29,0,0,1,.4-0.48A1.84,1.84,0,0,1,51,75a1.56,1.56,0,0,1,.63-0.12,1.47,1.47,0,0,1,.52.09,1.26,1.26,0,0,1,.42.25,1.15,1.15,0,0,1,.28.39,1.28,1.28,0,0,1,.1.51,1.39,1.39,0,0,1-.15.62,2.24,2.24,0,0,1-.42.58,3,3,0,0,1-.64.49,3.37,3.37,0,0,1-.81.33,1.56,1.56,0,0,0,.15.22,0.65,0.65,0,0,0,.15.14,0.47,0.47,0,0,0,.16.07l0.18,0a1.86,1.86,0,0,0,.63-0.12,4.11,4.11,0,0,0,.65-0.3,5.38,5.38,0,0,0,.59-0.39,5.18,5.18,0,0,0,.47-0.4l0.64,0.67a6.5,6.5,0,0,1-.93.8l-0.46.29a4.2,4.2,0,0,1-.52.26,3.56,3.56,0,0,1-.56.18A2.62,2.62,0,0,1,51.48,79.67Zm-0.66-2.35a1,1,0,0,0,.39-0.09A1.74,1.74,0,0,0,51.6,77a1.66,1.66,0,0,0,.31-0.31A0.56,0.56,0,0,0,52,76.36,0.74,0.74,0,0,0,51.95,76a0.24,0.24,0,0,0-.2-0.14,0.77,0.77,0,0,0-.37.08,0.78,0.78,0,0,0-.25.21,1.08,1.08,0,0,0-.16.29,2,2,0,0,0-.1.33,2.45,2.45,0,0,0,0,.32C50.82,77.17,50.81,77.26,50.81,77.33Z" transform="translate(-31.68 -1.31)"/><path class="cls-1" d="M54.83,79.67a0.69,0.69,0,0,1-.5-0.24,2.09,2.09,0,0,1-.4-0.64,4.35,4.35,0,0,1-.27-0.93,6.08,6.08,0,0,1-.1-1.11,7.81,7.81,0,0,1,.06-1q0.06-.52.19-1.08t0.3-1.11a11.21,11.21,0,0,1,.39-1.07,9.07,9.07,0,0,1,.47-1,5.18,5.18,0,0,1,.53-0.78,2.49,2.49,0,0,1,.58-0.52,1.15,1.15,0,0,1,.62-0.19,0.61,0.61,0,0,1,.35.1,0.68,0.68,0,0,1,.22.26,1.25,1.25,0,0,1,.11.36,2.55,2.55,0,0,1,0,.41,4.44,4.44,0,0,1-.11,1,7.37,7.37,0,0,1-.29,1q-0.18.49-.42,1c-0.16.33-.33,0.66-0.5,1l-0.52,1q-0.26.47-.49,0.92L55,77.13,55,77.3l0,0.2c0,0.07,0,.14,0,0.2v0.07a1.17,1.17,0,0,0,0,.25,1.46,1.46,0,0,0,.07.22,0.67,0.67,0,0,0,.08.15,0.12,0.12,0,0,0,.08.06,0.72,0.72,0,0,0,.22,0l0.26-.11,0.28-.15L56.2,78q0.31-.21.66-0.48l0.41,1a10.23,10.23,0,0,1-.88.57L56,79.32l-0.41.18a3,3,0,0,1-.4.13A1.51,1.51,0,0,1,54.83,79.67Zm0-4q0.22-.4.48-0.9t0.48-1q0.22-.53.39-1.06a5,5,0,0,0,.21-1c0-.1,0-0.18,0-0.25s0-.1,0-0.1a0.45,0.45,0,0,0-.31.19,2.47,2.47,0,0,0-.33.51,5.94,5.94,0,0,0-.32.74,9.59,9.59,0,0,0-.46,1.89A7.24,7.24,0,0,0,54.83,75.68Z" transform="translate(-31.68 -1.31)"/><path class="cls-1" d="M56.43,77.76l0.45-.4,0.3-.29,0.23-.27,0.24-.32L58,76l0.52-.67,0.14-.17A1.1,1.1,0,0,1,58.83,75,0.94,0.94,0,0,1,59,74.93a0.77,0.77,0,0,1,.26,0,1,1,0,0,1,.37.05,0.46,0.46,0,0,1,.19.13,0.31,0.31,0,0,1,.07.16,1.17,1.17,0,0,1,0,.14,0.49,0.49,0,0,1-.1.26,2.7,2.7,0,0,1-.21.28l-0.22.25a0.51,0.51,0,0,0-.12.17,1.6,1.6,0,0,0,0,.28,2.07,2.07,0,0,0,.06.25l0.08,0.26c0,0.09.05,0.2,0.08,0.32a3.92,3.92,0,0,1,.06.41c0,0.16,0,.34,0,0.55A3,3,0,0,1,60,78.18l0.43-.2,0.46-.23a3.73,3.73,0,0,0,.48-0.31v1.12a4.59,4.59,0,0,1-.72.45,7,7,0,0,1-.85.37,6.52,6.52,0,0,1-.9.25,4.37,4.37,0,0,1-.87.09,2.63,2.63,0,0,1-.55-0.05,1.42,1.42,0,0,1-.45-0.17,1,1,0,0,1-.31-0.31,1,1,0,0,1-.14-0.46l-0.14,0H56.18a0.25,0.25,0,0,1-.12,0A0.22,0.22,0,0,1,56,78.6a0.56,0.56,0,0,1,0-.21A0.43,0.43,0,0,1,56,78.17,0.86,0.86,0,0,1,56.15,78l0.16-.14Zm0.64,0.64a0.2,0.2,0,0,1,.13.07l0.17,0.17a1.27,1.27,0,0,0,.22.17,0.54,0.54,0,0,0,.28.07,0.71,0.71,0,0,0,.32-0.06,0.54,0.54,0,0,0,.2-0.17,0.68,0.68,0,0,0,.1-0.25,1.43,1.43,0,0,0,0-.3,2.19,2.19,0,0,0,0-.27c0-.09,0-0.18,0-0.27s0-.16-0.06-0.24l-0.06-.19Z" transform="translate(-31.68 -1.31)"/><path class="cls-1" d="M65.33,75.4q-0.09-.17-0.2-0.41t-0.19-.49A4.93,4.93,0,0,1,64.8,74a2.33,2.33,0,0,1-.06-0.5,1.8,1.8,0,0,1,.17-0.77A2.22,2.22,0,0,1,65.39,72a2.28,2.28,0,0,1,.68-0.45,2,2,0,0,1,.82-0.17,2,2,0,0,1,.67.11,1.57,1.57,0,0,1,.53.31,1.4,1.4,0,0,1,.46,1.06,2,2,0,0,1-.1.59,2.36,2.36,0,0,1-.31.62,3.7,3.7,0,0,1-.55.63,5.1,5.1,0,0,1-.82.61c0,0.08.11,0.2,0.2,0.35l0.32,0.51,0.37,0.59L68,77.39a0.8,0.8,0,0,0,.17-0.15,0.59,0.59,0,0,0,.13-0.32c0-.05,0-0.11,0-0.17a1,1,0,0,0,0-.32,1.22,1.22,0,0,0-.13-0.26l-0.2-.28a4.36,4.36,0,0,1-.25-0.36l0,0,0.06-.05,0.06-.05,0,0a0.6,0.6,0,0,1,.21.06,2.06,2.06,0,0,1,.3.17,3.29,3.29,0,0,1,.34.27,2.23,2.23,0,0,1,.31.35,2,2,0,0,1,.23.42,1.28,1.28,0,0,1,.09.47,1.39,1.39,0,0,1-.17.63,2.12,2.12,0,0,1-.57.65l0.1,0.07,0.2,0.16,0.23,0.18,0.17,0.14a0.27,0.27,0,0,1,.08.2,0.55,0.55,0,0,1-.07.25,1.07,1.07,0,0,1-.17.25,1,1,0,0,1-.23.19,0.49,0.49,0,0,1-.25.08,0.31,0.31,0,0,1-.2-0.08l-0.19-.18-0.24-.26-0.21-.24L67.77,79a2.83,2.83,0,0,1-.54.32,4.2,4.2,0,0,1-.63.22,3.19,3.19,0,0,1-.84.1,3.83,3.83,0,0,1-1.07-.13,2.36,2.36,0,0,1-.77-0.37,1.57,1.57,0,0,1-.47-0.55A1.47,1.47,0,0,1,63.3,78a1.83,1.83,0,0,1,.13-0.65,2.7,2.7,0,0,1,.38-0.67A4,4,0,0,1,64.44,76,5.5,5.5,0,0,1,65.33,75.4Zm0.47,3.27a1.86,1.86,0,0,0,.63-0.11A2.88,2.88,0,0,0,67,78.27l-0.38-.47c-0.11-.14-0.22-0.29-0.32-0.44S66.1,77,66,76.84s-0.24-.42-0.39-0.68a3.34,3.34,0,0,0-.43.38,2.62,2.62,0,0,0-.32.41,1.93,1.93,0,0,0-.2.42,1.3,1.3,0,0,0-.07.4,0.85,0.85,0,0,0,.07.35,0.75,0.75,0,0,0,.22.28,1.12,1.12,0,0,0,.38.19A1.87,1.87,0,0,0,65.81,78.67Zm1.14-6.18a0.52,0.52,0,0,0-.23.07,0.92,0.92,0,0,0-.24.19,1.06,1.06,0,0,0-.19.28,0.83,0.83,0,0,0-.07.35,2,2,0,0,0,0,.39c0,0.15.07,0.3,0.11,0.44s0.08,0.26.11,0.36a0.51,0.51,0,0,0,.06.15L67,74.29a3,3,0,0,0,.34-0.41,1.9,1.9,0,0,0,.22-0.41A1.25,1.25,0,0,0,67.61,73a0.73,0.73,0,0,0,0-.22,0.4,0.4,0,0,0-.11-0.17,0.5,0.5,0,0,0-.2-0.11A1.17,1.17,0,0,0,66.94,72.49Z" transform="translate(-31.68 -1.31)"/><path class="cls-1" d="M76.31,73.63V73.7a0.26,0.26,0,0,1-.05.13,0.42,0.42,0,0,1-.16.13,0.76,0.76,0,0,1-.33.05,2.45,2.45,0,0,1-.45,0,0.61,0.61,0,0,1-.24-0.09A0.23,0.23,0,0,1,75,73.75a0.62,0.62,0,0,1,0-.15,2.16,2.16,0,0,1,.37-1.27,2.77,2.77,0,0,1,1.05-.87A5.73,5.73,0,0,1,78,71a12.58,12.58,0,0,1,2.09-.16q0.76,0,1.59,0T83.39,71a0.64,0.64,0,0,1,.35.2,0.45,0.45,0,0,1,.1.27,0.79,0.79,0,0,1,0,.2,0.74,0.74,0,0,1-.08.2,0.44,0.44,0,0,1-.15.15,0.41,0.41,0,0,1-.22.06H83.27l-0.7-.1-0.79-.07-0.86,0H79.71l-0.36,0-0.41,0a0.87,0.87,0,0,1,0,.13l0,0.19,0,0.32-0.07.5q0,0.31-.09.74t-0.11,1h2.77a0.31,0.31,0,0,1,.18,0,0.29,0.29,0,0,1,.09.12,0.47,0.47,0,0,1,0,.15c0,0.06,0,.11,0,0.16a0.53,0.53,0,0,1-.1.36,0.29,0.29,0,0,1-.21.12H81.12l-0.47,0-0.61,0-0.65,0-0.57,0H78.43q-0.09.6-.2,1.16a7.94,7.94,0,0,1-.29,1,5.13,5.13,0,0,1-.41.89,2.77,2.77,0,0,1-.56.68,2.37,2.37,0,0,1-.75.44,2.8,2.8,0,0,1-1,.16H75l-0.33,0-0.35-.09A1.44,1.44,0,0,1,74,80a0.83,0.83,0,0,1-.22-0.2,0.42,0.42,0,0,1-.08-0.26,0.81,0.81,0,0,1,0-.2,1,1,0,0,1,.1-0.24,0.74,0.74,0,0,1,.17-0.2,0.38,0.38,0,0,1,.25-0.08,1.19,1.19,0,0,1,.35.05L75,79l0.4,0.12a1.57,1.57,0,0,0,.41.05,0.49,0.49,0,0,0,.32-0.13,1.45,1.45,0,0,0,.29-0.36,4,4,0,0,0,.26-0.54q0.12-.31.23-0.67t0.2-.76c0.06-.26.12-0.53,0.17-0.79H76.64l-0.21,0-0.24-.07A0.59,0.59,0,0,1,76,75.72a0.27,0.27,0,0,1-.08-0.2,0.31,0.31,0,0,1,0-.16,0.26,0.26,0,0,1,.15-0.11l0.49-.1L77,75.07,77.26,75l0.23,0q0.12-.53.19-0.93t0.12-.72l0.1-.61q0-.28.1-0.6a3.72,3.72,0,0,0-.75.3,2.52,2.52,0,0,0-.53.37,1.39,1.39,0,0,0-.31.42A1,1,0,0,0,76.31,73.63Z" transform="translate(-31.68 -1.31)"/><path class="cls-1" d="M80.55,78.63c0-.15,0-0.32,0-0.51s0-.4.07-0.62,0.06-.44.1-0.66,0.08-.44.12-0.64,0.09-.39.13-0.56a3.53,3.53,0,0,1,.13-0.42A1,1,0,0,1,81.2,75a0.35,0.35,0,0,1,.09-0.1,0.29,0.29,0,0,1,.13,0h0.39a0.16,0.16,0,0,1,.11.06,0.27,0.27,0,0,1,0,.14c0,0.06,0,.14,0,0.25v0.45c0,0.17,0,.35,0,0.52H82l0.22-.45a2.91,2.91,0,0,1,.29-0.46A1.71,1.71,0,0,1,82.93,75a0.82,0.82,0,0,1,.48-0.15,0.54,0.54,0,0,1,.18,0,0.47,0.47,0,0,1,.16.09,0.44,0.44,0,0,1,.11.15,0.47,0.47,0,0,1,0,.2,1.57,1.57,0,0,1,0,.24l-0.05.32-0.06.32a1.74,1.74,0,0,0,0,.26,1.08,1.08,0,0,0,0,.3,0.55,0.55,0,0,0,.09.19,0.33,0.33,0,0,0,.13.1,0.4,0.4,0,0,0,.15,0,1.2,1.2,0,0,0,.46-0.1,3,3,0,0,0,.44-0.22,4.19,4.19,0,0,0,.46-0.33l-0.07,1.17-0.29.19-0.35.2a2.56,2.56,0,0,1-.39.15,1.38,1.38,0,0,1-.41.06,1.07,1.07,0,0,1-.6-0.15,1.11,1.11,0,0,1-.36-0.4,2,2,0,0,1-.2-0.55q-0.07-.31-0.1-0.62H82.64L81.74,79a3.32,3.32,0,0,1-.13.32,1.09,1.09,0,0,1-.13.21,0.37,0.37,0,0,1-.14.11,0.41,0.41,0,0,1-.16,0,0.52,0.52,0,0,1-.52-0.32A1.1,1.1,0,0,1,80.57,79,3.22,3.22,0,0,1,80.55,78.63Z" transform="translate(-31.68 -1.31)"/><path class="cls-1" d="M90.07,78.45a4.52,4.52,0,0,1-.31.37,3.72,3.72,0,0,1-.43.41,2.7,2.7,0,0,1-.51.33,1.24,1.24,0,0,1-.55.13,0.76,0.76,0,0,1-.55-0.21,1.73,1.73,0,0,1-.38-0.62,2.35,2.35,0,0,1-.29.28,2.59,2.59,0,0,1-.38.26,2.5,2.5,0,0,1-.43.19,1.42,1.42,0,0,1-.45.07,1.18,1.18,0,0,1-.47-0.1,1.21,1.21,0,0,1-.4-0.28,1.36,1.36,0,0,1-.28-0.44,1.58,1.58,0,0,1-.1-0.59,3,3,0,0,1,.1-0.77,4.23,4.23,0,0,1,.29-0.77A4.38,4.38,0,0,1,85.37,76a3.48,3.48,0,0,1,.55-0.58,2.68,2.68,0,0,1,.63-0.4,1.65,1.65,0,0,1,.68-0.15,0.31,0.31,0,0,1,.18,0,0.46,0.46,0,0,1,.11.1l0.08,0.11a0.23,0.23,0,0,0,.1.08l0.12,0h0.35l0.14,0a0.24,0.24,0,0,1,.11.06,0.33,0.33,0,0,1,.08.14,0.88,0.88,0,0,1,0,.25,3.18,3.18,0,0,1,0,.53c0,0.19-.07.39-0.11,0.6s-0.08.41-.11,0.61a3.63,3.63,0,0,0,0,.58,1.25,1.25,0,0,0,0,.37,0.17,0.17,0,0,0,.18.13,0.54,0.54,0,0,0,.22-0.05,1.39,1.39,0,0,0,.23-0.14l0.23-.19L89.34,78a7.74,7.74,0,0,0,.49-0.61Zm-4.26-.39a1.63,1.63,0,0,0,0,.24,0.71,0.71,0,0,0,.06.21,0.41,0.41,0,0,0,.12.15,0.3,0.3,0,0,0,.19.06,0.45,0.45,0,0,0,.33-0.16,1.56,1.56,0,0,0,.26-0.38,3,3,0,0,0,.26-0.86l0.3-1.47a0.85,0.85,0,0,0-.4.1,1.5,1.5,0,0,0-.37.28,2.51,2.51,0,0,0-.32.4,3.16,3.16,0,0,0-.25.47,3,3,0,0,0-.16.5A2.07,2.07,0,0,0,85.81,78.06Z" transform="translate(-31.68 -1.31)"/><path class="cls-1" d="M91.56,78.74s0-.1,0-0.18,0-.17,0-0.27l0-.33,0-.34q0.05-.4.13-0.86H91.76a1.46,1.46,0,0,0-.14.22l-0.22.44L91,78.17q-0.22.46-.56,1.16a0.53,0.53,0,0,1-.52.35,0.52,0.52,0,0,1-.52-0.32A1.1,1.1,0,0,1,89.35,79a3.22,3.22,0,0,1,0-.39c0-.14,0-0.3,0-0.48s0-.38.06-0.59,0.06-.42.09-0.63,0.07-.42.11-0.62,0.08-.38.12-0.54,0.08-.3.11-0.4a2.07,2.07,0,0,1,.09-0.25A0.48,0.48,0,0,1,90,75a0.29,0.29,0,0,1,.14-0.07l0.2,0h0.3a0.28,0.28,0,0,1,.16.06,0.21,0.21,0,0,1,.06.14,2.29,2.29,0,0,1,0,.25c0,0.06,0,.12,0,0.19s0,0.15,0,.23l0,0.26c0,0.09,0,.17,0,0.26l-0.09.61L90.77,77l0.11-.19,0.24-.42,0.31-.51q0.16-.27.31-0.47A1.77,1.77,0,0,1,92,75a0.58,0.58,0,0,1,.39-0.13,0.55,0.55,0,0,1,.36.12,0.42,0.42,0,0,1,.15.35,2.61,2.61,0,0,1,0,.37c0,0.12,0,.23-0.06.34l-0.08.32c0,0.1-.05.21-0.08,0.32l0,0.14v0L92.72,77l0.11-.19,0.26-.42,0.32-.51q0.17-.27.32-0.47A2.42,2.42,0,0,1,94,75a0.5,0.5,0,0,1,.35-0.14,0.64,0.64,0,0,1,.4.12,0.41,0.41,0,0,1,.16.35,5.82,5.82,0,0,1,0,.65q0,0.31-.08.61t-0.08.61a5.86,5.86,0,0,0,0,.65,1.16,1.16,0,0,0,.07.44,0.21,0.21,0,0,0,.17.17,0.62,0.62,0,0,0,.22,0l0.23-.12,0.23-.16L95.86,78a5.82,5.82,0,0,0,.48-0.52l0.08,1.18L96,79a3.75,3.75,0,0,1-.46.34,2.45,2.45,0,0,1-.53.25,2,2,0,0,1-.65.1,0.42,0.42,0,0,1-.3-0.12,0.83,0.83,0,0,1-.2-0.33,2.23,2.23,0,0,1-.11-0.49,5.39,5.39,0,0,1,0-.62c0-.21,0-0.43,0-0.67s0-.47.06-0.71H93.72l-1,2.58a0.69,0.69,0,0,1-.29.28,0.89,0.89,0,0,1-.37.07,0.36,0.36,0,0,1-.25-0.09,0.59,0.59,0,0,1-.15-0.22,1.17,1.17,0,0,1-.07-0.3A3,3,0,0,1,91.56,78.74Z" transform="translate(-31.68 -1.31)"/><path class="cls-1" d="M97.72,79.67a1.87,1.87,0,0,1-.82-0.17A1.7,1.7,0,0,1,96.31,79,2,2,0,0,1,96,78.38a2.63,2.63,0,0,1-.12-0.79A3.42,3.42,0,0,1,95.9,77a3.46,3.46,0,0,1,.17-0.61,3.23,3.23,0,0,1,.28-0.57,2.29,2.29,0,0,1,.4-0.48A1.84,1.84,0,0,1,97.25,75a1.56,1.56,0,0,1,.63-0.12,1.47,1.47,0,0,1,.52.09,1.27,1.27,0,0,1,.42.25,1.16,1.16,0,0,1,.28.39,1.28,1.28,0,0,1,.1.51,1.39,1.39,0,0,1-.15.62,2.24,2.24,0,0,1-.42.58,3,3,0,0,1-.64.49,3.37,3.37,0,0,1-.81.33,1.56,1.56,0,0,0,.15.22,0.65,0.65,0,0,0,.15.14,0.47,0.47,0,0,0,.16.07l0.18,0a1.85,1.85,0,0,0,.63-0.12,4.07,4.07,0,0,0,.65-0.3,5.42,5.42,0,0,0,.59-0.39,5.32,5.32,0,0,0,.47-0.4l0.64,0.67a6.53,6.53,0,0,1-.93.8l-0.46.29a4.2,4.2,0,0,1-.52.26,3.54,3.54,0,0,1-.56.18A2.62,2.62,0,0,1,97.72,79.67Zm-0.66-2.35a1,1,0,0,0,.39-0.09A1.74,1.74,0,0,0,97.84,77a1.68,1.68,0,0,0,.31-0.31,0.56,0.56,0,0,0,.13-0.33A0.73,0.73,0,0,0,98.19,76a0.24,0.24,0,0,0-.2-0.14,0.77,0.77,0,0,0-.37.08,0.78,0.78,0,0,0-.25.21,1.08,1.08,0,0,0-.16.29,2,2,0,0,0-.1.33,2.45,2.45,0,0,0,0,.32C97.06,77.17,97.05,77.26,97.05,77.33Z" transform="translate(-31.68 -1.31)"/><path class="cls-1" d="M99.8,77.76l0.46-.4,0.3-.29,0.23-.27,0.24-.32,0.34-.45,0.52-.67,0.14-.17A1.15,1.15,0,0,1,102.2,75a0.93,0.93,0,0,1,.21-0.11,0.76,0.76,0,0,1,.26,0,1,1,0,0,1,.37.05,0.46,0.46,0,0,1,.19.13,0.32,0.32,0,0,1,.07.16,1.4,1.4,0,0,1,0,.14,0.49,0.49,0,0,1-.1.26,2.7,2.7,0,0,1-.21.28l-0.22.25a0.51,0.51,0,0,0-.12.17,1.65,1.65,0,0,0,0,.28,2,2,0,0,0,.06.25l0.08,0.26c0,0.09.05,0.2,0.08,0.32a3.91,3.91,0,0,1,.06.41c0,0.16,0,.34,0,0.55a3.13,3.13,0,0,1,.39-0.22l0.43-.2,0.46-.23a3.7,3.7,0,0,0,.48-0.31v1.12A4.61,4.61,0,0,1,104,79a7,7,0,0,1-.85.37,6.58,6.58,0,0,1-.9.25,4.37,4.37,0,0,1-.87.09,2.64,2.64,0,0,1-.55-0.05,1.41,1.41,0,0,1-.45-0.17,0.94,0.94,0,0,1-.31-0.31,1,1,0,0,1-.14-0.46l-0.14,0H99.55a0.25,0.25,0,0,1-.12,0,0.22,0.22,0,0,1-.08-0.1,0.58,0.58,0,0,1,0-.21,0.42,0.42,0,0,1,.06-0.22A0.86,0.86,0,0,1,99.52,78l0.16-.14Zm0.64,0.64a0.2,0.2,0,0,1,.13.07l0.17,0.17a1.25,1.25,0,0,0,.22.17,0.54,0.54,0,0,0,.28.07,0.71,0.71,0,0,0,.32-0.06,0.54,0.54,0,0,0,.2-0.17,0.68,0.68,0,0,0,.1-0.25,1.4,1.4,0,0,0,0-.3,2.19,2.19,0,0,0,0-.27c0-.09,0-0.18,0-0.27s0-.16-0.06-0.24l-0.06-.19Z" transform="translate(-31.68 -1.31)"/><path class="cls-1" d="M118.23,26.74a1,1,0,0,0,.19.59,2.19,2.19,0,0,0,.51.48,5.66,5.66,0,0,0,.72.42l0.82,0.41q0.42,0.21.82,0.45a4.07,4.07,0,0,1,.72.55,2.5,2.5,0,0,1,.51.69,1.94,1.94,0,0,1,.19.88,2.3,2.3,0,0,1-.14.83,2.36,2.36,0,0,1-.4.68,2.82,2.82,0,0,1-.6.53,3.67,3.67,0,0,1-.74.38,4.72,4.72,0,0,1-.84.23,5.12,5.12,0,0,1-.88.08,4.85,4.85,0,0,1-1.21-.15,3.39,3.39,0,0,1-1-.46,2.39,2.39,0,0,1-.74-0.77,2.06,2.06,0,0,1-.28-1.08,1.45,1.45,0,0,1,.1-0.56,1.36,1.36,0,0,1,.25-0.4,1.06,1.06,0,0,1,.33-0.24,0.8,0.8,0,0,1,.33-0.08,0.41,0.41,0,0,1,.27.09,0.33,0.33,0,0,1,.11.27,0.85,0.85,0,0,1,0,.18l0,0.21c0,0.07,0,.16,0,0.25a2,2,0,0,0,0,.29,1.12,1.12,0,0,0,.16.6,1.31,1.31,0,0,0,.42.42,2,2,0,0,0,.61.24,3.14,3.14,0,0,0,.71.08,3.7,3.7,0,0,0,.87-0.1,2.77,2.77,0,0,0,.78-0.31,1.81,1.81,0,0,0,.56-0.5,1.13,1.13,0,0,0,.21-0.68,1.1,1.1,0,0,0-.19-0.63,2.25,2.25,0,0,0-.51-0.52,5.14,5.14,0,0,0-.72-0.45l-0.82-.42q-0.42-.21-0.82-0.45a4.37,4.37,0,0,1-.72-0.52,2.4,2.4,0,0,1-.51-0.64,1.65,1.65,0,0,1-.19-0.8,1.84,1.84,0,0,1,.2-0.83,2.16,2.16,0,0,1,.61-0.73,3.26,3.26,0,0,1,1-.52,4.6,4.6,0,0,1,1.43-.2,3.38,3.38,0,0,1,1,.15,3,3,0,0,1,.89.44,2.31,2.31,0,0,1,.63.68,1.66,1.66,0,0,1,.24.87,1.9,1.9,0,0,1-.1.58,2.65,2.65,0,0,1-.31.62,1.51,1.51,0,0,1-.46.47,0.87,0.87,0,0,1-.45.15,0.35,0.35,0,0,1-.24-0.09,0.33,0.33,0,0,1-.1-0.26,1,1,0,0,1,.06-0.31,1.91,1.91,0,0,1,.2-0.41,2.09,2.09,0,0,0,.2-0.41,1.13,1.13,0,0,0,.06-0.36,0.75,0.75,0,0,0-.14-0.45,1.09,1.09,0,0,0-.38-0.32,2,2,0,0,0-.58-0.19,4,4,0,0,0-.74-0.06,2.66,2.66,0,0,0-.78.1,1.88,1.88,0,0,0-.55.26,1.11,1.11,0,0,0-.33.36A0.83,0.83,0,0,0,118.23,26.74Z" transform="translate(-31.68 -1.31)"/><path class="cls-1" d="M126.7,32.22a4.44,4.44,0,0,1-.45.35,4.74,4.74,0,0,1-.58.34,4.4,4.4,0,0,1-.63.26,2,2,0,0,1-.61.1,1.16,1.16,0,0,1-.44-0.07,0.72,0.72,0,0,1-.29-0.2,0.78,0.78,0,0,1-.16-0.32,1.7,1.7,0,0,1,0-.41,4.28,4.28,0,0,1,.07-0.73c0-.28.11-0.57,0.18-0.86s0.14-.59.22-0.89,0.15-.57.21-0.82a0.45,0.45,0,0,1,.14-0.22,0.88,0.88,0,0,1,.24-0.15,1.27,1.27,0,0,1,.28-0.08l0.26,0a0.4,0.4,0,0,1,.29.08,0.29,0.29,0,0,1,.07.21,1.47,1.47,0,0,1,0,.32c0,0.14-.08.29-0.12,0.47l-0.16.56c-0.06.2-.11,0.4-0.16,0.6s-0.09.4-.12,0.59a3,3,0,0,0,0,.52,1,1,0,0,0,0,.36,0.2,0.2,0,0,0,.21.13,0.83,0.83,0,0,0,.4-0.12,3.65,3.65,0,0,0,.44-0.3l0.44-.37,0.38-.32v1Zm-2.23-5.13a0.84,0.84,0,0,1,.21-0.53,0.91,0.91,0,0,1,.3-0.21,1.1,1.1,0,0,1,.47-0.09,1.33,1.33,0,0,1,.33,0,0.79,0.79,0,0,1,.27.12,0.58,0.58,0,0,1,.18.22,0.71,0.71,0,0,1,.07.32,1,1,0,0,1-.05.33,0.78,0.78,0,0,1-.18.28,0.9,0.9,0,0,1-.3.2,1.13,1.13,0,0,1-.44.08,0.89,0.89,0,0,1-.65-0.21A0.74,0.74,0,0,1,124.47,27.09Z" transform="translate(-31.68 -1.31)"/><path class="cls-1" d="M126.35,32.24c0-.22,0-0.47,0-0.76s0.06-.58.1-0.88,0.08-.58.13-0.86,0.1-.51.14-0.71a0.79,0.79,0,0,1,.21-0.38,0.58,0.58,0,0,1,.43-0.15,0.41,0.41,0,0,1,.37.16,0.81,0.81,0,0,1,.1.44,1.85,1.85,0,0,1,0,.2c0,0.08,0,.18,0,0.28l0,0.31,0,0.3,0,0.24a1.2,1.2,0,0,0,0,.14h0.1l0.09-.18,0.15-.28,0.18-.34,0.18-.34,0.15-.29,0.1-.19a0.9,0.9,0,0,1,.36-0.37,1,1,0,0,1,.45-0.1,0.46,0.46,0,0,1,.4.21,1,1,0,0,1,.15.58,1.2,1.2,0,0,1,0,.18l-0.06.31-0.08.39c0,0.14-.05.29-0.08,0.44s0,0.3-.06.44,0,0.28,0,.4a1.42,1.42,0,0,0,.08.51,0.26,0.26,0,0,0,.24.2,0.42,0.42,0,0,0,.17,0L130.4,32l0.23-.17,0.23-.19c0.18-.16.36-0.33,0.55-0.53l0.08,1.12-0.25.19-0.42.31a3.73,3.73,0,0,1-.44.28,2.77,2.77,0,0,1-.48.2,1.78,1.78,0,0,1-.52.08,0.55,0.55,0,0,1-.46-0.4,2.81,2.81,0,0,1-.19-1.16,5.52,5.52,0,0,1,0-.65q0-.35.1-0.75H128.8l-1.31,2.6a0.64,0.64,0,0,1-.22.28,0.55,0.55,0,0,1-.29.07,0.57,0.57,0,0,1-.33-0.09,0.57,0.57,0,0,1-.19-0.23,1.11,1.11,0,0,1-.09-0.33A3.12,3.12,0,0,1,126.35,32.24Z" transform="translate(-31.68 -1.31)"/><path class="cls-1" d="M132.51,33.29a1.8,1.8,0,0,1-.8-0.17,1.71,1.71,0,0,1-.58-0.45,2,2,0,0,1-.35-0.66,2.53,2.53,0,0,1-.12-0.78,3.3,3.3,0,0,1,.06-0.6,3.53,3.53,0,0,1,.18-0.62,3.35,3.35,0,0,1,.29-0.58,2.33,2.33,0,0,1,.4-0.48,1.86,1.86,0,0,1,.51-0.33,1.51,1.51,0,0,1,.61-0.12,1.54,1.54,0,0,1,.53.09,1.24,1.24,0,0,1,.41.24,1.1,1.1,0,0,1,.37.82,1.3,1.3,0,0,1,0,.33,1,1,0,0,1-.13.3,0.72,0.72,0,0,1-.21.21,0.51,0.51,0,0,1-.28.08,0.32,0.32,0,0,1-.31-0.12A0.69,0.69,0,0,1,133,30.1c0-.06,0-0.12,0-0.19s0-.13,0-0.18a0.68,0.68,0,0,0,0-.2,0.11,0.11,0,0,0-.11-0.08,0.61,0.61,0,0,0-.35.1,0.88,0.88,0,0,0-.25.25,1.37,1.37,0,0,0-.16.35,3.26,3.26,0,0,0-.09.39,3.1,3.1,0,0,0,0,.37c0,0.12,0,.22,0,0.3a2.3,2.3,0,0,0,0,.37,1.11,1.11,0,0,0,.12.36,0.79,0.79,0,0,0,.25.27,0.68,0.68,0,0,0,.4.11,1.18,1.18,0,0,0,.53-0.15,3.71,3.71,0,0,0,.58-0.37,5.25,5.25,0,0,0,.56-0.49,6.49,6.49,0,0,0,.45-0.51l0.34,0.58a6.57,6.57,0,0,1-.81,1,4.76,4.76,0,0,1-.4.35,3.5,3.5,0,0,1-.45.3,2.7,2.7,0,0,1-.49.21A1.69,1.69,0,0,1,132.51,33.29Z" transform="translate(-31.68 -1.31)"/><path class="cls-1" d="M136.33,33.29a1.86,1.86,0,0,1-.82-0.17,1.69,1.69,0,0,1-.59-0.46,2,2,0,0,1-.35-0.66,2.65,2.65,0,0,1-.12-0.79,3.36,3.36,0,0,1,.05-0.59,3.45,3.45,0,0,1,.17-0.61,3.24,3.24,0,0,1,.28-0.57,2.28,2.28,0,0,1,.4-0.48,1.81,1.81,0,0,1,.51-0.33,1.55,1.55,0,0,1,.63-0.12,1.46,1.46,0,0,1,.52.09,1.28,1.28,0,0,1,.42.25,1.16,1.16,0,0,1,.28.39,1.28,1.28,0,0,1,.1.51,1.39,1.39,0,0,1-.15.62,2.26,2.26,0,0,1-.42.58,3,3,0,0,1-.64.49,3.44,3.44,0,0,1-.81.33,1.63,1.63,0,0,0,.15.22,0.64,0.64,0,0,0,.15.14,0.48,0.48,0,0,0,.16.07l0.18,0a1.86,1.86,0,0,0,.63-0.12,4.11,4.11,0,0,0,.65-0.3,5.57,5.57,0,0,0,.59-0.39,5.16,5.16,0,0,0,.47-0.4l0.64,0.67a6.62,6.62,0,0,1-.93.8l-0.46.29a4.2,4.2,0,0,1-.52.26,3.59,3.59,0,0,1-.56.18A2.63,2.63,0,0,1,136.33,33.29Zm-0.66-2.35a1,1,0,0,0,.39-0.09,1.74,1.74,0,0,0,.39-0.24,1.68,1.68,0,0,0,.31-0.31,0.56,0.56,0,0,0,.13-0.33,0.73,0.73,0,0,0-.08-0.37,0.24,0.24,0,0,0-.2-0.14,0.78,0.78,0,0,0-.37.08,0.8,0.8,0,0,0-.25.21,1.05,1.05,0,0,0-.16.29,2,2,0,0,0-.1.33,2.36,2.36,0,0,0,0,.32C135.67,30.78,135.67,30.87,135.67,30.94Z" transform="translate(-31.68 -1.31)"/><path class="cls-1" d="M142.25,29l-0.16.16-0.17.15-0.15.11-0.1,0a2.42,2.42,0,0,1-.72-0.08,0.3,0.3,0,0,1-.25-0.17,0.12,0.12,0,0,1,.1-0.09,1.12,1.12,0,0,1,.32,0,0.33,0.33,0,0,0,.17-0.08l0.26-.21,0.34-.27,0.38-.27a2.47,2.47,0,0,1,.39-0.21A1,1,0,0,1,143,28a1.11,1.11,0,0,1,.36,0,0.12,0.12,0,0,1,.09.11,1,1,0,0,1,0,.18,1.53,1.53,0,0,0,0,.26l-0.1.65-0.1.66c0,0.24-.08.49-0.11,0.74l-0.1.73-0.08.62,0,0.18c0,0.08,0,.17-0.06.26s-0.06.19-.1,0.29a1.48,1.48,0,0,1-.14.27,0.74,0.74,0,0,1-.19.2,0.41,0.41,0,0,1-.24.08l-0.31,0a1,1,0,0,1-.25-0.06,0.44,0.44,0,0,1-.17-0.11,0.24,0.24,0,0,1-.06-0.16,0.72,0.72,0,0,1,0-.08,0.3,0.3,0,0,1,0-.1c0.05-.19.11-0.39,0.16-0.6l0.15-.63,0.14-.62,0.12-.58Q142.14,29.68,142.25,29Z" transform="translate(-31.68 -1.31)"/><path class="cls-1" d="M146.32,30.73a0.28,0.28,0,0,1,.13-0.1,0,0,0,0,1,0,0,0.4,0.4,0,0,1,0,.08,0.88,0.88,0,0,1-.07.34,1.19,1.19,0,0,1-.2.33,1.07,1.07,0,0,1-.3.25,0.79,0.79,0,0,1-.39.1A1.09,1.09,0,0,1,145,31.6a1.25,1.25,0,0,1-.4-0.37,1.65,1.65,0,0,1-.23-0.51,2.22,2.22,0,0,1,0-1.1,2.52,2.52,0,0,1,.19-0.52,2.43,2.43,0,0,1,.31-0.48,2.05,2.05,0,0,1,.43-0.39,2.09,2.09,0,0,1,1.2-.36,2,2,0,0,1,.64.11,1.76,1.76,0,0,1,.61.36,1.91,1.91,0,0,1,.45.63,2.22,2.22,0,0,1,.18.93,4.28,4.28,0,0,1-.23,1.45,4.09,4.09,0,0,1-.63,1.16,4.53,4.53,0,0,1-.94.89,6.54,6.54,0,0,1-1.14.65l-0.19.07-0.17,0a0.56,0.56,0,0,1-.35-0.1,0.29,0.29,0,0,1-.12-0.24,0.47,0.47,0,0,1,.07-0.24,0.7,0.7,0,0,1,.23-0.23,6,6,0,0,0,.91-0.57,3.45,3.45,0,0,0,.71-0.71,3.11,3.11,0,0,0,.45-0.9,3.67,3.67,0,0,0,.16-1.12,3.16,3.16,0,0,0,0-.47,1.4,1.4,0,0,0-.11-0.4,0.71,0.71,0,0,0-.21-0.27,0.52,0.52,0,0,0-.33-0.1,0.61,0.61,0,0,0-.37.13,1.16,1.16,0,0,0-.29.32,1.66,1.66,0,0,0-.19.44,1.8,1.8,0,0,0-.07.48,1,1,0,0,0,0,.32,0.76,0.76,0,0,0,.12.24,0.52,0.52,0,0,0,.17.15,0.41,0.41,0,0,0,.19,0,0.34,0.34,0,0,0,.17,0A0.48,0.48,0,0,0,146.32,30.73Z" transform="translate(-31.68 -1.31)"/><path class="cls-1" d="M151.74,31.13a0.93,0.93,0,0,0-.11-0.5,0.32,0.32,0,0,0-.28-0.17,0.34,0.34,0,0,0-.21.06,0.57,0.57,0,0,0-.14.15,1.27,1.27,0,0,0-.11.2l-0.09.2a0.8,0.8,0,0,1-.09.15,0.15,0.15,0,0,1-.12.06,0.16,0.16,0,0,1-.06-0.12,1.12,1.12,0,0,1,0-.29,1.07,1.07,0,0,1,.11-0.49,1.18,1.18,0,0,1,.29-0.37,1.31,1.31,0,0,1,.41-0.23,1.39,1.39,0,0,1,.47-0.08,1.26,1.26,0,0,1,.44.08,1.08,1.08,0,0,1,.38.25,1.23,1.23,0,0,1,.27.43,1.68,1.68,0,0,1,.1.62,2.15,2.15,0,0,1-.16.79,2.22,2.22,0,0,1-1.15,1.22,2.17,2.17,0,0,1-.94.19,2.4,2.4,0,0,1-.71-0.11,1.69,1.69,0,0,1-.62-0.35,1.74,1.74,0,0,1-.44-0.62,2.28,2.28,0,0,1-.17-0.92,3.22,3.22,0,0,1,.24-1.21,4.47,4.47,0,0,1,.65-1.11,5.52,5.52,0,0,1,1-.94,6.32,6.32,0,0,1,1.18-.72l0.19-.07,0.18,0a0.5,0.5,0,0,1,.34.11,0.35,0.35,0,0,1,.13.27,0.47,0.47,0,0,1-.07.23,0.72,0.72,0,0,1-.23.23,5.64,5.64,0,0,0-.87.64,5.22,5.22,0,0,0-.75.83,4.34,4.34,0,0,0-.53,1,2.71,2.71,0,0,0-.2,1,1.73,1.73,0,0,0,0,.37,0.92,0.92,0,0,0,.12.31,0.64,0.64,0,0,0,.23.21,0.71,0.71,0,0,0,.35.08,0.7,0.7,0,0,0,.4-0.12,1.12,1.12,0,0,0,.31-0.31,1.67,1.67,0,0,0,.2-0.43A1.57,1.57,0,0,0,151.74,31.13Z" transform="translate(-31.68 -1.31)"/><path class="cls-1" d="M155,33.29a1.31,1.31,0,0,1-.67-0.17,1.45,1.45,0,0,1-.48-0.45,2.1,2.1,0,0,1-.28-0.65,3.2,3.2,0,0,1-.09-0.79,4.29,4.29,0,0,1,.07-0.75,4.34,4.34,0,0,1,.2-0.74,3.78,3.78,0,0,1,.32-0.67,2.66,2.66,0,0,1,.44-0.55,2,2,0,0,1,.56-0.37A1.62,1.62,0,0,1,155.7,28a1.53,1.53,0,0,1,.72.16,1.4,1.4,0,0,1,.5.43,1.84,1.84,0,0,1,.29.63,3,3,0,0,1,.09.76,4.19,4.19,0,0,1-.07.76,4.43,4.43,0,0,1-.21.76,4.06,4.06,0,0,1-.34.7,2.87,2.87,0,0,1-.46.57,2.11,2.11,0,0,1-.57.39A1.57,1.57,0,0,1,155,33.29Zm0.08-.91a0.39,0.39,0,0,0,.26-0.12,1.37,1.37,0,0,0,.24-0.33,3.28,3.28,0,0,0,.21-0.47,4.93,4.93,0,0,0,.17-0.55c0-.19.08-0.37,0.11-0.56a3.7,3.7,0,0,0,0-.51,2.51,2.51,0,0,0,0-.36,1.31,1.31,0,0,0-.08-0.29,0.54,0.54,0,0,0-.13-0.2,0.26,0.26,0,0,0-.19-0.07,0.41,0.41,0,0,0-.28.12,1.3,1.3,0,0,0-.24.32,2.68,2.68,0,0,0-.2.46q-0.09.26-.15,0.54a5.54,5.54,0,0,0-.09.55,4.29,4.29,0,0,0,0,.5,3.15,3.15,0,0,0,0,.39,1.47,1.47,0,0,0,.07.31,0.58,0.58,0,0,0,.12.21A0.22,0.22,0,0,0,155.06,32.38Z" transform="translate(-31.68 -1.31)"/><path class="cls-1" d="M37.22,89a3.58,3.58,0,0,1,.64-0.05h0.31a1.16,1.16,0,0,1,.3,0l0,4.72L40.19,89l0.31,0H41l0.27,0,0.2,4.84L43.07,89l0.3,0H44l0.29,0-2.39,6.49-0.32,0H41.22a4.36,4.36,0,0,1-.66-0.05l-0.21-4.18-1.6,4.18-0.29,0-0.41,0a3,3,0,0,1-.54-0.05Z" transform="translate(-31.68 -1.31)"/><path class="cls-1" d="M47.54,89a3.08,3.08,0,0,1,.61-0.06h0.29l0.31,0-1,6.48a3.92,3.92,0,0,1-.62.05,3.29,3.29,0,0,1-.59-0.05Z" transform="translate(-31.68 -1.31)"/><path class="cls-1" d="M53.31,90.12h-1.4a3.41,3.41,0,0,1,0-.56A4.07,4.07,0,0,1,52.09,89h4a3.33,3.33,0,0,1,0,.55,4.55,4.55,0,0,1-.14.57h-1.4l-0.86,5.37a3.93,3.93,0,0,1-.62.05,3.29,3.29,0,0,1-.59-0.05Z" transform="translate(-31.68 -1.31)"/><path class="cls-1" d="M59.5,89a3.08,3.08,0,0,1,.61-0.06H60.4l0.31,0-0.4,2.54h1.79L62.5,89l0.32,0H63.4l0.3,0-1,6.48a3.71,3.71,0,0,1-.62.05,3.29,3.29,0,0,1-.59-0.05l0.44-2.81H60.12l-0.44,2.81a3.92,3.92,0,0,1-.62.05,3.29,3.29,0,0,1-.59-0.05Z" transform="translate(-31.68 -1.31)"/><path class="cls-1" d="M71.66,89h3.25a0.59,0.59,0,0,0,0,.07s0,0,0,.07a2.41,2.41,0,0,1,0,.48,3.6,3.6,0,0,1-.14.5h-2l-0.22,1.41h1.62a3.83,3.83,0,0,1-.18,1.13H72.28L72,94.37h2.1a0.5,0.5,0,0,0,0,.07,0.5,0.5,0,0,1,0,.07,2.21,2.21,0,0,1-.05.48q-0.05.24-.13,0.5h-3.3Z" transform="translate(-31.68 -1.31)"/><path class="cls-1" d="M78.5,89l0.68-.08a7.26,7.26,0,0,1,.73,0,3.39,3.39,0,0,1,1.14.18,2.4,2.4,0,0,1,.86.52,2.26,2.26,0,0,1,.54.83,3.08,3.08,0,0,1,.19,1.12,5,5,0,0,1-.28,1.73,3.56,3.56,0,0,1-.78,1.27,3.35,3.35,0,0,1-1.2.79,4.18,4.18,0,0,1-1.52.27q-0.47,0-.77,0l-0.63-.08Zm0.34,5.44a2.37,2.37,0,0,0,.41,0,1.77,1.77,0,0,0,.85-0.21,2.06,2.06,0,0,0,.66-0.58,2.74,2.74,0,0,0,.43-0.88,4,4,0,0,0,.15-1.14,2.32,2.32,0,0,0-.1-0.73A1.43,1.43,0,0,0,81,90.42a1.13,1.13,0,0,0-.42-0.3A1.4,1.4,0,0,0,80,90H79.75l-0.21,0Z" transform="translate(-31.68 -1.31)"/><path class="cls-1" d="M86.62,89a3.08,3.08,0,0,1,.61-0.06h0.29l0.31,0-1,6.48a3.92,3.92,0,0,1-.62.05,3.29,3.29,0,0,1-.59-0.05Z" transform="translate(-31.68 -1.31)"/><path class="cls-1" d="M92.39,90.12H91a3.41,3.41,0,0,1,0-.56A4.07,4.07,0,0,1,91.18,89h4a3.33,3.33,0,0,1,0,.55,4.55,4.55,0,0,1-.14.57h-1.4l-0.86,5.37a3.93,3.93,0,0,1-.62.05,3.29,3.29,0,0,1-.59-0.05Z" transform="translate(-31.68 -1.31)"/><path class="cls-1" d="M99.24,89l0.35,0h0.35a4.26,4.26,0,0,1,.67.05l0.73,6.49a3.54,3.54,0,0,1-.6.05,3.81,3.81,0,0,1-.62-0.05L100,94.18h-1.8l-0.53,1.31a3.43,3.43,0,0,1-.62.05,3.12,3.12,0,0,1-.59-0.05Zm0.68,4.1-0.21-2.6-1.05,2.6h1.27Z" transform="translate(-31.68 -1.31)"/><path class="cls-1" d="M105.64,89l0.57-.08a6.51,6.51,0,0,1,.67,0,4.59,4.59,0,0,1,.81.07,1.93,1.93,0,0,1,.67.24,1.25,1.25,0,0,1,.45.46,1.45,1.45,0,0,1,.17.72,1.67,1.67,0,0,1-.1.58,2,2,0,0,1-.27.5,1.75,1.75,0,0,1-.37.37,1.12,1.12,0,0,1-.41.19,1.15,1.15,0,0,1,.75.48,1.49,1.49,0,0,1,.26.86,2.25,2.25,0,0,1-.22,1,1.83,1.83,0,0,1-.6.69,2.65,2.65,0,0,1-.91.38,5.05,5.05,0,0,1-1.14.12l-0.6,0-0.76-.09Zm0.31,5.5,0.19,0h0.18a2.18,2.18,0,0,0,.42,0,1.14,1.14,0,0,0,.42-0.18,1,1,0,0,0,.32-0.36,1.23,1.23,0,0,0,.13-0.6,0.63,0.63,0,0,0-.24-0.57,1.18,1.18,0,0,0-.66-0.16h-0.45Zm0.84-2.87a1,1,0,0,0,.36-0.07,0.88,0.88,0,0,0,.32-0.2A1.06,1.06,0,0,0,107.7,91a1.34,1.34,0,0,0,.09-0.5,0.64,0.64,0,0,0-.07-0.33,0.52,0.52,0,0,0-.19-0.19,0.72,0.72,0,0,0-.26-0.09l-0.27,0a1.45,1.45,0,0,0-.3,0l-0.28,1.72h0.38Z" transform="translate(-31.68 -1.31)"/><path class="cls-1" d="M112.92,89a3.09,3.09,0,0,1,.61-0.06,2.69,2.69,0,0,1,.58.06l-0.86,5.35h1.94a2.58,2.58,0,0,1,0,.29l0,0.27c0,0.1,0,.19-0.06.29l-0.07.29h-3.13Z" transform="translate(-31.68 -1.31)"/><path class="cls-1" d="M119.42,89h3.25s0,0,0,.07a0.61,0.61,0,0,1,0,.07,2.38,2.38,0,0,1,0,.48,3.6,3.6,0,0,1-.14.5h-2l-0.22,1.41h1.62a3.85,3.85,0,0,1-.18,1.13H120l-0.28,1.72h2.1a0.38,0.38,0,0,0,0,.07s0,0,0,.07a2.18,2.18,0,0,1-.05.48c0,0.16-.08.33-0.13,0.5h-3.3Z" transform="translate(-31.68 -1.31)"/><path class="cls-1" d="M131.26,90.12h-1.4a3.41,3.41,0,0,1,0-.56A4.14,4.14,0,0,1,130,89h4a3.33,3.33,0,0,1,0,.55,4.55,4.55,0,0,1-.14.57h-1.4l-0.86,5.37a3.94,3.94,0,0,1-.62.05,3.3,3.3,0,0,1-.59-0.05Z" transform="translate(-31.68 -1.31)"/><path class="cls-1" d="M137.45,89h3.25a0.59,0.59,0,0,0,0,.07s0,0,0,.07a2.45,2.45,0,0,1,0,.48,3.6,3.6,0,0,1-.14.5h-2l-0.22,1.41h1.62a3.82,3.82,0,0,1-.18,1.13h-1.62l-0.28,1.72h2.1a0.5,0.5,0,0,0,0,.07,0.5,0.5,0,0,1,0,.07,2.18,2.18,0,0,1-.05.48c0,0.16-.08.33-0.13,0.5h-3.3Z" transform="translate(-31.68 -1.31)"/><path class="cls-1" d="M144.46,92.14L143.92,89l0.34,0h0.61l0.29,0,0.49,3.12-1.49,3.36-0.4,0h-0.62l-0.33,0Zm1.25,0L147.14,89a4,4,0,0,1,.64-0.05h0.33l0.33,0-1.52,3.08,0.8,3.42-0.35,0h-0.6l-0.35,0Z" transform="translate(-31.68 -1.31)"/><path class="cls-1" d="M152.75,90.12h-1.4a3.41,3.41,0,0,1,0-.56,4.15,4.15,0,0,1,.14-0.56h4a3.33,3.33,0,0,1,0,.55,4.54,4.54,0,0,1-.14.57H154l-0.86,5.37a3.93,3.93,0,0,1-.62.05,3.29,3.29,0,0,1-.59-0.05Z" transform="translate(-31.68 -1.31)"/><path class="cls-1" d="M96.85,105.53v22.34a1.18,1.18,0,0,0,2.36,0V105.53a1.18,1.18,0,0,0-2.36,0h0Z" transform="translate(-31.68 -1.31)"/><path class="cls-1" d="M110.64,106.14v13.79a1.18,1.18,0,0,0,2.36,0V106.14a1.18,1.18,0,0,0-2.36,0h0Z" transform="translate(-31.68 -1.31)"/><path class="cls-1" d="M82.65,106.14v13.79a1.18,1.18,0,0,0,2.36,0V106.14a1.18,1.18,0,0,0-2.36,0h0Z" transform="translate(-31.68 -1.31)"/><path class="cls-1" d="M89.68,106.14v17a1.18,1.18,0,0,0,2.36,0v-17a1.18,1.18,0,0,0-2.36,0h0Z" transform="translate(-31.68 -1.31)"/><path class="cls-1" d="M110.64,106.14v13.79a1.18,1.18,0,0,0,2.36,0V106.14a1.18,1.18,0,0,0-2.36,0h0Z" transform="translate(-31.68 -1.31)"/><path class="cls-1" d="M104.15,106.14v17a1.18,1.18,0,0,0,2.36,0v-17a1.18,1.18,0,0,0-2.36,0h0Z" transform="translate(-31.68 -1.31)"/><line class="cls-2" x1="85.71" y1="103.7" x2="46.58" y2="103.7"/></svg>