<?xml version="1.0" encoding="utf-8"?>
<!-- Generator: Adobe Illustrator 19.2.1, SVG Export Plug-In . SVG Version: 6.00 Build 0)  -->
<svg version="1.1" id="Layer_4" xmlns="http://www.w3.org/2000/svg" xmlns:xlink="http://www.w3.org/1999/xlink" x="0px" y="0px"
	 viewBox="0 0 650 225" style="enable-background:new 0 0 650 225;" xml:space="preserve">
<style type="text/css">
	.st0{fill:#DDB24A;}
	.st1{fill:#FFFFFF;}
</style>
<path class="st0" d="M131.6,6.8c-8.8-2.8-19-4.3-29.2-4.3C92.2,2.5,82.3,4,73,6.8l-2.2,63.1h63L131.6,6.8z"/>
<path class="st0" d="M145.9,19l-6.6,51h26.5c3.6,0,6.6,2.4,6.6,6l-7.3,43c0,3.6-3,6.9-6.6,6.9H46.6c-3.6,0-7.2-3.3-7.2-6.9
	l-7.3-42.9c0-3.6,3.5-6.2,7.2-6.2h26l-6.6-51C23.9,35.3,0,70.6,0,111.6C0,168.2,46,214,102.6,214c56.6,0,102.3-45.9,102.3-102.4
	C204.9,70.7,181.3,35.4,145.9,19z M135,169.4c0,2-3.2,3.5-5.2,3.5H114c-2.3,5-6.5,6.4-11.3,6.4s-9-1.4-11.3-6.4H75.6
	c-2,0-6-1.6-6-3.5l-2.1-6.1c0-2,2-3.4,4-3.4h19.9c2.3-3,6.5-6.4,11.3-6.4s9,3.4,11.3,6.4h19.9c2,0,3.2,1.4,3.2,3.4L135,169.4z"/>
<path class="st0" d="M44.6,86.3l4.1,23.2c0,2.4,1.9,4.4,4.3,4.4h98.8c2.4,0,4.3-2,4.3-4.4l4.1-23.2c0-2.4-1.9-4.4-4.3-4.4H48.8
	C46.5,81.9,44.6,83.9,44.6,86.3z"/>
<g>
	<path class="st1" d="M333.5,45.4v12.1l-61.6,96h61.6v12.4H255v-12.4l61.6-96H255V45.4H333.5z"/>
	<path class="st1" d="M372.8,11.4c0,3.2-1.1,5.8-3.2,8.1c-2.1,2.2-4.8,3.3-7.9,3.3c-3.2,0-5.8-1.1-8.1-3.3c-2.2-2.2-3.3-4.9-3.3-8.1
		c0-3.2,1.1-5.8,3.3-8.1c2.2-2.2,4.9-3.3,8.1-3.3c3.2,0,5.8,1.1,7.9,3.3C371.7,5.5,372.8,8.2,372.8,11.4z M353.6,165.9V45.4h15.4
		v120.4H353.6z"/>
	<path class="st1" d="M405.5,150.2c-11-11.9-16.6-27.1-16.6-45.6c0-18.5,5.5-33.3,16.4-44.6c11-11.3,24.9-16.9,41.8-16.9
		c10.9,0,20.4,2.6,28.7,7.9c8.2,5.3,14.3,12.1,18.3,20.5V45.4h15.4v124.6c0,16.3-5.4,29.6-16.2,39.7c-10.8,10.1-24,15.2-39.6,15.2
		c-15.6,0-28.8-3.8-39.5-11.5c-10.7-7.6-16.9-17.1-18.5-28.5H411c1.9,7.5,6.8,13.8,14.6,19c7.8,5.1,17.4,7.7,28.7,7.7
		c11.3,0,20.8-3.7,28.5-11.1c7.6-7.4,11.5-17.6,11.5-30.6v-30.7c-4,8.4-10.1,15.3-18.3,20.6c-8.2,5.4-17.8,8.1-28.7,8.1
		C430.4,168.1,416.5,162.1,405.5,150.2z M481.1,141.3c8.8-9,13.1-20.9,13.1-35.6c0-14.7-4.4-26.6-13.1-35.6
		c-8.8-9-19.3-13.6-31.7-13.6c-12.4,0-22.9,4.3-31.6,13c-8.7,8.7-13,20.4-13,35.2c0,14.8,4.4,26.8,13.1,36.2
		c8.8,9.3,19.3,14,31.6,14C461.8,154.9,472.3,150.3,481.1,141.3z"/>
	<path class="st1" d="M587.9,168.1c-17.3,0-31.3-5.7-42.2-17.2c-10.8-11.5-16.2-26.5-16.2-45.1c0-18.6,5.7-33.7,17.2-45.2
		c11.5-11.5,25.8-17.3,43-17.3c17.2,0,31.6,5.8,43,17.3c11.5,11.5,17.2,26.5,17.2,45c0,18.5-6,33.5-18.1,45.1
		C619.8,162.3,605.2,168.1,587.9,168.1z M587.8,155.7c12.5,0,23.3-4.5,32.4-13.5c9.1-9,13.7-21.2,13.7-36.7c0-15.5-4.3-27.7-13-36.6
		c-8.7-8.9-19.3-13.3-31.8-13.3c-12.5,0-23,4.4-31.3,13.2c-8.4,8.8-12.6,21.1-12.6,36.8c0,15.7,4,28,11.9,36.8
		C565,151.3,575.3,155.7,587.8,155.7z"/>
</g>
</svg>
