<svg id="Logo_8" data-name="Logo 8" xmlns="http://www.w3.org/2000/svg" viewBox="0 0 106.28 128.47"><defs><style>.cls-1{fill:#353531;}.cls-2,.cls-3{fill:none;stroke:#353531;stroke-linecap:round;stroke-linejoin:round;}.cls-2{stroke-width:0.99px;}.cls-3{stroke-width:2.26px;}</style></defs><title>logo-8</title><path class="cls-1" d="M48.7,96.69a5,5,0,0,1,.35.38l0.27,0.34,0.21,0.32a3.81,3.81,0,0,1,.21.39l-3.06,3.13,2-.86,2-.86L51,99.81a4,4,0,0,1,.27.34,3.25,3.25,0,0,1,.21.33c0.06,0.12.12,0.22,0.16,0.31l-3,3.33,4-1.88a4.17,4.17,0,0,1,.29.3l0.21,0.28,0.22,0.33a4.43,4.43,0,0,1,.23.42l-6.45,2.56-0.26-.27a4,4,0,0,1-.31-0.38,4.07,4.07,0,0,1-.27-0.44l-0.15-.3,2.67-3-3.75,1.48L44.86,103a4,4,0,0,1-.57-0.79l-0.16-.32Z" transform="translate(-44.14 -0.69)"/><path class="cls-1" d="M54.83,104.71l0.36,0.3,0.27,0.26,0.25,0.29L56,105.94l-4.92,4.6a5.26,5.26,0,0,1-.63-0.55,5,5,0,0,1-.52-0.67Z" transform="translate(-44.14 -0.69)"/><path class="cls-1" d="M57.57,109.48l-1.2-1a3.25,3.25,0,0,1,1-1.12L61,110.49l-0.21.33a3.16,3.16,0,0,1-.21.27,4.48,4.48,0,0,1-.54.52l-1.2-1-3.45,4a5.3,5.3,0,0,1-.69-0.48,5.09,5.09,0,0,1-.59-0.62Z" transform="translate(-44.14 -0.69)"/><path class="cls-1" d="M62.48,111.62l0.42,0.2L63.23,112l0.31,0.22,0.36,0.3-1.35,2.11L64,115.55l1.35-2.11,0.42,0.2,0.33,0.19L66.37,114l0.36,0.3L63.1,120a5.17,5.17,0,0,1-.75-0.38,5,5,0,0,1-.67-0.53l1.48-2.32-1.42-.91-1.48,2.32a5.19,5.19,0,0,1-.75-0.38,5.14,5.14,0,0,1-.67-0.53Z" transform="translate(-44.14 -0.69)"/><path class="cls-1" d="M71.71,116.8l3.72,1.48c0,0.14-.06.27-0.09,0.38s-0.07.22-.11,0.32a4.53,4.53,0,0,1-.34.67l-2.16-.86-0.38,1,1.7,0.68a3.73,3.73,0,0,1-.19.72,3.66,3.66,0,0,1-.35.65l-1.7-.68-0.49,1.25,2.21,0.88a3.44,3.44,0,0,1-.18.7,3.51,3.51,0,0,1-.35.66l-3.77-1.51Z" transform="translate(-44.14 -0.69)"/><path class="cls-1" d="M77.41,119L77.77,119l0.47,0.08,0.52,0.11,0.51,0.13a3.81,3.81,0,0,1,2.4,1.58,3.55,3.55,0,0,1,.21,2.82,3.32,3.32,0,0,1-1.59,2.3,4.13,4.13,0,0,1-2.93.07q-0.46-.12-0.87-0.28l-0.81-.32Zm0.23,5.67,0.14,0,0.17,0a2.58,2.58,0,0,0,.7.1,1.29,1.29,0,0,0,.63-0.16,1.55,1.55,0,0,0,.52-0.5,3,3,0,0,0,.39-0.92,3,3,0,0,0,.12-1,1.67,1.67,0,0,0-.2-0.71,1.35,1.35,0,0,0-.44-0.46,2.2,2.2,0,0,0-.61-0.27l-0.27-.07-0.11,0Z" transform="translate(-44.14 -0.69)"/><path class="cls-1" d="M84.88,120.84l0.47,0,0.37,0L86.09,121l0.44,0.14-1.17,6.65a5.21,5.21,0,0,1-.84-0.07,5.15,5.15,0,0,1-.82-0.24Z" transform="translate(-44.14 -0.69)"/><path class="cls-1" d="M90,123.11l-1.57-.18a3.72,3.72,0,0,1,0-.75,3.68,3.68,0,0,1,.16-0.71L93.35,122c0,0.14,0,.27,0,0.39a3.39,3.39,0,0,1,0,.34,4.5,4.5,0,0,1-.16.74l-1.57-.18-0.56,5.27a4.19,4.19,0,0,1-1.67-.19Z" transform="translate(-44.14 -0.69)"/><path class="cls-1" d="M96.13,122.17l0.46,0H97l0.39,0,0.49,0.07,1.83,6.86a6.15,6.15,0,0,1-.95,0l-0.38,0L98,129l-0.31-1.33a4.06,4.06,0,0,1-.51.09,3.07,3.07,0,0,1-.92,0l-0.47-.12-0.4,1.28L95,129H94.63l-0.39,0-0.49-.09ZM96.9,124l-0.73,2.4,0.3,0.09a1.51,1.51,0,0,0,.29,0h0.32l0.33-.06Z" transform="translate(-44.14 -0.69)"/><path class="cls-1" d="M101.54,122.14l0.77-.2c0.28-.06.61-0.12,1-0.16a5.37,5.37,0,0,1,1,0,2.45,2.45,0,0,1,.85.2,1.58,1.58,0,0,1,.63.49,1.79,1.79,0,0,1,.32.86,1.67,1.67,0,0,1-.09.83,1.53,1.53,0,0,1-.42.62,2.14,2.14,0,0,1,.45.17,1.55,1.55,0,0,1,.4.29,1.64,1.64,0,0,1,.31.45,2.08,2.08,0,0,1,.18.63,2.11,2.11,0,0,1-.09,1.05,1.68,1.68,0,0,1-.53.72,2.73,2.73,0,0,1-.89.45,7,7,0,0,1-1.17.25c-0.34,0-.64.07-0.92,0.08l-0.89,0Zm2.23,2.32a1.06,1.06,0,0,0,.61-0.25,0.66,0.66,0,0,0,.15-0.6,0.63,0.63,0,0,0-.12-0.32,0.65,0.65,0,0,0-.23-0.18,0.82,0.82,0,0,0-.29-0.07h-0.29l-0.14,0-0.13,0,0.19,1.39Zm0.13,2.94h0.17l0.26,0a1.82,1.82,0,0,0,.36-0.08,1.06,1.06,0,0,0,.32-0.17,0.67,0.67,0,0,0,.21-0.28,0.79,0.79,0,0,0,0-.4,0.67,0.67,0,0,0-.38-0.59,1.51,1.51,0,0,0-.79-0.07l-0.38,0Z" transform="translate(-44.14 -0.69)"/><path class="cls-1" d="M108.3,121.13l0.44-.16,0.36-.1,0.38-.07,0.46,0,1.19,5.18,2.13-.48a3.55,3.55,0,0,1,.15.39q0.05,0.17.08,0.3c0,0.11,0,.22.06,0.33a3.82,3.82,0,0,1,0,.42l-3.77.84Z" transform="translate(-44.14 -0.69)"/><path class="cls-1" d="M114,119.75l3.8-1.21c0.07,0.13.13,0.24,0.17,0.35a3.32,3.32,0,0,1,.12.32,4.41,4.41,0,0,1,.16.74l-2.21.7,0.32,1,1.74-.55a3.81,3.81,0,0,1,.31.68,3.71,3.71,0,0,1,.15.73l-1.74.55,0.41,1.28,2.26-.72a3.49,3.49,0,0,1,.3.66,3.54,3.54,0,0,1,.15.74l-3.86,1.22Z" transform="translate(-44.14 -0.69)"/><path class="cls-1" d="M124.64,117.28l-1.42.7a3.29,3.29,0,0,1-.66-1.32l4.33-2.14,0.22,0.32a3.29,3.29,0,0,1,.17.3,4.57,4.57,0,0,1,.27.71l-1.42.7,2.38,4.75a4.12,4.12,0,0,1-1.5.74Z" transform="translate(-44.14 -0.69)"/><path class="cls-1" d="M128.54,113.55l3.36-2.15,0.26,0.3a3.22,3.22,0,0,1,.2.28,4.47,4.47,0,0,1,.34.67l-1.95,1.25,0.57,0.88,1.54-1a3.8,3.8,0,0,1,.47.58,3.72,3.72,0,0,1,.33.67l-1.54,1,0.73,1.13,2-1.28a3.47,3.47,0,0,1,.46.56,3.6,3.6,0,0,1,.34.68l-3.41,2.18Z" transform="translate(-44.14 -0.69)"/><path class="cls-1" d="M136.39,112.12l-2.95-1.78a3.56,3.56,0,0,1,.33-0.35l0.36-.32,0.33-.25,0.35-.22,2.81,2L136.2,108a2.68,2.68,0,0,1,.28-0.3l0.31-.28,0.37-.29a3.89,3.89,0,0,1,.4-0.26l1.25,3.2,3.31,1.83a5.54,5.54,0,0,1-.68.68l-0.33.25a2.78,2.78,0,0,1-.35.21l-3.07-1.85,1.29,3.34a2.94,2.94,0,0,1-.27.31l-0.3.29a5.39,5.39,0,0,1-.79.55Z" transform="translate(-44.14 -0.69)"/><path class="cls-1" d="M140.88,105.57l-1.06,1.17a3.27,3.27,0,0,1-1.1-1l3.25-3.57,0.33,0.22,0.27,0.22a4.53,4.53,0,0,1,.5.56L142,104.33l3.93,3.58a4.1,4.1,0,0,1-1.12,1.24Z" transform="translate(-44.14 -0.69)"/><path class="cls-1" d="M147.13,101.81a3.46,3.46,0,0,1-.59.34,2,2,0,0,1-.6.16,1.67,1.67,0,0,1-.61-0.06,2.09,2.09,0,0,1-.65-0.32,2.22,2.22,0,0,1-.63-0.65,1.86,1.86,0,0,1-.27-0.77,2,2,0,0,1,.09-0.84,3.19,3.19,0,0,1,.44-0.88,4.38,4.38,0,0,1,.61-0.71,7.63,7.63,0,0,1,.77-0.63,5.12,5.12,0,0,1,.47.5,4.28,4.28,0,0,1,.42.6l-0.51.35a2.56,2.56,0,0,0-.56.61,1.45,1.45,0,0,0-.14.25,0.83,0.83,0,0,0-.07.25,0.48,0.48,0,0,0,0,.24,0.52,0.52,0,0,0,.18.21,0.47,0.47,0,0,0,.44.09,1.79,1.79,0,0,0,.43-0.22l0.41-.27c0.24-.15.47-0.29,0.68-0.4a2.13,2.13,0,0,1,.64-0.22,1.58,1.58,0,0,1,.66,0,2.52,2.52,0,0,1,1.36,1,1.9,1.9,0,0,1,.27.82,2.39,2.39,0,0,1-.11.94,3.78,3.78,0,0,1-.52,1,5.06,5.06,0,0,1-.67.79,6.47,6.47,0,0,1-.79.63,5.06,5.06,0,0,1-.5-0.51c-0.17-.19-0.33-0.4-0.5-0.62a3.85,3.85,0,0,0,1.18-1,1.58,1.58,0,0,0,.31-0.7,0.53,0.53,0,0,0-.26-0.51,0.54,0.54,0,0,0-.49-0.08,0.91,0.91,0,0,0-.23.1l-0.22.14Z" transform="translate(-44.14 -0.69)"/><path class="cls-1" d="M73.93,16.21a3.53,3.53,0,0,1-1.84-.45,2.87,2.87,0,0,1-1.14-1.25,4.49,4.49,0,0,1-.4-1.92,8.59,8.59,0,0,1,.37-2.44,12.59,12.59,0,0,1,.52-1.45,14.39,14.39,0,0,1,.74-1.48,15.35,15.35,0,0,1,.94-1.45,13.48,13.48,0,0,1,1.11-1.34,12.18,12.18,0,0,1,1.26-1.16,8.9,8.9,0,0,1,1.4-.92,7.59,7.59,0,0,1,1.51-.6A5.94,5.94,0,0,1,80,1.53a4,4,0,0,1,1.86.4A2.73,2.73,0,0,1,83,3a3.75,3.75,0,0,1,.43,1.7,7,7,0,0,1-.3,2.18A13.89,13.89,0,0,1,82.36,9a17.5,17.5,0,0,1-1.17,2.1,16.67,16.67,0,0,1-1.5,2,12.23,12.23,0,0,1-1.76,1.64A8.64,8.64,0,0,1,76,15.79,5.39,5.39,0,0,1,73.93,16.21Zm0.69-1.79a3.12,3.12,0,0,0,1.16-.23,4.93,4.93,0,0,0,1.11-.62,7.85,7.85,0,0,0,1-.93,12.07,12.07,0,0,0,.95-1.14q0.45-.61.84-1.26t0.71-1.29q0.31-.64.55-1.23t0.37-1.08a5.61,5.61,0,0,0,.23-1.33,2.65,2.65,0,0,0-.16-1.08,1.51,1.51,0,0,0-.58-0.72,1.83,1.83,0,0,0-1-.26,3.41,3.41,0,0,0-1.4.33A7.2,7.2,0,0,0,77,4.44a11.31,11.31,0,0,0-1.39,1.29,14.61,14.61,0,0,0-1.24,1.54,13.82,13.82,0,0,0-1,1.65,9.22,9.22,0,0,0-.64,1.6,5.51,5.51,0,0,0-.23,1.55,2.93,2.93,0,0,0,.25,1.24,1.88,1.88,0,0,0,.72.82A2.21,2.21,0,0,0,74.62,14.41Z" transform="translate(-44.14 -0.69)"/><path class="cls-1" d="M82.26,13.26q0.09-.32.25-0.75t0.36-.91q0.2-.48.43-1t0.45-.94q0.22-.45.43-0.82t0.37-.62A2.15,2.15,0,0,1,84.74,8a0.75,0.75,0,0,1,.18-0.15,0.59,0.59,0,0,1,.21-0.07l0.29,0,0.29,0a0.17,0.17,0,0,1,.13.09,0.35,0.35,0,0,1,0,.2c0,0.09,0,.21-0.09.36l-0.19.66q-0.11.39-.2,0.76h0.08L86,9.17a6.42,6.42,0,0,1,.62-0.68A3.84,3.84,0,0,1,87.29,8a1.51,1.51,0,0,1,.77-0.22,0.69,0.69,0,0,1,.26,0,0.48,0.48,0,0,1,.19.14,0.45,0.45,0,0,1,.1.22,0.65,0.65,0,0,1,0,.29,2.78,2.78,0,0,1-.14.35l-0.22.47L88,9.73a3,3,0,0,0-.15.39,1.65,1.65,0,0,0-.08.44,0.64,0.64,0,0,0,.05.28A0.32,0.32,0,0,0,88,11a0.5,0.5,0,0,0,.21,0,2.08,2.08,0,0,0,.73-0.15,6.18,6.18,0,0,0,.74-0.33,9.16,9.16,0,0,0,.82-0.49l-0.6,1.72-0.51.28q-0.29.15-.6,0.29a5.09,5.09,0,0,1-.64.23,2.33,2.33,0,0,1-.63.09,1.29,1.29,0,0,1-.83-0.22,1.09,1.09,0,0,1-.37-0.59,2.47,2.47,0,0,1-.06-0.82c0-.3.06-0.61,0.11-0.91H86.24L83.87,13.8c-0.12.19-.23,0.35-0.33,0.47a2.47,2.47,0,0,1-.28.31,0.81,0.81,0,0,1-.25.17,0.7,0.7,0,0,1-.26,0,0.67,0.67,0,0,1-.45-0.13,0.57,0.57,0,0,1-.18-0.35,1.47,1.47,0,0,1,0-.49A5,5,0,0,1,82.26,13.26Z" transform="translate(-44.14 -0.69)"/><path class="cls-1" d="M93.09,13.23q-0.33.24-.81,0.52a10.14,10.14,0,0,1-1,.51,8.82,8.82,0,0,1-1,.39,3.34,3.34,0,0,1-.94.15,1.49,1.49,0,0,1-.61-0.11,0.73,0.73,0,0,1-.34-0.3,0.9,0.9,0,0,1-.1-0.47,2.6,2.6,0,0,1,.1-0.61,7.68,7.68,0,0,1,.42-1.08q0.28-.61.63-1.27t0.7-1.31l0.65-1.21a1,1,0,0,1,.3-0.33,1.94,1.94,0,0,1,.41-0.22,2.44,2.44,0,0,1,.44-0.12,2.26,2.26,0,0,1,.39,0,0.46,0.46,0,0,1,.39.11,0.35,0.35,0,0,1,0,.3,2.71,2.71,0,0,1-.21.47l-0.38.69-0.47.83L91.16,11c-0.16.3-.3,0.58-0.43,0.87a5.45,5.45,0,0,0-.29.76,1.53,1.53,0,0,0-.08.53,0.21,0.21,0,0,0,.25.19,1.52,1.52,0,0,0,.64-0.18A7.81,7.81,0,0,0,92,12.76l0.8-.54,0.7-.48ZM92,5.68a1.52,1.52,0,0,1,.18-0.38,1.77,1.77,0,0,1,.35-0.4A1.94,1.94,0,0,1,93,4.58a1.9,1.9,0,0,1,.72-0.13,1.79,1.79,0,0,1,.47.06,0.85,0.85,0,0,1,.35.18,0.58,0.58,0,0,1,.18.32,1,1,0,0,1,0,.47A1.86,1.86,0,0,1,94.5,6a1.69,1.69,0,0,1-.38.42,1.94,1.94,0,0,1-.53.3,1.89,1.89,0,0,1-.68.11A1,1,0,0,1,92,6.49,0.9,0.9,0,0,1,92,5.68Z" transform="translate(-44.14 -0.69)"/><path class="cls-1" d="M95.38,14a5.63,5.63,0,0,1-1,.57,2.26,2.26,0,0,1-.9.22,1.45,1.45,0,0,1-.65-0.14,1.19,1.19,0,0,1-.47-0.41,1.45,1.45,0,0,1-.22-0.65,2.26,2.26,0,0,1,.1-0.87,5.48,5.48,0,0,1,.48-1.13,8.71,8.71,0,0,1,.75-1.13,9.69,9.69,0,0,1,.94-1,7.87,7.87,0,0,1,1.06-.86A5.72,5.72,0,0,1,96.57,8a2.88,2.88,0,0,1,1.06-.22,0.37,0.37,0,0,1,.25.07A0.45,0.45,0,0,1,98,8l0.07,0.17a0.22,0.22,0,0,0,.11.12l0.17,0h0.52l0.2,0a0.24,0.24,0,0,1,.14.1,0.35,0.35,0,0,1,.05.21A1.28,1.28,0,0,1,99.2,9c0,0.13-.1.3-0.18,0.51s-0.18.46-.29,0.72l-0.36.84L98,11.94q-0.44,1-1,2.17c0.17-.08.36-0.19,0.57-0.31a7.69,7.69,0,0,0,.72-0.49q0.4-.31.93-0.78t1.21-1.16L100.33,13a4.66,4.66,0,0,1-.48.47q-0.28.24-.6,0.48l-0.66.46-0.66.42q-0.76.47-1.61,0.91-0.36.79-.77,1.53a15.61,15.61,0,0,1-.85,1.4,11.5,11.5,0,0,1-.94,1.19,6.69,6.69,0,0,1-1,.93,4.66,4.66,0,0,1-1.12.61,3.48,3.48,0,0,1-1.22.22,2.92,2.92,0,0,1-.53-0.05,1.1,1.1,0,0,1-.48-0.21,0.8,0.8,0,0,1-.28-0.44,1.45,1.45,0,0,1,.06-0.76,2.64,2.64,0,0,1,.38-0.75,8.09,8.09,0,0,1,.71-0.87q0.42-.46,1-1t1.16-1q0.61-.49,1.27-1T95,14.71ZM90.89,20.2A1.31,1.31,0,0,0,91.53,20a3.23,3.23,0,0,0,.64-0.47,6.16,6.16,0,0,0,.61-0.67q0.3-.37.56-0.77t0.47-.77c0.14-.25.26-0.47,0.35-0.67a7.86,7.86,0,0,0-.72.46q-0.37.27-.74,0.57T92,18.33q-0.35.32-.62,0.62a5.65,5.65,0,0,0-.46.55,1.5,1.5,0,0,0-.23.43Q90.6,20.2,90.89,20.2Zm3.32-7.79a2.53,2.53,0,0,0-.08.36,0.89,0.89,0,0,0,0,.31,0.41,0.41,0,0,0,.11.22,0.35,0.35,0,0,0,.25.08,0.9,0.9,0,0,0,.56-0.23,3.46,3.46,0,0,0,.54-0.57,5.73,5.73,0,0,0,.46-0.68,5.53,5.53,0,0,0,.3-0.59l1.07-2.16a1.53,1.53,0,0,0-.63.15,3.3,3.3,0,0,0-.66.41,5.58,5.58,0,0,0-.64.59,6.73,6.73,0,0,0-.57.69,6,6,0,0,0-.45.73A3.79,3.79,0,0,0,94.22,12.42Z" transform="translate(-44.14 -0.69)"/><path class="cls-1" d="M103.86,13.23q-0.33.24-.81,0.52a10.19,10.19,0,0,1-1,.51,8.82,8.82,0,0,1-1,.39,3.34,3.34,0,0,1-.94.15,1.49,1.49,0,0,1-.61-0.11,0.73,0.73,0,0,1-.34-0.3,0.91,0.91,0,0,1-.1-0.47,2.65,2.65,0,0,1,.1-0.61,7.69,7.69,0,0,1,.42-1.08q0.28-.61.63-1.27c0.23-.44.46-0.87,0.7-1.31l0.65-1.21a1,1,0,0,1,.3-0.33,2,2,0,0,1,.41-0.22,2.46,2.46,0,0,1,.44-0.12,2.26,2.26,0,0,1,.39,0,0.46,0.46,0,0,1,.39.11,0.35,0.35,0,0,1,0,.3,2.71,2.71,0,0,1-.21.47c-0.11.2-.23,0.43-0.38,0.69l-0.47.83-0.49.89c-0.16.3-.3,0.58-0.43,0.87a5.51,5.51,0,0,0-.29.76,1.53,1.53,0,0,0-.08.53,0.21,0.21,0,0,0,.25.19A1.52,1.52,0,0,0,102,13.2a7.81,7.81,0,0,0,.78-0.44l0.8-.54,0.7-.48Zm-1.12-7.55a1.52,1.52,0,0,1,.18-0.38,1.78,1.78,0,0,1,.35-0.4,1.93,1.93,0,0,1,.53-0.32,1.9,1.9,0,0,1,.72-0.13,1.79,1.79,0,0,1,.47.06,0.85,0.85,0,0,1,.35.18,0.58,0.58,0,0,1,.18.32,1,1,0,0,1,0,.47,1.86,1.86,0,0,1-.22.48,1.67,1.67,0,0,1-.38.42,1.91,1.91,0,0,1-.53.3,1.88,1.88,0,0,1-.67.11,1,1,0,0,1-.87-0.31A0.9,0.9,0,0,1,102.74,5.68Z" transform="translate(-44.14 -0.69)"/><path class="cls-1" d="M103.33,13.26q0.14-.48.38-1.12t0.52-1.29q0.28-.66.56-1.27t0.51-1A1.71,1.71,0,0,1,105.78,8a1.11,1.11,0,0,1,.69-0.23A0.44,0.44,0,0,1,107,8a1.09,1.09,0,0,1,0,.65,3.13,3.13,0,0,1-.11.3l-0.17.41-0.2.46-0.2.44-0.16.35-0.08.2h0.15l0.21-.26,0.34-.41,0.41-.5,0.41-.5,0.35-.42,0.23-.27a2,2,0,0,1,.69-0.54,1.78,1.78,0,0,1,.71-0.15,0.49,0.49,0,0,1,.5.31,1.32,1.32,0,0,1,0,.85,2.13,2.13,0,0,1-.11.27l-0.21.46-0.28.58c-0.1.21-.2,0.43-0.3,0.65s-0.19.44-.27,0.65-0.15.41-.2,0.6a2.06,2.06,0,0,0-.1.75,0.27,0.27,0,0,0,.27.29,0.75,0.75,0,0,0,.27-0.07l0.36-.17,0.41-.25,0.42-.29q0.49-.34,1-0.78l-0.35,1.65-0.45.28-0.74.46a7.86,7.86,0,0,1-.77.41,5.43,5.43,0,0,1-.79.29,2.94,2.94,0,0,1-.8.11,0.56,0.56,0,0,1-.51-0.58,4.06,4.06,0,0,1,.21-1.71,9.87,9.87,0,0,1,.33-1q0.21-.51.46-1.1h-0.12l-3,3.82a1.43,1.43,0,0,1-.45.41,1,1,0,0,1-.46.11,0.66,0.66,0,0,1-.45-0.13,0.56,0.56,0,0,1-.18-0.35,1.5,1.5,0,0,1,0-.49A5.18,5.18,0,0,1,103.33,13.26Z" transform="translate(-44.14 -0.69)"/><path class="cls-1" d="M117.92,13q-0.24.24-.61,0.55a8.42,8.42,0,0,1-.81.6,5.8,5.8,0,0,1-.9.49,2.19,2.19,0,0,1-.87.2,0.84,0.84,0,0,1-.72-0.31,1.84,1.84,0,0,1-.3-0.91,5.23,5.23,0,0,1-.55.42,5.58,5.58,0,0,1-.67.39,4.85,4.85,0,0,1-.72.28,2.37,2.37,0,0,1-.69.11,1.44,1.44,0,0,1-.65-0.14,1.19,1.19,0,0,1-.47-0.41,1.45,1.45,0,0,1-.22-0.65,2.27,2.27,0,0,1,.1-0.87,5.48,5.48,0,0,1,.48-1.13,8.71,8.71,0,0,1,.75-1.13,9.74,9.74,0,0,1,.94-1,7.81,7.81,0,0,1,1.06-.86,5.7,5.7,0,0,1,1.1-.58,2.88,2.88,0,0,1,1.06-.22,0.37,0.37,0,0,1,.25.07,0.45,0.45,0,0,1,.11.15l0.07,0.17a0.23,0.23,0,0,0,.11.12l0.17,0h0.52l0.2,0a0.24,0.24,0,0,1,.14.1,0.35,0.35,0,0,1,.05.21,1.28,1.28,0,0,1-.06.36,5.44,5.44,0,0,1-.3.78l-0.41.88c-0.14.3-.29,0.6-0.42,0.9a6.35,6.35,0,0,0-.32.86,1.8,1.8,0,0,0-.09.54,0.18,0.18,0,0,0,.21.2,1,1,0,0,0,.35-0.08,2.86,2.86,0,0,0,.4-0.2l0.43-.28,0.42-.33q0.47-.4,1-0.9Zm-6.11-.58a2.53,2.53,0,0,0-.08.36,0.89,0.89,0,0,0,0,.31,0.4,0.4,0,0,0,.11.22,0.35,0.35,0,0,0,.25.08,0.9,0.9,0,0,0,.56-0.23,3.49,3.49,0,0,0,.54-0.57,5.78,5.78,0,0,0,.46-0.68,5.53,5.53,0,0,0,.3-0.59L115,9.15a1.53,1.53,0,0,0-.63.15,3.3,3.3,0,0,0-.66.41,5.62,5.62,0,0,0-.63.59,6.73,6.73,0,0,0-.57.69,5.94,5.94,0,0,0-.45.73A3.79,3.79,0,0,0,111.8,12.42Z" transform="translate(-44.14 -0.69)"/><path class="cls-1" d="M118.17,14.8a0.74,0.74,0,0,1-.64-0.35,2.18,2.18,0,0,1-.33-0.94,5.58,5.58,0,0,1,0-1.36,9.35,9.35,0,0,1,.32-1.63A13.41,13.41,0,0,1,118,9.1q0.31-.77.73-1.58t0.91-1.64q0.49-.82,1-1.58t1.1-1.41a11.66,11.66,0,0,1,1.12-1.15A5.59,5.59,0,0,1,124,1a2.14,2.14,0,0,1,1-.28,0.71,0.71,0,0,1,.48.14,0.67,0.67,0,0,1,.21.38,1.62,1.62,0,0,1,0,.53,4.12,4.12,0,0,1-.13.61A8,8,0,0,1,125,3.76a14.83,14.83,0,0,1-.84,1.44q-0.48.72-1,1.45T122,8.09L120.8,9.5q-0.58.69-1.11,1.36l-0.13.19-0.15.25-0.16.29-0.15.3,0,0.1a1.72,1.72,0,0,0-.07.37,1.83,1.83,0,0,0,0,.32,0.73,0.73,0,0,0,.06.23,0.12,0.12,0,0,0,.1.08,1.24,1.24,0,0,0,.34-0.06l0.43-.16,0.48-.23,0.49-.26q0.55-.31,1.18-0.71l0.16,1.54q-0.79.47-1.54,0.84l-0.66.3c-0.23.1-.45,0.19-0.68,0.27a5.83,5.83,0,0,1-.64.19A2.57,2.57,0,0,1,118.17,14.8Zm1.69-5.88q0.5-.59,1.08-1.32t1.14-1.51q0.55-.78,1-1.55a9.47,9.47,0,0,0,.72-1.44q0.06-.21.09-0.36c0-.1,0-0.15,0-0.15a0.93,0.93,0,0,0-.54.28,5.57,5.57,0,0,0-.71.75,12.62,12.62,0,0,0-.79,1.09q-0.4.62-.78,1.33t-0.7,1.45A12.8,12.8,0,0,0,119.86,8.92Z" transform="translate(-44.14 -0.69)"/><path class="cls-1" d="M49.54,74.9a5.73,5.73,0,0,1-.12-0.6c0-.23-0.06-0.47-0.07-0.73a6.84,6.84,0,0,1,0-.77,3.51,3.51,0,0,1,.13-0.73,3.43,3.43,0,0,1,.58-1.14,5,5,0,0,1,1-1,4.86,4.86,0,0,1,1.19-.67,3.55,3.55,0,0,1,1.27-.25,2.5,2.5,0,0,1,.94.17,1.6,1.6,0,0,1,.64.46,1.46,1.46,0,0,1,.31.69,2,2,0,0,1-.07.87,3.64,3.64,0,0,1-.39.86,5.12,5.12,0,0,1-.72.92,8.42,8.42,0,0,1-1.08.93,11.34,11.34,0,0,1-1.47.9,5,5,0,0,0,.15.51l0.26,0.75L52.37,77q0.15,0.45.28,0.87A1.87,1.87,0,0,0,53,77.61a1.33,1.33,0,0,0,.2-0.24,1.21,1.21,0,0,0,.12-0.24c0-.08.06-0.16,0.08-0.25a1.48,1.48,0,0,0,.07-0.48A1.38,1.38,0,0,0,53.36,76a3.5,3.5,0,0,0-.17-0.41A4.49,4.49,0,0,1,53,75.09l0,0L53.13,75l0.11-.08,0.07,0a0.7,0.7,0,0,1,.29.09,2.13,2.13,0,0,1,.37.26,3.23,3.23,0,0,1,.39.4,2.11,2.11,0,0,1,.31.52,2.14,2.14,0,0,1,.16.62,1.79,1.79,0,0,1-.07.69,2.72,2.72,0,0,1-.51.93,4.73,4.73,0,0,1-1.11,1,0.41,0.41,0,0,1,.13.1l0.23,0.23,0.26,0.26L54,80.12a0.33,0.33,0,0,1,0,.3,1.08,1.08,0,0,1-.2.36,2.46,2.46,0,0,1-.36.36,2.26,2.26,0,0,1-.42.28,0.9,0.9,0,0,1-.4.11,0.35,0.35,0,0,1-.27-0.11,2.61,2.61,0,0,1-.2-0.27l-0.25-.39-0.21-.35-0.09-.16a5.84,5.84,0,0,1-.93.47,8.08,8.08,0,0,1-1,.32,5.17,5.17,0,0,1-1.27.15,5.07,5.07,0,0,1-1.52-.2,2.45,2.45,0,0,1-1-.54,1.55,1.55,0,0,1-.46-0.8,2,2,0,0,1,.05-1,3.46,3.46,0,0,1,.46-1,6,6,0,0,1,.85-1,9,9,0,0,1,1.21-1A11.69,11.69,0,0,1,49.54,74.9Zm-0.68,4.81a3.16,3.16,0,0,0,1-.17,5.88,5.88,0,0,0,1-.42q-0.21-.37-0.36-0.69t-0.29-.65C50.08,77.56,50,77.31,49.9,77s-0.18-.61-0.29-1a7.37,7.37,0,0,0-.79.56,6,6,0,0,0-.64.61,4.23,4.23,0,0,0-.47.61,2.4,2.4,0,0,0-.27.59,1.22,1.22,0,0,0,0,.52,0.77,0.77,0,0,0,.21.42,1.17,1.17,0,0,0,.48.28A2.44,2.44,0,0,0,48.86,79.71Zm4.29-9.1a0.94,0.94,0,0,0-.37.1,1.94,1.94,0,0,0-.44.28,2.37,2.37,0,0,0-.4.42,1.6,1.6,0,0,0-.26.52,3,3,0,0,0-.1.58q0,0.34,0,.65c0,0.21,0,.38,0,0.53a0.64,0.64,0,0,0,0,.22l0.84-.64a6.84,6.84,0,0,0,.68-0.61,4.13,4.13,0,0,0,.5-0.61,2.34,2.34,0,0,0,.3-0.64,1.08,1.08,0,0,0,0-.33,0.43,0.43,0,0,0-.09-0.25,0.52,0.52,0,0,0-.26-0.16A1.6,1.6,0,0,0,53.14,70.62Z" transform="translate(-44.14 -0.69)"/><path class="cls-1" d="M60.78,77.67l0.05-.26c0-.16.08-0.38,0.13-0.65l0.2-.93,0.23-1.1,0.26-1.18c0.09-.4.17-0.78,0.26-1.15l0.24-1c0.08-.31.14-0.56,0.2-0.76A2.1,2.1,0,0,1,62.67,70,1.35,1.35,0,0,1,63,69.6a1,1,0,0,1,.38-0.13l0.31,0a1,1,0,0,1,.42.07,0.41,0.41,0,0,1,.21.22,0.72,0.72,0,0,1,0,.35,2.74,2.74,0,0,1-.1.46l-2.18,8.74,7.42-9.18a1.51,1.51,0,0,1,.27-0.34,2,2,0,0,1,.38-0.28,2,2,0,0,1,.44-0.19,1.56,1.56,0,0,1,.46-0.07,0.34,0.34,0,0,1,.35.23,1,1,0,0,1,0,.61,3.18,3.18,0,0,1-.34.71q-0.27.44-.66,1t-0.88,1.18l-1,1.29-1,1.3-1,1.21a2.24,2.24,0,0,0-.23.35,1.93,1.93,0,0,0-.15.37,1.34,1.34,0,0,0,0,.54,0.9,0.9,0,0,0,.21.47,1.16,1.16,0,0,0,.49.33,2.33,2.33,0,0,0,.81.12,0.89,0.89,0,0,0,.28-0.05l0.34-.14,0.37-.19,0.38-.22q0.43-.27.9-0.6l-0.6,1.52a9.3,9.3,0,0,1-1.44.78,3.21,3.21,0,0,1-1.22.29,2.36,2.36,0,0,1-.85-0.13,1.29,1.29,0,0,1-.55-0.39,1.14,1.14,0,0,1-.24-0.6A2.06,2.06,0,0,1,65,78.38a3.44,3.44,0,0,1,.18-0.48q-0.73,1-1.3,1.69a10,10,0,0,1-1,1.09,3.69,3.69,0,0,1-.85.58,1.71,1.71,0,0,1-.7.17,1.3,1.3,0,0,1-.68-0.15,0.76,0.76,0,0,1-.33-0.41,1.55,1.55,0,0,1-.07-0.62,6.1,6.1,0,0,1,.11-0.78c0.06-.28.13-0.57,0.21-0.88S60.72,78,60.78,77.67Z" transform="translate(-44.14 -0.69)"/><path class="cls-1" d="M72.72,79.63c-0.22.16-.49,0.33-0.81,0.52a10.47,10.47,0,0,1-1,.51,8.83,8.83,0,0,1-1,.39,3.34,3.34,0,0,1-.94.15,1.49,1.49,0,0,1-.61-0.11,0.72,0.72,0,0,1-.34-0.3,0.89,0.89,0,0,1-.1-0.47,2.54,2.54,0,0,1,.1-0.61,7.67,7.67,0,0,1,.42-1.08c0.19-.41.4-0.83,0.63-1.27s0.46-.87.7-1.31l0.65-1.21a1,1,0,0,1,.3-0.33,2,2,0,0,1,.41-0.22,2.52,2.52,0,0,1,.44-0.12,2.24,2.24,0,0,1,.39,0,0.46,0.46,0,0,1,.39.11,0.35,0.35,0,0,1,0,.3,2.63,2.63,0,0,1-.21.47c-0.11.2-.23,0.43-0.38,0.69l-0.47.83Q71,77,70.79,77.44t-0.43.87a5.41,5.41,0,0,0-.29.76,1.52,1.52,0,0,0-.08.53,0.21,0.21,0,0,0,.25.19,1.52,1.52,0,0,0,.64-0.18,7.52,7.52,0,0,0,.78-0.44l0.8-.54,0.7-.48ZM71.6,72.08a1.53,1.53,0,0,1,.18-0.38,1.79,1.79,0,0,1,.35-0.4A1.93,1.93,0,0,1,72.67,71a1.89,1.89,0,0,1,.72-0.13,1.74,1.74,0,0,1,.47.06,0.85,0.85,0,0,1,.35.18,0.58,0.58,0,0,1,.18.32,1,1,0,0,1,0,.47,1.87,1.87,0,0,1-.22.48,1.7,1.7,0,0,1-.38.42,1.93,1.93,0,0,1-.53.3,1.88,1.88,0,0,1-.67.11,1,1,0,0,1-.87-0.3A0.91,0.91,0,0,1,71.6,72.08Z" transform="translate(-44.14 -0.69)"/><path class="cls-1" d="M72.19,79.66q0.14-.48.38-1.12t0.52-1.29c0.19-.44.37-0.86,0.56-1.27s0.36-.75.51-1a1.71,1.71,0,0,1,.47-0.57,1.11,1.11,0,0,1,.69-0.23,0.44,0.44,0,0,1,.48.24,1.09,1.09,0,0,1,0,.65,3.12,3.12,0,0,1-.11.3l-0.17.41-0.2.46-0.2.44L74.95,77l-0.08.2H75l0.21-.26,0.34-.42L76,76l0.41-.5,0.35-.42L77,74.84a2,2,0,0,1,.69-0.54,1.78,1.78,0,0,1,.71-0.15,0.49,0.49,0,0,1,.5.31,1.33,1.33,0,0,1,0,.85,2.1,2.1,0,0,1-.11.27L78.52,76l-0.28.58q-0.15.31-.3,0.65t-0.27.65q-0.13.32-.2,0.6a2.06,2.06,0,0,0-.1.75,0.27,0.27,0,0,0,.27.29,0.76,0.76,0,0,0,.27-0.07l0.36-.17,0.41-.25,0.42-.29q0.49-.34,1-0.78l-0.35,1.65-0.45.28-0.74.46a7.86,7.86,0,0,1-.77.41,5.44,5.44,0,0,1-.79.29,2.92,2.92,0,0,1-.8.11,0.56,0.56,0,0,1-.51-0.58,4,4,0,0,1,.21-1.71,9.72,9.72,0,0,1,.33-1q0.21-.51.46-1.1H76.62l-3,3.82a1.43,1.43,0,0,1-.45.41,1,1,0,0,1-.46.11,0.67,0.67,0,0,1-.45-0.13,0.57,0.57,0,0,1-.18-0.35,1.46,1.46,0,0,1,0-.49A5.07,5.07,0,0,1,72.19,79.66Z" transform="translate(-44.14 -0.69)"/><path class="cls-1" d="M85.16,79.55l-1.46.72q-0.64.31-1.13,0.51a7.64,7.64,0,0,1-.85.31,2.35,2.35,0,0,1-.64.1,1.19,1.19,0,0,1-.89-0.34,1.78,1.78,0,0,1-.43-1,5.41,5.41,0,0,1,0-1.54,14,14,0,0,1,.44-2q0.13-.44.31-0.94t0.39-1l-0.33-.05-0.24-.05L80,74.22l-0.59-.07a0.49,0.49,0,0,1-.25-0.08,0.27,0.27,0,0,1-.1-0.15,0.41,0.41,0,0,1,0-.18l0-.16a0.35,0.35,0,0,1,.21-0.22,1.49,1.49,0,0,1,.4-0.11,3.53,3.53,0,0,1,.5,0h1.22q0.48-1,1.05-1.92a15.69,15.69,0,0,1,1.16-1.65,7,7,0,0,1,1.16-1.16A1.81,1.81,0,0,1,85.88,68a0.79,0.79,0,0,1,.53.18,1,1,0,0,1,.31.47,1.91,1.91,0,0,1,.09.69,3.42,3.42,0,0,1-.14.82,3.81,3.81,0,0,1-.32.76,8,8,0,0,1-.51.82q-0.3.41-.66,0.84t-0.75.84H85l0.43,0,0.45,0,0.41,0H86.6a0.16,0.16,0,0,1,.17.15,0.8,0.8,0,0,1,0,.35,0.84,0.84,0,0,1-.27.42,0.59,0.59,0,0,1-.37.16H83.28l-0.6.58-0.55.51-0.31.9L81.7,77l-0.13.4-0.12.38-0.1.34a2.67,2.67,0,0,0-.12.67,0.9,0.9,0,0,0,.09.44,0.53,0.53,0,0,0,.27.25,1.1,1.1,0,0,0,.43.08,1.55,1.55,0,0,0,.41-0.07,5.85,5.85,0,0,0,.56-0.2c0.21-.08.43-0.19,0.67-0.3s0.47-.25.71-0.39,0.47-.29.7-0.44a7.87,7.87,0,0,0,.63-0.47Zm0.32-9.3a1.67,1.67,0,0,0,0-.18,0.59,0.59,0,0,0,0-.19,0.24,0.24,0,0,0-.07-0.15,0.28,0.28,0,0,0-.2-0.06,0.78,0.78,0,0,0-.48.34,7.11,7.11,0,0,0-.62.86q-0.33.53-.67,1.16l-0.64,1.23,0.21,0,0.22,0L84,72.5q0.36-.44.68-0.86t0.54-.79A2.53,2.53,0,0,0,85.47,70.25Z" transform="translate(-44.14 -0.69)"/><path class="cls-1" d="M92.66,79.4c-0.16.16-.36,0.34-0.61,0.55a8.42,8.42,0,0,1-.81.6,5.71,5.71,0,0,1-.9.49,2.19,2.19,0,0,1-.87.2,0.84,0.84,0,0,1-.72-0.31,1.83,1.83,0,0,1-.3-0.91,5.27,5.27,0,0,1-.55.42,5.62,5.62,0,0,1-.67.39,4.83,4.83,0,0,1-.72.28,2.39,2.39,0,0,1-.69.11,1.45,1.45,0,0,1-.65-0.14,1.18,1.18,0,0,1-.47-0.41A1.44,1.44,0,0,1,84.48,80a2.25,2.25,0,0,1,.1-0.87A5.47,5.47,0,0,1,85.06,78a8.7,8.7,0,0,1,.75-1.13,9.6,9.6,0,0,1,.94-1A7.87,7.87,0,0,1,87.81,75a5.73,5.73,0,0,1,1.1-.58A2.88,2.88,0,0,1,90,74.16a0.38,0.38,0,0,1,.25.07,0.44,0.44,0,0,1,.11.15l0.07,0.17a0.23,0.23,0,0,0,.11.12l0.17,0H91.2l0.2,0a0.24,0.24,0,0,1,.14.1,0.36,0.36,0,0,1,.05.21,1.27,1.27,0,0,1-.06.36,5.53,5.53,0,0,1-.3.78l-0.41.88c-0.14.3-.29,0.6-0.42,0.9a6.45,6.45,0,0,0-.32.86,1.87,1.87,0,0,0-.09.54,0.18,0.18,0,0,0,.21.2,1,1,0,0,0,.35-0.08,2.89,2.89,0,0,0,.4-0.2L91.37,79l0.42-.33q0.47-.4,1-0.9Zm-6.11-.58a2.53,2.53,0,0,0-.08.36,0.89,0.89,0,0,0,0,.31,0.41,0.41,0,0,0,.11.22,0.35,0.35,0,0,0,.26.08,0.9,0.9,0,0,0,.56-0.23A3.49,3.49,0,0,0,88,79a5.79,5.79,0,0,0,.46-0.68,5.43,5.43,0,0,0,.3-0.59l1.07-2.16a1.53,1.53,0,0,0-.63.15,3.2,3.2,0,0,0-.66.41,5.53,5.53,0,0,0-.64.59,6.73,6.73,0,0,0-.57.7,6.17,6.17,0,0,0-.45.73A3.83,3.83,0,0,0,86.55,78.82Z" transform="translate(-44.14 -0.69)"/><path class="cls-1" d="M94.54,80.43a5.6,5.6,0,0,1-1,.57,2.25,2.25,0,0,1-.9.22A1.45,1.45,0,0,1,92,81.07a1.18,1.18,0,0,1-.47-0.41A1.44,1.44,0,0,1,91.31,80a2.25,2.25,0,0,1,.1-0.87A5.47,5.47,0,0,1,91.88,78a8.7,8.7,0,0,1,.75-1.13,9.6,9.6,0,0,1,.94-1A7.87,7.87,0,0,1,94.64,75a5.73,5.73,0,0,1,1.1-.58,2.88,2.88,0,0,1,1.06-.22,0.38,0.38,0,0,1,.25.07,0.44,0.44,0,0,1,.11.15l0.07,0.17a0.23,0.23,0,0,0,.11.12l0.17,0H98l0.2,0a0.24,0.24,0,0,1,.14.1,0.36,0.36,0,0,1,.05.21,1.27,1.27,0,0,1-.06.36c0,0.13-.09.3-0.18,0.51s-0.18.46-.29,0.72l-0.36.84-0.38.87q-0.45,1-1,2.17c0.17-.08.36-0.19,0.57-0.31a7.54,7.54,0,0,0,.72-0.49q0.4-.31.93-0.78t1.21-1.16L99.49,79.4a4.61,4.61,0,0,1-.48.47q-0.28.24-.6,0.48l-0.66.46-0.66.42q-0.76.47-1.61,0.91-0.36.79-.77,1.53a15.26,15.26,0,0,1-.85,1.4,11.43,11.43,0,0,1-.94,1.19,6.65,6.65,0,0,1-1,.93,4.66,4.66,0,0,1-1.12.61,3.47,3.47,0,0,1-1.22.22A2.88,2.88,0,0,1,89,88a1.11,1.11,0,0,1-.48-0.21,0.8,0.8,0,0,1-.28-0.44,1.46,1.46,0,0,1,.06-0.76,2.66,2.66,0,0,1,.38-0.75,8.3,8.3,0,0,1,.71-0.87q0.42-.46,1-1t1.16-1q0.61-.49,1.27-1t1.31-.91Zm-4.49,6.18a1.31,1.31,0,0,0,.64-0.18A3.23,3.23,0,0,0,91.33,86a6.25,6.25,0,0,0,.61-0.67q0.3-.37.56-0.77T93,83.75c0.14-.25.26-0.47,0.35-0.67a7.86,7.86,0,0,0-.72.46q-0.37.27-.74,0.57t-0.72.63q-0.35.32-.62,0.62a5.72,5.72,0,0,0-.46.55,1.5,1.5,0,0,0-.23.43Q89.76,86.61,90.05,86.61Zm3.32-7.79a2.53,2.53,0,0,0-.08.36,0.89,0.89,0,0,0,0,.31,0.41,0.41,0,0,0,.11.22,0.35,0.35,0,0,0,.26.08,0.9,0.9,0,0,0,.56-0.23A3.49,3.49,0,0,0,94.77,79a5.79,5.79,0,0,0,.46-0.68,5.43,5.43,0,0,0,.3-0.59l1.07-2.16a1.53,1.53,0,0,0-.63.15,3.2,3.2,0,0,0-.66.41,5.53,5.53,0,0,0-.64.59,6.73,6.73,0,0,0-.57.7,6.17,6.17,0,0,0-.45.73A3.83,3.83,0,0,0,93.37,78.82Z" transform="translate(-44.14 -0.69)"/><path class="cls-1" d="M100.59,81.2a2.32,2.32,0,0,1-1.14-.25,1.65,1.65,0,0,1-.67-0.67,2.17,2.17,0,0,1-.24-1,3.93,3.93,0,0,1,.16-1.17A6.14,6.14,0,0,1,99,77.26a7,7,0,0,1,.5-0.9,6.87,6.87,0,0,1,.66-0.84,5.13,5.13,0,0,1,.79-0.71,4,4,0,0,1,.89-0.48,2.69,2.69,0,0,1,1-.18,1.87,1.87,0,0,1,.73.13,1.27,1.27,0,0,1,.51.37,1.19,1.19,0,0,1,.24.58,1.8,1.8,0,0,1-.07.76,2.73,2.73,0,0,1-.49.91,5,5,0,0,1-.87.86,6.51,6.51,0,0,1-1.15.72,6.83,6.83,0,0,1-1.33.49,1.64,1.64,0,0,0,.12.33,0.66,0.66,0,0,0,.16.21,0.52,0.52,0,0,0,.2.1,1,1,0,0,0,.25,0,3.19,3.19,0,0,0,1-.18,8.17,8.17,0,0,0,1.08-.44,11.4,11.4,0,0,0,1-.58c0.33-.21.63-0.41,0.87-0.59l0.67,1A14.72,14.72,0,0,1,104.07,80q-0.38.22-.8,0.43a8.67,8.67,0,0,1-.87.38,6.9,6.9,0,0,1-.91.26A4.23,4.23,0,0,1,100.59,81.2Zm0-3.45a1.75,1.75,0,0,0,.62-0.13,3.87,3.87,0,0,0,1.27-.81,1.16,1.16,0,0,0,.32-0.49,1,1,0,0,0,0-.54,0.24,0.24,0,0,0-.24-0.21,1.37,1.37,0,0,0-.57.12,1.73,1.73,0,0,0-.46.3,2.3,2.3,0,0,0-.37.43,3.9,3.9,0,0,0-.28.48,4.41,4.41,0,0,0-.2.47C100.67,77.51,100.63,77.64,100.6,77.75Z" transform="translate(-44.14 -0.69)"/><path class="cls-1" d="M106.5,78.8l0.38-.22,0.64-.36,0.8-.45,0.84-.5,0.2-.5a22.15,22.15,0,0,1,1.33-2.83,20.92,20.92,0,0,1,1.52-2.33,16,16,0,0,1,1.59-1.82,12.68,12.68,0,0,1,1.55-1.3,6.92,6.92,0,0,1,1.41-.79,3.23,3.23,0,0,1,1.17-.26,1.37,1.37,0,0,1,.64.14A0.93,0.93,0,0,1,119,68a1.57,1.57,0,0,1,.15.7,3.5,3.5,0,0,1-.16,1,6.77,6.77,0,0,1-.62,1.43,12,12,0,0,1-1,1.51A18,18,0,0,1,116,74.15q-0.75.76-1.59,1.47a22,22,0,0,1-1.77,1.33,19.19,19.19,0,0,1-1.87,1.12l-0.23.71-0.13.4-0.06.19,0,0.08a0.28,0.28,0,0,0,0,.12,0.12,0.12,0,0,0,.08.09,0.62,0.62,0,0,0,.19.05l0.35,0a3.94,3.94,0,0,0,.94-0.16l2.67-.71,0.12,0h0.11a0.56,0.56,0,0,1,.3.07,0.42,0.42,0,0,1,.17.19,0.63,0.63,0,0,1,.05.27,1.17,1.17,0,0,1,0,.32,1.22,1.22,0,0,1-.13.29,1.33,1.33,0,0,1-.21.26,1.27,1.27,0,0,1-.28.21,1,1,0,0,1-.34.12q-0.8.29-1.62,0.51l-0.73.19-0.78.16-0.78.11a6.45,6.45,0,0,1-.74,0,1.57,1.57,0,0,1-.84-0.19,1,1,0,0,1-.41-0.51,1.75,1.75,0,0,1-.07-0.74,4.92,4.92,0,0,1,.17-0.89q-0.76.46-1.28,0.74a2.25,2.25,0,0,1-.64.27,0.3,0.3,0,0,1-.21-0.08,0.59,0.59,0,0,1-.15-0.22,0.89,0.89,0,0,1-.06-0.31,1.09,1.09,0,0,1,0-.34,1.44,1.44,0,0,1,.11-0.28A0.54,0.54,0,0,1,106.5,78.8Zm4.92-2.58,1-.85q0.54-.46,1.08-1t1.07-1c0.35-.35.67-0.7,1-1a12.69,12.69,0,0,0,.79-1,5.16,5.16,0,0,0,.53-0.93c0-.1.08-0.19,0.11-0.28l0.08-.25a1.19,1.19,0,0,0,.06-0.61,0.25,0.25,0,0,0-.26-0.19,1.27,1.27,0,0,0-.62.25,5.72,5.72,0,0,0-.86.7,13.52,13.52,0,0,0-1,1.1,16.89,16.89,0,0,0-1.07,1.44,19.78,19.78,0,0,0-1,1.73A16.75,16.75,0,0,0,111.41,76.22Z" transform="translate(-44.14 -0.69)"/><path class="cls-1" d="M123.4,79.4c-0.16.16-.36,0.34-0.61,0.55a8.42,8.42,0,0,1-.81.6,5.71,5.71,0,0,1-.9.49,2.18,2.18,0,0,1-.87.2,0.84,0.84,0,0,1-.72-0.31,1.83,1.83,0,0,1-.3-0.91,5.28,5.28,0,0,1-.55.42,5.58,5.58,0,0,1-.67.39,4.85,4.85,0,0,1-.72.28,2.4,2.4,0,0,1-.69.11,1.45,1.45,0,0,1-.65-0.14,1.19,1.19,0,0,1-.47-0.41,1.44,1.44,0,0,1-.22-0.65,2.27,2.27,0,0,1,.09-0.87,5.47,5.47,0,0,1,.48-1.13,8.65,8.65,0,0,1,.75-1.13,9.54,9.54,0,0,1,.94-1,7.9,7.9,0,0,1,1.06-.86,5.73,5.73,0,0,1,1.1-.58,2.88,2.88,0,0,1,1.06-.22,0.37,0.37,0,0,1,.25.07,0.44,0.44,0,0,1,.11.15l0.07,0.17a0.23,0.23,0,0,0,.11.12l0.17,0h0.52l0.2,0a0.24,0.24,0,0,1,.14.1,0.35,0.35,0,0,1,.05.21,1.27,1.27,0,0,1-.06.36,5.42,5.42,0,0,1-.3.78l-0.41.88c-0.14.3-.29,0.6-0.42,0.9a6.51,6.51,0,0,0-.32.86,1.87,1.87,0,0,0-.09.54,0.18,0.18,0,0,0,.21.2,1,1,0,0,0,.35-0.08,2.86,2.86,0,0,0,.4-0.2c0.14-.08.28-0.18,0.43-0.28l0.42-.33q0.47-.4,1-0.9Zm-6.11-.58a2.54,2.54,0,0,0-.08.36,0.89,0.89,0,0,0,0,.31,0.41,0.41,0,0,0,.11.22,0.35,0.35,0,0,0,.25.08,0.9,0.9,0,0,0,.56-0.23,3.51,3.51,0,0,0,.54-0.57,5.67,5.67,0,0,0,.46-0.68,5.44,5.44,0,0,0,.3-0.59l1.07-2.16a1.53,1.53,0,0,0-.63.15,3.2,3.2,0,0,0-.66.41,5.53,5.53,0,0,0-.64.59,6.73,6.73,0,0,0-.57.7,6.17,6.17,0,0,0-.45.73A3.86,3.86,0,0,0,117.28,78.82Z" transform="translate(-44.14 -0.69)"/><path class="cls-1" d="M126.09,75.28a11.4,11.4,0,0,1,1-.83,1.37,1.37,0,0,1,.77-0.31,1.25,1.25,0,0,1,.72.19,1.2,1.2,0,0,1,.43.51,1.8,1.8,0,0,1,.15.73,2.91,2.91,0,0,1-.12.86c-0.07.25-.15,0.49-0.23,0.71a5.92,5.92,0,0,1-.29.65,5.39,5.39,0,0,1-.4.64,6.62,6.62,0,0,1-.54.65l0.62-.3,0.64-.32c0.22-.12.44-0.25,0.67-0.39s0.47-.31.72-0.51l0.22,1.21a11,11,0,0,1-1,.64,8.9,8.9,0,0,1-1,.47,9.25,9.25,0,0,1-1,.35q-0.5.15-1.05,0.26a2.5,2.5,0,0,1-.41.25l-0.5.23L125,81.2h-0.18a4,4,0,0,1-1.19-.17,6.86,6.86,0,0,1-1-.39,6.07,6.07,0,0,1-1-.56q0.19-.59.47-1.34t0.6-1.52q0.35-.88.84-2,0.32-.72.75-1.6t0.93-1.79q0.5-.91,1-1.76a14.77,14.77,0,0,1,1.1-1.52,6.46,6.46,0,0,1,1.1-1.07,1.78,1.78,0,0,1,1-.4,1.51,1.51,0,0,1,.84.19,0.89,0.89,0,0,1,.37.52,1.85,1.85,0,0,1,0,.77,7.73,7.73,0,0,1-.21.94,5.56,5.56,0,0,1-.67,1.44,13.41,13.41,0,0,1-1.11,1.48q-0.63.74-1.35,1.44T126,75.2Zm0.51,0.54a1.58,1.58,0,0,0-.54.11,2.14,2.14,0,0,0-.57.33,3.35,3.35,0,0,0-.55.57,4.28,4.28,0,0,0-.49.84l-0.32.73-0.24.59-0.21.55,0.45,0.13,0.42,0.08a2.74,2.74,0,0,0,.44,0,1,1,0,0,0,.5-0.15,2.25,2.25,0,0,0,.48-0.39,4.07,4.07,0,0,0,.44-0.56,6.51,6.51,0,0,0,.38-0.66q0.17-.34.3-0.68a6.36,6.36,0,0,0,.21-0.61,1.56,1.56,0,0,0,.06-0.35,0.54,0.54,0,0,0-.06-0.29,0.5,0.5,0,0,0-.24-0.2A1.08,1.08,0,0,0,126.6,75.82Zm2.65-6.73s0-.06,0-0.12a0.67,0.67,0,0,0,0-.2,0.43,0.43,0,0,0-.06-0.18A0.19,0.19,0,0,0,129,68.5a0.6,0.6,0,0,0-.36.21,4.09,4.09,0,0,0-.47.57q-0.26.36-.54,0.82t-0.57,1q-0.29.51-.56,1l-0.51,1-0.42.87-0.3.63q0.31-.38.67-0.79l0.74-.86q0.38-.44.75-0.91c0.25-.31.49-0.63,0.71-1a11,11,0,0,0,.61-1A7.3,7.3,0,0,0,129.25,69.09Z" transform="translate(-44.14 -0.69)"/><path class="cls-1" d="M131.48,81.2a2.32,2.32,0,0,1-1.14-.25,1.65,1.65,0,0,1-.67-0.67,2.17,2.17,0,0,1-.24-1,3.9,3.9,0,0,1,.16-1.17,6.14,6.14,0,0,1,.33-0.87,6.93,6.93,0,0,1,1.16-1.74,5.19,5.19,0,0,1,.79-0.71,4,4,0,0,1,.89-0.48,2.69,2.69,0,0,1,1-.18,1.87,1.87,0,0,1,.73.13,1.27,1.27,0,0,1,.51.37,1.18,1.18,0,0,1,.24.58,1.82,1.82,0,0,1-.07.76,2.7,2.7,0,0,1-.48.91,5,5,0,0,1-.87.86,6.47,6.47,0,0,1-1.15.72,6.85,6.85,0,0,1-1.33.49,1.64,1.64,0,0,0,.12.33,0.66,0.66,0,0,0,.16.21,0.52,0.52,0,0,0,.2.1,1,1,0,0,0,.25,0,3.2,3.2,0,0,0,1-.18A8.17,8.17,0,0,0,134.1,79a11.4,11.4,0,0,0,1-.58q0.5-.31.87-0.59l0.67,1A14.72,14.72,0,0,1,135,80q-0.38.22-.8,0.43a8.59,8.59,0,0,1-.87.38,6.8,6.8,0,0,1-.91.26A4.22,4.22,0,0,1,131.48,81.2Zm0-3.45a1.75,1.75,0,0,0,.62-0.13,3.78,3.78,0,0,0,.68-0.35,3.7,3.7,0,0,0,.58-0.46,1.15,1.15,0,0,0,.32-0.49,1,1,0,0,0,0-.54,0.24,0.24,0,0,0-.24-0.21,1.37,1.37,0,0,0-.57.12,1.75,1.75,0,0,0-.46.3,2.34,2.34,0,0,0-.37.43,3.89,3.89,0,0,0-.28.48,4.41,4.41,0,0,0-.2.47C131.57,77.51,131.52,77.64,131.49,77.75Z" transform="translate(-44.14 -0.69)"/><path class="cls-1" d="M136.42,81.2a0.75,0.75,0,0,1-.64-0.35,2.2,2.2,0,0,1-.33-0.94,5.58,5.58,0,0,1,0-1.36,9.35,9.35,0,0,1,.32-1.63,13.63,13.63,0,0,1,.5-1.42q0.31-.77.73-1.58t0.91-1.64q0.49-.82,1-1.58t1.1-1.41a11.73,11.73,0,0,1,1.12-1.15,5.59,5.59,0,0,1,1.08-.77,2.14,2.14,0,0,1,1-.28,0.71,0.71,0,0,1,.48.14,0.67,0.67,0,0,1,.21.38,1.62,1.62,0,0,1,0,.53,4.13,4.13,0,0,1-.13.61,8.13,8.13,0,0,1-.56,1.41,15.23,15.23,0,0,1-.84,1.44q-0.48.72-1,1.45t-1.15,1.44l-1.17,1.41q-0.58.69-1.11,1.36l-0.13.19-0.15.25L137.5,78l-0.14.3,0,0.1a1.86,1.86,0,0,0-.07.37,1.94,1.94,0,0,0,0,.32,0.76,0.76,0,0,0,.06.23,0.12,0.12,0,0,0,.1.08,1.25,1.25,0,0,0,.34-0.06l0.43-.16,0.48-.23,0.49-.26q0.55-.31,1.17-0.71l0.16,1.54q-0.79.47-1.53,0.84l-0.67.3c-0.23.1-.45,0.19-0.68,0.27a5.8,5.8,0,0,1-.64.19A2.51,2.51,0,0,1,136.42,81.2Zm1.69-5.88q0.5-.59,1.08-1.32t1.14-1.51q0.56-.78,1-1.55a9.42,9.42,0,0,0,.72-1.44q0.06-.21.09-0.36c0-.1,0-0.15,0-0.15a0.94,0.94,0,0,0-.54.28,5.61,5.61,0,0,0-.71.75,12.74,12.74,0,0,0-.79,1.09q-0.4.63-.78,1.33t-0.7,1.45A12.66,12.66,0,0,0,138.12,75.32Z" transform="translate(-44.14 -0.69)"/><path class="cls-1" d="M139.58,78.38l0.84-.59,0.56-.43q0.24-.19.45-0.39l0.49-.47,0.69-.67,1-1,0.29-.26a2.41,2.41,0,0,1,.33-0.22,1.92,1.92,0,0,1,.36-0.16,1.27,1.27,0,0,1,.4-0.06,1.34,1.34,0,0,1,.52.08,0.46,0.46,0,0,1,.23.19,0.37,0.37,0,0,1,0,.23,1.87,1.87,0,0,1,0,.21,1,1,0,0,1-.25.39c-0.13.14-.28,0.28-0.43,0.41l-0.42.36a1.14,1.14,0,0,0-.24.25,2.49,2.49,0,0,0-.09.42,2.75,2.75,0,0,0,0,.37c0,0.12,0,.25,0,0.38s0,0.29,0,.47a5.61,5.61,0,0,1-.09.61c0,0.23-.11.5-0.2,0.81a6.48,6.48,0,0,1,.66-0.32l0.72-.3,0.78-.34a8.43,8.43,0,0,0,.83-0.45l-0.47,1.65a9.86,9.86,0,0,1-1.24.66,13.91,13.91,0,0,1-1.41.54,12,12,0,0,1-1.44.37,7,7,0,0,1-1.31.14,3.47,3.47,0,0,1-.79-0.08,1.55,1.55,0,0,1-.58-0.25,0.92,0.92,0,0,1-.33-0.45,1.3,1.3,0,0,1,0-.68l-0.21,0H138.8a0.28,0.28,0,0,1-.16-0.05,0.22,0.22,0,0,1-.07-0.15,0.83,0.83,0,0,1,0-.31,0.84,0.84,0,0,1,.18-0.33,2,2,0,0,1,.28-0.27l0.29-.21Zm0.67,0.94a0.21,0.21,0,0,1,.16.11l0.18,0.24a1.21,1.21,0,0,0,.25.24,0.64,0.64,0,0,0,.39.11,1.23,1.23,0,0,0,.5-0.1,1.2,1.2,0,0,0,.37-0.25,1.44,1.44,0,0,0,.26-0.37,2.6,2.6,0,0,0,.17-0.44,3.73,3.73,0,0,0,.09-0.4c0-.14,0-0.27,0-0.39s0-.24,0-0.35,0-.2,0-0.28Z" transform="translate(-44.14 -0.69)"/><path class="cls-1" d="M83.79,102.79v-0.38h1.79V94.29a1,1,0,0,0-.11-0.54A0.66,0.66,0,0,0,85,93.63h-1.3V93.25q1.34,0,2,0l1.49-.12v9.33H89v0.38H83.79Z" transform="translate(-44.14 -0.69)"/><path class="cls-1" d="M95.18,101.29a6.27,6.27,0,0,1-4.1,1.79v-0.33A4.82,4.82,0,0,0,94.22,101a5.75,5.75,0,0,0,.86-2.36,2.55,2.55,0,0,1-.6.44,2.61,2.61,0,0,1-1.23.3,2.54,2.54,0,0,1-2-.92,3.24,3.24,0,0,1-.81-2.23,2.9,2.9,0,0,1,1-2.2,3.22,3.22,0,0,1,2.29-.93A2.94,2.94,0,0,1,96,94.19a4.4,4.4,0,0,1,1,3A5.35,5.35,0,0,1,95.18,101.29Zm-0.26-7.15a1.22,1.22,0,0,0-1.31-.77,1.05,1.05,0,0,0-1.1.8,8.65,8.65,0,0,0-.26,2.44,4.45,4.45,0,0,0,.27,1.76,1,1,0,0,0,1,.62,1.83,1.83,0,0,0,1-.29A2.54,2.54,0,0,0,95.15,98c0-.1,0-0.22,0-0.37s0-.31,0-0.5A11.55,11.55,0,0,0,94.93,94.14Z" transform="translate(-44.14 -0.69)"/><path class="cls-1" d="M103.62,102.1a3.21,3.21,0,0,1-2.29.93,3,3,0,0,1-2.27-1.11,4.36,4.36,0,0,1-1-3,5.36,5.36,0,0,1,1.79-4.08,6.24,6.24,0,0,1,4.1-1.79v0.33a4.81,4.81,0,0,0-3.13,1.78,6,6,0,0,0-.87,2.38,3.24,3.24,0,0,1,.62-0.44,2.61,2.61,0,0,1,1.23-.3,2.48,2.48,0,0,1,2,.92,3.28,3.28,0,0,1,.81,2.23A2.9,2.9,0,0,1,103.62,102.1Zm-1.11-4.35a1,1,0,0,0-.95-0.62,1.85,1.85,0,0,0-1,.29,2.54,2.54,0,0,0-.69.68c0,0.1,0,.22,0,0.37s0,0.31,0,.5a10.75,10.75,0,0,0,.27,3,1.21,1.21,0,0,0,1.29.77,1.05,1.05,0,0,0,1.1-.8,8.65,8.65,0,0,0,.26-2.44A4.52,4.52,0,0,0,102.5,97.75Z" transform="translate(-44.14 -0.69)"/><path class="cls-1" d="M111,101.54a2.79,2.79,0,0,1-2.29,1.49,2.73,2.73,0,0,1-2.27-1.49,6.69,6.69,0,0,1,0-7,2.79,2.79,0,0,1,2.29-1.49A2.75,2.75,0,0,1,111,94.58a6.13,6.13,0,0,1,1,3.49A6.23,6.23,0,0,1,111,101.54Zm-0.86-5.33a5,5,0,0,0-.35-2,1.16,1.16,0,0,0-1.08-.75,1.13,1.13,0,0,0-1.07.75,5,5,0,0,0-.35,2v3.69a5,5,0,0,0,.35,2,1.14,1.14,0,0,0,1.08.75,1.12,1.12,0,0,0,1.05-.75,4.7,4.7,0,0,0,.36-2V96.22Z" transform="translate(-44.14 -0.69)"/><line class="cls-2" x1="70.38" y1="93.75" x2="90.34" y2="93.75"/><line class="cls-2" x1="70.38" y1="100.78" x2="83.8" y2="100.78"/><line class="cls-2" x1="35.05" y1="93.75" x2="15.1" y2="93.75"/><line class="cls-2" x1="35.05" y1="100.78" x2="21.64" y2="100.78"/><path class="cls-1" d="M53.57,24.47q4.67,0,6.86,2.67a10,10,0,0,1,1.92,6.51v5.59a9.15,9.15,0,0,1-3,6.91L63.5,63h-6l-3.39-14.5H50.34V63H44.76V24.47h8.81Zm3.34,9.28q0-3.35-3.19-3.35H50.34V42.72h3.37a3,3,0,0,0,2.26-1,3.32,3.32,0,0,0,.93-2.37V33.75Z" transform="translate(-44.14 -0.69)"/><path class="cls-1" d="M68.29,63V24.44h15.9v5.84H73.87V40.78h7.54v5.84H73.87V57.13H84.19V63H68.29Z" transform="translate(-44.14 -0.69)"/><path class="cls-1" d="M94,30.31H88V24.47h17.44v5.84H99.55V63H94V30.31Z" transform="translate(-44.14 -0.69)"/><path class="cls-1" d="M118.77,24.47q4.67,0,6.86,2.67a10,10,0,0,1,1.92,6.51v5.59a9.16,9.16,0,0,1-3,6.91L128.7,63h-6l-3.39-14.5h-3.72V63H110V24.47h8.81Zm3.34,9.28q0-3.35-3.19-3.35h-3.37V42.72h3.37a3,3,0,0,0,2.26-1,3.32,3.32,0,0,0,.93-2.37V33.75Z" transform="translate(-44.14 -0.69)"/><path class="cls-1" d="M141.38,24a8.37,8.37,0,0,1,6.28,2.7,9.08,9.08,0,0,1,2.59,6.51v21a9,9,0,0,1-2.6,6.53,8.63,8.63,0,0,1-12.53,0,9.11,9.11,0,0,1-2.57-6.51v-21a9,9,0,0,1,2.6-6.53A8.37,8.37,0,0,1,141.38,24Zm3,9.09a3.27,3.27,0,0,0-.93-2.35,3,3,0,0,0-2.26-1,3.06,3.06,0,0,0-2.28,1,3.24,3.24,0,0,0-.95,2.35V54.15A3.24,3.24,0,0,0,139,56.5a3.06,3.06,0,0,0,2.28,1,3,3,0,0,0,2.26-1,3.27,3.27,0,0,0,.93-2.35V33.07Z" transform="translate(-44.14 -0.69)"/><line class="cls-3" x1="36.25" y1="107.59" x2="70.48" y2="107.59"/></svg>