<svg id="Logo_7" data-name="Logo 7" xmlns="http://www.w3.org/2000/svg" viewBox="0 0 192.95 109.12"><defs><style>.cls-1,.cls-2{fill:#353531;}.cls-1,.cls-4,.cls-5{stroke:#353531;}.cls-1{stroke-miterlimit:10;stroke-width:0.86px;fill-rule:evenodd;}.cls-3{fill:#f4f2ec;}.cls-4,.cls-5{fill:none;stroke-linecap:round;stroke-linejoin:round;}.cls-4{stroke-width:3.13px;}.cls-5{stroke-width:2.91px;}</style></defs><title>logo-7</title><g id="Banner"><path class="cls-1" d="M37.36,70A566.17,566.17,0,0,1,151,70l-4.36,12.51a522.72,522.72,0,0,0-104.85,0Z" transform="translate(-1.54 -10.89)"/><path class="cls-1" d="M166.74,89.68C152.67,87.6,138.37,86.14,124,85.3q11.92-1.08,24.28-1.58l3.28-9Q162.32,75.83,173,77.4q-5.6,2.47-10.9,5.05Q164.58,86.06,166.74,89.68Z" transform="translate(-1.54 -10.89)"/><path class="cls-1" d="M26.27,82.45Q21,79.87,15.35,77.4,26,75.83,36.83,74.69l3.27,9q12.39,0.5,24.35,1.58C50,86.14,35.69,87.6,21.58,89.68Q23.75,86.06,26.27,82.45Z" transform="translate(-1.54 -10.89)"/></g><path class="cls-2" d="M8.92,35.37a2.17,2.17,0,0,0,.15-0.68q0-.75-1.25-0.75H7.51a0.84,0.84,0,0,1-.95-1,1.36,1.36,0,0,1,.55-1.16,4.19,4.19,0,0,1,2.26-.41,10.79,10.79,0,0,1,3.72.52,2,2,0,0,1,1.36,2,5.3,5.3,0,0,1-.08.86,4.19,4.19,0,0,1-.29,1L7.14,53.8a3.53,3.53,0,0,0-.18.86,0.41,0.41,0,0,0,.43.5,2.2,2.2,0,0,0,1.07-.39A7.53,7.53,0,0,0,10.35,53a21.34,21.34,0,0,0,1.77-2.66,58.33,58.33,0,0,0,4-8.73q1.7-4.63,3.32-10.09h5.08q-0.95,2.89-1.94,5.74t-2.23,5.53A42.8,42.8,0,0,1,17.53,48a29.11,29.11,0,0,1-3.75,4.67,25.23,25.23,0,0,1-5.06,4.14,8.76,8.76,0,0,1-4.36,1.39,2.75,2.75,0,0,1-2.14-.75,2.67,2.67,0,0,1-.67-1.85,4.82,4.82,0,0,1,.11-1,8.68,8.68,0,0,1,.29-1.05Z" transform="translate(-1.54 -10.89)"/><path class="cls-2" d="M30.77,51.91A6.85,6.85,0,0,1,29.34,54a13.84,13.84,0,0,1-2.36,2,14.72,14.72,0,0,1-2.78,1.5,7.19,7.19,0,0,1-2.68.59,2.18,2.18,0,0,1-1.61-.62,2.28,2.28,0,0,1-.63-1.69,4.51,4.51,0,0,1,.4-1.78l4.56-11.91L28.1,44.6l-3.24,8.52a2.13,2.13,0,0,0-.15.64,0.47,0.47,0,0,0,.52.54,2.61,2.61,0,0,0,1.22-.39,8.64,8.64,0,0,0,1.38-1,10.11,10.11,0,0,0,1.22-1.23,4.64,4.64,0,0,0,.77-1.19Zm0.49-14.83a2.11,2.11,0,0,1-.38,1.23,3.48,3.48,0,0,1-.95.93,5,5,0,0,1-1.24.59,4.16,4.16,0,0,1-1.25.21A2.54,2.54,0,0,1,26,39.63a1.28,1.28,0,0,1-.63-1.12,2.14,2.14,0,0,1,.34-1.12,3.64,3.64,0,0,1,.89-1,4.57,4.57,0,0,1,1.22-.68,3.94,3.94,0,0,1,1.38-.25,2.47,2.47,0,0,1,1.42.43A1.35,1.35,0,0,1,31.26,37.08Z" transform="translate(-1.54 -10.89)"/><path class="cls-2" d="M46.13,51.91a6.63,6.63,0,0,1-1.44,2.17,14.38,14.38,0,0,1-2.37,2,14,14,0,0,1-2.79,1.48,7.31,7.31,0,0,1-2.65.57,2.15,2.15,0,0,1-1.65-.62,2.33,2.33,0,0,1-.58-1.66A6,6,0,0,1,35,54.08q0.38-1.14.92-2.5t1.12-2.71q0.58-1.35.95-2.42a5.14,5.14,0,0,0,.12-0.5,2,2,0,0,0,0-.32,0.38,0.38,0,0,0-.43-0.43,1.13,1.13,0,0,0-.7.23,1.39,1.39,0,0,0-.46.66L32.05,58H26.94L33,42.14l3.21,2A3.2,3.2,0,0,1,38.08,43a12.25,12.25,0,0,1,2.14-.2,2.26,2.26,0,0,1,1.79.71,2.87,2.87,0,0,1,.63,2,6.24,6.24,0,0,1-.24,1.59Q42.15,48,41.78,49T41,51q-0.41,1-.72,1.91a2.19,2.19,0,0,0-.21.82,0.48,0.48,0,0,0,.55.54,2.58,2.58,0,0,0,1.19-.39,8.64,8.64,0,0,0,1.38-1,10.07,10.07,0,0,0,1.22-1.23,4.64,4.64,0,0,0,.77-1.19Z" transform="translate(-1.54 -10.89)"/><path class="cls-2" d="M54.94,51.91a6.72,6.72,0,0,1-1.42,2.17,14.15,14.15,0,0,1-2.34,2,13.72,13.72,0,0,1-2.75,1.48,7.26,7.26,0,0,1-2.66.57,2,2,0,0,1-1.64-.75,2.77,2.77,0,0,1-.6-1.78,4.61,4.61,0,0,1,.08-0.77A3.85,3.85,0,0,1,43.86,54l3.31-8.66H45.85l0.77-2H47.9l4.25-11,5.2-.39L53,43.32h1.38l-0.77,2H52.25l-3.18,8.27a1.55,1.55,0,0,0-.15.57,0.26,0.26,0,0,0,.31.29A2.73,2.73,0,0,0,50.49,54a8.76,8.76,0,0,0,1.42-1,10.29,10.29,0,0,0,1.29-1.28A5.36,5.36,0,0,0,54,50.52Z" transform="translate(-1.54 -10.89)"/><path class="cls-2" d="M69.66,51.91a7.67,7.67,0,0,1-1.5,2.23,13.87,13.87,0,0,1-5.11,3.46,7.41,7.41,0,0,1-2.63.55,1.09,1.09,0,0,1-.87-0.37,1.9,1.9,0,0,1-.41-1,4.75,4.75,0,0,1-1.45,1,5.62,5.62,0,0,1-2.22.36,3,3,0,0,1-2.07-.73,2.85,2.85,0,0,1-.81-2.23A9.42,9.42,0,0,1,53,52.87a19.34,19.34,0,0,1,1.07-3,27.77,27.77,0,0,1,1.76-3.51,10.67,10.67,0,0,1,1.67-2.16,4.6,4.6,0,0,1,3.37-1.39,3,3,0,0,1,1.79.41,3.27,3.27,0,0,1,.87,1l0.31-.82h3.64l-3.21,8.38L63.74,53.1a1.94,1.94,0,0,0-.14.66,0.47,0.47,0,0,0,.52.54,2.61,2.61,0,0,0,1.22-.39,8.62,8.62,0,0,0,1.38-1,10.07,10.07,0,0,0,1.22-1.23,4.64,4.64,0,0,0,.77-1.19Zm-8.14-5.6a0.46,0.46,0,0,0,.06-0.23V45.85a0.6,0.6,0,0,0-.11-0.34,0.46,0.46,0,0,0-.41-0.16,0.92,0.92,0,0,0-.72.29,2.64,2.64,0,0,0-.47.89l-2.79,7.31A3.08,3.08,0,0,0,56.81,55c0,0.38.14,0.57,0.43,0.57q0.7,0,1.35-1.57Z" transform="translate(-1.54 -10.89)"/><path class="cls-2" d="M84.47,51.91a6.74,6.74,0,0,1-1.1,1.78,11.62,11.62,0,0,1-1.7,1.68,11.84,11.84,0,0,1-1.88,1.25,3.66,3.66,0,0,1-1.65.5,1.67,1.67,0,0,1-.95-0.29l-1.25,3.39a6.46,6.46,0,0,1-6.61,4.49q-3.46,0-3.46-2.6a4.57,4.57,0,0,1,.37-1.82,5.6,5.6,0,0,1,1-1.55,6.79,6.79,0,0,1,1.45-1.21,6.56,6.56,0,0,1,1.71-.77q-2.23-.5-2.23-3.28a8.87,8.87,0,0,1,.17-1.64,9.82,9.82,0,0,1,.6-1.93,21.59,21.59,0,0,1,1.71-3.67,9.08,9.08,0,0,1,1.73-2.14,4.61,4.61,0,0,1,1.81-1,7.75,7.75,0,0,1,2-.25,2.6,2.6,0,0,1,1.44.37,2,2,0,0,1,.83,1.05l0.28-.82H82.3l-3.46,9a3.68,3.68,0,0,0-.37,1.28,0.48,0.48,0,0,0,.55.54,2.41,2.41,0,0,0,1.16-.39,9.46,9.46,0,0,0,1.35-1,10.07,10.07,0,0,0,1.22-1.23,5.54,5.54,0,0,0,.8-1.19ZM72.08,57q-0.77.61-1.27,1.09A4,4,0,0,0,70,59.32q-0.43.89-.58,1.32a2.14,2.14,0,0,0-.15.68,0.44,0.44,0,0,0,.52.46,0.85,0.85,0,0,0,.77-0.61,17.23,17.23,0,0,0,.7-1.68Q71.59,58.5,72.08,57Zm4.31-10.7a1.43,1.43,0,0,0,.09-0.5,0.47,0.47,0,0,0-.55-0.5,1,1,0,0,0-.66.18,1.48,1.48,0,0,0-.35.57L72.6,52.23a3.12,3.12,0,0,0-.25,1.07q0,0.5.37,0.5a1.38,1.38,0,0,0,1.22-1.07Z" transform="translate(-1.54 -10.89)"/><path class="cls-2" d="M97.48,51.91a7.1,7.1,0,0,1-1,1.67,9.66,9.66,0,0,1-1.62,1.6,14.17,14.17,0,0,1-3.49,2.21,10.09,10.09,0,0,1-4,.75q-1.22,0-2.16-.09a4.46,4.46,0,0,1-1.58-.41,2.26,2.26,0,0,1-1-.91,3.18,3.18,0,0,1-.34-1.59,12.25,12.25,0,0,1,.95-4l1.13-3a13.7,13.7,0,0,1,1.19-2.48,6,6,0,0,1,1.52-1.66,5.69,5.69,0,0,1,2-.93,11.34,11.34,0,0,1,2.71-.29,10.07,10.07,0,0,1,2,.16,3.47,3.47,0,0,1,1.21.45,1.52,1.52,0,0,1,.6.71,2.62,2.62,0,0,1,.17,1,10.41,10.41,0,0,1-.23,2,6.25,6.25,0,0,1-.93,2.21,3.83,3.83,0,0,1-1.33,1.23,8.2,8.2,0,0,1-1.85.77,15.06,15.06,0,0,1-2,.43q-1,.14-1.88.18-0.37.93-.57,1.59a3.92,3.92,0,0,0-.2,1.09,0.93,0.93,0,0,0,1.13,1,9,9,0,0,0,2.57-.39,11.26,11.26,0,0,0,4.62-2.71,7.2,7.2,0,0,0,1.47-2Zm-9.33-1.82a3.09,3.09,0,0,0,1.27-.43,3.56,3.56,0,0,0,1-.93,4.51,4.51,0,0,0,.67-1.32,5.13,5.13,0,0,0,.24-1.6,0.47,0.47,0,0,0-.58-0.46,0.94,0.94,0,0,0-.66.27,3.23,3.23,0,0,0-.63,1.12Z" transform="translate(-1.54 -10.89)"/><path class="cls-2" d="M127.44,53.3q-1.35,1.53-2.31,2.48a10.28,10.28,0,0,1-1.85,1.48,5.53,5.53,0,0,1-1.82.71,11.86,11.86,0,0,1-2.19.18,8.76,8.76,0,0,1-4.18-1,32,32,0,0,1-4-2.58,10.12,10.12,0,0,1-1.87,1.84,10,10,0,0,1-1.84,1.09,7.28,7.28,0,0,1-1.71.53,9.24,9.24,0,0,1-1.56.14,3.11,3.11,0,0,1-2-.7,2.89,2.89,0,0,1-.86-2.37,6.38,6.38,0,0,1,.31-2,4.32,4.32,0,0,1,1-1.66,4.87,4.87,0,0,1,1.7-1.14,6.48,6.48,0,0,1,2.49-.43h0.87q0.41,0,.84,0,0.95-1.89,1.71-3.85t1.74-4q0.55-1.21,1-2.12t0.95-1.68q0.46-.77.92-1.46t1-1.44A5.28,5.28,0,0,0,114,33.85a5.35,5.35,0,0,0-2.31-.45,3.49,3.49,0,0,0-1.12.16,6.25,6.25,0,0,0-.83.34c-0.23.12-.44,0.23-0.61,0.34a0.89,0.89,0,0,1-.44.16,0.61,0.61,0,0,1-.47-0.23,0.77,0.77,0,0,1-.2-0.52,1.39,1.39,0,0,1,.41-1,3.41,3.41,0,0,1,1-.71,5.27,5.27,0,0,1,1.36-.41,8.86,8.86,0,0,1,1.45-.12,7.46,7.46,0,0,1,3.18.57,6.8,6.8,0,0,1,2,1.35,7.27,7.27,0,0,1,2.08-1.6,5.64,5.64,0,0,1,2.57-.57,2.86,2.86,0,0,1,2.34.94,3.6,3.6,0,0,1,.78,2.37,4.83,4.83,0,0,1-1,3.1,3.16,3.16,0,0,1-2.62,1.21,6.26,6.26,0,0,1-2.78-.57q-0.52,1.21-1.07,2.62t-1.21,3q-0.66,1.62-1.45,3.44t-1.81,3.81a9,9,0,0,1,1.93,1.3q0.92,0.8,1.88,1.55a11.94,11.94,0,0,0,2.1,1.3,5.86,5.86,0,0,0,2.6.55q2,0,4.35-3Zm-20.38-.86a3.53,3.53,0,0,0-.86-0.11,3.35,3.35,0,0,0-1,.16,2.73,2.73,0,0,0-.9.48,2.32,2.32,0,0,0-.63.78,2.38,2.38,0,0,0-.23,1.07,0.61,0.61,0,0,0,.73.64,2,2,0,0,0,1.3-.78A12.28,12.28,0,0,0,107.06,52.44Zm12.85-16.36a2.11,2.11,0,0,0,1.41.46,1.47,1.47,0,0,0,1.13-.46,1.53,1.53,0,0,0,.43-1.07,1.07,1.07,0,0,0-.2-0.66,0.58,0.58,0,0,0-.47-0.27,1.78,1.78,0,0,0-1.25.52A5.34,5.34,0,0,0,119.91,36.08Z" transform="translate(-1.54 -10.89)"/><path class="cls-2" d="M142.77,51.91a7.66,7.66,0,0,1-1.5,2.23,13.87,13.87,0,0,1-5.11,3.46,7.41,7.41,0,0,1-2.63.55,1.09,1.09,0,0,1-.87-0.37,1.91,1.91,0,0,1-.41-1,4.74,4.74,0,0,1-1.45,1,5.62,5.62,0,0,1-2.22.36,3,3,0,0,1-2.07-.73,2.85,2.85,0,0,1-.81-2.23,9.4,9.4,0,0,1,.37-2.32,19.33,19.33,0,0,1,1.07-3,28,28,0,0,1,1.76-3.51,10.72,10.72,0,0,1,1.67-2.16,4.6,4.6,0,0,1,3.37-1.39,3,3,0,0,1,1.79.41,3.27,3.27,0,0,1,.87,1l0.31-.82h3.64l-3.21,8.38-0.47,1.27a1.94,1.94,0,0,0-.14.66,0.47,0.47,0,0,0,.52.54,2.6,2.6,0,0,0,1.22-.39,8.63,8.63,0,0,0,1.38-1,10.1,10.1,0,0,0,1.22-1.23,4.66,4.66,0,0,0,.77-1.19Zm-8.14-5.6a0.46,0.46,0,0,0,.06-0.23V45.85a0.6,0.6,0,0,0-.11-0.34,0.46,0.46,0,0,0-.41-0.16,0.92,0.92,0,0,0-.72.29,2.64,2.64,0,0,0-.47.89l-2.79,7.31a3.08,3.08,0,0,0-.28,1.21c0,0.38.14,0.57,0.43,0.57q0.7,0,1.35-1.57Z" transform="translate(-1.54 -10.89)"/><path class="cls-2" d="M157,51.91a7.58,7.58,0,0,1-1.16,1.87,6,6,0,0,1-1.3,1.14,4.62,4.62,0,0,1-2.4.73,2.41,2.41,0,0,1-1.16-.25,1.49,1.49,0,0,1-.64-0.61,7.56,7.56,0,0,1-1.24,1.32,9.9,9.9,0,0,1-1.55,1.07,7.92,7.92,0,0,1-1.7.71,6.08,6.08,0,0,1-1.67.25q-3.7,0-3.7-3.35a7.38,7.38,0,0,1,.58-2.71l7.86-20.57H154l-4.62,12.19a2.74,2.74,0,0,1,1-.68,3.27,3.27,0,0,1,1.15-.18,1.92,1.92,0,0,1,1.82.87,4.17,4.17,0,0,1,.51,2.12,8.52,8.52,0,0,1-.4,2.17q-0.4,1.39-1.16,3.42a1.62,1.62,0,0,0-.12.64,0.64,0.64,0,0,0,.76.68,3,3,0,0,0,1.73-.55A4.66,4.66,0,0,0,156,50.52Zm-7-5.85a0.94,0.94,0,0,0,0-.25c0-.31-0.2-0.46-0.61-0.46a0.93,0.93,0,0,0-.61.18,1.39,1.39,0,0,0-.37.57l-3.09,8a1.87,1.87,0,0,0-.18.61,4.72,4.72,0,0,0,0,.5q0,0.57.4,0.57,0.67,0,1.38-1.68Z" transform="translate(-1.54 -10.89)"/><path class="cls-2" d="M170,51.91a7.12,7.12,0,0,1-1,1.67,9.68,9.68,0,0,1-1.62,1.6,14.19,14.19,0,0,1-3.49,2.21,10.09,10.09,0,0,1-4,.75q-1.22,0-2.16-.09a4.46,4.46,0,0,1-1.58-.41,2.26,2.26,0,0,1-1-.91,3.19,3.19,0,0,1-.34-1.59,12.25,12.25,0,0,1,.95-4l1.13-3a13.67,13.67,0,0,1,1.19-2.48,6,6,0,0,1,1.51-1.66,5.68,5.68,0,0,1,2-.93,11.35,11.35,0,0,1,2.71-.29,10.07,10.07,0,0,1,2,.16,3.47,3.47,0,0,1,1.21.45,1.52,1.52,0,0,1,.6.71,2.63,2.63,0,0,1,.17,1,10.41,10.41,0,0,1-.23,2,6.24,6.24,0,0,1-.93,2.21,3.82,3.82,0,0,1-1.33,1.23,8.2,8.2,0,0,1-1.85.77,15.06,15.06,0,0,1-2,.43q-1,.14-1.88.18-0.37.93-.57,1.59a3.93,3.93,0,0,0-.2,1.09,0.93,0.93,0,0,0,1.13,1,9,9,0,0,0,2.57-.39,11.26,11.26,0,0,0,4.62-2.71,7.2,7.2,0,0,0,1.47-2Zm-9.33-1.82a3.1,3.1,0,0,0,1.27-.43,3.55,3.55,0,0,0,1-.93,4.51,4.51,0,0,0,.67-1.32,5.13,5.13,0,0,0,.25-1.6,0.47,0.47,0,0,0-.58-0.46,1,1,0,0,0-.66.27,3.26,3.26,0,0,0-.63,1.12Z" transform="translate(-1.54 -10.89)"/><path class="cls-2" d="M181,51.91a7.85,7.85,0,0,1-1.44,2.25,12.17,12.17,0,0,1-2.3,2,12.57,12.57,0,0,1-2.88,1.44,9.57,9.57,0,0,1-3.21.55,3.28,3.28,0,0,1-2.49-1,3.45,3.45,0,0,1-.93-2.48,5.08,5.08,0,0,1,.08-0.87,4.51,4.51,0,0,1,.26-0.91l6.49-17a7.09,7.09,0,0,1,2.54-3.48,7.31,7.31,0,0,1,4.1-1.05,3.72,3.72,0,0,1,2.22.57,2,2,0,0,1,.78,1.71,4,4,0,0,1-.12.91,14.54,14.54,0,0,1-.49,1.52l-1.81,4.63A12.68,12.68,0,0,1,175,48.2L173.13,53a1.93,1.93,0,0,0-.18.75,0.74,0.74,0,0,0,.57.66,2.94,2.94,0,0,0,1.12.23,3.6,3.6,0,0,0,1.53-.37,8.09,8.09,0,0,0,1.55-1A9.76,9.76,0,0,0,179.08,52a6.5,6.5,0,0,0,1-1.44Zm-0.12-15.76q0.24-.64.32-0.91a1.69,1.69,0,0,0,.08-0.45,0.37,0.37,0,0,0-.46-0.36,0.85,0.85,0,0,0-.83.64l-3.83,9.84a3.74,3.74,0,0,0,1.48-1.43A13.17,13.17,0,0,0,179,40.75Z" transform="translate(-1.54 -10.89)"/><path class="cls-2" d="M194.49,51.91a9.4,9.4,0,0,1-1.81,2.53,13,13,0,0,1-2.52,2,12.19,12.19,0,0,1-3,1.28,11.19,11.19,0,0,1-3.09.45,4.43,4.43,0,0,1-1.7-.32,4,4,0,0,1-1.35-.89,4.34,4.34,0,0,1-.89-1.28,3.69,3.69,0,0,1-.32-1.53V53.73a3.15,3.15,0,0,1-.64.61l-0.7.54a4.1,4.1,0,0,1-.15-0.93,2.87,2.87,0,0,1,.57-1.53q0.57-.86,1.12-1.89t1-1.66q0.46-.7.93-1.3t1-1.16l1.13-1.19c0-.17,0-0.3,0-0.41s0-.27,0-0.48a7.65,7.65,0,0,1,.29-2.12,5.89,5.89,0,0,1,.81-1.76,4.2,4.2,0,0,1,1.24-1.19,2.93,2.93,0,0,1,1.58-.45,2.06,2.06,0,0,1,1.29.37,1.69,1.69,0,0,1,.49,1.41,4.75,4.75,0,0,1-.06.71,3.28,3.28,0,0,1-.29.87,7.68,7.68,0,0,1-.66,1.09,13.06,13.06,0,0,1-1.13,1.35q2.48,3.64,2.48,5.63a6.24,6.24,0,0,1-.75,3.14,4.86,4.86,0,0,1-2.37,2,7.69,7.69,0,0,0,1.73-.55,11.54,11.54,0,0,0,1.85-1,10.53,10.53,0,0,0,1.71-1.46,8.09,8.09,0,0,0,1.32-1.84Zm-9.67-4.17a11.48,11.48,0,0,0-1.09,1,7.29,7.29,0,0,0-1.12,1.59,6.46,6.46,0,0,0-.69,1.64,5.9,5.9,0,0,0-.17,1.35,1,1,0,0,0,1.16,1.14,1.68,1.68,0,0,0,1-.32,2.9,2.9,0,0,0,.78-0.82,4.53,4.53,0,0,0,.69-2.35,10.83,10.83,0,0,0-.15-1.89A5.27,5.27,0,0,0,184.82,47.74Zm1.93-5a2.56,2.56,0,0,0,.8-0.86,1.66,1.66,0,0,0,.15-0.64,0.29,0.29,0,0,0-.28-0.36q-0.74,0-.73,1.07,0,0.11,0,.37A2.93,2.93,0,0,0,186.75,42.75Z" transform="translate(-1.54 -10.89)"/><path class="cls-2" d="M65.39,21v3.38H65V16.8h0.41v3.74h3V16.8h0.41v7.54H68.43V21h-3Z" transform="translate(-1.54 -10.89)"/><path class="cls-2" d="M73.7,21.46H71.19l-1,2.89H69.74l2.7-7.72,2.7,7.72H74.71ZM73.55,21l-1.11-3.16L71.34,21h2.21Z" transform="translate(-1.54 -10.89)"/><path class="cls-2" d="M76,16.8h0.45l3.73,6.71V16.8h0.41v7.54H80.22l-3.77-6.78v6.78H76V16.8Z" transform="translate(-1.54 -10.89)"/><path class="cls-2" d="M82.4,16.81h0a3.66,3.66,0,0,1,2.77,1,4,4,0,0,1,0,5.47,3.66,3.66,0,0,1-2.77,1H82V16.8H82.4Zm0,0.43v6.66h0A3.27,3.27,0,0,0,84.91,23a3.54,3.54,0,0,0,0-4.86,3.28,3.28,0,0,0-2.48-.9h0Z" transform="translate(-1.54 -10.89)"/><path class="cls-2" d="M93.21,23.14l0.31,0.29a3.61,3.61,0,0,1-5.12-.12,4,4,0,0,1,0-5.46,3.61,3.61,0,0,1,5.12-.13L93.21,18a3.21,3.21,0,0,0-4.52.14,3.53,3.53,0,0,0,0,4.85A3.21,3.21,0,0,0,93.21,23.14Z" transform="translate(-1.54 -10.89)"/><path class="cls-2" d="M96.41,21.73H95.06v2.62H94.65V16.8h1.9a2.36,2.36,0,0,1,1.41.72A2.53,2.53,0,0,1,98,21a2.28,2.28,0,0,1-1.1.66l1.67,2.68H98Zm-1.35-4.49V21.3h1.23a1.85,1.85,0,0,0,1.38-.6,2.09,2.09,0,0,0,0-2.88,1.85,1.85,0,0,0-1.38-.59H95.06Z" transform="translate(-1.54 -10.89)"/><path class="cls-2" d="M103.09,21.46h-2.51l-1,2.89H99.13l2.7-7.72,2.7,7.72H104.1ZM102.94,21l-1.11-3.16L100.73,21h2.21Z" transform="translate(-1.54 -10.89)"/><path class="cls-2" d="M108.61,16.8v0.42h-2.76v3.14h2.76v0.42h-2.76v3.56h-0.41V16.8h3.17Z" transform="translate(-1.54 -10.89)"/><path class="cls-2" d="M111.64,17.23v7.12h-0.41V17.23H109.4V16.8h4.08v0.42h-1.84Z" transform="translate(-1.54 -10.89)"/><path class="cls-2" d="M118,16.8v0.42h-3.22v3.14H118v0.42h-3.22v3.14H118v0.42h-3.63V16.8H118Z" transform="translate(-1.54 -10.89)"/><path class="cls-2" d="M119.67,16.81h0a3.66,3.66,0,0,1,2.77,1,4,4,0,0,1,0,5.47,3.66,3.66,0,0,1-2.77,1h-0.44V16.8h0.41Zm0,0.43v6.66h0a3.27,3.27,0,0,0,2.48-.91,3.54,3.54,0,0,0,0-4.86,3.28,3.28,0,0,0-2.48-.9h0Z" transform="translate(-1.54 -10.89)"/><path class="cls-3" d="M68.28,76.91a3.67,3.67,0,0,1-1.83-.28,1.19,1.19,0,0,1-.82-0.94l-0.25-3.23a1.19,1.19,0,0,1,.68-1.06,3.71,3.71,0,0,1,1.79-.55,3.67,3.67,0,0,1,1.85.29,1.19,1.19,0,0,1,.81,1l0,0.68-1.67.11,0-.69a0.43,0.43,0,0,0-.3-0.35,1.35,1.35,0,0,0-.67-0.1,1.33,1.33,0,0,0-.64.2,0.43,0.43,0,0,0-.24.38l0.24,3.24a0.43,0.43,0,0,0,.29.34,1.32,1.32,0,0,0,.66.1,1.35,1.35,0,0,0,.64-0.19,0.43,0.43,0,0,0,.25-0.38L69,74.61l1.67-.11,0.05,0.83A1.19,1.19,0,0,1,70,76.38,3.68,3.68,0,0,1,68.28,76.91Z" transform="translate(-1.54 -10.89)"/><path class="cls-3" d="M74.29,70.43a3.69,3.69,0,0,1,1.85.32,1.19,1.19,0,0,1,.8,1L77.09,75a1.19,1.19,0,0,1-.7,1,3.68,3.68,0,0,1-1.77.51,3.63,3.63,0,0,1-1.82-.32,1.19,1.19,0,0,1-.8-1L71.81,72a1.19,1.19,0,0,1,.69-1.05A3.69,3.69,0,0,1,74.29,70.43Zm1,1.35A0.43,0.43,0,0,0,75,71.44a1.33,1.33,0,0,0-.66-0.11,1.36,1.36,0,0,0-.65.19,0.43,0.43,0,0,0-.25.38l0.18,3.25a0.43,0.43,0,0,0,.29.35,1.35,1.35,0,0,0,.66.11,1.32,1.32,0,0,0,.64-0.18A0.43,0.43,0,0,0,75.42,75Z" transform="translate(-1.54 -10.89)"/><path class="cls-3" d="M82.92,76.08c-1.74.05-2.61,0.09-4.36,0.16l-0.26-5.93,1.62-.07,0.19,5,2.77-.1Z" transform="translate(-1.54 -10.89)"/><path class="cls-3" d="M88.38,76c-1.74,0-2.61,0-4.36.1l-0.17-5.94,1.63,0,0.12,5,2.77-.05V76Z" transform="translate(-1.54 -10.89)"/><path class="cls-3" d="M89.48,75.94L89.41,70c1.85,0,2.78,0,4.63,0v0.9H91V72.5h2.18v0.9H91.06V75h3v0.9C92.21,75.91,91.3,75.92,89.48,75.94Z" transform="translate(-1.54 -10.89)"/><path class="cls-3" d="M97.67,76a3.67,3.67,0,0,1-1.8-.43,1.19,1.19,0,0,1-.74-1V71.33a1.19,1.19,0,0,1,.76-1,4.16,4.16,0,0,1,3.64,0,1.19,1.19,0,0,1,.73,1v0.68l-1.68,0v-0.7A0.43,0.43,0,0,0,98.33,71a1.35,1.35,0,0,0-.66-0.16A1.33,1.33,0,0,0,97,71a0.43,0.43,0,0,0-.27.36l0,3.25a0.43,0.43,0,0,0,.26.36,1.32,1.32,0,0,0,.65.15,1.34,1.34,0,0,0,.65-0.14,0.43,0.43,0,0,0,.28-0.36V73.77l1.67,0v0.83a1.19,1.19,0,0,1-.76,1A3.67,3.67,0,0,1,97.67,76Z" transform="translate(-1.54 -10.89)"/><path class="cls-3" d="M103.13,71l-1.72,0,0-.9c2,0,3,.07,5.07.14l0,0.9L104.75,71l-0.15,5L103,76Z" transform="translate(-1.54 -10.89)"/><path class="cls-3" d="M109.18,76.22l-1.6-.06,0.22-5.93,1.63,0.06Z" transform="translate(-1.54 -10.89)"/><path class="cls-3" d="M113.44,70.4a3.69,3.69,0,0,1,1.8.52,1.19,1.19,0,0,1,.69,1l-0.19,3.24a1.19,1.19,0,0,1-.8,1,3.68,3.68,0,0,1-1.82.32,3.63,3.63,0,0,1-1.77-.51,1.19,1.19,0,0,1-.69-1l0.15-3.24a1.19,1.19,0,0,1,.8-1A3.69,3.69,0,0,1,113.44,70.4Zm0.81,1.45a0.43,0.43,0,0,0-.25-0.38,1.33,1.33,0,0,0-.65-0.18,1.36,1.36,0,0,0-.67.12,0.43,0.43,0,0,0-.29.35L112.23,75a0.43,0.43,0,0,0,.25.38,1.35,1.35,0,0,0,.64.18,1.32,1.32,0,0,0,.66-0.11,0.43,0.43,0,0,0,.29-0.35Z" transform="translate(-1.54 -10.89)"/><path class="cls-3" d="M119.26,70.82c0.75,1.65,1.12,2.48,1.86,4.14l0.3-4L123,71.1,122.57,77l-1.71-.13c-0.77-1.58-1.15-2.37-1.94-4l-0.26,3.8-1.6-.1,0.38-5.93Z" transform="translate(-1.54 -10.89)"/><path class="cls-2" d="M59.7,106.78l0.21,0h0.44l0.2,0,0.92,4.89,1.1-4.89,0.2,0h0.41l0.19,0,1.11,4.94,0.93-4.94,0.17,0H66l0.19,0-1.29,5.88-0.21,0H64.21l-0.23,0-1.06-4.6-1.07,4.6-0.23,0H61.19l-0.21,0Z" transform="translate(-1.54 -10.89)"/><path class="cls-2" d="M67,106.78l0.19,0h0.39l0.19,0v5.88l-0.18,0H67.2l-0.18,0v-5.87Z" transform="translate(-1.54 -10.89)"/><path class="cls-2" d="M70,107.51H68.62a1.64,1.64,0,0,1,0-.18q0-.1,0-0.19c0-.06,0-0.12,0-0.18a1.66,1.66,0,0,1,0-.18h3.55c0,0.05,0,.11,0,0.17s0,0.12,0,.18,0,0.12,0,.19,0,0.13,0,.18H70.77v5.15l-0.37,0-0.39,0v-5.15Z" transform="translate(-1.54 -10.89)"/><path class="cls-2" d="M73,106.78l0.19,0h0.39l0.19,0v2.42h2.28v-2.42l0.18,0h0.39l0.19,0v5.88l-0.18,0h-0.4l-0.18,0v-2.72H73.77v2.72l-0.18,0h-0.4l-0.18,0v-5.87Z" transform="translate(-1.54 -10.89)"/><path class="cls-2" d="M79.89,106.78h2.94a2.64,2.64,0,0,1,0,.36c0,0.06,0,.12,0,0.19a1.3,1.3,0,0,1,0,.18H80.65v1.68h1.74a1.61,1.61,0,0,1,0,.17c0,0.06,0,.12,0,0.18s0,0.12,0,.19a1.61,1.61,0,0,1,0,.18H80.65v2h2.24a2.64,2.64,0,0,1,0,.36c0,0.06,0,.12,0,0.19a1.3,1.3,0,0,1,0,.18h-3v-5.87Z" transform="translate(-1.54 -10.89)"/><path class="cls-2" d="M83.89,106.78l0.61-.06,0.7,0a2.67,2.67,0,0,1,2.11.79,3.29,3.29,0,0,1,.7,2.25A3.19,3.19,0,0,1,87.3,112a2.8,2.8,0,0,1-2.12.74c-0.23,0-.46,0-0.69,0l-0.59-.07v-5.87ZM84.65,112l0.26,0h0.32a2.75,2.75,0,0,0,.8-0.11,1.47,1.47,0,0,0,.62-0.37,1.71,1.71,0,0,0,.4-0.71,3.74,3.74,0,0,0,.14-1.12,3.39,3.39,0,0,0-.14-1,1.85,1.85,0,0,0-.4-0.71,1.5,1.5,0,0,0-.61-0.4,2.44,2.44,0,0,0-.79-0.12H84.95l-0.29,0V112Z" transform="translate(-1.54 -10.89)"/><path class="cls-2" d="M89.1,106.78l0.19,0h0.39l0.19,0v5.88l-0.18,0h-0.4l-0.18,0v-5.87Z" transform="translate(-1.54 -10.89)"/><path class="cls-2" d="M92.09,107.51H90.7a1.64,1.64,0,0,1,0-.18q0-.1,0-0.19c0-.06,0-0.12,0-0.18a1.66,1.66,0,0,1,0-.18h3.55c0,0.05,0,.11,0,0.17s0,0.12,0,.18,0,0.12,0,.19,0,0.13,0,.18H92.85v5.15l-0.37,0-0.39,0v-5.15Z" transform="translate(-1.54 -10.89)"/><path class="cls-2" d="M97.25,111.3h-2l-0.37,1.36-0.19,0h-0.4l-0.18,0,1.74-5.87,0.21,0h0.45l0.22,0,1.74,5.88-0.2,0H97.81l-0.19,0Zm-1.83-.73h1.63l-0.82-3Z" transform="translate(-1.54 -10.89)"/><path class="cls-2" d="M99.22,106.78a4,4,0,0,1,.52-0.06l0.68,0a3.4,3.4,0,0,1,.78.08,1.64,1.64,0,0,1,.6.27,1.25,1.25,0,0,1,.39.47,1.64,1.64,0,0,1,.14.71,1.48,1.48,0,0,1-.07.47,1.41,1.41,0,0,1-.19.38,1.17,1.17,0,0,1-.28.28,1.13,1.13,0,0,1-.32.16,1.4,1.4,0,0,1,.42.12,1.27,1.27,0,0,1,.38.28,1.39,1.39,0,0,1,.28.45,1.83,1.83,0,0,1,.11.67,1.73,1.73,0,0,1-.17.8,1.45,1.45,0,0,1-.47.54,1.94,1.94,0,0,1-.69.29,3.84,3.84,0,0,1-.85.09l-0.62,0-0.63-.07v-5.87Zm1.3,2.45a1.13,1.13,0,0,0,.78-0.24,0.92,0.92,0,0,0,.27-0.72,0.83,0.83,0,0,0-.29-0.69,1.21,1.21,0,0,0-.78-0.23h-0.29l-0.24,0v1.85h0.54ZM100,112l0.26,0h0.32a2.42,2.42,0,0,0,.5,0,1.17,1.17,0,0,0,.41-0.17,0.85,0.85,0,0,0,.28-0.32,1.1,1.1,0,0,0,.1-0.51,1.21,1.21,0,0,0-.1-0.51,0.86,0.86,0,0,0-.26-0.33,1,1,0,0,0-.4-0.18,2.18,2.18,0,0,0-.5-0.05H100V112Z" transform="translate(-1.54 -10.89)"/><path class="cls-2" d="M103.65,106.78l0.17,0h0.39l0.19,0v5.14h2.1a1.28,1.28,0,0,1,0,.19c0,0.07,0,.13,0,0.18a2.73,2.73,0,0,1,0,.37h-2.85v-5.87Z" transform="translate(-1.54 -10.89)"/><path class="cls-2" d="M107.34,106.78h2.94a2.72,2.72,0,0,1,0,.36c0,0.06,0,.12,0,0.19a1.38,1.38,0,0,1,0,.18H108.1v1.68h1.75c0,0.05,0,.11,0,0.17s0,0.12,0,.18,0,0.12,0,.19,0,0.13,0,.18H108.1v2h2.24a2.72,2.72,0,0,1,0,.36c0,0.06,0,.12,0,0.19a1.23,1.23,0,0,1,0,.18h-3v-5.87Z" transform="translate(-1.54 -10.89)"/><path class="cls-2" d="M114,107.51h-1.39a1.77,1.77,0,0,1,0-.18c0-.07,0-0.13,0-0.19s0-.12,0-0.18,0-.12,0-0.18h3.55a1.56,1.56,0,0,1,0,.17c0,0.06,0,.12,0,0.18s0,0.12,0,.19a1.52,1.52,0,0,1,0,.18h-1.39v5.15l-0.37,0-0.39,0v-5.15Z" transform="translate(-1.54 -10.89)"/><path class="cls-2" d="M117,106.78H120a2.72,2.72,0,0,1,0,.36c0,0.06,0,.12,0,0.19a1.38,1.38,0,0,1,0,.18h-2.18v1.68h1.75c0,0.05,0,.11,0,0.17s0,0.12,0,.18,0,0.12,0,.19,0,0.13,0,.18h-1.75v2H120a2.72,2.72,0,0,1,0,.36c0,0.06,0,.12,0,0.19a1.23,1.23,0,0,1,0,.18h-3v-5.87Z" transform="translate(-1.54 -10.89)"/><path class="cls-2" d="M122.6,109.58l-1.27,3.07-0.4,0-0.41,0,1.33-3.07-1.12-2.79,0.21,0h0.2l0.39,0Zm0.06,0,1.07-2.79,0.16,0h0.5l0.14,0-1.12,2.77,1.33,3.1-0.41,0-0.4,0Z" transform="translate(-1.54 -10.89)"/><path class="cls-2" d="M126.48,107.51h-1.39a1.77,1.77,0,0,1,0-.18c0-.07,0-0.13,0-0.19s0-.12,0-0.18,0-.12,0-0.18h3.55a1.56,1.56,0,0,1,0,.17c0,0.06,0,.12,0,0.18s0,0.12,0,.19a1.52,1.52,0,0,1,0,.18h-1.39v5.15l-0.37,0-0.39,0v-5.15Z" transform="translate(-1.54 -10.89)"/><path class="cls-2" d="M59.23,97.28a5.25,5.25,0,0,0,.54.17,2.8,2.8,0,0,0,.69.07,1.45,1.45,0,0,0,1-.27,0.93,0.93,0,0,0,.32-0.74,1,1,0,0,0-.07-0.39,0.75,0.75,0,0,0-.2-0.28,1.51,1.51,0,0,0-.33-0.22l-0.47-.21-0.45-.19A3.05,3.05,0,0,1,59.82,95a1.3,1.3,0,0,1-.54-0.69,1.63,1.63,0,0,1-.08-0.54,1.46,1.46,0,0,1,.49-1.16A2,2,0,0,1,61,92.2a3.82,3.82,0,0,1,1.31.23,2.65,2.65,0,0,1-.17.68A3.81,3.81,0,0,0,61.7,93a2.82,2.82,0,0,0-.63-0.07,1.21,1.21,0,0,0-.76.21,0.74,0.74,0,0,0-.27.63,0.68,0.68,0,0,0,.07.31,0.82,0.82,0,0,0,.18.24,1.24,1.24,0,0,0,.26.18l0.31,0.15,0.44,0.18a4.61,4.61,0,0,1,.56.27,1.76,1.76,0,0,1,.42.33,1.32,1.32,0,0,1,.26.45,1.88,1.88,0,0,1,.09.61,1.67,1.67,0,0,1-.56,1.33,2.3,2.3,0,0,1-1.56.49l-0.44,0-0.37,0-0.33-.08L59,98a1.87,1.87,0,0,1,.07-0.37C59.15,97.53,59.19,97.4,59.23,97.28Z" transform="translate(-1.54 -10.89)"/><path class="cls-2" d="M63.66,92.3l0.2,0h0.41l0.2,0v5.88l-0.19,0H63.85l-0.19,0V92.3Z" transform="translate(-1.54 -10.89)"/><path class="cls-2" d="M65.84,92.3l0.18,0h0.37l0.18,0L69,96.71V92.3l0.2,0h0.38l0.18,0v5.88l-0.18,0H69.24l-0.18,0-2.47-4.39v4.39l-0.18,0H66l-0.18,0V92.3Z" transform="translate(-1.54 -10.89)"/><path class="cls-2" d="M74.78,97.32A2.28,2.28,0,0,1,75,98a3,3,0,0,1-.68.21,4,4,0,0,1-.75.07,2.8,2.8,0,0,1-1.1-.21,2.23,2.23,0,0,1-.83-0.6,2.68,2.68,0,0,1-.52-0.94A4,4,0,0,1,71,95.27,4.17,4.17,0,0,1,71.13,94a2.8,2.8,0,0,1,.52-1,2.27,2.27,0,0,1,.82-0.62,2.66,2.66,0,0,1,1.09-.22,3.9,3.9,0,0,1,.77.07,4.31,4.31,0,0,1,.57.16,1.58,1.58,0,0,1-.07.35c0,0.11-.07.22-0.12,0.34L74.49,93,74.26,93l-0.28,0H73.63a1.6,1.6,0,0,0-1.33.6,2.77,2.77,0,0,0-.48,1.74,3.35,3.35,0,0,0,.13,1,1.91,1.91,0,0,0,.38.7,1.54,1.54,0,0,0,.58.42,2,2,0,0,0,.77.14,2.86,2.86,0,0,0,.6-0.06A2.51,2.51,0,0,0,74.78,97.32Z" transform="translate(-1.54 -10.89)"/><path class="cls-2" d="M76,92.3h3.1a2.56,2.56,0,0,1,0,.36c0,0.06,0,.12,0,0.19a1.22,1.22,0,0,1,0,.18h-2.3v1.68h1.84a1.73,1.73,0,0,1,0,.17c0,0.06,0,.12,0,0.18s0,0.12,0,.19a1.72,1.72,0,0,1,0,.18H76.83v2H79.2a2.56,2.56,0,0,1,0,.36c0,0.06,0,.12,0,0.19a1.29,1.29,0,0,1,0,.18H76V92.3Z" transform="translate(-1.54 -10.89)"/><path class="cls-2" d="M109.79,97.47v-4l-1.11.52a1.47,1.47,0,0,1-.31-0.6l2.07-1h0.13v5.11h1.23a2.87,2.87,0,0,1,0,.35,2.72,2.72,0,0,1,0,.35h-3.33a1.23,1.23,0,0,1,0-.18c0-.06,0-0.12,0-0.18a2.87,2.87,0,0,1,0-.35h1.3Z" transform="translate(-1.54 -10.89)"/><path class="cls-2" d="M116.54,94.63a5.08,5.08,0,0,1-.18,1.36,3.48,3.48,0,0,1-.54,1.14,2.85,2.85,0,0,1-.93.81,3.29,3.29,0,0,1-1.34.38,1,1,0,0,1-.06-0.38s0-.09,0-0.15,0-.11,0-0.16a2.41,2.41,0,0,0,.87-0.23,2.29,2.29,0,0,0,.67-0.5,2.36,2.36,0,0,0,.45-0.7,2.92,2.92,0,0,0,.22-0.85,1.51,1.51,0,0,1-.5.54,1.44,1.44,0,0,1-.84.23,1.78,1.78,0,0,1-.62-0.11,1.51,1.51,0,0,1-.53-0.34,1.64,1.64,0,0,1-.38-0.58,2.27,2.27,0,0,1-.14-0.85,2.1,2.1,0,0,1,.16-0.85,1.84,1.84,0,0,1,.43-0.62,1.78,1.78,0,0,1,.61-0.38,2,2,0,0,1,.7-0.13,2.27,2.27,0,0,1,.81.13,1.48,1.48,0,0,1,.6.42,2,2,0,0,1,.38.74A3.79,3.79,0,0,1,116.54,94.63Zm-2,.79a1.15,1.15,0,0,0,.43-0.08,1,1,0,0,0,.35-0.24,1.16,1.16,0,0,0,.24-0.39,1.45,1.45,0,0,0,.09-0.51,1.33,1.33,0,0,0-.28-0.92,1,1,0,0,0-.77-0.31,1.08,1.08,0,0,0-.79.31,1.25,1.25,0,0,0-.32.93,1.65,1.65,0,0,0,.08.56,1,1,0,0,0,.22.38,0.84,0.84,0,0,0,.33.21A1.29,1.29,0,0,0,114.58,95.42Z" transform="translate(-1.54 -10.89)"/><path class="cls-2" d="M117.55,95.91a5,5,0,0,1,.18-1.36,3.44,3.44,0,0,1,.54-1.14,2.86,2.86,0,0,1,.93-0.81,3.32,3.32,0,0,1,1.34-.38,1.23,1.23,0,0,1,.06.38,1.51,1.51,0,0,1,0,.16,1,1,0,0,1,0,.15,2.46,2.46,0,0,0-.88.24,2.23,2.23,0,0,0-.66.49,2.48,2.48,0,0,0-.44.7,3.58,3.58,0,0,0-.24.85,1.57,1.57,0,0,1,.51-0.54,1.47,1.47,0,0,1,.84-0.22,1.8,1.8,0,0,1,.62.11,1.51,1.51,0,0,1,.54.34,1.67,1.67,0,0,1,.38.58,2.3,2.3,0,0,1,.14.85,2.12,2.12,0,0,1-.16.85,1.8,1.8,0,0,1-.43.61,1.85,1.85,0,0,1-.61.37,2,2,0,0,1-.7.13,2.27,2.27,0,0,1-.8-0.13,1.46,1.46,0,0,1-.6-0.42,2,2,0,0,1-.38-0.73A3.75,3.75,0,0,1,117.55,95.91Zm2-.79a1.15,1.15,0,0,0-.43.08,1,1,0,0,0-.35.24,1.16,1.16,0,0,0-.24.39,1.47,1.47,0,0,0-.09.52,1.31,1.31,0,0,0,.28.92,1,1,0,0,0,.77.3,1.13,1.13,0,0,0,.44-0.08,1,1,0,0,0,.35-0.24,1.11,1.11,0,0,0,.24-0.38,1.49,1.49,0,0,0,.09-0.53,1.65,1.65,0,0,0-.08-0.56,1,1,0,0,0-.22-0.38,0.85,0.85,0,0,0-.33-0.22A1.22,1.22,0,0,0,119.5,95.12Z" transform="translate(-1.54 -10.89)"/><path class="cls-2" d="M126.11,95.28a5.88,5.88,0,0,1-.11,1.2,2.93,2.93,0,0,1-.36.94,1.81,1.81,0,0,1-3.09,0,2.93,2.93,0,0,1-.36-0.94,6.38,6.38,0,0,1,0-2.39,3,3,0,0,1,.36-0.95,1.75,1.75,0,0,1,.63-0.62,2,2,0,0,1,1.84,0,1.75,1.75,0,0,1,.63.62,3,3,0,0,1,.36.95A5.84,5.84,0,0,1,126.11,95.28Zm-2-2.24q-1.15,0-1.16,2.24t1.16,2.25q1.15,0,1.15-2.25T124.1,93Z" transform="translate(-1.54 -10.89)"/><path class="cls-2" d="M97.87,97H90.45a1.1,1.1,0,0,0-.92.23,1.1,1.1,0,0,0,.92.24h7.42a1.1,1.1,0,0,0,.92-0.24A1.1,1.1,0,0,0,97.87,97Z" transform="translate(-1.54 -10.89)"/><path class="cls-2" d="M97.87,97.66H90.45a1.09,1.09,0,0,0-.92.24,1.1,1.1,0,0,0,.92.23h7.42a1.1,1.1,0,0,0,.92-0.23A1.1,1.1,0,0,0,97.87,97.66Z" transform="translate(-1.54 -10.89)"/><path class="cls-2" d="M97.87,98.29H90.45a1.1,1.1,0,0,0-.92.23,1.09,1.09,0,0,0,.92.24h7.42a1.1,1.1,0,0,0,.92-0.24A1.11,1.11,0,0,0,97.87,98.29Z" transform="translate(-1.54 -10.89)"/><path class="cls-2" d="M101.16,91.11l-0.34.08a2.84,2.84,0,0,1-.28,1.31h-0.34a5.89,5.89,0,0,1-.88,1.09s0.6,0,.62.38a1.91,1.91,0,0,0-.58.56s0.22,0,.22.16l-0.17.61,0,0.07-0.3.43a1.23,1.23,0,0,1-.79.35,0.68,0.68,0,0,1-.61-0.63l-0.07-.64,0.12-.55c0.36-.39.66,0.16,0.66,0.16a1.92,1.92,0,0,0-.33-1c0.38-.58,1,0,1,0a1.2,1.2,0,0,0-.21-0.84l0.08-.38A0.24,0.24,0,0,0,98.68,92l-0.36-.08A4.67,4.67,0,0,1,99,90.28l-0.42-.1a2.89,2.89,0,0,0,0-1.35A2.83,2.83,0,0,0,98,90l-0.42-.1a4.75,4.75,0,0,1,0,1.79l-0.36-.08a0.23,0.23,0,0,0-.31.16l-0.08.38a1.15,1.15,0,0,0-.54.67,0.64,0.64,0,0,1,.89.43,1.83,1.83,0,0,0-.71.76s0.5-.35.66,0.15L97,94.75l-0.45.7a1.46,1.46,0,0,1-1,.7,1.06,1.06,0,0,1-.81-0.69l-0.28-.69V94.13c0.36-.52.92,0,0.92,0a2.1,2.1,0,0,0-.72-1c0.34-.74,1.3-0.24,1.3-0.24A1.29,1.29,0,0,0,95.51,92V91.55a0.31,0.31,0,0,0-.36-0.26h-0.5a4.65,4.65,0,0,1,.5-2H94.58a2.87,2.87,0,0,0-.42-1.48,2.86,2.86,0,0,0-.42,1.48H93.16a4.67,4.67,0,0,1,.5,2h-0.5a0.31,0.31,0,0,0-.36.26V92a1.29,1.29,0,0,0-.52.88s1-.5,1.3.24a2.1,2.1,0,0,0-.72,1s0.56-.52.92,0v0.64l-0.28.69a1.06,1.06,0,0,1-.81.69,1.46,1.46,0,0,1-1-.7l-0.45-.7-0.12-.55c0.16-.51.66-0.15,0.66-0.15a1.81,1.81,0,0,0-.71-0.76c0.11-.69.89-0.43,0.89-0.43a1.15,1.15,0,0,0-.54-0.67l-0.08-.38a0.23,0.23,0,0,0-.31-0.16l-0.36.08a4.76,4.76,0,0,1,0-1.79l-0.42.1a2.82,2.82,0,0,0-.58-1.2,2.91,2.91,0,0,0,0,1.35l-0.42.1A4.65,4.65,0,0,1,90,91.9L89.63,92a0.24,0.24,0,0,0-.21.28l0.08,0.38a1.19,1.19,0,0,0-.21.84s0.6-.59,1,0a1.92,1.92,0,0,0-.33,1s0.31-.54.66-0.16l0.12,0.55-0.07.64a0.69,0.69,0,0,1-.61.63,1.24,1.24,0,0,1-.79-0.35l-0.3-.43,0-.07-0.17-.61c0-.16.22-0.16,0.22-0.16A1.91,1.91,0,0,0,88.37,94c0-.42.62-0.38,0.62-0.38a5.9,5.9,0,0,1-.88-1.09H87.77a2.84,2.84,0,0,1-.28-1.31l-0.34-.08-0.58-.8L89.11,96a1.54,1.54,0,0,0,.68.66h0a1.41,1.41,0,0,0,.62.16h7.47A1.6,1.6,0,0,0,99.2,96l2.54-5.72Z" transform="translate(-1.54 -10.89)"/><line class="cls-4" x1="47.12" y1="91.82" x2="138.11" y2="91.82"/><line class="cls-4" x1="47.12" y1="18.54" x2="138.11" y2="18.54"/><line class="cls-5" x1="53.41" y1="1.45" x2="131.83" y2="1.45"/><line class="cls-5" x1="53.41" y1="107.67" x2="131.83" y2="107.67"/></svg>