<svg id="Logo_1" data-name="Logo 1" xmlns="http://www.w3.org/2000/svg" xmlns:xlink="http://www.w3.org/1999/xlink" viewBox="0 0 139 136.89"><defs><style>.cls-1,.cls-5{fill:none;}.cls-2{fill:#353531;}.cls-3{clip-path:url(#clip-path);}.cls-4{clip-path:url(#clip-path-2);}.cls-5{stroke:#353531;stroke-miterlimit:10;stroke-width:1.08px;}</style><clipPath id="clip-path" transform="translate(-29.43 -0.43)"><rect class="cls-1" x="84.49" y="16.58" width="26.1" height="67.04"/></clipPath><clipPath id="clip-path-2" transform="translate(-29.43 -0.43)"><polygon class="cls-1" points="173.8 93.73 22.5 79.14 22.5 50.96 173.8 50.96 173.8 93.73"/></clipPath></defs><title>logo-1</title><path class="cls-2" d="M45.47,82.84a23.06,23.06,0,0,1,5,.48A12.53,12.53,0,0,1,54,84.63a7.2,7.2,0,0,1,2.28,2,7.27,7.27,0,0,1,1.16,2.56,9.5,9.5,0,0,1,.21,2.94,15.81,15.81,0,0,1-.59,3.17,25.85,25.85,0,0,1-1.8,4.5,32,32,0,0,1-6.18,8.42A25.65,25.65,0,0,1,45,111.5a20.77,20.77,0,0,1-4.54,2.2,14.92,14.92,0,0,1-4.83.8,11.42,11.42,0,0,1-1.67-.12,12.7,12.7,0,0,1-1.59-.33,13.45,13.45,0,0,1-1.41-.48A7.89,7.89,0,0,1,29.9,113a0.88,0.88,0,0,1-.31-0.17,0.45,0.45,0,0,1-.14-0.23,0.76,0.76,0,0,1,0-.33c0-.13.07-0.29,0.12-0.49q0.84-2.93,1.88-6t2.34-6a47.55,47.55,0,0,1,2.94-5.58,27.35,27.35,0,0,1,3.68-4.75,5.41,5.41,0,0,1,2.54-.86,1.76,1.76,0,0,1,1.75,1.45,16.51,16.51,0,0,0-2.07,2.43,28.92,28.92,0,0,0-1.73,2.81q-0.8,1.47-1.49,3t-1.33,3l-1.22,2.78q-0.5,1.15-.85,2t-0.58,1.52q-0.23.65-.41,1.27T34.75,110a1.38,1.38,0,0,0,0,.7,0.62,0.62,0,0,0,.4.38,2.71,2.71,0,0,0,.9.12,9.84,9.84,0,0,0,3.57-.7,16.66,16.66,0,0,0,3.48-1.87,22.48,22.48,0,0,0,3.21-2.72,28.94,28.94,0,0,0,2.77-3.28,27.42,27.42,0,0,0,2.18-3.52,19.13,19.13,0,0,0,1.4-3.45A9.08,9.08,0,0,0,53.06,92,5.42,5.42,0,0,0,52,89.26a5.59,5.59,0,0,0-2.42-1.71A9.89,9.89,0,0,0,46,87a26,26,0,0,0-3,.18,19.49,19.49,0,0,0-2.87.55,12.7,12.7,0,0,0-2.47.94A6.21,6.21,0,0,0,35.79,90q-1.87,2-3,3.08a3.24,3.24,0,0,1-1.71,1.08q-0.78,0-.27-1.78a12.2,12.2,0,0,1,3.31-5.54A12.2,12.2,0,0,1,36.55,85a15.7,15.7,0,0,1,2.79-1.23,17.94,17.94,0,0,1,3-.71A21.41,21.41,0,0,1,45.47,82.84Z" transform="translate(-29.43 -0.43)"/><path class="cls-2" d="M56.27,113.44a5.59,5.59,0,0,1-2.75-.6,4,4,0,0,1-1.62-1.61,5.18,5.18,0,0,1-.57-2.34,9.25,9.25,0,0,1,.39-2.79,14.49,14.49,0,0,1,.8-2.09,16.12,16.12,0,0,1,1.22-2.16,16.49,16.49,0,0,1,1.58-2,12.31,12.31,0,0,1,1.9-1.69A9.47,9.47,0,0,1,59.37,97a6.51,6.51,0,0,1,2.35-.43,4.51,4.51,0,0,1,1.75.32,3.05,3.05,0,0,1,1.22.89,2.81,2.81,0,0,1,.58,1.38,4.29,4.29,0,0,1-.17,1.82,6.47,6.47,0,0,1-1.17,2.19,12.14,12.14,0,0,1-2.09,2.06,15.78,15.78,0,0,1-2.78,1.73,16.35,16.35,0,0,1-3.21,1.18,4,4,0,0,0,.29.79,1.55,1.55,0,0,0,.38.49,1.26,1.26,0,0,0,.49.25,2.44,2.44,0,0,0,.61.07,7.72,7.72,0,0,0,2.37-.42,20,20,0,0,0,2.6-1.06,28.49,28.49,0,0,0,2.51-1.38q1.21-.75,2.09-1.42l1.61,2.36a35.32,35.32,0,0,1-4.14,2.84q-0.92.53-1.94,1a20.52,20.52,0,0,1-2.11.91,16.21,16.21,0,0,1-2.19.63A10.28,10.28,0,0,1,56.27,113.44Zm0-8.29a4.22,4.22,0,0,0,1.49-.33,9.3,9.3,0,0,0,3.05-1.95,2.76,2.76,0,0,0,.78-1.16,2.41,2.41,0,0,0,.08-1.3,0.59,0.59,0,0,0-.57-0.51,3.33,3.33,0,0,0-1.39.28,4.27,4.27,0,0,0-1.12.73,5.7,5.7,0,0,0-.88,1,9.38,9.38,0,0,0-.67,1.15,10.7,10.7,0,0,0-.48,1.13Q56.42,104.77,56.3,105.16Z" transform="translate(-29.43 -0.43)"/><path class="cls-2" d="M65.62,106.67q1.24-.85,2-1.41t1.36-1c0.39-.31.75-0.63,1.08-0.94l1.19-1.13,1.67-1.6q1-.94,2.52-2.35,0.32-.32.69-0.62a5.93,5.93,0,0,1,.79-0.54,4.57,4.57,0,0,1,.87-0.39,3.13,3.13,0,0,1,1-.15A3.23,3.23,0,0,1,80,96.7a1.07,1.07,0,0,1,.54.45,0.87,0.87,0,0,1,.09.56,4.75,4.75,0,0,1-.11.5,2.44,2.44,0,0,1-.61.93c-0.32.34-.67,0.67-1,1l-1,.87a2.8,2.8,0,0,0-.59.59,6,6,0,0,0-.21,1,6.66,6.66,0,0,0,0,.88q0,0.43,0,.92t0,1.12a13.55,13.55,0,0,1-.21,1.46q-0.16.83-.48,2a15.08,15.08,0,0,1,1.6-.77l1.74-.71q0.91-.37,1.88-0.82a19.31,19.31,0,0,0,2-1.08l-1.12,3.95a23.81,23.81,0,0,1-3,1.59A34.25,34.25,0,0,1,76,112.38a28.94,28.94,0,0,1-3.47.89,17.12,17.12,0,0,1-3.17.33,8.49,8.49,0,0,1-1.9-.19,3.75,3.75,0,0,1-1.41-.61,2.21,2.21,0,0,1-.8-1.08,3.13,3.13,0,0,1,0-1.62,3.77,3.77,0,0,1-.51.07l-0.48,0-0.53,0a0.68,0.68,0,0,1-.39-0.13,0.54,0.54,0,0,1-.18-0.37,2,2,0,0,1,.1-0.73,2.06,2.06,0,0,1,.44-0.78,4.94,4.94,0,0,1,.68-0.64A8.14,8.14,0,0,1,65.1,107Zm1.62,2.26a0.5,0.5,0,0,1,.39.26c0.12,0.18.26,0.37,0.43,0.58a2.91,2.91,0,0,0,.61.58,1.56,1.56,0,0,0,.93.26,3,3,0,0,0,1.21-.23,2.87,2.87,0,0,0,.89-0.61,3.4,3.4,0,0,0,.63-0.88,6.12,6.12,0,0,0,.41-1,8.06,8.06,0,0,0,.22-1c0.05-.33.09-0.64,0.11-0.94s0-.58,0-0.85,0-.49,0-0.68Z" transform="translate(-29.43 -0.43)"/><path class="cls-2" d="M91.45,109.69q-0.81.58-1.95,1.24a24.4,24.4,0,0,1-2.4,1.22,21.11,21.11,0,0,1-2.51.92,8.09,8.09,0,0,1-2.28.37,3.58,3.58,0,0,1-1.48-.25,1.72,1.72,0,0,1-.81-0.71,2.12,2.12,0,0,1-.24-1.12A6,6,0,0,1,80,109.9a18.42,18.42,0,0,1,1-2.58q0.68-1.47,1.51-3t1.7-3.15q0.87-1.57,1.57-2.89a2.35,2.35,0,0,1,.72-0.78,4.6,4.6,0,0,1,1-.53,5.86,5.86,0,0,1,1.06-.3,5.34,5.34,0,0,1,.94-0.1,1.12,1.12,0,0,1,.93.27,0.84,0.84,0,0,1,.06.73,6.53,6.53,0,0,1-.5,1.12q-0.39.73-.92,1.66l-1.14,2q-0.61,1.07-1.18,2.13t-1,2.08a13,13,0,0,0-.7,1.82,3.63,3.63,0,0,0-.19,1.26,0.5,0.5,0,0,0,.59.47,3.68,3.68,0,0,0,1.55-.44,18.62,18.62,0,0,0,1.89-1.07q1-.63,1.93-1.3t1.68-1.15Zm-2.7-18.12a3.66,3.66,0,0,1,.44-0.92,4.28,4.28,0,0,1,.85-1,4.74,4.74,0,0,1,1.28-.76,4.6,4.6,0,0,1,1.75-.31,4.23,4.23,0,0,1,1.13.14,2,2,0,0,1,.83.43,1.39,1.39,0,0,1,.43.77,2.34,2.34,0,0,1-.09,1.13,4.47,4.47,0,0,1-.53,1.16,4,4,0,0,1-.91,1,4.69,4.69,0,0,1-1.28.71,4.61,4.61,0,0,1-1.63.27,2.46,2.46,0,0,1-2.09-.73A2.16,2.16,0,0,1,88.75,91.56Z" transform="translate(-29.43 -0.43)"/><path class="cls-2" d="M97,111.59A13.81,13.81,0,0,1,94.57,113a5.46,5.46,0,0,1-2.16.52,3.52,3.52,0,0,1-1.56-.34,2.86,2.86,0,0,1-1.14-1,3.45,3.45,0,0,1-.54-1.57,5.41,5.41,0,0,1,.23-2.09,13.1,13.1,0,0,1,1.16-2.71A21,21,0,0,1,92.37,103a23.55,23.55,0,0,1,2.28-2.51,19.1,19.1,0,0,1,2.56-2.06,13.93,13.93,0,0,1,2.65-1.4,7,7,0,0,1,2.55-.52,0.91,0.91,0,0,1,.59.16,1.08,1.08,0,0,1,.28.36l0.18,0.4a0.55,0.55,0,0,0,.27.28,1.31,1.31,0,0,0,.4.11l0.45,0h0.8a2,2,0,0,1,.48.05,0.58,0.58,0,0,1,.34.23,0.85,0.85,0,0,1,.13.49,3.08,3.08,0,0,1-.15.86q-0.13.46-.43,1.23t-0.69,1.73l-0.86,2q-0.46,1.07-.91,2.09-1.07,2.43-2.35,5.2,0.62-.3,1.37-0.74a18.37,18.37,0,0,0,1.72-1.18q1-.74,2.24-1.86t2.92-2.79l-0.28,3.91a11,11,0,0,1-1.15,1.12q-0.67.57-1.45,1.15t-1.6,1.11q-0.82.54-1.6,1-1.83,1.13-3.88,2.19-0.88,1.89-1.86,3.68a37.48,37.48,0,0,1-2.06,3.35,27.93,27.93,0,0,1-2.26,2.86,16.14,16.14,0,0,1-2.47,2.24,11.22,11.22,0,0,1-2.7,1.45,8.43,8.43,0,0,1-2.93.52,7,7,0,0,1-1.27-.12,2.68,2.68,0,0,1-1.15-.49,1.93,1.93,0,0,1-.68-1.06,3.48,3.48,0,0,1,.14-1.83,6.32,6.32,0,0,1,.92-1.79,19.37,19.37,0,0,1,1.72-2.1q1-1.1,2.35-2.29t2.8-2.37q1.49-1.18,3.07-2.33T96,113.23ZM86.14,126.42a3.2,3.2,0,0,0,1.53-.43,7.86,7.86,0,0,0,1.55-1.14,14.81,14.81,0,0,0,1.48-1.6q0.72-.9,1.35-1.84t1.13-1.84q0.51-.9.85-1.6A19.19,19.19,0,0,0,92.32,119q-0.9.63-1.8,1.37t-1.73,1.51q-0.83.78-1.5,1.49a13.57,13.57,0,0,0-1.11,1.33,3.61,3.61,0,0,0-.56,1Q85.43,126.42,86.14,126.42Zm8-18.69a6.15,6.15,0,0,0-.18.85,2.26,2.26,0,0,0,0,.74,1,1,0,0,0,.27.53,0.85,0.85,0,0,0,.62.2,2.16,2.16,0,0,0,1.35-.57,8.32,8.32,0,0,0,1.31-1.36,13.9,13.9,0,0,0,1.1-1.64,13.07,13.07,0,0,0,.72-1.41l2.58-5.18a3.68,3.68,0,0,0-1.52.36,7.87,7.87,0,0,0-1.59,1,13.43,13.43,0,0,0-1.53,1.41,16.37,16.37,0,0,0-1.37,1.67,14.62,14.62,0,0,0-1.08,1.75A9.05,9.05,0,0,0,94.16,107.73Z" transform="translate(-29.43 -0.43)"/><path class="cls-2" d="M105.9,109.76q0.33-1.16.92-2.69t1.25-3.1q0.67-1.58,1.36-3t1.24-2.5a4.1,4.1,0,0,1,1.15-1.36,2.69,2.69,0,0,1,1.67-.55,1.07,1.07,0,0,1,1.16.58,2.6,2.6,0,0,1-.08,1.55,7.31,7.31,0,0,1-.26.71q-0.18.45-.42,1l-0.49,1.11-0.47,1.06-0.38.85a5.21,5.21,0,0,0-.19.48h0.35l0.52-.63,0.82-1,1-1.19,1-1.2,0.84-1,0.56-.65a4.86,4.86,0,0,1,1.67-1.3,4.33,4.33,0,0,1,1.71-.35,1.18,1.18,0,0,1,1.2.74,3.16,3.16,0,0,1-.07,2,5.57,5.57,0,0,1-.27.65L121.16,101l-0.68,1.39q-0.37.76-.72,1.55t-0.66,1.57q-0.3.77-.49,1.43a4.94,4.94,0,0,0-.24,1.8,0.65,0.65,0,0,0,.66.7,1.8,1.8,0,0,0,.66-0.16,8.64,8.64,0,0,0,.87-0.41c0.31-.17.64-0.37,1-0.59l1-.69q1.18-.83,2.51-1.87l-0.84,3.95-1.08.67-1.8,1.09a19.14,19.14,0,0,1-1.85,1,13.21,13.21,0,0,1-1.91.71,7.13,7.13,0,0,1-1.94.27q-1,0-1.24-1.4a9.64,9.64,0,0,1,.52-4.1,23.41,23.41,0,0,1,.8-2.28q0.5-1.22,1.11-2.63h-0.28l-7.29,9.17a3.46,3.46,0,0,1-1.08,1,2.4,2.4,0,0,1-1.11.26,1.6,1.6,0,0,1-1.08-.31,1.36,1.36,0,0,1-.44-0.83,3.56,3.56,0,0,1,0-1.18A12.39,12.39,0,0,1,105.9,109.76Z" transform="translate(-29.43 -0.43)"/><path class="cls-2" d="M127.27,113.44a5.59,5.59,0,0,1-2.75-.6,4,4,0,0,1-1.62-1.61,5.17,5.17,0,0,1-.57-2.34,9.22,9.22,0,0,1,.39-2.79,14.49,14.49,0,0,1,.8-2.09,16.07,16.07,0,0,1,1.22-2.16,16.49,16.49,0,0,1,1.58-2,12.31,12.31,0,0,1,1.9-1.69A9.47,9.47,0,0,1,130.37,97a6.51,6.51,0,0,1,2.35-.43,4.51,4.51,0,0,1,1.75.32,3,3,0,0,1,1.22.89,2.81,2.81,0,0,1,.58,1.38,4.29,4.29,0,0,1-.17,1.82,6.48,6.48,0,0,1-1.17,2.19,12.13,12.13,0,0,1-2.09,2.06,15.74,15.74,0,0,1-2.78,1.73,16.35,16.35,0,0,1-3.21,1.18,4,4,0,0,0,.29.79,1.54,1.54,0,0,0,.38.49,1.26,1.26,0,0,0,.49.25,2.44,2.44,0,0,0,.61.07,7.72,7.72,0,0,0,2.37-.42,20,20,0,0,0,2.6-1.06,28.56,28.56,0,0,0,2.51-1.38q1.21-.75,2.09-1.42l1.61,2.36a35.36,35.36,0,0,1-4.14,2.84q-0.92.53-1.94,1a20.52,20.52,0,0,1-2.11.91,16.2,16.2,0,0,1-2.19.63A10.27,10.27,0,0,1,127.27,113.44Zm0-8.29a4.22,4.22,0,0,0,1.49-.33,9.32,9.32,0,0,0,3.05-1.95,2.76,2.76,0,0,0,.78-1.16,2.41,2.41,0,0,0,.08-1.3,0.59,0.59,0,0,0-.57-0.51,3.33,3.33,0,0,0-1.38.28,4.26,4.26,0,0,0-1.12.73,5.7,5.7,0,0,0-.88,1,9.45,9.45,0,0,0-.67,1.15,10.6,10.6,0,0,0-.48,1.13Q127.42,104.77,127.3,105.16Z" transform="translate(-29.43 -0.43)"/><path class="cls-2" d="M136.3,109.76q0.22-.77.61-1.81t0.87-2.18q0.48-1.15,1-2.34t1.09-2.26q0.54-1.08,1-2t0.89-1.48a5.12,5.12,0,0,1,.46-0.62,1.87,1.87,0,0,1,.43-0.36,1.42,1.42,0,0,1,.51-0.18,4.71,4.71,0,0,1,.7,0,4.29,4.29,0,0,1,.71,0,0.4,0.4,0,0,1,.32.21,0.82,0.82,0,0,1,0,.48q-0.07.32-.22,0.86l-0.46,1.58q-0.27.93-.49,1.82H144l1.25-1.58a15.52,15.52,0,0,1,1.5-1.63,9.35,9.35,0,0,1,1.7-1.28,3.67,3.67,0,0,1,1.87-.52,1.67,1.67,0,0,1,.62.11,1.16,1.16,0,0,1,.46.33,1.08,1.08,0,0,1,.23.52,1.57,1.57,0,0,1-.06.7,6.73,6.73,0,0,1-.33.84l-0.52,1.13-0.53,1.15a7.68,7.68,0,0,0-.36.92,3.91,3.91,0,0,0-.18,1.06,1.52,1.52,0,0,0,.13.68,0.76,0.76,0,0,0,.36.36,1.19,1.19,0,0,0,.51.11,5.08,5.08,0,0,0,1.75-.35,14.91,14.91,0,0,0,1.79-.79,21.9,21.9,0,0,0,2-1.16l-1.46,4.13-1.24.67q-0.69.37-1.45,0.7a12.38,12.38,0,0,1-1.54.55,5.59,5.59,0,0,1-1.53.22,3.11,3.11,0,0,1-2-.54,2.62,2.62,0,0,1-.89-1.41,6,6,0,0,1-.14-2q0.08-1.09.26-2.2h-0.28l-5.71,8.8q-0.45.69-.8,1.14a5.74,5.74,0,0,1-.66.73,2,2,0,0,1-.61.4,1.73,1.73,0,0,1-.62.11,1.6,1.6,0,0,1-1.08-.31,1.36,1.36,0,0,1-.44-0.83,3.56,3.56,0,0,1,0-1.18A12.39,12.39,0,0,1,136.3,109.76Z" transform="translate(-29.43 -0.43)"/><path class="cls-2" d="M150.49,106.67q1.24-.85,2-1.41t1.36-1c0.39-.31.75-0.63,1.08-0.94l1.19-1.13,1.67-1.6q1-.94,2.52-2.35,0.32-.32.69-0.62a5.93,5.93,0,0,1,.79-0.54,4.56,4.56,0,0,1,.88-0.39,3.12,3.12,0,0,1,1-.15,3.23,3.23,0,0,1,1.26.18,1.07,1.07,0,0,1,.54.45,0.87,0.87,0,0,1,.09.56,4.75,4.75,0,0,1-.11.5,2.44,2.44,0,0,1-.61.93c-0.32.34-.67,0.67-1,1l-1,.87a2.8,2.8,0,0,0-.59.59,6,6,0,0,0-.21,1,6.74,6.74,0,0,0,0,.88q0,0.43,0,.92t0,1.12a13.43,13.43,0,0,1-.21,1.46q-0.16.83-.48,2a15.13,15.13,0,0,1,1.6-.77l1.74-.71q0.91-.37,1.88-0.82a19.36,19.36,0,0,0,2-1.08l-1.12,3.95a23.81,23.81,0,0,1-3,1.59,34.24,34.24,0,0,1-3.41,1.31,29,29,0,0,1-3.47.89,17.12,17.12,0,0,1-3.17.33,8.5,8.5,0,0,1-1.9-.19,3.76,3.76,0,0,1-1.41-.61,2.21,2.21,0,0,1-.8-1.08,3.13,3.13,0,0,1,0-1.62,3.75,3.75,0,0,1-.51.07l-0.48,0-0.53,0a0.68,0.68,0,0,1-.39-0.13,0.54,0.54,0,0,1-.18-0.37,2,2,0,0,1,.1-0.73,2.05,2.05,0,0,1,.44-0.78,4.91,4.91,0,0,1,.68-0.64A8.14,8.14,0,0,1,150,107Zm1.62,2.26a0.5,0.5,0,0,1,.39.26c0.12,0.18.26,0.37,0.43,0.58a2.93,2.93,0,0,0,.61.58,1.56,1.56,0,0,0,.93.26,3,3,0,0,0,1.21-.23,2.87,2.87,0,0,0,.89-0.61,3.41,3.41,0,0,0,.63-0.88,6.12,6.12,0,0,0,.41-1,8.06,8.06,0,0,0,.22-1c0.05-.33.09-0.64,0.11-0.94s0-.58,0-0.85,0-.49,0-0.68Z" transform="translate(-29.43 -0.43)"/><g class="cls-3"><path class="cls-2" d="M91.15,74h13.67c0-19.25,2.39-25,4.86-28.32S108.77,40,108.77,40c-5.14-3.16-8.39-14.38-9-16.84a3,3,0,0,0-1.25-5.44v6L98.53,41l2.87,2.85H94.56L97.43,41,97.38,23.75v-6a3,3,0,0,0-1.14,5.55c-1.86,7.33-6.53,14-9.3,16.55s-1.1,4.9-1.1,4.9C91.6,54,91.15,74,91.15,74h0Zm0,0" transform="translate(-29.43 -0.43)"/></g><path class="cls-2" d="M105.9,83.62V81.07h1.63a2.78,2.78,0,1,0,0-5.56H88.27a2.78,2.78,0,1,0,0,5.56h2.42v2.56H105.9Zm0,0" transform="translate(-29.43 -0.43)"/><path class="cls-2" d="M36.51,46.22c0.71,0.28,1.37.54,1.77,0.68,0.23,0.08.43-.33,0.53-0.57L39,46.38c-0.08.18-.18,0.43-0.29,0.7-0.21.54-.45,1.17-0.6,1.63l-0.15-.06,0,0A0.89,0.89,0,0,0,38,47.85c-0.25-.15-4.82-2-5-2a1.19,1.19,0,0,0-.5.56l-0.13-.05c0.14-.28.31-0.67,0.46-1s0.31-.83.39-1.09l0.18,0.07a0.82,0.82,0,0,0,0,.7C33.48,45,35.09,45.66,36.51,46.22Z" transform="translate(-29.43 -0.43)"/><path class="cls-2" d="M37.14,37.21c0.21,0.13.84,0.46,1.6,0.85,1.51,0.78,3.51,1.79,3.51,1.79l-0.15.29S36,41,35.73,41l1.21,0.64c1.25,0.65,1,.44,2.49,1.23l0.35,0.18A0.33,0.33,0,0,0,40.3,43l0.27-.48,0.16,0.08c-0.15.25-.33,0.58-0.51,0.92s-0.35.7-.47,1l-0.14-.07,0,0a1.09,1.09,0,0,0,.18-0.84c-1.41-.76-2.14-1.16-3-1.62l-1.56-.79a2.43,2.43,0,0,0-.82.56l-0.15-.08,0.82-1.56c1.56-.2,5.24-0.83,5.24-0.83L37,37.52a0.75,0.75,0,0,0-.63.55l-0.06.13-0.21-.08a7.69,7.69,0,0,0,.5-0.85c0.18-.34.35-0.71,0.49-1l0.19,0.1A1.13,1.13,0,0,0,37.14,37.21Z" transform="translate(-29.43 -0.43)"/><path class="cls-2" d="M45.82,32.5l-4-3-0.61.79c-0.38.51,0.35,1.36,0.74,1.69l-0.11.15L40.38,31c0.41-.52,1-1.34,1.65-2.15s1.07-1.44,1.41-1.93L44.92,28l-0.11.15c-0.46-.31-1.35-0.83-1.74-0.32l-0.67.88,4,3a0.94,0.94,0,0,0,.56.2,1.12,1.12,0,0,0,.61-0.51l0.15,0.11L46,33.83l-0.15-.11,0.07-.09A0.78,0.78,0,0,0,46.15,33,0.88,0.88,0,0,0,45.82,32.5Z" transform="translate(-29.43 -0.43)"/><path class="cls-2" d="M47.93,22.22l-0.12-.08c0.17-.15.37-0.35,0.57-0.57,0.4-.42.81-0.88,1-1.11l0.1,0.1a1.24,1.24,0,0,0-.3.69l0.68,0.67c1.09,1,3.09,2.92,3.26,3a0.89,0.89,0,0,0,.67-0.38l0,0,0.11,0.08c-0.23.2-.54,0.52-0.86,0.84s-0.68.73-.87,1l-0.12-.12c0.17-.18.47-0.55,0.29-0.72L50.5,23.8l-1.83,1.91,1.88,1.79c0.17,0.17.53-.14,0.7-0.33l0.12,0.1-0.51.52c-0.38.4-.81,0.87-1.12,1.23l-0.12-.11,0,0a0.72,0.72,0,0,0,.29-0.62c-0.1-.13-2.21-2.2-3.28-3.22-0.33-.32-0.56-0.53-0.6-0.55a1,1,0,0,0-.61.26l-0.1-.1c0.24-.2.53-0.5,0.82-0.79s0.6-.64.76-0.85l0.14,0.13a0.9,0.9,0,0,0-.34.69l1.79,1.71,1.83-1.91-1.8-1.71A0.67,0.67,0,0,0,47.93,22.22Z" transform="translate(-29.43 -0.43)"/><path class="cls-2" d="M55.6,23.1L55.5,23l0.21-.16A0.5,0.5,0,0,0,56,22.31c-0.16-.28-1.42-1.85-2.35-3-0.52-.63-0.95-1.13-1-1.19a1.26,1.26,0,0,0-.71.24l-0.11-.13c0.53-.41,1.16-0.92,1.75-1.41s1.15-1,1.54-1.31L56,16.63l-0.14.12a1.29,1.29,0,0,0-1.5-.27l-1.15.95,1.7,2.06L56,18.59a0.66,0.66,0,0,0-.13-0.9L56,17.54l1.12,1.36L57,19a0.65,0.65,0,0,0-.91-0.24L55,19.65l1.5,1.81a0.39,0.39,0,0,0,.56.15l1.1-.91A1.53,1.53,0,0,0,58,19.23l0.17-.14L59,20.3Z" transform="translate(-29.43 -0.43)"/><path class="cls-2" d="M64.51,13.26a1.54,1.54,0,0,1-.67.27l1.23,2.1c0.13,0.22.48,0.12,0.77-.05L66,15.49l0.08,0.13-2.25,1.31-0.08-.14,0,0a0.87,0.87,0,0,0,.52-0.57C64.2,16,63.62,15,63,14s-1.26-2.1-1.45-2.39a0.89,0.89,0,0,0-.69.11l-0.09-.15L63,10.25a1.81,1.81,0,0,1,2.45.6C65.93,11.67,65.6,12.61,64.51,13.26ZM63.1,10.47a2.29,2.29,0,0,0-.36.18l-0.44.27,1.47,2.47a2.69,2.69,0,0,0,.58-0.28,1.24,1.24,0,0,0,.27-1.78C64.26,10.73,63.86,10.2,63.1,10.47Z" transform="translate(-29.43 -0.43)"/><path class="cls-2" d="M69.48,13.68l-0.07-.15,0.24-.1A0.5,0.5,0,0,0,70,13c-0.09-.31-0.9-2.15-1.51-3.48-0.34-.75-0.63-1.34-0.69-1.41a1.26,1.26,0,0,0-.75.05L67,8c0.62-.26,1.35-0.59,2.05-0.91s1.35-.63,1.82-0.87L71.5,7.51l-0.17.08A1.29,1.29,0,0,0,70,6.94l-1.35.62L69.72,10,71,9.41a0.66,0.66,0,0,0,.11-0.9l0.2-.09L72,10l-0.17.08a0.65,0.65,0,0,0-.81-0.47l-1.25.57,1,2.14a0.38,0.38,0,0,0,.5.29l1.3-.6a1.53,1.53,0,0,0,.15-1.49l0.19-.09,0.54,1.39Z" transform="translate(-29.43 -0.43)"/><path class="cls-2" d="M78.74,4c0.06,0.23.28,0.92,0.55,1.73,0.53,1.62,1.25,3.73,1.25,3.73l-0.31.1s-5-3.69-5.18-3.81L75.46,7c0.44,1.33.38,1,.92,2.62L76.5,10a0.33,0.33,0,0,0,.45.28l0.52-.15,0.06,0.17c-0.28.07-.64,0.18-1,0.3s-0.74.26-1,.39l-0.05-.15h0a1.09,1.09,0,0,0,.72-0.47c-0.47-1.52-.71-2.32-1-3.28-0.16-.48-0.33-1-0.56-1.65a2.43,2.43,0,0,0-1-.18l-0.05-.16,1.68-.54c1.25,0.94,4.32,3.07,4.32,3.07L78.41,4.1a0.75,0.75,0,0,0-.83,0l-0.13,0-0.09-.2a7.63,7.63,0,0,0,1-.26c0.37-.12.74-0.26,1.07-0.4l0.07,0.2A1.13,1.13,0,0,0,78.74,4Z" transform="translate(-29.43 -0.43)"/><path class="cls-2" d="M88.21,6.7l-0.75-5-1,.14c-0.63.1-.7,1.21-0.65,1.72l-0.18,0L85.39,1.81c0.66-.08,1.68-0.22,2.68-0.38S89.85,1.15,90.43,1l0.3,1.8-0.18,0c-0.11-.54-0.38-1.53-1-1.44l-1.1.16,0.77,5a0.94,0.94,0,0,0,.26.53,1.12,1.12,0,0,0,.8.06l0,0.19-2.88.44,0-.19,0.12,0a0.79,0.79,0,0,0,.61-0.28A0.88,0.88,0,0,0,88.21,6.7Z" transform="translate(-29.43 -0.43)"/><path class="cls-2" d="M99.82,3.66a3.15,3.15,0,0,1-3,3.29,3.21,3.21,0,0,1-3.56-3A3.16,3.16,0,0,1,96.6.43,3.07,3.07,0,0,1,99.82,3.66Zm-1.09,0c-0.07-2.08-.88-3.13-2.2-3.09-1.16,0-2.26.63-2.17,3.24,0,1.07.59,3,2.45,2.9C98,6.71,98.79,5.43,98.73,3.7Z" transform="translate(-29.43 -0.43)"/><path class="cls-2" d="M109,4.42a3.15,3.15,0,0,1-3.44,2.85,3.21,3.21,0,0,1-3.13-3.45,3.16,3.16,0,0,1,3.81-3A3.07,3.07,0,0,1,109,4.42Zm-1.08-.11c0.21-2.07-.45-3.22-1.77-3.36-1.15-.12-2.32.33-2.59,2.92-0.11,1.06.19,3,2,3.2C106.78,7.2,107.73,6,107.91,4.31Z" transform="translate(-29.43 -0.43)"/><path class="cls-2" d="M113,8.16l1.19,0.28a1.3,1.3,0,0,0,1.15-1l0.21,0-0.49,1.45-4.27-1,0-.16a1.34,1.34,0,0,0,.93-0.07c0.11-.34.49-1.95,0.8-3.3,0.2-.9.37-1.69,0.41-1.91a1.24,1.24,0,0,0-.72-0.43l0-.17,2.38,0.53,0,0.15a0.71,0.71,0,0,0-.74.13c-0.42,1.74-.53,2.21-0.65,2.76l-0.49,2.2A0.36,0.36,0,0,0,113,8.16Z" transform="translate(-29.43 -0.43)"/><path class="cls-2" d="M123.08,11.61l0.4-5.4a1.47,1.47,0,0,0-.19-1,3.42,3.42,0,0,0-.41-0.39l0.06-.13c0.27,0.15.79,0.39,1.32,0.62s1.14,0.48,1.4.56l-0.08.18a2.36,2.36,0,0,0-.81-0.1,0.77,0.77,0,0,0-.17.26,1.87,1.87,0,0,0-.14.56c-0.11,1.28-.16,2.56-0.22,3.5,0.2-.21,1.81-2,2.47-2.8l0.77-.91L127.7,6.7c-0.19,1.2-.19,3.56-0.35,5.17,0.56-.65,2.77-3.07,2.9-3.38a0.23,0.23,0,0,0-.1-0.27l-0.46-.38,0.06-.13c0.27,0.15.59,0.3,0.9,0.44s0.67,0.27.92,0.36l-0.08.18a1.6,1.6,0,0,0-.65-0.1,2.09,2.09,0,0,0-.56.33c-1.25,1.45-2.48,2.78-3.66,4.24L126.33,13c0.16-1.44.13-3.33,0.18-4.74-0.73.85-2.24,2.4-3.1,3.47Z" transform="translate(-29.43 -0.43)"/><path class="cls-2" d="M130.53,15.06l0.08-.14,0.22,0.15a0.5,0.5,0,0,0,.56.07c0.21-.24,1.28-1.94,2-3.2,0.43-.7.76-1.27,0.79-1.36a1.27,1.27,0,0,0-.46-0.59l0.09-.15c0.56,0.37,1.24.79,1.9,1.19s1.28,0.77,1.74,1l-0.71,1.23-0.16-.1a1.29,1.29,0,0,0-.23-1.51l-1.27-.78-1.39,2.29,1.2,0.73a0.66,0.66,0,0,0,.81-0.41l0.19,0.12L135,15.14l-0.16-.1a0.65,0.65,0,0,0-.07-0.94l-1.17-.71-1.22,2a0.39,0.39,0,0,0,0,.58l1.22,0.74A1.53,1.53,0,0,0,135,16l0.18,0.11-0.85,1.23Z" transform="translate(-29.43 -0.43)"/><path class="cls-2" d="M141,21.27l3.27-3.82-0.75-.66c-0.48-.41-1.37.26-1.73,0.63l-0.14-.12,1.21-1.36c0.49,0.45,1.27,1.13,2,1.78s1.37,1.16,1.84,1.53l-1.17,1.4-0.14-.12c0.34-.44.91-1.29,0.43-1.71l-0.84-.73-3.25,3.83a0.93,0.93,0,0,0-.23.54,1.12,1.12,0,0,0,.47.64l-0.12.15-2.22-1.9,0.13-.15,0.09,0.08a0.78,0.78,0,0,0,.61.28A0.88,0.88,0,0,0,141,21.27Z" transform="translate(-29.43 -0.43)"/><path class="cls-2" d="M146.82,28.09l0.06-.05a7,7,0,0,0,.81-1.12c0.36-.58.85-1.5,0.42-2l-0.43-.47-1.77,1.68c-0.18.17-.34,0.35-0.12,0.57a2.63,2.63,0,0,1,.27.32l-0.15.12c-0.22-.26-0.59-0.68-1-1.06s-0.56-.59-0.76-0.77l0.13-.12a0.91,0.91,0,0,0,.69.42,1,1,0,0,0,.28-0.21c0.56-.48,1.24-1.1,1.85-1.69,0.93-.87,1.72-1.65,1.78-1.73a1.28,1.28,0,0,0-.28-0.69l0.13-.12c0.29,0.33.6,0.67,0.89,1l1,1a1.61,1.61,0,0,1,0,2.22,1.55,1.55,0,0,1-2-.23c0.63,0.81.14,1.74-.26,2.52a4.79,4.79,0,0,0-.41.91,0.65,0.65,0,0,0,.17.65l-0.1.1Zm3.28-5.18a4.39,4.39,0,0,0-.37-0.35l-1.87,1.76,0.44,0.48A1.14,1.14,0,0,0,150,24.7a1.23,1.23,0,0,0,.44-1.37A2.22,2.22,0,0,0,150.1,22.91Z" transform="translate(-29.43 -0.43)"/><path class="cls-2" d="M151.28,33.45c0.54,0.73,1.27,1.06,2.67,0l0.57-.41c0.49-.36,1.29-1,2.24-1.7a1.56,1.56,0,0,0-.26-0.8l0.11-.08c0.16,0.27.37,0.58,0.58,0.87s0.47,0.61.65,0.81l-0.15.11a2,2,0,0,0-.68-0.54c-0.39.26-.83,0.57-1.23,0.86-0.81.59-1.5,1.14-1.5,1.14-1.25.92-2.42,0.9-3.33-.26a2.29,2.29,0,0,1,.45-3.43c0.12-.08.74-0.46,1.92-1.33l1-.73a1.55,1.55,0,0,0-.26-0.8l0.11-.08c0.16,0.27.43,0.66,0.71,1s0.61,0.8.79,1l-0.15.11a1.16,1.16,0,0,0-.62-0.46l-1.27.92L152,30.93C150.48,32,150.84,32.85,151.28,33.45Z" transform="translate(-29.43 -0.43)"/><path class="cls-2" d="M160.95,38a0.56,0.56,0,0,0,.55.13l0.07,0.12-1.67.91L159.8,39a2.45,2.45,0,0,0,.9-0.83,1.51,1.51,0,0,0,0-1.45,1.15,1.15,0,0,0-1.48-.39,1.79,1.79,0,0,0-.52,1.88c0.18,1.16,0,2.23-.82,2.67s-1.89.47-2.77-1.08a2.26,2.26,0,0,1-.23-1.51,0.71,0.71,0,0,0-.52-0.11L154.2,38l1.57-.86,0.1,0.17a1.71,1.71,0,0,0-.62,2.34,1.19,1.19,0,0,0,1.81.51,1.7,1.7,0,0,0,.5-1.9,2.17,2.17,0,0,1,.82-2.34,1.61,1.61,0,0,1,2.45.73A1.76,1.76,0,0,1,160.95,38Z" transform="translate(-29.43 -0.43)"/><path class="cls-2" d="M158.94,45.18l4.62-2-0.38-.92c-0.25-.58-1.35-0.38-1.83-0.2l-0.07-.17,1.69-.68c0.24,0.62.64,1.57,1,2.5s0.72,1.65,1,2.18l-1.67.73-0.07-.17c0.5-.24,1.39-0.75,1.14-1.34l-0.43-1-4.61,2a0.93,0.93,0,0,0-.45.38,1.12,1.12,0,0,0,.14.79l-0.18.07-1.15-2.68,0.18-.08,0,0.11a0.79,0.79,0,0,0,.42.52A0.88,0.88,0,0,0,158.94,45.18Z" transform="translate(-29.43 -0.43)"/><g class="cls-4"><ellipse class="cls-5" cx="69.42" cy="69.26" rx="67.5" ry="67.08"/></g><path class="cls-2" d="M124.9,125.48a0.7,0.7,0,0,1-.76.79,0.8,0.8,0,0,1-.73-0.79,0.75,0.75,0,0,1,.73-0.76A0.74,0.74,0,0,1,124.9,125.48Z" transform="translate(-29.43 -0.43)"/><path class="cls-2" d="M133.62,119.51a0.77,0.77,0,0,0,.34-0.72h0.35l0,2.37h-0.22a2.24,2.24,0,0,0-2.52-2c-1.52,0-2.18,1.44-2.21,3.44,0,1.75.44,3.5,2.37,3.5,1.51,0,2-.94,2.49-2l0.26,0.21a2.92,2.92,0,0,1-2.77,2.16,3.54,3.54,0,0,1-3.81-3.77,3.62,3.62,0,0,1,3.77-3.84A3,3,0,0,1,133.62,119.51Z" transform="translate(-29.43 -0.43)"/><path class="cls-2" d="M144.92,122.64a3.68,3.68,0,0,1-3.66,3.72c-2.13,0-4-1.36-4-3.63,0-3.25,2.36-4,4.06-4A3.58,3.58,0,0,1,144.92,122.64Zm-1.27,0c0-2.43-.91-3.68-2.45-3.68-1.35,0-2.66.66-2.66,3.7,0,1.24.58,3.47,2.75,3.47C142.68,126.13,143.65,124.66,143.65,122.64Z" transform="translate(-29.43 -0.43)"/><path class="cls-2" d="M152.36,124.84l2.45-5.75,1.91-.08v0.22c-0.16,0-1,.12-1.06.41v5.9a0.93,0.93,0,0,0,.33.42,0.91,0.91,0,0,0,.43.1,1.35,1.35,0,0,0,.27,0v0.21c-0.38,0-.94,0-1.5,0s-1.11,0-1.48,0v-0.19a2.66,2.66,0,0,0,.64-0.11,0.49,0.49,0,0,0,.29-0.38V120.4l-2.6,6h-0.18L149,120.47s0,1.55,0,3c0,0.73,0,1.45,0,1.93s0.09,0.32.27,0.52a1.64,1.64,0,0,0,.59.09h0.07v0.21c-0.33,0-.75,0-1.17,0s-0.86,0-1.24,0v-0.19a2.71,2.71,0,0,0,1-.25,0.53,0.53,0,0,0,.16-0.3s0-5,0-5.37a1.44,1.44,0,0,0-1.28-.86v-0.2l2.08,0C149.81,119.72,151.91,123.85,152.36,124.84Z" transform="translate(-29.43 -0.43)"/><polygon class="cls-2" points="30.54 55.63 30.13 58.21 32.44 56.96 34.8 58.15 34.31 55.57 36.17 53.72 33.56 53.38 32.36 51.04 31.23 53.41 28.62 53.82 30.54 55.63"/><polygon class="cls-2" points="105.34 55.63 104.94 58.21 107.25 56.96 109.6 58.15 109.12 55.57 110.98 53.72 108.37 53.38 107.17 51.04 106.03 53.41 103.43 53.82 105.34 55.63"/></svg>