<svg id="Logo_10" data-name="Logo 10" xmlns="http://www.w3.org/2000/svg" viewBox="0 0 194.91 101.47"><defs><style>.cls-1,.cls-2{fill:#353531;}.cls-1{stroke:#353531;stroke-miterlimit:10;stroke-width:0.86px;fill-rule:evenodd;}.cls-3{fill:#fff;}</style></defs><title>logo-10</title><g id="Banner"><path class="cls-1" d="M28.7,82.22a689.13,689.13,0,0,1,138.25,0l-5.31,15.23A636.24,636.24,0,0,0,34,97.45Z" transform="translate(-0.37 -9.83)"/><path class="cls-1" d="M186.17,106.21c-17.12-2.53-34.53-4.3-52-5.33q14.5-1.31,29.56-1.93l4-11q13.11,1.39,26.08,3.3-6.81,3-13.26,6.15Q183.54,101.8,186.17,106.21Z" transform="translate(-0.37 -9.83)"/><path class="cls-1" d="M15.19,97.41Q8.73,94.27,1.9,91.27q13-1.92,26.15-3.3l4,11q15.08,0.61,29.64,1.93c-17.56,1-35,2.81-52.18,5.34Q12.13,101.8,15.19,97.41Z" transform="translate(-0.37 -9.83)"/></g><path class="cls-2" d="M36.85,63.65Q36.13,68,35.42,72.42H29.24q3.34-19.65,6.65-38.3Q39.95,34.7,44,35.2q3.32,19,6.65,37.22H44.43q-0.7-4.27-1.4-8.58Zm3.08-20.33q-1.08,7.33-2.17,14.77l4.38,0.22Q41,50.87,39.93,43.32Z" transform="translate(-0.37 -9.83)"/><path class="cls-2" d="M71.8,72.42H55.65l-0.08-36q3,0.28,5.93.52L61.57,67.1l10.23,0.11v5.21Z" transform="translate(-0.37 -9.83)"/><path class="cls-2" d="M75.88,72.42L75.82,37.88q4.45,0.21,8.9.33a13.2,13.2,0,0,1,6.35,1.73,7.72,7.72,0,0,1,3.46,4.24,10.37,10.37,0,0,1,.57,3.61A7.31,7.31,0,0,1,93,53.27a5.92,5.92,0,0,1-2.07,1.32,6.76,6.76,0,0,1,3.36,2.6,9.21,9.21,0,0,1,1.35,3.37,11.69,11.69,0,0,1,.22,2.36,10.13,10.13,0,0,1-1.41,5.49,7.91,7.91,0,0,1-3.1,2.82,9.53,9.53,0,0,1-4.48,1.19h-11Zm6.37-20.28,2.48,0a3.56,3.56,0,0,0,3.71-2.29,5.82,5.82,0,0,0,.34-2.14,3.9,3.9,0,0,0-4.06-4.29l-2.48-.06v8.75Zm0,15.17h2.48a4.16,4.16,0,0,0,4.17-2.68,5.2,5.2,0,0,0,.41-2.12,5.88,5.88,0,0,0-1.26-4.17,4.43,4.43,0,0,0-3.33-1.23l-2.48,0V67.31Z" transform="translate(-0.37 -9.83)"/><path class="cls-2" d="M101,72.42V38.35q8.46-.09,16.92-0.52v5.24q-5.48.23-11,.35v9.32q4-.06,8-0.16V57.8q-4,.07-8,0.12v9.32l10.95-.06v5.24H101Z" transform="translate(-0.37 -9.83)"/><path class="cls-2" d="M131.35,37c3.31-.27,5.73.32,7.27,1.85,1.36,1.33,2,3.32,2,6V50a8.61,8.61,0,0,1-3.18,6.66q2.18,7.77,4.36,15.71H135.4q-1.78-6.74-3.56-13.37l-0.53,0-3.42.1,0,13.25h-5.93L122,37.63Q126.67,37.35,131.35,37Zm3.53,8.31c0-2.08-1.12-3-3.38-2.86l-3.58.24,0,11.26,3.58-.15a3.56,3.56,0,0,0,2.4-1,3,3,0,0,0,1-2.25V45.28Z" transform="translate(-0.37 -9.83)"/><path class="cls-2" d="M151.29,40.56q-3.14.34-6.29,0.65,0-2.79,0-5.58,9.24-1.05,18.43-2.51v6q-3.12.42-6.24,0.8,0,16.27,0,32.54h-5.93Q151.27,56.49,151.29,40.56Z" transform="translate(-0.37 -9.83)"/><polygon class="cls-2" points="101.2 14.44 102.58 10.52 102.46 6.39 99.58 9.32 99.21 5.86 97.88 2.59 95.25 0 94.66 3.18 93.39 6.25 93.71 9.43 90.63 6.83 90.02 10.8 91.31 14.67 87.46 13.46 89.12 17.05 92.93 19.06 95.39 19.28 93.37 16.22 95.18 16.9 95.36 14.15 96.76 11.6 98.11 14.28 98.06 17.19 99.35 15.18 99.45 17.84 98.75 19 100.97 18.21 103.22 15.52 104.48 12.37 101.2 14.44"/><path class="cls-2" d="M53.14,22.88a2.26,2.26,0,0,0,2.42,2.45,4.65,4.65,0,0,0,2-.36l0.22,0.92a5.72,5.72,0,0,1-2.35.44,3.28,3.28,0,0,1-3.48-3.56c0-2.13,1.26-3.81,3.31-3.81,2.31,0,2.92,2,2.92,3.33a4.85,4.85,0,0,1,0,.6h-5ZM56.9,22a1.83,1.83,0,0,0-1.78-2.09,2.13,2.13,0,0,0-2,2.09H56.9Z" transform="translate(-0.37 -9.83)"/><path class="cls-2" d="M59.56,24.86a3.37,3.37,0,0,0,1.69.51,1.14,1.14,0,0,0,1.37-1.05c0-.61-0.37-0.95-1.31-1.3-1.27-.45-1.87-1.15-1.87-2A2.18,2.18,0,0,1,61.88,19a3.52,3.52,0,0,1,1.74.44l-0.32.93a2.75,2.75,0,0,0-1.45-.41,1,1,0,0,0-1.18,1c0,0.58.42,0.85,1.34,1.2,1.23,0.47,1.85,1.08,1.85,2.13,0,1.24-1,2.12-2.64,2.12a4,4,0,0,1-2-.48Z" transform="translate(-0.37 -9.83)"/><path class="cls-2" d="M67.07,17.08v2h1.84v1H67.07V23.9c0,0.88.25,1.37,1,1.37a2.85,2.85,0,0,0,.74-0.09l0.06,1a3.14,3.14,0,0,1-1.14.18,1.78,1.78,0,0,1-1.39-.54,2.62,2.62,0,0,1-.5-1.84V20.09h-1.1v-1h1.1V17.42Z" transform="translate(-0.37 -9.83)"/><path class="cls-2" d="M76.37,15.81v8.54c0,0.63,0,1.34.06,1.83H75.28L75.22,25h0a2.61,2.61,0,0,1-2.41,1.39c-1.71,0-3-1.45-3-3.59,0-2.35,1.45-3.8,3.17-3.8A2.36,2.36,0,0,1,75.06,20h0V15.81h1.29ZM75.09,22A2.29,2.29,0,0,0,75,21.45,1.89,1.89,0,0,0,73.17,20c-1.33,0-2.12,1.17-2.12,2.73s0.7,2.61,2.09,2.61A1.93,1.93,0,0,0,75,23.77a2.24,2.24,0,0,0,.06-0.55V22Z" transform="translate(-0.37 -9.83)"/><path class="cls-2" d="M109.46,17.88h0l-1.65.89-0.25-1,2.07-1.11h1.1v9.49h-1.24V17.88Z" transform="translate(-0.37 -9.83)"/><path class="cls-2" d="M114.91,25.27a5.34,5.34,0,0,0,1,0,3.58,3.58,0,0,0,2-.92,4.17,4.17,0,0,0,1.26-2.53h0a2.79,2.79,0,0,1-2.23,1,2.75,2.75,0,0,1-2.8-2.91,3.25,3.25,0,0,1,3.24-3.37c1.94,0,3.14,1.58,3.14,4A6,6,0,0,1,118.85,25a4.75,4.75,0,0,1-2.76,1.27,6,6,0,0,1-1.18.07V25.27Zm0.47-5.46a1.83,1.83,0,0,0,1.83,2,2.12,2.12,0,0,0,1.87-1,0.85,0.85,0,0,0,.12-0.47c0-1.62-.6-2.86-1.94-2.86A2,2,0,0,0,115.37,19.81Z" transform="translate(-0.37 -9.83)"/><path class="cls-2" d="M121.65,26.18V25.39l1-1c2.42-2.31,3.52-3.53,3.53-5a1.69,1.69,0,0,0-1.88-1.85,3.23,3.23,0,0,0-2,.8l-0.41-.91a4.16,4.16,0,0,1,2.69-1,2.67,2.67,0,0,1,2.91,2.76c0,1.75-1.27,3.17-3.27,5.1l-0.76.7v0h4.26v1.07h-6.06Z" transform="translate(-0.37 -9.83)"/><path class="cls-2" d="M129,23.77a2.71,2.71,0,0,1,1.88-2.54v0a2.35,2.35,0,0,1-1.5-2.13,2.66,2.66,0,0,1,2.94-2.53,2.45,2.45,0,0,1,2.76,2.34,2.41,2.41,0,0,1-1.56,2.22v0a2.63,2.63,0,0,1,1.91,2.45c0,1.65-1.42,2.76-3.23,2.76C130.23,26.34,129,25.16,129,23.77Zm5.11-.06c0-1.15-.8-1.71-2.09-2.07a2.06,2.06,0,0,0-1.71,2,1.76,1.76,0,0,0,1.9,1.81A1.72,1.72,0,0,0,134.14,23.71ZM130.61,19c0,0.95.72,1.46,1.81,1.75A1.87,1.87,0,0,0,133.86,19a1.48,1.48,0,0,0-1.61-1.55A1.51,1.51,0,0,0,130.61,19Z" transform="translate(-0.37 -9.83)"/><path class="cls-2" d="M105.69,108.29a26.71,26.71,0,0,0-3.67-1.55,15.18,15.18,0,0,0-3.68-.72,8.67,8.67,0,0,1-2.18-.72,28.71,28.71,0,0,1-3.4-1.78,7.18,7.18,0,0,0-1.78-.69c0.08-.26.14-0.47,0.17-0.57-0.06-.34-0.21-0.15-0.65-0.33a11.8,11.8,0,0,0-1.86-.45c-0.19,0-.18.36-0.23,0.67L87.87,102a3.94,3.94,0,0,0-.42,2.28l0.34,0.15a5.81,5.81,0,0,1-.32,1.17,7.6,7.6,0,0,1-1.38,2.15A6.06,6.06,0,0,1,84.34,109c-0.08.15,1.08,1.48,3.3,2.15s4.56-.51,4.39-0.64a4.51,4.51,0,0,1-1.32-1.83,24.72,24.72,0,0,1-.87-2.54,1.58,1.58,0,0,1,.29-0.78c1.17,0.44,3.14,1.21,3.5,1.33s1.23,0.17,2.18.43,3.49,0.83,3.91.91a22.29,22.29,0,0,1,2.53.73,5.92,5.92,0,0,1,1.86,1.14c0.45,0.43,1.3,1.13,1.51.81S106.37,108.71,105.69,108.29Z" transform="translate(-0.37 -9.83)"/><path class="cls-3" d="M76.21,85.76l1.2,2a10.27,10.27,0,0,1,.51.93h0c0-.34.06-0.68,0.12-1.06l0.28-2.34,0.72-.15-0.69,4.19-0.66.14-2.25-3.59Z" transform="translate(-0.37 -9.83)"/><path class="cls-3" d="M83,83.43a0.44,0.44,0,1,1-.86.12A0.43,0.43,0,0,1,82.46,83,0.42,0.42,0,0,1,83,83.43Zm-0.07,5.14-0.55-3.93,0.7-.1,0.55,3.93Z" transform="translate(-0.37 -9.83)"/><path class="cls-3" d="M86.93,85.17c0-.41-0.06-0.74-0.11-1.07l0.62,0,0.09,0.65h0a1.42,1.42,0,0,1,2.71.74l0.18,2.36-0.7.05-0.17-2.28a1,1,0,0,0-1-1.1,1,1,0,0,0-.89.81,1.07,1.07,0,0,0,0,.34L87.85,88l-0.7.05Z" transform="translate(-0.37 -9.83)"/><path class="cls-3" d="M94.71,82.56l0,1.14,1,0v0.55l-1,0,0,2.14c0,0.49.15,0.77,0.54,0.76a1.51,1.51,0,0,0,.41-0.06l0,0.54a1.68,1.68,0,0,1-.62.11,1,1,0,0,1-.76-0.29,1.49,1.49,0,0,1-.29-1l0-2.16h-0.6V83.72H94v-1Z" transform="translate(-0.37 -9.83)"/><path class="cls-3" d="M101.13,87.78l0-.5h0a1.43,1.43,0,0,1-1.21.54,1.12,1.12,0,0,1-1.14-1.19c0-1,.89-1.45,2.39-1.38V85.17a0.81,0.81,0,0,0-.84-1,1.9,1.9,0,0,0-1,.25L99.12,84a2.36,2.36,0,0,1,1.29-.3,1.4,1.4,0,0,1,1.41,1.68l-0.06,1.48a5.75,5.75,0,0,0,0,1Zm0-2c-0.77,0-1.64.05-1.67,0.82a0.63,0.63,0,0,0,.63.72,1,1,0,0,0,1-.62,0.78,0.78,0,0,0,0-.23Z" transform="translate(-0.37 -9.83)"/><path class="cls-3" d="M109,84.48c0,0.28-.1.6-0.15,1.08l-0.25,2.29a2.31,2.31,0,0,1-.75,1.74,2,2,0,0,1-1.45.32,2.45,2.45,0,0,1-1.24-.47l0.24-.53a2.14,2.14,0,0,0,1.09.44,1.18,1.18,0,0,0,1.39-1.24l0-.44h0a1.37,1.37,0,0,1-1.3.52,1.76,1.76,0,0,1-1.42-2.1,1.89,1.89,0,0,1,2-1.9,1.28,1.28,0,0,1,1.13.82h0l0.1-.59ZM108.09,86a1,1,0,0,0,0-.33,1,1,0,0,0-.89-0.87,1.28,1.28,0,0,0-1.31,1.36,1.23,1.23,0,0,0,1,1.54,1,1,0,0,0,1.05-.62,1.31,1.31,0,0,0,.1-0.38Z" transform="translate(-0.37 -9.83)"/><path class="cls-3" d="M112.78,87.2a1.25,1.25,0,0,0,1,1.6,2.5,2.5,0,0,0,1.09,0l0,0.53a3.06,3.06,0,0,1-1.31,0,1.82,1.82,0,0,1-1.5-2.32,1.91,1.91,0,0,1,2.18-1.77,1.67,1.67,0,0,1,1.22,2.13,2.79,2.79,0,0,1-.09.33Zm2.12-.12a1,1,0,0,0-.74-1.33,1.19,1.19,0,0,0-1.28,1Z" transform="translate(-0.37 -9.83)"/></svg>