<svg id="Logo_3" data-name="Logo 3" xmlns="http://www.w3.org/2000/svg" xmlns:xlink="http://www.w3.org/1999/xlink" viewBox="0 0 193.96 119.52"><defs><style>.cls-1,.cls-4{fill:none;}.cls-2{clip-path:url(#clip-path);}.cls-3{fill:#353531;}.cls-4{stroke:#353531;stroke-miterlimit:10;stroke-width:3.82px;}</style><clipPath id="clip-path" transform="translate(-0.8 -5.76)"><rect class="cls-1" x="92.48" y="90.61" width="11.98" height="30.97"/></clipPath></defs><title>logo-3</title><g class="cls-2"><path class="cls-3" d="M95.54,117.12h6.28c0-8.89,1.1-11.55,2.23-13.08a1.77,1.77,0,0,0-.42-2.59c-2.36-1.46-3.85-6.64-4.15-7.78a1.4,1.4,0,0,0-.58-2.51v2.77l0,8,1.32,1.32H97.11l1.32-1.32,0-8V91.15a1.4,1.4,0,0,0-.53,2.56,17.66,17.66,0,0,1-4.27,7.65c-1.3,1.22-.51,2.26-0.51,2.26,2.66,4.29,2.44,13.5,2.44,13.5h0Zm0,0" transform="translate(-0.8 -5.76)"/></g><path class="cls-3" d="M102.32,124.24V120.4h0.75a1.28,1.28,0,1,0,0-2.57H94.22a1.28,1.28,0,0,0,0,2.57h1.11v3.84h7Zm0-2.66" transform="translate(-0.8 -5.76)"/><path class="cls-3" d="M8,74.41c0,0.88,0,1.7,0,2.19,0,0.28.54,0.32,0.83,0.32V77.1H8c-0.66,0-1.44,0-2,0V77h0A1,1,0,0,0,6.9,76.7C7,76.36,7,70.7,7,70.48a1.36,1.36,0,0,0-.8-0.3V70c0.36,0,.84,0,1.31,0s1,0,1.32,0v0.22a0.94,0.94,0,0,0-.76.27C8,70.64,8,72.64,8,74.41Z" transform="translate(-0.8 -5.76)"/><path class="cls-3" d="M17.43,70.61c0,0.28,0,1.11,0,2.09,0,2,0,4.53,0,4.53H17.05s-4.08-5.83-4.27-6c0,0.69,0,1.19,0,1.58,0,1.62.06,1.21,0.06,3.21,0,0.14,0,.29,0,0.45a0.38,0.38,0,0,0,.39.46l0.62,0v0.21c-0.33,0-.76,0-1.2,0s-0.9,0-1.27,0V77h0.05a1.24,1.24,0,0,0,1-.26c0-1.84.05-2.8,0.05-4,0-.58,0-1.2,0-2a2.77,2.77,0,0,0-1-.54V70h2c1,1.48,3.6,4.92,3.6,4.92v-4.3a0.86,0.86,0,0,0-.89-0.35H16L16,70a8.65,8.65,0,0,0,1.13.06c0.44,0,.9,0,1.31-0.05v0.24A1.29,1.29,0,0,0,17.43,70.61Z" transform="translate(-0.8 -5.76)"/><path class="cls-3" d="M27,76V70.25H25.82c-0.73,0-1,1.25-1,1.84H24.57l0-2.1c0.76,0,1.94,0,3.1,0s2.06,0,2.74,0l0,2.1H30.27c0-.64-0.17-1.81-0.9-1.82H28.1V76a1.08,1.08,0,0,0,.2.65,1.28,1.28,0,0,0,.89.21v0.22H25.86V76.9H26a0.89,0.89,0,0,0,.74-0.21A1,1,0,0,0,27,76Z" transform="translate(-0.8 -5.76)"/><path class="cls-3" d="M37.26,70.22l0-.16,0.92,0c0.67,0,1.38,0,1.7-.06v0.16a1.42,1.42,0,0,0-.8.3c0,0.07,0,.5,0,1.1,0,1.73,0,4.9.06,5.13A1,1,0,0,0,40,77h0l0,0.15c-0.35,0-.86,0-1.38,0s-1.14,0-1.5.05v-0.2c0.29,0,.83,0,0.83-0.33v-3H35v3c0,0.28.54,0.33,0.83,0.33v0.19H35c-0.63,0-1.36,0-1.91,0V77h0a0.82,0.82,0,0,0,.74-0.26c0-.19.07-3.59,0.07-5.29,0-.53,0-0.89,0-0.94a1.18,1.18,0,0,0-.69-0.3V70c0.36,0,.84,0,1.3,0s1,0,1.31,0v0.22a1,1,0,0,0-.85.27v2.85h3V70.49A0.77,0.77,0,0,0,37.26,70.22Z" transform="translate(-0.8 -5.76)"/><path class="cls-3" d="M42.83,77.1V76.92h0.3a0.57,0.57,0,0,0,.59-0.27c0.06-.36.1-2.68,0.1-4.37,0-.95,0-1.7,0-1.81a1.45,1.45,0,0,0-.8-0.3V70c0.77,0,1.69,0,2.57,0s1.72,0,2.31,0l0,1.63H47.69c-0.09-.42-0.39-1.34-1.13-1.34H44.85v3.08h1.61A0.76,0.76,0,0,0,47,72.47h0.26v2H47.05a0.75,0.75,0,0,0-.62-0.88H44.85v2.71a0.44,0.44,0,0,0,.38.54h1.64a1.77,1.77,0,0,0,.87-1.48H48l-0.1,1.72H42.83Z" transform="translate(-0.8 -5.76)"/><path class="cls-3" d="M57.72,73.89a1.74,1.74,0,0,1-.81-0.13v2.81c0,0.3.41,0.4,0.79,0.4h0.18v0.17l-3,0V76.93h0a1,1,0,0,0,.84-0.25c0-.23,0-1.57,0-3s0-2.83,0-3.23a1,1,0,0,0-.75-0.3V70L58,70A2.08,2.08,0,0,1,60,72C60,73.15,59.17,73.89,57.72,73.89ZM58,70.3a2.62,2.62,0,0,0-.46,0H56.91v3.32a3.08,3.08,0,0,0,.74.06A1.43,1.43,0,0,0,58.95,72C58.95,71.24,58.86,70.47,58,70.3Z" transform="translate(-0.8 -5.76)"/><path class="cls-3" d="M62.56,77.1V76.92h0.3a0.57,0.57,0,0,0,.59-0.27c0.06-.36.1-2.68,0.1-4.37,0-.95,0-1.7,0-1.81a1.45,1.45,0,0,0-.8-0.3V70c0.77,0,1.69,0,2.57,0s1.72,0,2.31,0l0,1.63H67.41c-0.09-.42-0.39-1.34-1.13-1.34H64.58v3.08h1.61a0.76,0.76,0,0,0,.55-0.89H67v2H66.77a0.75,0.75,0,0,0-.62-0.88H64.58v2.71a0.44,0.44,0,0,0,.38.54h1.64a1.77,1.77,0,0,0,.87-1.48h0.25l-0.1,1.72H62.56Z" transform="translate(-0.8 -5.76)"/><path class="cls-3" d="M76.34,70.61c0,0.28,0,1.11,0,2.09,0,2,0,4.53,0,4.53H76s-4.08-5.83-4.27-6c0,0.69,0,1.19,0,1.58,0,1.62.06,1.21,0.06,3.21,0,0.14,0,.29,0,0.45a0.38,0.38,0,0,0,.39.46l0.62,0v0.21c-0.33,0-.76,0-1.2,0s-0.9,0-1.27,0V77h0.05a1.24,1.24,0,0,0,1-.26c0-1.84.05-2.8,0.05-4,0-.58,0-1.2,0-2a2.77,2.77,0,0,0-1-.54V70h2c1,1.48,3.6,4.92,3.6,4.92v-4.3A0.86,0.86,0,0,0,75,70.26H74.89l0-.26a8.64,8.64,0,0,0,1.13.06c0.44,0,.9,0,1.31-0.05v0.24A1.29,1.29,0,0,0,76.34,70.61Z" transform="translate(-0.8 -5.76)"/><path class="cls-3" d="M85.87,76V70.25H84.73c-0.73,0-1,1.25-1,1.84H83.48l0-2.1c0.76,0,1.94,0,3.1,0s2.06,0,2.74,0l0,2.1H89.18c0-.64-0.17-1.81-0.9-1.82H87V76a1.08,1.08,0,0,0,.2.65,1.28,1.28,0,0,0,.89.21v0.22H84.76V76.9H84.9a0.89,0.89,0,0,0,.74-0.21A1,1,0,0,0,85.87,76Z" transform="translate(-0.8 -5.76)"/><path class="cls-3" d="M99.41,73.57a3.63,3.63,0,0,1-3.59,3.68,3.68,3.68,0,0,1-4-3.58c0-3.21,2.32-3.93,4-3.93A3.53,3.53,0,0,1,99.41,73.57Zm-1.25,0c0-2.4-.89-3.64-2.41-3.64-1.33,0-2.61.65-2.61,3.65,0,1.23.57,3.43,2.7,3.43C97.21,77,98.16,75.56,98.16,73.57Z" transform="translate(-0.8 -5.76)"/><path class="cls-3" d="M109.71,73.57a3.63,3.63,0,0,1-3.59,3.68,3.68,3.68,0,0,1-4-3.58c0-3.21,2.32-3.93,4-3.93A3.53,3.53,0,0,1,109.71,73.57Zm-1.25,0c0-2.4-.89-3.64-2.41-3.64-1.33,0-2.61.65-2.61,3.65,0,1.23.57,3.43,2.7,3.43C107.51,77,108.46,75.56,108.46,73.57Z" transform="translate(-0.8 -5.76)"/><path class="cls-3" d="M115,76.85h1.41a1.49,1.49,0,0,0,1-1.47h0.25l-0.18,1.75h-5V77a1.54,1.54,0,0,0,1-.31c0-.41.06-2.32,0.06-3.91,0-1.06,0-2,0-2.25a1.41,1.41,0,0,0-.91-0.3V70h2.8v0.17a0.81,0.81,0,0,0-.79.34c0,2.06,0,2.62,0,3.26s0,1.1,0,2.59A0.42,0.42,0,0,0,115,76.85Z" transform="translate(-0.8 -5.76)"/><path class="cls-3" d="M127.45,77.23l-2.05-5.89a1.7,1.7,0,0,0-.65-0.94,3.9,3.9,0,0,0-.61-0.22V70c0.36,0,1,0,1.67,0s1.42,0,1.73,0v0.22a2.69,2.69,0,0,0-.89.27,0.88,0.88,0,0,0-.06.35,2.17,2.17,0,0,0,.11.66c0.47,1.4,1,2.78,1.37,3.8,0.11-.31,1-3,1.31-4.09l0.39-1.32H130c0.35,1.36,1.43,3.85,2,5.62,0.29-.95,1.5-4.52,1.5-4.91a0.26,0.26,0,0,0-.23-0.24l-0.66-.19V70c0.36,0,.76,0,1.15,0s0.83,0,1.13,0v0.22a1.83,1.83,0,0,0-.73.2,2.39,2.39,0,0,0-.43.6c-0.65,2.11-1.33,4.08-1.9,6.17h-0.37c-0.49-1.6-1.39-3.58-2-5.09-0.38,1.24-1.25,3.57-1.66,5.09h-0.42Z" transform="translate(-0.8 -5.76)"/><path class="cls-3" d="M137.13,77.1V76.92h0.3a0.57,0.57,0,0,0,.59-0.27c0.06-.36.1-2.68,0.1-4.37,0-.95,0-1.7,0-1.81a1.44,1.44,0,0,0-.8-0.3V70c0.77,0,1.69,0,2.57,0s1.72,0,2.31,0l0,1.63H142c-0.09-.42-0.39-1.34-1.13-1.34h-1.71v3.08h1.61a0.76,0.76,0,0,0,.55-0.89h0.26v2h-0.21a0.75,0.75,0,0,0-.62-0.88h-1.57v2.71a0.44,0.44,0,0,0,.38.54h1.64a1.77,1.77,0,0,0,.87-1.48h0.25l-0.1,1.72h-5.05Z" transform="translate(-0.8 -5.76)"/><path class="cls-3" d="M151.29,76V70.25h-1.15c-0.73,0-1,1.25-1,1.84H148.9l0-2.1c0.76,0,1.94,0,3.1,0s2.06,0,2.74,0l0,2.1H154.6c0-.64-0.17-1.81-0.9-1.82h-1.27V76a1.08,1.08,0,0,0,.2.65,1.27,1.27,0,0,0,.89.21v0.22h-3.35V76.9h0.13a0.9,0.9,0,0,0,.74-0.21A1,1,0,0,0,151.29,76Z" transform="translate(-0.8 -5.76)"/><path class="cls-3" d="M161.61,77.09s0-.06,0-0.09a8.14,8.14,0,0,0-.29-1.57c-0.2-.77-0.58-1.9-1.33-1.91h-0.73v2.82c0,0.28,0,.56.38,0.56a3,3,0,0,1,.48,0v0.22c-0.39,0-1,0-1.63,0s-0.93,0-1.23,0v-0.2a1,1,0,0,0,.89-0.25,1.24,1.24,0,0,0,0-.39c0-.85,0-1.91,0-2.89,0-1.47,0-2.75,0-2.86a1.47,1.47,0,0,0-.79-0.31V70l1.51,0h1.61a1.84,1.84,0,0,1,1.84,1.77,1.79,1.79,0,0,1-1.8,1.54c1.17,0.12,1.56,1.25,1.9,2.2a5.51,5.51,0,0,0,.44,1.07,0.74,0.74,0,0,0,.68.37v0.16Zm-1.74-6.84a4.61,4.61,0,0,0-.59,0v3H160a1.32,1.32,0,0,0,1.25-1.49,1.42,1.42,0,0,0-.8-1.45A2.58,2.58,0,0,0,159.87,70.25Z" transform="translate(-0.8 -5.76)"/><path class="cls-3" d="M169.82,77c1,0,1.84-.46,1.84-2.46,0-.32,0-0.24,0-0.81s0-1.85,0-3.24a1.78,1.78,0,0,0-.92-0.3V70c0.36,0,.78,0,1.2,0s0.89,0,1.19,0v0.22a2.35,2.35,0,0,0-1,.27c0,0.54,0,1.15,0,1.73,0,1.16,0,2.17,0,2.17,0,1.79-.81,2.86-2.5,2.92a2.63,2.63,0,0,1-2.87-2.75c0-.17.08-1,0.08-2.69,0-.43,0-0.9,0-1.4a1.78,1.78,0,0,0-.91-0.3V70c0.36,0,.9,0,1.43,0s1.15,0,1.46,0v0.22a1.35,1.35,0,0,0-.85.27c0,0.55,0,1.2,0,1.81,0,1.22,0,2.32,0,2.32C167.94,76.76,169,77,169.82,77Z" transform="translate(-0.8 -5.76)"/><path class="cls-3" d="M180,70.36a0.65,0.65,0,0,0,.43-0.48h0.16l0,2.19h-0.21A2.83,2.83,0,0,0,180,70.7a1.72,1.72,0,0,0-1.47-.78,1.33,1.33,0,0,0-1.23,1.26,2.06,2.06,0,0,0,1.58,1.59c1.25,0.48,2.2,1.3,2.2,2.33s-0.59,2.17-2.63,2.17a2.58,2.58,0,0,1-1.64-.63,0.82,0.82,0,0,0-.4.46h-0.23l0-2.06h0.22c0.22,1.1.68,1.95,2,1.95A1.37,1.37,0,0,0,180,75.47c0-.73-0.66-1.24-1.62-1.58a2.49,2.49,0,0,1-1.87-2.15,1.85,1.85,0,0,1,2.11-2A2,2,0,0,1,180,70.36Z" transform="translate(-0.8 -5.76)"/><path class="cls-3" d="M186.15,76V70.25H185c-0.73,0-1,1.25-1,1.84h-0.21l0-2.1c0.76,0,1.94,0,3.1,0s2.06,0,2.74,0l0,2.1h-0.21c0-.64-0.17-1.81-0.9-1.82h-1.27V76a1.08,1.08,0,0,0,.2.65,1.27,1.27,0,0,0,.89.21v0.22H185V76.9h0.13a0.9,0.9,0,0,0,.74-0.21A1,1,0,0,0,186.15,76Z" transform="translate(-0.8 -5.76)"/><path class="cls-3" d="M7.33,32.16c6.17,0,11.36,5.65,11.36,13.54S13.53,59.28,7.33,59.28H0.8V32.16H7.33ZM6.73,53.76c3.8,0,6.39-3.48,6.42-8s-2.59-8.05-6.42-8.05H5.94V53.76H6.73Z" transform="translate(-0.8 -5.76)"/><path class="cls-3" d="M38,37.59H30.2V43h7.43V48.4H30.2v5.46H38v5.42H25.06V32.16H38v5.42Z" transform="translate(-0.8 -5.76)"/><path class="cls-3" d="M60.3,34.23l-2.08,4.93a8.41,8.41,0,0,0-4.56-1.87c-1.75,0-2.68,1-2.68,2.43s2.13,2.6,4.7,3.91S61,47.48,61,51c0,6.47-4.1,8.74-8.49,8.74A12.09,12.09,0,0,1,44,56.19L46.56,51s3,3.06,5.52,3.06c1.12,0,3.25-.13,3.25-2.66,0-2-2.4-2.86-5.08-4.47A8.13,8.13,0,0,1,46,40c0-5.06,3.71-8.28,7.35-8.28A11.5,11.5,0,0,1,60.3,34.23Z" transform="translate(-0.8 -5.76)"/><path class="cls-3" d="M72.59,59.28H67.46V32.16h5.13V59.28Z" transform="translate(-0.8 -5.76)"/><path class="cls-3" d="M100.34,50c-1.23,6.87-6,9.79-10.41,9.79-6.06,0-11-6.28-11-14s4.64-14.07,11-14.07a10,10,0,0,1,8.69,4.63l-3.36,4.44c-1.31-2.53-3-3.48-5-3.48-3.17,0-5.74,3.78-5.74,8.48s2.57,8.35,5.74,8.35a5,5,0,0,0,4.89-5.23H89.94V44.09h10.41V50Z" transform="translate(-0.8 -5.76)"/><path class="cls-3" d="M111.85,59.28h-5.13V32.16h5.13l9,16.83h0.05V32.16H126V59.28h-5.13l-9-16.83h-0.05V59.28Z" transform="translate(-0.8 -5.76)"/><path class="cls-3" d="M146.26,37.59h-7.76V43h7.43V48.4h-7.43v5.46h7.76v5.42H133.37V32.16h12.89v5.42Z" transform="translate(-0.8 -5.76)"/><path class="cls-3" d="M161.37,32.16c4.18,0,7.35,2.73,7.35,8.05,0,4.08-1.86,6.8-4.62,7.85l7.76,11.21h-6.53l-6.88-10.71V59.28h-5.13V32.16h8.06Zm-2.32,12c1.94,0,4.26-.16,4.26-3.55s-2.32-3.55-4.26-3.55h-0.6v7.1h0.6Z" transform="translate(-0.8 -5.76)"/><path class="cls-3" d="M192.27,34.23l-2.08,4.93a8.41,8.41,0,0,0-4.56-1.87c-1.75,0-2.68,1-2.68,2.43s2.13,2.6,4.7,3.91,5.27,3.85,5.27,7.4c0,6.47-4.1,8.74-8.49,8.74A12.09,12.09,0,0,1,176,56.19L178.53,51s3,3.06,5.52,3.06c1.12,0,3.25-.13,3.25-2.66,0-2-2.4-2.86-5.08-4.47a8.13,8.13,0,0,1-4.29-7c0-5.06,3.71-8.28,7.35-8.28A11.5,11.5,0,0,1,192.27,34.23Z" transform="translate(-0.8 -5.76)"/><path class="cls-3" d="M80.33,8.67a4.43,4.43,0,0,1-.15.93Q80,10.22,79.82,11l-0.48,1.75q-0.26.95-.48,1.92t-0.37,1.91a11.4,11.4,0,0,0-.15,1.75,8.35,8.35,0,0,0,.08,1.23,4.06,4.06,0,0,0,.26,1,1.84,1.84,0,0,0,.45.66,0.91,0.91,0,0,0,.63.24,1.28,1.28,0,0,0,.71-0.22,3,3,0,0,0,.66-0.61,5.92,5.92,0,0,0,.61-0.93q0.29-.54.57-1.16t0.51-1.32q0.24-.69.45-1.39a52.47,52.47,0,0,0,1.33-5.64,4.57,4.57,0,0,1,.25-0.85,1.71,1.71,0,0,1,.35-0.55,1.13,1.13,0,0,1,.48-0.29,2.14,2.14,0,0,1,.63-0.08,2,2,0,0,1,.56.06,0.93,0.93,0,0,1,.35.18,0.61,0.61,0,0,1,.18.27,1.09,1.09,0,0,1,.05.35s0,0.22-.07.54l-0.18,1.22q-0.11.75-.24,1.69t-0.24,1.94q-0.11,1-.18,2t-0.07,1.79q0,0.83.06,1.51a5.93,5.93,0,0,0,.2,1.14,1.86,1.86,0,0,0,.36.72,0.71,0.71,0,0,0,.55.25,1.44,1.44,0,0,0,1-.46,4.67,4.67,0,0,0,.85-1.24,11.28,11.28,0,0,0,.69-1.79q0.31-1,.54-2.13t0.41-2.24q0.17-1.13.29-2.14t0.18-1.81q0.07-.8.09-1.26a2,2,0,0,1,.17-0.76,1.12,1.12,0,0,1,.84-0.65,3,3,0,0,1,.56-0.05,1.52,1.52,0,0,1,.41.05,0.76,0.76,0,0,1,.32.18,0.8,0.8,0,0,1,.2.33,1.68,1.68,0,0,1,.07.53,18.35,18.35,0,0,1-.11,1.94q-0.11,1-.28,2.09t-0.36,2q-0.19,1-.36,1.79l-0.28,1.34a4.77,4.77,0,0,0-.11.7,1.72,1.72,0,0,0,.1.62,1.21,1.21,0,0,0,.26.42,1,1,0,0,0,.39.24,1.56,1.56,0,0,0,.49.07,1.26,1.26,0,0,0,.53-0.12,2.11,2.11,0,0,0,.52-0.35,2.8,2.8,0,0,0,.46-0.53,3.3,3.3,0,0,0,.35-0.69l0.15,1.92a6.22,6.22,0,0,1-1.36,1.24,2.44,2.44,0,0,1-1.31.45,1.56,1.56,0,0,1-.55-0.1,1.26,1.26,0,0,1-.46-0.3A1.62,1.62,0,0,1,92,20.88a2.94,2.94,0,0,1-.19-0.77,11.42,11.42,0,0,1-1,1.55,7,7,0,0,1-1.09,1.18,4.66,4.66,0,0,1-1.2.75,3.31,3.31,0,0,1-1.3.26,2.26,2.26,0,0,1-1.44-.46,3.36,3.36,0,0,1-1-1.26,7.06,7.06,0,0,1-.54-1.87A14.72,14.72,0,0,1,84.21,18a7.33,7.33,0,0,1,0-.83q0-.39.07-0.69A20.76,20.76,0,0,1,83.52,20a8.11,8.11,0,0,1-1.14,2.28,3.79,3.79,0,0,1-1.5,1.23,4.63,4.63,0,0,1-1.87.37,1.84,1.84,0,0,1-1.12-.4,3.39,3.39,0,0,1-.94-1.2,7.91,7.91,0,0,1-.65-2,14.13,14.13,0,0,1-.25-2.8,19.58,19.58,0,0,1,.11-2q0.11-1,.31-2.07T77,11.31q0.29-1,.67-2a4,4,0,0,1,.45-0.84A1.7,1.7,0,0,1,78.53,8,1.14,1.14,0,0,1,79,7.87l0.48,0a2.09,2.09,0,0,1,.36,0,0.59,0.59,0,0,1,.27.12,0.54,0.54,0,0,1,.17.25A1.35,1.35,0,0,1,80.33,8.67Z" transform="translate(-0.8 -5.76)"/><path class="cls-3" d="M98.16,23a3.23,3.23,0,0,1-1.47-.31,3,3,0,0,1-1-.85A3.66,3.66,0,0,1,95,20.57a5.09,5.09,0,0,1-.21-1.47,6.78,6.78,0,0,1,.4-2.23,6,6,0,0,1,.5-1.06,4.18,4.18,0,0,1,.71-0.89,3.26,3.26,0,0,1,.91-0.61,2.69,2.69,0,0,1,1.12-.23,2.52,2.52,0,0,1,.93.17,2.26,2.26,0,0,1,.74.47,2.14,2.14,0,0,1,.49.73,2.47,2.47,0,0,1,.18,1,2.66,2.66,0,0,1-.27,1.15,4.15,4.15,0,0,1-.75,1.08,5.33,5.33,0,0,1-1.14.91,6,6,0,0,1-1.44.62,3,3,0,0,0,.26.42,1.21,1.21,0,0,0,.26.26A0.86,0.86,0,0,0,98,21a1.31,1.31,0,0,0,.32,0,3.2,3.2,0,0,0,1.13-.22,7.23,7.23,0,0,0,1.15-.56,9.8,9.8,0,0,0,1.06-.73,9.41,9.41,0,0,0,.85-0.75L103.63,20A11.9,11.9,0,0,1,102,21.48q-0.38.28-.82,0.55a7.4,7.4,0,0,1-.93.48,6.26,6.26,0,0,1-1,.33A4.49,4.49,0,0,1,98.16,23ZM97,18.61a1.7,1.7,0,0,0,.7-0.17,3.12,3.12,0,0,0,.7-0.44,3,3,0,0,0,.55-0.58,1.06,1.06,0,0,0,.22-0.61A1.42,1.42,0,0,0,99,16.12a0.43,0.43,0,0,0-.36-0.27A1.35,1.35,0,0,0,98,16a1.43,1.43,0,0,0-.45.38,2,2,0,0,0-.29.54,3.76,3.76,0,0,0-.17.61,4.86,4.86,0,0,0-.08.59Q97,18.4,97,18.61Z" transform="translate(-0.8 -5.76)"/><path class="cls-3" d="M102.44,11.07c0-.11,0-0.25,0-0.43s0-.37,0-0.58,0-.44,0-0.68l0.05-.7q0.06-.81.14-1.73a0.93,0.93,0,0,1,.13-0.5,1.27,1.27,0,0,1,.35-0.37,1.68,1.68,0,0,1,.48-0.24,1.79,1.79,0,0,1,.54-0.08,1.51,1.51,0,0,1,.43.06A1.14,1.14,0,0,1,105,6a0.83,0.83,0,0,1,.25.31,1,1,0,0,1,.09.45,1.51,1.51,0,0,1,0,.23,2.22,2.22,0,0,1-.05.25l-0.27,1q-0.15.53-.3,1.06l-0.3,1c-0.1.32-.19,0.59-0.26,0.81a1.37,1.37,0,0,1-.43.66,0.91,0.91,0,0,1-.57.22,0.66,0.66,0,0,1-.5-0.23A1,1,0,0,1,102.44,11.07Z" transform="translate(-0.8 -5.76)"/><path class="cls-3" d="M107.86,21q0-.41,0-1c0-.36.07-0.74,0.12-1.14s0.11-.81.18-1.23,0.14-.81.22-1.19,0.15-.72.23-1a6.87,6.87,0,0,1,.23-0.78,1.92,1.92,0,0,1,.14-0.32,0.64,0.64,0,0,1,.17-0.19,0.53,0.53,0,0,1,.23-0.09l0.34,0a2.14,2.14,0,0,1,.36,0,0.28,0.28,0,0,1,.19.11,0.53,0.53,0,0,1,.08.25c0,0.11,0,.26,0,0.45v0.83q0,0.49,0,1h0.1l0.4-.83a5.5,5.5,0,0,1,.52-0.86,3.13,3.13,0,0,1,.67-0.67,1.43,1.43,0,0,1,.86-0.27,0.93,0.93,0,0,1,.33.06,0.85,0.85,0,0,1,.28.17,0.82,0.82,0,0,1,.19.27,0.89,0.89,0,0,1,.07.37,3,3,0,0,1,0,.44q0,0.28-.1.59c0,0.21-.07.41-0.1,0.6a3.25,3.25,0,0,0,0,.49,2.08,2.08,0,0,0,.06.56,1,1,0,0,0,.17.36,0.58,0.58,0,0,0,.23.19,0.68,0.68,0,0,0,.27.06,2.07,2.07,0,0,0,.83-0.19,5.3,5.3,0,0,0,.78-0.42,7.41,7.41,0,0,0,.82-0.61l-0.13,2.17-0.53.35a6.46,6.46,0,0,1-.63.37,4.6,4.6,0,0,1-.69.29,2.38,2.38,0,0,1-.74.12,1.86,1.86,0,0,1-1.08-.28,2,2,0,0,1-.65-0.74,3.86,3.86,0,0,1-.36-1q-0.12-.57-0.19-1.15h-0.14L110,21.71a6.37,6.37,0,0,1-.24.6,2.05,2.05,0,0,1-.23.38,0.68,0.68,0,0,1-.25.21A0.71,0.71,0,0,1,109,23a1,1,0,0,1-.59-0.16,1,1,0,0,1-.34-0.44,2.14,2.14,0,0,1-.16-0.62A6.12,6.12,0,0,1,107.86,21Z" transform="translate(-0.8 -5.76)"/><path class="cls-3" d="M118.56,23a3.23,3.23,0,0,1-1.47-.31,3,3,0,0,1-1-.85,3.67,3.67,0,0,1-.63-1.23,5.09,5.09,0,0,1-.21-1.47,6.75,6.75,0,0,1,.4-2.23,6,6,0,0,1,.5-1.06,4.21,4.21,0,0,1,.71-0.89,3.26,3.26,0,0,1,.91-0.61,2.68,2.68,0,0,1,1.12-.23,2.52,2.52,0,0,1,.93.17,2.26,2.26,0,0,1,.74.47,2.14,2.14,0,0,1,.49.73,2.47,2.47,0,0,1,.18,1,2.66,2.66,0,0,1-.27,1.15,4.15,4.15,0,0,1-.75,1.08,5.33,5.33,0,0,1-1.14.91,6,6,0,0,1-1.44.62,3,3,0,0,0,.26.42,1.22,1.22,0,0,0,.26.26,0.86,0.86,0,0,0,.28.13,1.3,1.3,0,0,0,.32,0,3.2,3.2,0,0,0,1.13-.22,7.23,7.23,0,0,0,1.15-.56,9.8,9.8,0,0,0,1.06-.73,9.41,9.41,0,0,0,.85-0.75L124,20a11.9,11.9,0,0,1-1.67,1.49q-0.38.28-.82,0.55a7.4,7.4,0,0,1-.93.48,6.26,6.26,0,0,1-1,.33A4.49,4.49,0,0,1,118.56,23Zm-1.19-4.36a1.7,1.7,0,0,0,.7-0.17,3.11,3.11,0,0,0,.7-0.44,3,3,0,0,0,.55-0.58,1.06,1.06,0,0,0,.22-0.61,1.42,1.42,0,0,0-.15-0.69,0.43,0.43,0,0,0-.36-0.27,1.34,1.34,0,0,0-.65.15,1.44,1.44,0,0,0-.46.38,2,2,0,0,0-.29.54,3.81,3.81,0,0,0-.17.61,4.86,4.86,0,0,0-.08.59C117.38,18.31,117.38,18.47,117.38,18.61Z" transform="translate(-0.8 -5.76)"/><circle class="cls-4" cx="97.67" cy="98.56" r="19.05"/><path class="cls-3" d="M67.64,104.25s-4,.62-10,1c-1.5.1-3.11,0.17-4.83,0.23s-3.52.1-5.39,0.1-3.8-.07-5.76-0.15l-5.95-.19c-8-.22-15.95-0.39-21.93-0.62l-10-.36a0.14,0.14,0,0,1,0-.28l10-.36c6-.23,14-0.4,21.93-0.62l5.95-.19c2-.08,3.89-0.13,5.76-0.15s3.68,0,5.39.1,3.33,0.14,4.83.23c6,0.35,10,1,10,1A0.14,0.14,0,0,1,67.64,104.25Z" transform="translate(-0.8 -5.76)"/><path class="cls-3" d="M47.45,106h0c-1.68,0-3.52-.06-5.78-0.15l-5.95-.19-6.9-.18c-5.55-.14-10.79-0.28-15-0.44l-10-.36a0.6,0.6,0,0,1,0-1.2l10-.36c4.24-.16,9.48-0.29,15-0.44l6.9-.18,5.95-.19c2.25-.09,4.09-0.14,5.77-0.15,2.19,0,3.9,0,5.41.1,1.68,0.06,3.31.14,4.84,0.23,5.93,0.35,10,1,10,1a0.6,0.6,0,0,1,0,1.19s-4.08.63-10,1c-1.52.1-3.15,0.18-4.84,0.23C51.35,106,49.64,106,47.45,106Zm-34.52-1.91,0.89,0c4.24,0.16,9.48.29,15,.44l6.9,0.18,6,0.19c2.25,0.09,4.08.13,5.75,0.15,2.17,0,3.87,0,5.37-.1,1.68-.06,3.3-0.13,4.82-0.23,3.14-.18,5.74-0.45,7.49-0.65-1.75-.21-4.35-0.47-7.49-0.65-1.52-.1-3.14-0.17-4.82-0.23-1.5-.07-3.21-0.1-5.37-0.1-1.67,0-3.5.06-5.74,0.15l-6,.19-6.91.18c-5.54.14-10.78,0.28-15,.44Z" transform="translate(-0.8 -5.76)"/><path class="cls-3" d="M67.64,93.14s-3.33.41-8.32,0.65c-1.25.06-2.6,0.12-4,.16s-2.94,0-4.5.07c-3.12,0-6.45-.16-9.77-0.22-6.66-.15-13.31-0.26-18.3-0.42l-8.32-.23a0.09,0.09,0,0,1,0-.19l8.32-.23c5-.16,11.65-0.27,18.3-0.42,3.33-.07,6.65-0.2,9.77-0.22,1.56,0,3.07,0,4.5.07s2.78,0.09,4,.16c5,0.24,8.32.65,8.32,0.65A0.09,0.09,0,0,1,67.64,93.14Z" transform="translate(-0.8 -5.76)"/><path class="cls-3" d="M50.79,94.47h0c-1.91,0-3.89-.07-5.9-0.13L41,94.25l-5.73-.12c-4.64-.09-9-0.18-12.58-0.3l-8.32-.23a0.56,0.56,0,0,1,0-1.11l8.32-.23c3.55-.11,7.93-0.2,12.58-0.3L41,91.84l3.88-.1c2-.06,4-0.11,5.9-0.13l1.65,0c1,0,1.94,0,2.87.05,1.43,0,2.78.09,4,.16,5.59,0.27,7.61.49,8.34,0.72V92.49a0.66,0.66,0,0,1,.37.21,0.56,0.56,0,0,1-.37.9V93.53c-0.73.23-2.75,0.45-8.35,0.72-1.25.06-2.61,0.12-4,.16-0.92,0-1.88,0-2.86.05l-1.64,0h0ZM27.88,93L35.3,93.2,41,93.32l3.88,0.1c2,0.06,4,.11,5.88.13l1.64,0c1,0,1.92,0,2.84-.05,1.43,0,2.78-.09,4-0.16,1.69-.08,3.2-0.18,4.44-0.28-1.24-.1-2.74-0.2-4.44-0.28-1.25-.06-2.59-0.12-4-0.15-0.92,0-1.87,0-2.84-.05l-1.65,0c-1.89,0-3.87.07-5.87,0.13l-3.88.1-5.73.12Z" transform="translate(-0.8 -5.76)"/><path class="cls-3" d="M67.64,114.75S65,115.16,61,115.4c-2,.13-4.34.22-6.84,0.22s-5.17-.16-7.84-0.22c-5.34-.15-10.67-0.26-14.68-0.42l-6.67-.23a0.09,0.09,0,0,1-.09-0.1,0.09,0.09,0,0,1,.09-0.09l6.67-.23c4-.16,9.34-0.27,14.68-0.42,2.67-.07,5.34-0.2,7.84-0.22s4.84,0.1,6.84.22c4,0.24,6.67.65,6.67,0.65a0.09,0.09,0,0,1,.08.11A0.1,0.1,0,0,1,67.64,114.75Z" transform="translate(-0.8 -5.76)"/><path class="cls-3" d="M54.13,116.09h0c-1.53,0-3.12-.07-4.73-0.13l-3.12-.1-4.59-.12c-3.72-.09-7.24-0.18-10.09-0.3l-6.67-.23a0.66,0.66,0,0,1-.39-0.18,0.66,0.66,0,0,1-.15-0.4,0.56,0.56,0,0,1,.54-0.54l6.67-.23c2.85-.11,6.36-0.2,10.09-0.3l4.59-.12,3.12-.1c1.61-.06,3.2-0.11,4.73-0.13,2.22,0,4.54.08,6.87,0.23,4.38,0.26,6.06.49,6.71,0.71v-0.06a0.56,0.56,0,0,1,0,1.1v-0.06c-0.64.22-2.32,0.45-6.71,0.71C58.66,116,56.35,116.08,54.13,116.09Zm-18.37-1.43,5.95,0.16,4.59,0.12,3.12,0.1c1.6,0.06,3.18.11,4.7,0.13,2.2,0,4.49-.08,6.81-0.22,1.35-.08,2.56-0.18,3.56-0.28-1-.1-2.2-0.2-3.56-0.28-2.32-.15-4.61-0.22-6.81-0.22-1.51,0-3.09.07-4.7,0.13l-3.13.1-4.59.12Z" transform="translate(-0.8 -5.76)"/><path class="cls-3" d="M130.38,104s4-.63,10-1c1.5-.1,3.11-0.17,4.83-0.23s3.52-.1,5.39-0.1,3.8,0.07,5.76.15l5.95,0.19c8,0.22,15.95.39,21.93,0.62l10,0.36a0.14,0.14,0,0,1,0,.28l-10,.36c-6,.23-14,0.4-21.93.62l-5.95.19c-2,.08-3.89.13-5.76,0.15s-3.68,0-5.39-.1-3.33-.14-4.83-0.23c-6-.35-10-1-10-1A0.14,0.14,0,0,1,130.38,104Z" transform="translate(-0.8 -5.76)"/><path class="cls-3" d="M150.56,106c-2.18,0-3.9,0-5.41-.1-1.68-.06-3.31-0.14-4.84-0.23-5.93-.35-10-1-10-1a0.6,0.6,0,0,1,0-1.19s4.08-.63,10-1c1.52-.1,3.15-0.18,4.84-0.23,1.5-.07,3.22-0.1,5.4-0.1,1.69,0,3.52.06,5.78,0.15l5.95,0.19,6.9,0.18c5.55,0.14,10.78.28,15,.44l10,0.36a0.6,0.6,0,0,1,0,1.2l-10,.36c-4.24.16-9.48,0.29-15,.44l-6.9.18-5.95.19c-2.25.09-4.09,0.14-5.77,0.15h0Zm-17.68-1.91c1.75,0.21,4.35.47,7.49,0.65,1.52,0.1,3.14.17,4.82,0.23,1.5,0.07,3.2.1,5.37,0.1,1.67,0,3.5-.06,5.74-0.15l6-.19,6.91-.18c5.54-.14,10.78-0.28,15-0.44l0.89,0-0.89,0c-4.24-.16-9.47-0.29-15-0.44l-6.91-.18-6-.19c-2.25-.09-4.08-0.13-5.75-0.15-2.16,0-3.87,0-5.36.1-1.68.06-3.3,0.13-4.82,0.23C137.24,103.65,134.64,103.91,132.89,104.11Z" transform="translate(-0.8 -5.76)"/><path class="cls-3" d="M130.38,93s3.33-.41,8.32-0.65c1.25-.06,2.6-0.12,4-0.16s2.94,0,4.5-.07c3.12,0,6.45.16,9.77,0.22,6.66,0.15,13.31.26,18.3,0.42L183.62,93a0.09,0.09,0,0,1,0,.19l-8.32.23c-5,.16-11.65.27-18.3,0.42-3.33.07-6.65,0.2-9.77,0.22-1.56,0-3.07,0-4.5-.07s-2.78-.09-4-0.16c-5-.24-8.32-0.65-8.32-0.65A0.09,0.09,0,0,1,130.38,93Z" transform="translate(-0.8 -5.76)"/><path class="cls-3" d="M147.23,94.47h0l-1.64,0c-1,0-1.94,0-2.87-.05-1.43,0-2.78-.09-4-0.16-5.59-.27-7.61-0.49-8.34-0.72V93.6a0.56,0.56,0,0,1-.49-0.62,0.56,0.56,0,0,1,.48-0.48v0.07c0.73-.23,2.75-0.45,8.35-0.72,1.25-.06,2.6-0.12,4-0.16,0.92,0,1.88,0,2.86-.05l1.64,0c1.92,0,3.9.07,5.91,0.13l3.88,0.1L162.74,92c4.64,0.09,9,.18,12.58.3l8.32,0.23a0.56,0.56,0,0,1,0,1.11l-8.32.23c-3.55.11-7.93,0.2-12.58,0.3l-5.73.12-3.88.1c-2,.06-4,0.11-5.9.13h0ZM134.29,93c1.24,0.1,2.74.2,4.44,0.28,1.25,0.06,2.59.12,4,.15,0.92,0,1.87,0,2.84.05l1.64,0c1.9,0,3.87-.07,5.88-0.13l3.88-.1,5.73-.12,7.41-.16-7.41-.16L157,92.77l-3.88-.1c-2-.06-4-0.11-5.88-0.13l-1.64,0c-1,0-1.92,0-2.84.05-1.43,0-2.78.09-4,.16C137,92.84,135.53,92.95,134.29,93Z" transform="translate(-0.8 -5.76)"/><path class="cls-3" d="M130.38,114.56s2.67-.41,6.67-0.65c2-.13,4.34-0.22,6.84-0.22s5.17,0.16,7.84.22c5.34,0.15,10.67.26,14.68,0.42l6.67,0.23a0.09,0.09,0,0,1,0,.19l-6.67.23c-4,.16-9.34.27-14.68,0.42-2.67.07-5.34,0.2-7.84,0.22s-4.84-.1-6.84-0.22c-4-.24-6.67-0.65-6.67-0.65a0.1,0.1,0,0,1-.08-0.11A0.1,0.1,0,0,1,130.38,114.56Z" transform="translate(-0.8 -5.76)"/><path class="cls-3" d="M143.89,116.09c-2.22,0-4.53-.08-6.87-0.23-4.38-.26-6.06-0.49-6.71-0.71v0.06a0.56,0.56,0,0,1,0-1.1v0.06c0.64-.22,2.32-0.45,6.71-0.71,2.34-.15,4.65-0.22,6.86-0.23,1.53,0,3.12.07,4.73,0.13l3.12,0.1,4.59,0.12c3.72,0.09,7.24.18,10.09,0.3l6.67,0.23a0.66,0.66,0,0,1,.39.18,0.66,0.66,0,0,1,.15.4,0.56,0.56,0,0,1-.54.54l-6.67.23c-2.85.11-6.36,0.2-10.09,0.3l-4.59.12-3.12.1c-1.61.06-3.2,0.11-4.73,0.13h0Zm-10.37-1.43c1,0.1,2.2.2,3.56,0.28,2.32,0.15,4.61.22,6.81,0.22,1.52,0,3.1-.07,4.7-0.13l3.13-.1,4.59-.12,5.95-.16-5.95-.16-4.59-.12-3.12-.1c-1.61-.06-3.19-0.11-4.71-0.13-2.2,0-4.49.08-6.81,0.22C135.73,114.46,134.52,114.56,133.53,114.66Z" transform="translate(-0.8 -5.76)"/></svg>