<svg id="Logo_5" data-name="Logo 5" xmlns="http://www.w3.org/2000/svg" viewBox="0 0 142.08 128.52"><defs><style>.cls-1,.cls-2,.cls-4{fill:#353531;}.cls-1,.cls-4{stroke:#353531;}.cls-1{stroke-miterlimit:10;stroke-width:0.81px;fill-rule:evenodd;}.cls-3{fill:#f4f2ec;}.cls-4{stroke-linecap:round;stroke-linejoin:round;stroke-width:0.55px;}</style></defs><title>logo-5</title><g id="Banner"><path class="cls-1" d="M48.12,60.24a356.16,356.16,0,0,1,99.68,0L144,75.6a328.83,328.83,0,0,0-92,0Z" transform="translate(-26.46 -1.06)"/><path class="cls-1" d="M161.66,84.43a312.83,312.83,0,0,0-37.52-5.38q10.46-1.32,21.31-1.94L148.32,66q9.46,1.4,18.8,3.32-4.91,3-9.56,6.2Q159.76,80,161.66,84.43Z" transform="translate(-26.46 -1.06)"/><path class="cls-1" d="M38.38,75.56q-4.66-3.17-9.58-6.2Q38.16,67.43,47.65,66L50.52,77.1Q61.4,77.71,71.89,79a312.67,312.67,0,0,0-37.62,5.39Q36.17,80,38.38,75.56Z" transform="translate(-26.46 -1.06)"/></g><path class="cls-2" d="M35.14,57.56q-4.56-17.9-8.68-35.92H30.2c1.66,7.32,2.49,10.88,4.14,17.79,1.14,4.74,2.12,8.9,2.82,12.91l0.08,0c0.76-4.26,1.88-8.88,3.09-13.55,1.83-7.07,2.75-10.5,4.59-17.18h3.7Q43.5,39,38.94,56.66C37.42,57,36.66,57.19,35.14,57.56Z" transform="translate(-26.46 -1.06)"/><path class="cls-2" d="M55,21.58q-0.07,16-.14,31.94l-3.46.6q0.07-16.26.14-32.53H55Z" transform="translate(-26.46 -1.06)"/><path class="cls-2" d="M60.9,52.58q0.07-15.51.14-31h3.78c3.41,6.17,5.12,9.13,8.54,14.95a86.43,86.43,0,0,1,4.79,9.27l0.08,0c-0.31-3.87-.37-7.42-0.36-12,0-4.88,0-7.33,0-12.21h3.26q0,14.48-.08,29l-3.52.25c-3.4-5.66-5.1-8.52-8.48-14.42a84.28,84.28,0,0,1-5-9.91l-0.12,0c0.18,3.86.25,7.52,0.22,12.6L64.17,52.14Z" transform="translate(-26.46 -1.06)"/><path class="cls-2" d="M92.31,24.67l-8.16,0V21.55H104v3.13h-8.2c0,10.13,0,15.2,0,25.33l-3.52,0C92.29,39.89,92.3,34.82,92.31,24.67Z" transform="translate(-26.46 -1.06)"/><path class="cls-2" d="M108.38,41.2c-1.11,3.57-1.67,5.36-2.78,8.92-1.44,0-2.16-.06-3.6-0.09q4.6-14.22,9.09-28.48h4.18Q120,36.44,124.53,51.4c-1.48-.16-2.23-0.23-3.71-0.36-1.16-3.81-1.74-5.7-2.91-9.44C114.1,41.39,112.19,41.31,108.38,41.2Zm8.81-2.58c-1.06-3.41-1.59-5.1-2.66-8.46-0.6-1.91-1-3.63-1.41-5.3H113c-0.39,1.71-.83,3.46-1.34,5.21-1,3.32-1.57,5-2.61,8.26C112.33,38.41,113.95,38.47,117.19,38.61Z" transform="translate(-26.46 -1.06)"/><path class="cls-2" d="M148.29,53.51a20.24,20.24,0,0,1-8.22.32A15.93,15.93,0,0,1,130,48.33a18.18,18.18,0,0,1-3.79-11.58c0-8.93,5.47-15.51,14.46-15.51a13.77,13.77,0,0,1,6.69,1.53l-0.82,3.48a11.71,11.71,0,0,0-5.93-1.54c-6.53-.12-10.77,4.44-10.73,12.08s4.16,12.72,10.41,13.66a9.14,9.14,0,0,0,4.61-.14l0-9.77c-2.18-.23-3.27-0.35-5.45-0.55V36.69c3.53,0.28,5.3.43,8.83,0.77Z" transform="translate(-26.46 -1.06)"/><path class="cls-2" d="M167.35,41.76c-4.15-.61-6.23-0.89-10.38-1.41l0,12.71c4.62,1,6.93,1.49,11.54,2.64v4.14c-6-1.67-9-2.42-15-3.74q-0.05-17.25-.11-34.49l14.48,0v4.12c-4.4-.14-6.61-0.21-11-0.33l0,11.14c4.16,0.42,6.24.64,10.39,1.13C167.35,39.33,167.35,40.14,167.35,41.76Z" transform="translate(-26.46 -1.06)"/><path class="cls-2" d="M78,14a3,3,0,0,1-1.54-.37,2.41,2.41,0,0,1-1-1,3.75,3.75,0,0,1-.33-1.6,7.17,7.17,0,0,1,.31-2,10.53,10.53,0,0,1,.43-1.21,12,12,0,0,1,.62-1.24,13.09,13.09,0,0,1,.78-1.21,11.28,11.28,0,0,1,.93-1.12,10.19,10.19,0,0,1,1.06-1,7.37,7.37,0,0,1,1.17-.77,6.4,6.4,0,0,1,1.26-.5,5,5,0,0,1,1.34-.18,3.33,3.33,0,0,1,1.56.33,2.28,2.28,0,0,1,1,.93A3.15,3.15,0,0,1,86,4.44a5.87,5.87,0,0,1-.26,1.82A11.51,11.51,0,0,1,85.07,8a14.55,14.55,0,0,1-1,1.76,14,14,0,0,1-1.25,1.64,10.2,10.2,0,0,1-1.47,1.37,7.18,7.18,0,0,1-1.63.94A4.49,4.49,0,0,1,78,14Zm0.58-1.5a2.59,2.59,0,0,0,1-.19,4.1,4.1,0,0,0,.93-0.52,6.54,6.54,0,0,0,.87-0.78,10.15,10.15,0,0,0,.79-1q0.37-.51.7-1.06T83.45,8q0.27-.54.46-1T84.22,6a4.71,4.71,0,0,0,.19-1.11A2.21,2.21,0,0,0,84.28,4a1.26,1.26,0,0,0-.48-0.61,1.53,1.53,0,0,0-.86-0.22,2.85,2.85,0,0,0-1.17.27,6,6,0,0,0-1.21.74,9.5,9.5,0,0,0-1.16,1.08,12.22,12.22,0,0,0-1,1.29,11.45,11.45,0,0,0-.83,1.38A7.64,7.64,0,0,0,77,9.28a4.59,4.59,0,0,0-.2,1.29,2.46,2.46,0,0,0,.21,1,1.57,1.57,0,0,0,.6.69A1.85,1.85,0,0,0,78.6,12.54Z" transform="translate(-26.46 -1.06)"/><path class="cls-2" d="M85,11.58c0.05-.18.12-0.39,0.21-0.63s0.19-.49.3-0.76,0.23-.54.36-0.81,0.25-.54.38-0.79,0.24-.48.36-0.69,0.22-.38.31-0.52a1.77,1.77,0,0,1,.16-0.21A0.63,0.63,0,0,1,87.21,7,0.49,0.49,0,0,1,87.39,7l0.24,0,0.24,0A0.14,0.14,0,0,1,88,7a0.29,0.29,0,0,1,0,.17q0,0.11-.08.3l-0.16.55c-0.06.21-.12,0.43-0.17,0.64h0.07l0.43-.55a5.29,5.29,0,0,1,.52-0.57,3.19,3.19,0,0,1,.59-0.45A1.26,1.26,0,0,1,89.84,7a0.57,0.57,0,0,1,.22,0,0.41,0.41,0,0,1,.16.11,0.37,0.37,0,0,1,.08.18,0.53,0.53,0,0,1,0,.24,2.35,2.35,0,0,1-.11.29L90,8.22l-0.18.4a2.56,2.56,0,0,0-.12.32,1.37,1.37,0,0,0-.06.37,0.52,0.52,0,0,0,0,.24,0.26,0.26,0,0,0,.12.13,0.4,0.4,0,0,0,.18,0,1.76,1.76,0,0,0,.61-0.12,5.14,5.14,0,0,0,.62-0.28,7.84,7.84,0,0,0,.68-0.41l-0.5,1.44-0.43.23-0.5.24a4.4,4.4,0,0,1-.53.19,1.92,1.92,0,0,1-.53.08,1.07,1.07,0,0,1-.69-0.19,0.91,0.91,0,0,1-.31-0.49,2.1,2.1,0,0,1-.05-0.68q0-.38.09-0.77h-0.1l-2,3.07c-0.1.16-.2,0.29-0.28,0.4a2,2,0,0,1-.23.26,0.68,0.68,0,0,1-.21.14,0.58,0.58,0,0,1-.21,0A0.55,0.55,0,0,1,85,12.75a0.48,0.48,0,0,1-.15-0.29,1.25,1.25,0,0,1,0-.41A4.3,4.3,0,0,1,85,11.58Z" transform="translate(-26.46 -1.06)"/><path class="cls-2" d="M94.05,11.55q-0.28.2-.68,0.43a8.63,8.63,0,0,1-.83.42,7.14,7.14,0,0,1-.87.32,2.78,2.78,0,0,1-.79.13,1.24,1.24,0,0,1-.51-0.09,0.6,0.6,0,0,1-.28-0.25A0.73,0.73,0,0,1,90,12.13a2.1,2.1,0,0,1,.09-0.51,6.5,6.5,0,0,1,.35-0.9q0.24-.51.52-1.06t0.59-1.1l0.55-1a0.81,0.81,0,0,1,.25-0.27,1.6,1.6,0,0,1,.34-0.19A2,2,0,0,1,93.06,7l0.33,0a0.39,0.39,0,0,1,.32.09,0.3,0.3,0,0,1,0,.26,2.29,2.29,0,0,1-.17.39l-0.32.58L92.84,9l-0.41.74q-0.2.37-.36,0.73a4.57,4.57,0,0,0-.24.64,1.28,1.28,0,0,0-.07.44,0.18,0.18,0,0,0,.21.16,1.28,1.28,0,0,0,.54-0.15,6.37,6.37,0,0,0,.65-0.37l0.67-.45,0.58-.4ZM93.12,5.23a1.25,1.25,0,0,1,.15-0.32,1.48,1.48,0,0,1,.3-0.33A1.66,1.66,0,0,1,94,4.31a1.59,1.59,0,0,1,.61-0.11,1.47,1.47,0,0,1,.39,0,0.7,0.7,0,0,1,.29.15,0.48,0.48,0,0,1,.15.27,0.81,0.81,0,0,1,0,.39,1.55,1.55,0,0,1-.18.41,1.43,1.43,0,0,1-.32.35,1.6,1.6,0,0,1-.44.25,1.58,1.58,0,0,1-.57.1,0.85,0.85,0,0,1-.73-0.25A0.76,0.76,0,0,1,93.12,5.23Z" transform="translate(-26.46 -1.06)"/><path class="cls-2" d="M96,12.22a4.76,4.76,0,0,1-.83.48,1.88,1.88,0,0,1-.75.18,1.21,1.21,0,0,1-.54-0.12,1,1,0,0,1-.4-0.34,1.22,1.22,0,0,1-.19-0.55,1.91,1.91,0,0,1,.08-0.73,4.59,4.59,0,0,1,.4-0.95,7.33,7.33,0,0,1,.63-0.95,8.09,8.09,0,0,1,.79-0.88A6.57,6.57,0,0,1,96,7.64,4.79,4.79,0,0,1,97,7.15,2.41,2.41,0,0,1,97.85,7a0.31,0.31,0,0,1,.21.06,0.37,0.37,0,0,1,.1.13l0.06,0.14a0.19,0.19,0,0,0,.09.1l0.14,0h0.43l0.17,0a0.2,0.2,0,0,1,.12.08,0.3,0.3,0,0,1,0,.17,1.12,1.12,0,0,1-.05.3c0,0.11-.08.25-0.15,0.43L98.77,9l-0.3.7-0.32.73c-0.25.57-.52,1.17-0.82,1.81L97.82,12a6.37,6.37,0,0,0,.6-0.41q0.34-.26.78-0.65t1-1l-0.09,1.36a3.9,3.9,0,0,1-.4.39c-0.16.13-.32,0.27-0.5,0.4l-0.55.39-0.55.35q-0.64.39-1.34,0.76-0.31.66-.65,1.28a13,13,0,0,1-.71,1.17,9.63,9.63,0,0,1-.79,1,5.64,5.64,0,0,1-.86.78,3.89,3.89,0,0,1-.94.51,2.92,2.92,0,0,1-1,.18,2.44,2.44,0,0,1-.44,0,0.93,0.93,0,0,1-.4-0.17A0.67,0.67,0,0,1,90.72,18a1.23,1.23,0,0,1,0-.64,2.18,2.18,0,0,1,.32-0.62,6.71,6.71,0,0,1,.6-0.73q0.36-.38.81-0.8t1-.83q0.52-.41,1.06-0.81t1.1-.76Zm-3.75,5.17a1.1,1.1,0,0,0,.53-0.15,2.68,2.68,0,0,0,.54-0.4,5.08,5.08,0,0,0,.51-0.56q0.25-.31.47-0.64T94.66,15c0.12-.21.22-0.4,0.3-0.56a6.49,6.49,0,0,0-.6.38Q94,15,93.73,15.29c-0.21.17-.41,0.35-0.6,0.53s-0.37.35-.52,0.52a4.76,4.76,0,0,0-.38.46,1.28,1.28,0,0,0-.19.36C92,17.31,92,17.39,92.21,17.39ZM95,10.87a2.12,2.12,0,0,0-.06.3,0.78,0.78,0,0,0,0,.26,0.34,0.34,0,0,0,.09.18,0.29,0.29,0,0,0,.21.07,0.75,0.75,0,0,0,.47-0.2A2.91,2.91,0,0,0,96.16,11a4.9,4.9,0,0,0,.38-0.57,4.75,4.75,0,0,0,.25-0.49l0.89-1.81a1.28,1.28,0,0,0-.53.13,2.75,2.75,0,0,0-.55.34,4.72,4.72,0,0,0-.53.49,5.64,5.64,0,0,0-.47.58,5.15,5.15,0,0,0-.38.61A3.2,3.2,0,0,0,95,10.87Z" transform="translate(-26.46 -1.06)"/><path class="cls-2" d="M103.06,11.55c-0.19.14-.41,0.28-0.68,0.43a8.62,8.62,0,0,1-.83.42,7.18,7.18,0,0,1-.87.32,2.78,2.78,0,0,1-.79.13,1.24,1.24,0,0,1-.51-0.09,0.6,0.6,0,0,1-.28-0.25A0.74,0.74,0,0,1,99,12.13a2.1,2.1,0,0,1,.09-0.51,6.45,6.45,0,0,1,.35-0.9q0.24-.51.52-1.06c0.19-.37.39-0.73,0.59-1.1l0.54-1a0.81,0.81,0,0,1,.25-0.27,1.61,1.61,0,0,1,.34-0.19,2,2,0,0,1,.37-0.1l0.33,0a0.39,0.39,0,0,1,.32.09,0.3,0.3,0,0,1,0,.26,2.25,2.25,0,0,1-.17.39l-0.32.58-0.4.69-0.41.74q-0.2.37-.36,0.73a4.51,4.51,0,0,0-.24.64,1.28,1.28,0,0,0-.07.44,0.18,0.18,0,0,0,.21.16,1.27,1.27,0,0,0,.54-0.15,6.37,6.37,0,0,0,.65-0.37l0.67-.45,0.58-.4Zm-0.94-6.32a1.25,1.25,0,0,1,.15-0.32,1.48,1.48,0,0,1,.29-0.33A1.67,1.67,0,0,1,103,4.31a1.59,1.59,0,0,1,.61-0.11,1.47,1.47,0,0,1,.39,0,0.7,0.7,0,0,1,.29.15,0.48,0.48,0,0,1,.15.27,0.81,0.81,0,0,1,0,.39,1.54,1.54,0,0,1-.18.41,1.42,1.42,0,0,1-.32.35,1.59,1.59,0,0,1-1,.34,0.85,0.85,0,0,1-.73-0.25A0.76,0.76,0,0,1,102.13,5.23Z" transform="translate(-26.46 -1.06)"/><path class="cls-2" d="M102.62,11.58q0.12-.41.32-0.94t0.43-1.08q0.23-.55.47-1.06t0.43-.87a1.42,1.42,0,0,1,.4-0.47A0.93,0.93,0,0,1,105.25,7a0.37,0.37,0,0,1,.4.2,0.9,0.9,0,0,1,0,.54c0,0.06,0,.14-0.09.25l-0.14.34-0.17.39-0.16.37-0.13.29-0.07.17H105l0.18-.22L105.45,9l0.34-.41,0.34-.42,0.29-.35,0.19-.23a1.68,1.68,0,0,1,.58-0.45A1.49,1.49,0,0,1,107.8,7a0.41,0.41,0,0,1,.42.26,1.1,1.1,0,0,1,0,.71,2.17,2.17,0,0,1-.09.23l-0.18.38L107.68,9l-0.25.54c-0.08.18-.16,0.37-0.23,0.55s-0.13.35-.17,0.5a1.72,1.72,0,0,0-.08.63,0.23,0.23,0,0,0,.23.25,0.64,0.64,0,0,0,.23-0.06l0.3-.15,0.34-.21,0.35-.24q0.41-.29.87-0.65L109,11.56l-0.37.23-0.62.38a6.55,6.55,0,0,1-.64.34,4.4,4.4,0,0,1-.66.25,2.44,2.44,0,0,1-.67.1,0.47,0.47,0,0,1-.43-0.49,3.38,3.38,0,0,1,.18-1.43q0.11-.37.28-0.8t0.39-.92h-0.1l-2.53,3.2a1.21,1.21,0,0,1-.37.34,0.84,0.84,0,0,1-.38.09,0.55,0.55,0,0,1-.37-0.11,0.48,0.48,0,0,1-.16-0.29,1.25,1.25,0,0,1,0-.41A4.31,4.31,0,0,1,102.62,11.58Z" transform="translate(-26.46 -1.06)"/><path class="cls-2" d="M114.82,11.36c-0.13.13-.3,0.29-0.51,0.46a7.28,7.28,0,0,1-.68.5,4.91,4.91,0,0,1-.75.41,1.84,1.84,0,0,1-.72.17,0.7,0.7,0,0,1-.6-0.26,1.52,1.52,0,0,1-.25-0.76,4.87,4.87,0,0,1-1,.67,4.15,4.15,0,0,1-.6.24,2,2,0,0,1-.58.09,1.2,1.2,0,0,1-.54-0.12,1,1,0,0,1-.4-0.34,1.22,1.22,0,0,1-.19-0.55,1.91,1.91,0,0,1,.08-0.73,4.61,4.61,0,0,1,.4-0.95,7.33,7.33,0,0,1,.63-0.95,8.14,8.14,0,0,1,.79-0.88,6.54,6.54,0,0,1,.89-0.72,4.79,4.79,0,0,1,.92-0.49A2.41,2.41,0,0,1,112.57,7a0.31,0.31,0,0,1,.21.06,0.37,0.37,0,0,1,.1.13l0.06,0.14a0.19,0.19,0,0,0,.09.1l0.14,0h0.43l0.17,0a0.2,0.2,0,0,1,.12.08,0.3,0.3,0,0,1,0,.17,1.12,1.12,0,0,1-.05.3,4.82,4.82,0,0,1-.25.65l-0.35.74-0.35.76a5.23,5.23,0,0,0-.27.72,1.58,1.58,0,0,0-.08.45,0.15,0.15,0,0,0,.18.16,0.77,0.77,0,0,0,.29-0.06,2.34,2.34,0,0,0,.33-0.17l0.36-.24,0.35-.27c0.26-.22.54-0.47,0.82-0.75Zm-5.12-.49a2.05,2.05,0,0,0-.06.3,0.76,0.76,0,0,0,0,.26,0.34,0.34,0,0,0,.09.18,0.29,0.29,0,0,0,.21.07,0.75,0.75,0,0,0,.47-0.2,2.93,2.93,0,0,0,.46-0.47,5,5,0,0,0,.38-0.57,4.83,4.83,0,0,0,.25-0.49l0.89-1.81a1.28,1.28,0,0,0-.53.13,2.76,2.76,0,0,0-.55.34,4.72,4.72,0,0,0-.53.49,5.57,5.57,0,0,0-.47.58,5.1,5.1,0,0,0-.38.61A3.24,3.24,0,0,0,109.71,10.87Z" transform="translate(-26.46 -1.06)"/><path class="cls-2" d="M115,12.86a0.62,0.62,0,0,1-.53-0.29,1.83,1.83,0,0,1-.27-0.78,4.7,4.7,0,0,1,0-1.14,7.88,7.88,0,0,1,.27-1.36,11.34,11.34,0,0,1,.42-1.19q0.26-.64.61-1.32t0.76-1.37q0.41-.69.86-1.32t0.92-1.18a9.74,9.74,0,0,1,.93-1,4.71,4.71,0,0,1,.9-0.64,1.79,1.79,0,0,1,.83-0.23,0.6,0.6,0,0,1,.4.12,0.56,0.56,0,0,1,.18.32,1.34,1.34,0,0,1,0,.45,3.41,3.41,0,0,1-.11.51,6.66,6.66,0,0,1-.47,1.18,12.59,12.59,0,0,1-.7,1.2q-0.4.61-.87,1.21t-1,1.21l-1,1.18q-0.49.58-.93,1.13l-0.11.16-0.12.21-0.13.24-0.12.25,0,0.09a1.52,1.52,0,0,0,0,.58,0.62,0.62,0,0,0,0,.19,0.1,0.1,0,0,0,.08.07,1,1,0,0,0,.28,0l0.36-.13,0.4-.19,0.41-.22q0.46-.26,1-0.6l0.13,1.29q-0.66.39-1.28,0.7l-0.56.25-0.57.22a5,5,0,0,1-.54.16A2.13,2.13,0,0,1,115,12.86Zm1.42-4.92q0.42-.49.9-1.11t1-1.27q0.46-.65.85-1.3a7.89,7.89,0,0,0,.61-1.21c0-.12.06-0.22,0.08-0.3s0-.13,0-0.13a0.78,0.78,0,0,0-.45.23,4.62,4.62,0,0,0-.59.62,10.5,10.5,0,0,0-.66.92q-0.34.52-.65,1.11t-0.58,1.21A10.57,10.57,0,0,0,116.45,7.94Z" transform="translate(-26.46 -1.06)"/><path class="cls-3" d="M79,68.19L79.36,68l0.53-.3,0.67-.38,0.71-.41,0.17-.42a18.55,18.55,0,0,1,1.12-2.37,17.47,17.47,0,0,1,1.27-1.95,13.4,13.4,0,0,1,1.33-1.52,10.51,10.51,0,0,1,1.3-1.09,5.81,5.81,0,0,1,1.18-.66,2.7,2.7,0,0,1,1-.22,1.14,1.14,0,0,1,.53.12,0.78,0.78,0,0,1,.34.35,1.33,1.33,0,0,1,.12.58,2.91,2.91,0,0,1-.13.82,5.64,5.64,0,0,1-.52,1.2A10.06,10.06,0,0,1,88.11,63,15.37,15.37,0,0,1,87,64.31q-0.63.64-1.33,1.23t-1.48,1.12a15.82,15.82,0,0,1-1.56.94l-0.19.59-0.11.33,0,0.16,0,0.07a0.23,0.23,0,0,0,0,.1,0.1,0.1,0,0,0,.07.07l0.16,0,0.29,0a3.29,3.29,0,0,0,.78-0.13l2.23-.59,0.1,0H86a0.45,0.45,0,0,1,.25.06,0.35,0.35,0,0,1,.14.16,0.53,0.53,0,0,1,0,.23,1,1,0,0,1,0,.26,1,1,0,0,1-.11.24,1.08,1.08,0,0,1-.17.22,1,1,0,0,1-.23.17,0.84,0.84,0,0,1-.29.1q-0.67.24-1.35,0.43l-0.61.16-0.65.14-0.65.09a5.61,5.61,0,0,1-.62,0,1.31,1.31,0,0,1-.7-0.16,0.8,0.8,0,0,1-.34-0.42,1.47,1.47,0,0,1-.06-0.62,4,4,0,0,1,.15-0.74c-0.43.26-.79,0.46-1.07,0.62a1.88,1.88,0,0,1-.54.23,0.25,0.25,0,0,1-.18-0.07,0.52,0.52,0,0,1-.12-0.19,0.77,0.77,0,0,1-.05-0.26,1,1,0,0,1,0-.29,1.19,1.19,0,0,1,.09-0.23A0.45,0.45,0,0,1,79,68.19ZM83.15,66L84,65.33q0.45-.38.91-0.81t0.89-.86q0.44-.44.81-0.88a10.53,10.53,0,0,0,.66-0.85,4.27,4.27,0,0,0,.44-0.78c0-.08.07-0.16,0.09-0.24l0.07-.21a1,1,0,0,0,.05-0.51A0.21,0.21,0,0,0,87.72,60a1.07,1.07,0,0,0-.52.21,4.83,4.83,0,0,0-.72.59,11.29,11.29,0,0,0-.85.92,14.27,14.27,0,0,0-.89,1.2,16.09,16.09,0,0,0-.85,1.45A14.08,14.08,0,0,0,83.15,66Z" transform="translate(-26.46 -1.06)"/><path class="cls-3" d="M93.18,68.7c-0.13.13-.3,0.29-0.51,0.46a7.13,7.13,0,0,1-.68.5,4.87,4.87,0,0,1-.75.41,1.84,1.84,0,0,1-.72.17,0.7,0.7,0,0,1-.6-0.26,1.53,1.53,0,0,1-.25-0.76,4.62,4.62,0,0,1-.46.35,4.7,4.7,0,0,1-.56.32,4.16,4.16,0,0,1-.6.24,2,2,0,0,1-.58.09,1.2,1.2,0,0,1-.54-0.12,1,1,0,0,1-.4-0.34,1.23,1.23,0,0,1-.19-0.55,1.89,1.89,0,0,1,.08-0.73,4.6,4.6,0,0,1,.4-0.95,7.42,7.42,0,0,1,.63-0.95,8,8,0,0,1,.79-0.88A6.52,6.52,0,0,1,89.12,65,4.78,4.78,0,0,1,90,64.5a2.41,2.41,0,0,1,.89-0.18,0.31,0.31,0,0,1,.21.06,0.38,0.38,0,0,1,.1.13l0.06,0.14a0.19,0.19,0,0,0,.09.1l0.14,0H92l0.17,0a0.2,0.2,0,0,1,.12.08,0.3,0.3,0,0,1,0,.17,1.09,1.09,0,0,1-.05.3A4.72,4.72,0,0,1,92,66l-0.35.74-0.35.76a5.37,5.37,0,0,0-.27.72,1.59,1.59,0,0,0-.08.45,0.15,0.15,0,0,0,.18.16,0.78,0.78,0,0,0,.29-0.06,2.38,2.38,0,0,0,.33-0.17l0.36-.24,0.35-.27c0.27-.22.54-0.47,0.82-0.75Zm-5.11-.49a2.15,2.15,0,0,0-.06.3,0.79,0.79,0,0,0,0,.26,0.35,0.35,0,0,0,.09.18,0.29,0.29,0,0,0,.21.07,0.75,0.75,0,0,0,.47-0.2,2.89,2.89,0,0,0,.46-0.47,5.08,5.08,0,0,0,.63-1.06l0.89-1.81a1.28,1.28,0,0,0-.53.13,2.75,2.75,0,0,0-.55.34,4.68,4.68,0,0,0-.53.49,5.82,5.82,0,0,0-.47.58,5.34,5.34,0,0,0-.37.61A3.2,3.2,0,0,0,88.07,68.21Z" transform="translate(-26.46 -1.06)"/><path class="cls-3" d="M95.44,65.26a9.67,9.67,0,0,1,.83-0.69,1.15,1.15,0,0,1,.64-0.26,1.06,1.06,0,0,1,.6.16,1,1,0,0,1,.36.42,1.51,1.51,0,0,1,.13.61,2.43,2.43,0,0,1-.1.72c-0.06.21-.13,0.41-0.2,0.59a4.55,4.55,0,0,1-.58,1.08,5.38,5.38,0,0,1-.45.55l0.52-.25,0.54-.27,0.56-.33q0.29-.18.6-0.43l0.18,1a8.9,8.9,0,0,1-.83.54,7.42,7.42,0,0,1-1.62.69c-0.28.08-.57,0.16-0.88,0.22a2,2,0,0,1-.35.21L95,70l-0.49.19H94.33a3.37,3.37,0,0,1-1-.14,5.71,5.71,0,0,1-.84-0.32,5.13,5.13,0,0,1-.79-0.47q0.16-.5.4-1.13t0.5-1.28q0.3-.74.7-1.64,0.27-.6.63-1.34t0.78-1.5q0.42-.76.87-1.48a12.12,12.12,0,0,1,.92-1.28,5.43,5.43,0,0,1,.92-0.9,1.49,1.49,0,0,1,.88-0.34,1.27,1.27,0,0,1,.71.16,0.75,0.75,0,0,1,.31.43,1.56,1.56,0,0,1,0,.64,6.23,6.23,0,0,1-.18.79,4.67,4.67,0,0,1-.56,1.21,11.15,11.15,0,0,1-.93,1.24q-0.53.62-1.13,1.21t-1.18,1.11Zm0.42,0.45a1.33,1.33,0,0,0-.46.09,1.76,1.76,0,0,0-.48.28,2.75,2.75,0,0,0-.46.48,3.47,3.47,0,0,0-.41.7l-0.27.61-0.2.49-0.18.46,0.38,0.11L94.13,69a2.28,2.28,0,0,0,.37,0,0.82,0.82,0,0,0,.42-0.12,1.83,1.83,0,0,0,.4-0.33,3.36,3.36,0,0,0,.37-0.47A5.47,5.47,0,0,0,96,67.55c0.1-.19.18-0.38,0.25-0.57a5.42,5.42,0,0,0,.18-0.51,1.27,1.27,0,0,0,.05-0.29,0.44,0.44,0,0,0-.05-0.24,0.43,0.43,0,0,0-.2-0.17A0.91,0.91,0,0,0,95.86,65.7Zm2.22-5.63a0.93,0.93,0,0,0,0-.1,0.58,0.58,0,0,0,0-.17,0.35,0.35,0,0,0-.05-0.15,0.16,0.16,0,0,0-.15-0.07,0.5,0.5,0,0,0-.31.18,3.55,3.55,0,0,0-.4.47q-0.21.3-.45,0.69l-0.47.82q-0.24.43-.47,0.87l-0.42.84L95,64.17l-0.25.53q0.26-.32.56-0.66L96,63.32l0.63-.76q0.31-.39.59-0.8a9.35,9.35,0,0,0,.51-0.83A6.13,6.13,0,0,0,98.08,60.07Z" transform="translate(-26.46 -1.06)"/><path class="cls-3" d="M99.95,70.2A1.93,1.93,0,0,1,99,70a1.39,1.39,0,0,1-.56-0.56,1.83,1.83,0,0,1-.2-0.82,3.23,3.23,0,0,1,.13-1,5.14,5.14,0,0,1,.28-0.73,5.77,5.77,0,0,1,1-1.46,4.33,4.33,0,0,1,.66-0.59,3.23,3.23,0,0,1,.74-0.41,2.24,2.24,0,0,1,.81-0.15,1.57,1.57,0,0,1,.61.11,1.06,1.06,0,0,1,.42.31,1,1,0,0,1,.2.48,1.49,1.49,0,0,1-.06.63,2.26,2.26,0,0,1-.41.76,4.29,4.29,0,0,1-.73.72,5.49,5.49,0,0,1-1,.6,5.65,5.65,0,0,1-1.11.41,1.35,1.35,0,0,0,.1.28,0.52,0.52,0,0,0,.13.17,0.44,0.44,0,0,0,.17.09l0.21,0a2.66,2.66,0,0,0,.82-0.15,6.64,6.64,0,0,0,.9-0.37A9.5,9.5,0,0,0,103,67.9c0.28-.17.52-0.34,0.73-0.49l0.56,0.82a12.3,12.3,0,0,1-1.43,1l-0.67.36a7.22,7.22,0,0,1-.73.32,5.46,5.46,0,0,1-.76.22A3.53,3.53,0,0,1,99.95,70.2Zm0-2.89a1.44,1.44,0,0,0,.51-0.11,3.22,3.22,0,0,0,1.06-.68,1,1,0,0,0,.27-0.41,0.86,0.86,0,0,0,0-.46,0.2,0.2,0,0,0-.2-0.18,1.14,1.14,0,0,0-.48.1,1.48,1.48,0,0,0-.39.26,1.88,1.88,0,0,0-.31.36,3.26,3.26,0,0,0-.23.4,4,4,0,0,0-.17.39C100,67.12,100,67.22,100,67.31Z" transform="translate(-26.46 -1.06)"/><path class="cls-3" d="M104.08,70.2a0.62,0.62,0,0,1-.54-0.29,1.83,1.83,0,0,1-.27-0.78,4.69,4.69,0,0,1,0-1.14,7.77,7.77,0,0,1,.27-1.36,11.34,11.34,0,0,1,.42-1.19q0.26-.64.61-1.32t0.76-1.37q0.41-.69.86-1.32t0.92-1.18a9.58,9.58,0,0,1,.93-1,4.72,4.72,0,0,1,.9-0.64,1.79,1.79,0,0,1,.83-0.23,0.6,0.6,0,0,1,.4.12,0.57,0.57,0,0,1,.18.32,1.34,1.34,0,0,1,0,.45,3.54,3.54,0,0,1-.11.51A6.73,6.73,0,0,1,109.8,61a12.8,12.8,0,0,1-.7,1.2q-0.4.61-.87,1.21t-1,1.21l-1,1.18q-0.49.58-.93,1.13l-0.11.16-0.12.21-0.13.24-0.12.25,0,0.09a1.52,1.52,0,0,0,0,.58,0.63,0.63,0,0,0,0,.19,0.1,0.1,0,0,0,.08.07,1,1,0,0,0,.28,0l0.36-.13,0.4-.19,0.41-.22q0.46-.26,1-0.6l0.13,1.29q-0.66.39-1.28,0.7l-0.56.25-0.57.22a5,5,0,0,1-.54.16A2.11,2.11,0,0,1,104.08,70.2Zm1.42-4.92c0.28-.33.58-0.7,0.9-1.11s0.64-.83,1-1.27,0.59-.87.85-1.3a7.89,7.89,0,0,0,.61-1.21c0-.12.06-0.22,0.08-0.3s0-.13,0-0.13a0.78,0.78,0,0,0-.45.23,4.62,4.62,0,0,0-.59.62,10.49,10.49,0,0,0-.66.92q-0.34.52-.65,1.11t-0.58,1.21A10.38,10.38,0,0,0,105.5,65.29Z" transform="translate(-26.46 -1.06)"/><path class="cls-3" d="M106.73,67.84l0.7-.49L107.9,67l0.37-.33,0.41-.39,0.58-.56,0.88-.82,0.24-.21a2.13,2.13,0,0,1,.27-0.19,1.7,1.7,0,0,1,.3-0.14,1.08,1.08,0,0,1,.34-0.05,1.14,1.14,0,0,1,.44.06,0.38,0.38,0,0,1,.19.16,0.3,0.3,0,0,1,0,.19,1.55,1.55,0,0,1,0,.17,0.85,0.85,0,0,1-.21.33c-0.11.12-.23,0.23-0.36,0.34l-0.36.31a0.94,0.94,0,0,0-.2.21,2.07,2.07,0,0,0-.07.35,2.53,2.53,0,0,0,0,.31c0,0.1,0,.21,0,0.32s0,0.24,0,.39,0,0.32-.07.51-0.09.42-.17,0.68a5.58,5.58,0,0,1,.55-0.27l0.6-.25,0.65-.29a6.87,6.87,0,0,0,.7-0.38l-0.39,1.38a8.29,8.29,0,0,1-1,.55,11.52,11.52,0,0,1-1.18.46,9.9,9.9,0,0,1-1.2.31,5.87,5.87,0,0,1-1.1.11,2.89,2.89,0,0,1-.66-0.07,1.29,1.29,0,0,1-.49-0.21,0.77,0.77,0,0,1-.28-0.38,1.09,1.09,0,0,1,0-.57l-0.18,0h-0.35a0.24,0.24,0,0,1-.13,0,0.19,0.19,0,0,1-.06-0.13,0.71,0.71,0,0,1,0-.25,0.72,0.72,0,0,1,.15-0.27,1.75,1.75,0,0,1,.24-0.22l0.25-.17Zm0.56,0.79a0.17,0.17,0,0,1,.14.09l0.15,0.2a1.06,1.06,0,0,0,.21.2,0.54,0.54,0,0,0,.32.09,1,1,0,0,0,.73-0.29,1.23,1.23,0,0,0,.22-0.31,2.19,2.19,0,0,0,.14-0.37,2.78,2.78,0,0,0,.08-0.34c0-.12,0-0.22,0-0.33s0-.2,0-0.29,0-.17,0-0.24Z" transform="translate(-26.46 -1.06)"/><circle class="cls-3" cx="35.65" cy="65.71" r="1.31"/><circle class="cls-3" cx="107.26" cy="65.71" r="1.31"/><path class="cls-4" d="M103.64,105.4l1.08,2.43L108,112l-0.29-1.43Zm1.24,2.33-0.48-1.07,3.17,4,0.13,0.63Z" transform="translate(-26.46 -1.06)"/><path class="cls-4" d="M104,105.1l4.1,5.17,1.33,0.61-3.31-4.18Zm4.22,5-3.17-4,0.94,0.71,2.81,3.55Z" transform="translate(-26.46 -1.06)"/><path class="cls-4" d="M98.17,97.85l9.93-12.48a1.49,1.49,0,0,1-.06.51l0.51-.64,0,0.17a8.35,8.35,0,0,1-.34,1.26,10.22,10.22,0,0,0,1.25-3.24,10.38,10.38,0,0,0-2.88,2,8.36,8.36,0,0,1,1.16-.62l0.16-.06-0.51.64a1.48,1.48,0,0,1,.48-0.18L98,97.6,88.1,85.17a1.43,1.43,0,0,1,.47.18l-0.51-.64,0.16,0.06a8.4,8.4,0,0,1,1.16.62,10.36,10.36,0,0,0-2.88-2,10.25,10.25,0,0,0,1.25,3.24,8.83,8.83,0,0,1-.34-1.26l0-.17,0.51,0.64a1.39,1.39,0,0,1-.06-0.51l9.92,12.51L87.67,110.57a0.28,0.28,0,0,0,0,.24,0.27,0.27,0,0,0,.23,0L98,98.15l10,12.61a0.27,0.27,0,0,0,.23,0,0.28,0.28,0,0,0,0-.24Zm9.49-12.75,0.5-.63-0.32.13-0.16.06-0.35.17a17.37,17.37,0,0,1,1.88-1.13,10.4,10.4,0,0,1-.67,2.07c0.06-.24.08-0.38,0.08-0.38l0-.17,0.05-.34-0.5.63c0-.12.05-0.35,0.05-0.35l0.67-1.12L108,85ZM87,84.06l0.67,1.12s0,0.23.05,0.35l-0.5-.63,0.05,0.34,0,0.17s0,0.14.08,0.38a10.31,10.31,0,0,1-.67-2.07,17.09,17.09,0,0,1,1.88,1.13l-0.35-.17-0.16-.06-0.32-.13,0.5,0.63L87.94,85Z" transform="translate(-26.46 -1.06)"/><path class="cls-4" d="M87.89,112l3.32-4.17,1.08-2.43-4.1,5.17Zm0.46-1.35,3.17-4L91,107.73l-2.82,3.55Z" transform="translate(-26.46 -1.06)"/><path class="cls-4" d="M91.94,105.1l-2.13,1.61-3.31,4.18,1.33-.61Zm-4.81,5.29,2.81-3.55,0.94-.71-3.17,4Z" transform="translate(-26.46 -1.06)"/><path class="cls-2" d="M72.84,100.68v-0.37h1.7v-8a1,1,0,0,0-.1-0.53A0.61,0.61,0,0,0,74,91.64H72.75V91.27q1.27,0,1.91,0l1.41-.12v9.2h1.66v0.37H72.84Z" transform="translate(-26.46 -1.06)"/><path class="cls-2" d="M83.64,99.2A5.83,5.83,0,0,1,79.76,101v-0.33a4.53,4.53,0,0,0,3-1.74,5.82,5.82,0,0,0,.81-2.33A2.44,2.44,0,0,1,83,97a2.41,2.41,0,0,1-3-.61,3.28,3.28,0,0,1-.77-2.2A2.91,2.91,0,0,1,80.07,92a3,3,0,0,1,2.17-.92,2.74,2.74,0,0,1,2.15,1.08,4.46,4.46,0,0,1,.94,3A5.38,5.38,0,0,1,83.64,99.2ZM83.4,92.15a1.15,1.15,0,0,0-1.24-.76,1,1,0,0,0-1,.79,8.87,8.87,0,0,0-.24,2.4,4.56,4.56,0,0,0,.26,1.74,1,1,0,0,0,.91.61A1.67,1.67,0,0,0,83,96.64,2.44,2.44,0,0,0,83.61,96q0-.15,0-0.36c0-.14,0-0.31,0-0.5A11.89,11.89,0,0,0,83.4,92.15Z" transform="translate(-26.46 -1.06)"/><path class="cls-2" d="M114,100a3,3,0,0,1-2.17.92,2.76,2.76,0,0,1-2.16-1.1,4.42,4.42,0,0,1-.94-3,5.39,5.39,0,0,1,1.7-4A5.8,5.8,0,0,1,114.35,91v0.33a4.52,4.52,0,0,0-3,1.75,6.09,6.09,0,0,0-.83,2.35,3.12,3.12,0,0,1,.59-0.43,2.4,2.4,0,0,1,1.17-.3,2.32,2.32,0,0,1,1.87.91,3.31,3.31,0,0,1,.77,2.2A2.92,2.92,0,0,1,114,100ZM113,95.71a0.94,0.94,0,0,0-.9-0.61,1.71,1.71,0,0,0-.93.28,2.48,2.48,0,0,0-.66.67c0,0.1,0,.22,0,0.36s0,0.31,0,.5a11,11,0,0,0,.26,3,1.14,1.14,0,0,0,1.23.76,1,1,0,0,0,1-.79,8.87,8.87,0,0,0,.24-2.41A4.63,4.63,0,0,0,113,95.71Z" transform="translate(-26.46 -1.06)"/><path class="cls-2" d="M121.06,99.45a2.64,2.64,0,0,1-2.17,1.47,2.58,2.58,0,0,1-2.15-1.47,6.83,6.83,0,0,1,0-6.87,2.64,2.64,0,0,1,2.17-1.47A2.6,2.6,0,0,1,121,92.58,6.24,6.24,0,0,1,122,96,6.33,6.33,0,0,1,121.06,99.45Zm-0.81-5.25a5.11,5.11,0,0,0-.33-2,1.1,1.1,0,0,0-1-.74,1.07,1.07,0,0,0-1,.74,5.11,5.11,0,0,0-.33,2v3.64a5.11,5.11,0,0,0,.33,2,1.08,1.08,0,0,0,1,.74,1.06,1.06,0,0,0,1-.74,4.79,4.79,0,0,0,.34-2V94.19Z" transform="translate(-26.46 -1.06)"/><path class="cls-2" d="M53.39,104.72L46.46,107l-0.2-.25L48,103.86l-3.24,1.07-0.21-.26,3.84-6.23-0.49-.63,0.21-.16,1.8,2.28,1.65,2.1,1,1.24-0.21.16-0.43-.54-2.34.78-1.52,2.48,5.12-1.66-0.53-.67,0.21-.16,1.2,1.52-0.21.16Zm-3.29-4.18-0.36-.46-0.48-.61-2.8,4.61,1.86-.63Zm1.29,1.63-0.53-.67-0.94,1.7,1.84-.57Z" transform="translate(-26.46 -1.06)"/><path class="cls-2" d="M49.7,110.4l0.18-.19,0.75,0.72,4.48-4.65-0.75-.72,0.18-.19L57,107.76l-0.18.19-0.75-.72-4.48,4.65,0.75,0.72-0.18.19Z" transform="translate(-26.46 -1.06)"/><path class="cls-2" d="M60.49,113.45a2.45,2.45,0,0,0,.47-1.65,1.84,1.84,0,0,0-.7-1L60,110.59l-4,5.09,0.87,0.68-0.16.21L54,114.38l0.16-.21L55,114.85l4-5.09-0.23-.18a1.87,1.87,0,0,0-1.17-.44,2.53,2.53,0,0,0-1.5.86l-0.26-.21,1.47-1.69L62,111.82l-1.29,1.83Z" transform="translate(-26.46 -1.06)"/><path class="cls-2" d="M62.77,120.4l0.13-.23,0.9,0.52,1.58-2.78-2.45-1.4-1.58,2.78,0.9,0.51-0.13.23-3-1.69,0.13-.23,0.9,0.52L63.38,113l-0.9-.52,0.13-.23,3,1.69-0.13.23-0.9-.52-1.48,2.62,2.45,1.4L67,115.07l-0.9-.52,0.13-.23,3,1.69-0.13.23-0.9-.52L65,121.35l0.9,0.52-0.13.23Z" transform="translate(-26.46 -1.06)"/><path class="cls-2" d="M75.64,125.93L70,124l0.09-.25,1,0.34,2.11-6.11-1-.34,0.08-.25,5.46,1.92-0.54,1.8-0.28-.1a2.14,2.14,0,0,0-.21-1.46,2.27,2.27,0,0,0-1.14-.73l-1.14-.4-1,2.84,0.27,0.09a1.19,1.19,0,0,0,1.11,0,1.55,1.55,0,0,0,.54-0.76l0.28,0.1-1,2.76-0.28-.1a1.81,1.81,0,0,0,.08-1,1.17,1.17,0,0,0-.86-0.75l-0.27-.09-1,3L73.67,125a1.73,1.73,0,0,0,1.5,0,3.13,3.13,0,0,0,1-1.23l0.29,0.1Z" transform="translate(-26.46 -1.06)"/><path class="cls-2" d="M83.24,126.77a3.56,3.56,0,0,1-3,.35l-3-.69,0.06-.25,1,0.23,1.42-6.31-1-.23,0.06-.26,3.1,0.72a3.37,3.37,0,0,1,2.74,4.23A3.57,3.57,0,0,1,83.24,126.77Zm0.16-5.19a2.54,2.54,0,0,0-1.86-1.06l-0.46-.11-1.42,6.31,0.7,0.16a1.87,1.87,0,0,0,1.92-.37,5.57,5.57,0,0,0,1-2.47A4.5,4.5,0,0,0,83.4,121.58Z" transform="translate(-26.46 -1.06)"/><path class="cls-2" d="M84.24,128l0-.26,1,0.17,1-6.39-1-.17,0-.26,3.37,0.55,0,0.26-1-.17-1,6.39,1,0.17,0,0.26Z" transform="translate(-26.46 -1.06)"/><path class="cls-2" d="M94.82,124.54a2.48,2.48,0,0,0-.5-1.65,1.84,1.84,0,0,0-1.14-.5l-0.27,0-0.6,6.44,1.1,0.11,0,0.26-3.52-.35,0-.26,1.1,0.11,0.6-6.44-0.29,0a1.86,1.86,0,0,0-1.21.26,2.53,2.53,0,0,0-.8,1.53l-0.33,0,0.32-2.22,6,0.59-0.09,2.24Z" transform="translate(-26.46 -1.06)"/><path class="cls-2" d="M98,129.43v-0.26l1.08,0-0.54-1.88-2.27-.1-0.72,1.82,1.07,0v0.26l-2.22-.1V129l0.84,0L98,122.27l0.37,0,2.12,7,0.83,0v0.26Zm-0.43-5.33L96.37,127l2,0.09Z" transform="translate(-26.46 -1.06)"/><path class="cls-2" d="M108,128.12a3.16,3.16,0,0,1-1.79.73l-3.67.49,0-.26,1-.14-0.9-6.42-1,.14,0-.26,3.46-.46a3.58,3.58,0,0,1,1.91.16,1.48,1.48,0,0,1,.45,2.33,3.07,3.07,0,0,1-1.42.78,3.33,3.33,0,0,1,1.73.35,1.49,1.49,0,0,1,.79,1.1A1.6,1.6,0,0,1,108,128.12ZM106,122.43a1.1,1.1,0,0,0-.94-0.22l-1,.14,0.42,3,1-.13a1.07,1.07,0,0,0,.87-0.53,2,2,0,0,0,.14-1.2A1.68,1.68,0,0,0,106,122.43Zm0.55,3.26a1.34,1.34,0,0,0-1.1-.25l-1,.13,0.45,3.2,1.37-.18a0.81,0.81,0,0,0,.69-0.53,2.23,2.23,0,0,0,.09-1.21A1.82,1.82,0,0,0,106.5,125.69Z" transform="translate(-26.46 -1.06)"/><path class="cls-2" d="M114.93,127.18l-5.67,1.23-0.06-.26,1-.22-1.42-6.33-1,.22-0.06-.26,3.37-.73,0.06,0.26-1.06.23,1.42,6.33,1.32-.29a1.66,1.66,0,0,0,1.24-.84,2.47,2.47,0,0,0,.13-1.61l0.32-.07Z" transform="translate(-26.46 -1.06)"/><path class="cls-2" d="M121.55,125.18l-5.67,1.77-0.08-.25,1-.31-2-6.18-1,.31-0.08-.25,5.5-1.71,0.64,1.78-0.28.09a2.15,2.15,0,0,0-1-1.05,2.25,2.25,0,0,0-1.34.09l-1.15.36,0.91,2.87,0.27-.08a1.18,1.18,0,0,0,.88-0.67,1.58,1.58,0,0,0,0-.94l0.28-.09,0.89,2.79-0.28.09a1.82,1.82,0,0,0-.53-0.85,1.16,1.16,0,0,0-1.14-.09l-0.27.08,1,3.06,1.34-.42a1.72,1.72,0,0,0,1.2-.89,3.15,3.15,0,0,0,.08-1.59L121,123Z" transform="translate(-26.46 -1.06)"/><path class="cls-2" d="M129.3,116.59a2.49,2.49,0,0,0-1.28-1.15,1.83,1.83,0,0,0-1.23.16l-0.25.12,2.84,5.84,1-.48,0.12,0.24-3.17,1.53-0.12-.24,1-.48-2.84-5.84-0.26.13a1.84,1.84,0,0,0-.9.85,2.55,2.55,0,0,0,.12,1.73l-0.3.15-0.88-2.07,5.4-2.6,1.09,2Z" transform="translate(-26.46 -1.06)"/><path class="cls-2" d="M137.68,117.06l-5,3.15-0.14-.22,0.88-.55-3.46-5.5-0.88.55-0.14-.22,4.88-3.05,1.07,1.56-0.25.16a2.15,2.15,0,0,0-1.27-.76,2.24,2.24,0,0,0-1.28.43l-1,.64,1.61,2.55,0.24-.15a1.18,1.18,0,0,0,.68-0.87,1.58,1.58,0,0,0-.26-0.9l0.25-.15,1.56,2.48-0.25.16a1.8,1.8,0,0,0-.73-0.69,1.15,1.15,0,0,0-1.12.2l-0.24.15,1.71,2.72,1.19-.74a1.72,1.72,0,0,0,.93-1.17,3.17,3.17,0,0,0-.33-1.56l0.26-.16Z" transform="translate(-26.46 -1.06)"/><path class="cls-2" d="M141.68,114l-0.17-.2,0.83-.68-2.95-1,0.24,3.22,1-.78,0.17,0.2-2,1.63-0.17-.2,0.76-.62L139.07,112l-3.93-1.41-0.62.51-0.17-.2,2.58-2.1,0.17,0.2-0.8.65,2.66,0.94-0.25-2.9-0.92.75-0.17-.2,2-1.59,0.17,0.2-0.76.62,0.27,3.24,4.28,1.43,0.61-.5,0.17,0.2Z" transform="translate(-26.46 -1.06)"/><path class="cls-2" d="M145.41,103.82a2.48,2.48,0,0,0-1.6-.64,1.82,1.82,0,0,0-1.1.58l-0.19.2,4.69,4.49,0.76-.79,0.19,0.18-2.43,2.54-0.19-.18,0.76-.79-4.69-4.49-0.2.21a1.85,1.85,0,0,0-.54,1.12,2.56,2.56,0,0,0,.71,1.58l-0.23.24-1.54-1.64,4.14-4.32,1.71,1.47Z" transform="translate(-26.46 -1.06)"/><path class="cls-2" d="M151.72,102.65a2.08,2.08,0,0,1-.44,1.65,2.19,2.19,0,0,1-.6.56,2.23,2.23,0,0,1-.74.3l0,0.67-0.11.14-1.66-1.27,0.18-.24a2.94,2.94,0,0,0,1.46.32,1.69,1.69,0,0,0,1.56-1.8,1.37,1.37,0,0,0-.55-1,1.06,1.06,0,0,0-1.09-.19,5.33,5.33,0,0,0-1.26.75,2.78,2.78,0,0,1-1.47.66,2,2,0,0,1-1.33-.47,2,2,0,0,1-.8-1.29,1.86,1.86,0,0,1,.39-1.43,2.58,2.58,0,0,1,.59-0.57,2.22,2.22,0,0,1,.73-0.32l-0.08-.57,0.12-.16,1.58,1.21-0.2.27a2.32,2.32,0,0,0-1.39-.34,1.6,1.6,0,0,0-1.15.66,1.31,1.31,0,0,0-.27.95,1.12,1.12,0,0,0,.44.83,0.76,0.76,0,0,0,.86.16,6.44,6.44,0,0,0,1-.7,3.36,3.36,0,0,1,1.68-.83,2.2,2.2,0,0,1,1.48.54A2.38,2.38,0,0,1,151.72,102.65Z" transform="translate(-26.46 -1.06)"/></svg>