<svg id="Logo_4" data-name="Logo 4" xmlns="http://www.w3.org/2000/svg" viewBox="0 0 177.53 129.26"><defs><style>.cls-1{fill:#353531;}.cls-2,.cls-3,.cls-4{fill:none;stroke:#353531;}.cls-2,.cls-4{stroke-miterlimit:10;}.cls-2,.cls-3{stroke-width:2.02px;}.cls-3{stroke-linecap:round;stroke-linejoin:round;}.cls-4{stroke-width:1.12px;}</style></defs><title>logo-4</title><path class="cls-1" d="M47,24a8,8,0,0,1-.81,1.82,11,11,0,0,1-1.42,1.89,14.47,14.47,0,0,1-2,1.79A15.15,15.15,0,0,1,40,31a19.58,19.58,0,0,1-3.29,1.15,20.69,20.69,0,0,1-3.9.59A4.62,4.62,0,0,1,34.61,34a4.93,4.93,0,0,1,.94,1.65,7,7,0,0,1,.35,1.92q0,1,0,2T35.8,41.39a9,9,0,0,0,0,1.57A2.26,2.26,0,0,0,36.15,44a1.07,1.07,0,0,0,.95.41,5.56,5.56,0,0,0,1.4-.21,11.64,11.64,0,0,0,1.67-.59,16.8,16.8,0,0,0,1.77-.9,17.13,17.13,0,0,0,1.73-1.15l1.08,3.54a3,3,0,0,0-.41.23q-0.41.24-1.13,0.61t-1.69.81a22,22,0,0,1-2.09.82,20.26,20.26,0,0,1-2.32.63,11.47,11.47,0,0,1-2.37.25,3,3,0,0,1-2.06-.65,3.76,3.76,0,0,1-1.09-1.71,8.75,8.75,0,0,1-.39-2.43q0-1.36,0-2.79t0.2-2.79a21.19,21.19,0,0,0,.07-2.43A4.79,4.79,0,0,0,31.2,34a1,1,0,0,0-1-.65H29.07q-1.5,4-2.93,7.08a34.7,34.7,0,0,1-3,5.32A13,13,0,0,1,20,49.07a6.26,6.26,0,0,1-3.62,1.15,5.26,5.26,0,0,1-2.49-.55,5,5,0,0,1-1.73-1.51,6.94,6.94,0,0,1-1-2.24,12,12,0,0,1-.41-2.75,18.17,18.17,0,0,1,.15-3A21.49,21.49,0,0,1,11.49,37a26.83,26.83,0,0,1,2.26-5.48,31.07,31.07,0,0,1,3.46-5.06,33.07,33.07,0,0,1,4.42-4.38,31.2,31.2,0,0,1,5.17-3.45,27.75,27.75,0,0,1,5.7-2.27,22.71,22.71,0,0,1,6-.81,13.36,13.36,0,0,1,2.62.25,10.67,10.67,0,0,1,2.33.74,7.82,7.82,0,0,1,1.9,1.21,5.44,5.44,0,0,1,1.9,3.72A6.67,6.67,0,0,1,47,24ZM37,19.61a18,18,0,0,0-5.55.83,20,20,0,0,0-4.75,2.24,22,22,0,0,0-4,3.27,28.66,28.66,0,0,0-3.14,3.9A29.7,29.7,0,0,0,15.83,38a18.26,18.26,0,0,0-.59,2.93,9.28,9.28,0,0,0,0,2.64,3.78,3.78,0,0,0,.85,1.9,2.35,2.35,0,0,0,1.86.73,2,2,0,0,0,1.22-.48,6.63,6.63,0,0,0,1.2-1.28,16,16,0,0,0,1.16-1.86q0.57-1.06,1.08-2.19t0.95-2.29q0.44-1.15.79-2.17t0.6-1.8q0.24-.79.36-1.2a7.79,7.79,0,0,1-1.78-1.24,1.28,1.28,0,0,1-.35-1.34,4.47,4.47,0,0,1,.15-0.43,2.21,2.21,0,0,1,.25-0.47A1.54,1.54,0,0,1,24,29.06a0.85,0.85,0,0,1,.5-0.15L25,29l0.76,0.11,0.74,0.11,0.45,0,0.13-.38L27.35,28q0.19-.51.46-1.08a10.27,10.27,0,0,1,.65-1.16,6.21,6.21,0,0,1,.86-1.06,4.34,4.34,0,0,1,1-.78,2.64,2.64,0,0,1,1.25-.3,1.09,1.09,0,0,1,1.08.41,1.51,1.51,0,0,1,0,1l0,0.16a16.87,16.87,0,0,1-.73,1.81q-0.51,1.13-1.1,2.61a22,22,0,0,0,5-.59,12.92,12.92,0,0,0,3.42-1.34A7.2,7.2,0,0,0,41.34,26a5.81,5.81,0,0,0,1-1.87,3.32,3.32,0,0,0,.06-1.7A2.88,2.88,0,0,0,41.55,21a4.63,4.63,0,0,0-1.77-1A8.84,8.84,0,0,0,37,19.61Z" transform="translate(-10.67 -0.52)"/><path class="cls-1" d="M46.63,46.76a5.66,5.66,0,0,1-2.79-.61,4,4,0,0,1-1.65-1.65,5.32,5.32,0,0,1-.58-2.4,9.52,9.52,0,0,1,.4-2.86,14.88,14.88,0,0,1,.81-2.14A16.61,16.61,0,0,1,44,34.88a16.88,16.88,0,0,1,1.61-2.07,12.46,12.46,0,0,1,1.93-1.73,9.61,9.61,0,0,1,2.18-1.19,6.59,6.59,0,0,1,2.39-.44,4.59,4.59,0,0,1,1.78.32,3.12,3.12,0,0,1,1.25.91,2.89,2.89,0,0,1,.6,1.42A4.4,4.4,0,0,1,55.62,34a6.66,6.66,0,0,1-1.19,2.24,12.44,12.44,0,0,1-2.13,2.11,16.07,16.07,0,0,1-2.83,1.77,16.62,16.62,0,0,1-3.26,1.21,4.07,4.07,0,0,0,.3.81,1.61,1.61,0,0,0,.39.5,1.27,1.27,0,0,0,.5.25,2.43,2.43,0,0,0,.62.07,7.83,7.83,0,0,0,2.41-.43,20.35,20.35,0,0,0,2.65-1.08A29,29,0,0,0,55.62,40q1.23-.77,2.13-1.45L59.39,41a36,36,0,0,1-4.21,2.91q-0.93.54-2,1.06a20.83,20.83,0,0,1-2.14.93,16.47,16.47,0,0,1-2.23.65A10.45,10.45,0,0,1,46.63,46.76Zm0-8.48a4.29,4.29,0,0,0,1.51-.33,9.48,9.48,0,0,0,3.11-2,2.82,2.82,0,0,0,.79-1.19,2.49,2.49,0,0,0,.08-1.33,0.6,0.6,0,0,0-.58-0.52,3.37,3.37,0,0,0-1.41.29,4.3,4.3,0,0,0-1.13.75,5.75,5.75,0,0,0-.9,1,9.53,9.53,0,0,0-.68,1.18A10.81,10.81,0,0,0,47,37.32C46.84,37.69,46.74,38,46.66,38.27Z" transform="translate(-10.67 -0.52)"/><path class="cls-1" d="M56.14,39.83Q57.4,39,58.2,38.38t1.39-1.06q0.59-.48,1.1-1l1.21-1.15,1.69-1.63q1-1,2.57-2.41a9.44,9.44,0,0,1,.7-0.63,6.08,6.08,0,0,1,.8-0.55,4.75,4.75,0,0,1,.89-0.4,3.18,3.18,0,0,1,1-.15,3.25,3.25,0,0,1,1.28.19,1.1,1.1,0,0,1,.55.46,0.9,0.9,0,0,1,.09.57,5.1,5.1,0,0,1-.11.51,2.51,2.51,0,0,1-.62,1q-0.5.52-1,1l-1,.89a2.82,2.82,0,0,0-.6.6,6.28,6.28,0,0,0-.21,1,7.26,7.26,0,0,0,0,.9c0,0.29,0,.61,0,0.94s0,0.71,0,1.15a14.09,14.09,0,0,1-.21,1.5q-0.16.85-.49,2a15.39,15.39,0,0,1,1.62-.78l1.77-.73q0.92-.38,1.91-0.84a19.69,19.69,0,0,0,2-1.11l-1.14,4a24.17,24.17,0,0,1-3.05,1.62,34.24,34.24,0,0,1-3.47,1.33,29.06,29.06,0,0,1-3.53.91,17.29,17.29,0,0,1-3.23.33,8.69,8.69,0,0,1-1.93-.2,3.82,3.82,0,0,1-1.44-.62A2.27,2.27,0,0,1,55.8,45a3.22,3.22,0,0,1,0-1.66,3.88,3.88,0,0,1-.52.07l-0.48,0-0.54,0a0.69,0.69,0,0,1-.39-0.14,0.55,0.55,0,0,1-.18-0.38,2,2,0,0,1,.11-0.75,2.09,2.09,0,0,1,.45-0.8,5,5,0,0,1,.69-0.66,8.26,8.26,0,0,1,.72-0.51Zm1.65,2.31a0.51,0.51,0,0,1,.4.27c0.12,0.18.27,0.38,0.43,0.6a3,3,0,0,0,.62.6,1.58,1.58,0,0,0,1,.27,3,3,0,0,0,1.23-.23A2.91,2.91,0,0,0,62.34,43a3.51,3.51,0,0,0,.64-0.9A6.35,6.35,0,0,0,63.39,41a8.68,8.68,0,0,0,.22-1c0.05-.34.09-0.66,0.11-1s0-.6,0-0.87,0-.5,0-0.69Z" transform="translate(-10.67 -0.52)"/><path class="cls-1" d="M86.52,42.71q-2,1-3.59,1.77t-2.77,1.26a18.57,18.57,0,0,1-2.09.76,5.87,5.87,0,0,1-1.56.25,2.9,2.9,0,0,1-2.18-.83,4.35,4.35,0,0,1-1.07-2.39,13.34,13.34,0,0,1,0-3.78,34.21,34.21,0,0,1,1.08-5q0.31-1.08.75-2.31t1-2.44q-0.52-.07-0.8-0.14l-0.6-.13-0.81-.14-1.44-.18a1.23,1.23,0,0,1-.61-0.21,0.66,0.66,0,0,1-.24-0.36,1,1,0,0,1,0-.43c0-.15.06-0.28,0.09-0.39a0.87,0.87,0,0,1,.51-0.55,3.73,3.73,0,0,1,1-.28,8.8,8.8,0,0,1,1.24-.1h1.26l1.08,0a3.64,3.64,0,0,0,.67,0Q78.58,24.68,80,22.4a38.45,38.45,0,0,1,2.84-4.06,17,17,0,0,1,2.85-2.85,4.43,4.43,0,0,1,2.62-1.07,2,2,0,0,1,1.29.43A2.53,2.53,0,0,1,90.35,16a4.78,4.78,0,0,1,.21,1.69,8.45,8.45,0,0,1-.33,2,9.31,9.31,0,0,1-.79,1.87,19.38,19.38,0,0,1-1.26,2q-0.73,1-1.61,2.07t-1.83,2.08l0.53,0,0.87,0,1.06,0,1.11,0,1,0,0.77,0a0.41,0.41,0,0,1,.42.36,1.94,1.94,0,0,1-.09.87,2,2,0,0,1-.66,1,1.44,1.44,0,0,1-.91.4H81.91L80.45,32,79.1,33.26q-0.39,1.12-.76,2.2l-0.31,1-0.32,1-0.29.94c-0.09.3-.18,0.58-0.25,0.83a6.53,6.53,0,0,0-.29,1.64,2.27,2.27,0,0,0,.21,1.09,1.31,1.31,0,0,0,.66.61,2.68,2.68,0,0,0,1.06.19,3.74,3.74,0,0,0,1-.18A13.82,13.82,0,0,0,81.2,42q0.77-.31,1.64-0.75t1.75-.95q0.88-.51,1.71-1.08t1.54-1.16Zm0.78-22.85a4.5,4.5,0,0,0,.1-0.44,1.57,1.57,0,0,0,0-.46,0.6,0.6,0,0,0-.18-0.36,0.69,0.69,0,0,0-.49-0.14,1.91,1.91,0,0,0-1.19.83A17.78,17.78,0,0,0,84,21.41q-0.81,1.29-1.65,2.84t-1.58,3l0.52,0.06,0.54,0.06q0.81-.92,1.7-2t1.66-2.11q0.77-1,1.33-1.94A6.24,6.24,0,0,0,87.29,19.87Z" transform="translate(-10.67 -0.52)"/><path class="cls-1" d="M104.94,42.33q-0.58.58-1.5,1.35a20.87,20.87,0,0,1-2,1.48,14.22,14.22,0,0,1-2.2,1.19,5.39,5.39,0,0,1-2.12.49,2.06,2.06,0,0,1-1.76-.77,4.51,4.51,0,0,1-.73-2.23,13.4,13.4,0,0,1-1.36,1,14,14,0,0,1-1.65.95,12,12,0,0,1-1.76.69,5.86,5.86,0,0,1-1.7.27,3.58,3.58,0,0,1-1.59-.35,2.92,2.92,0,0,1-1.16-1,3.55,3.55,0,0,1-.55-1.61,5.55,5.55,0,0,1,.23-2.14,13.43,13.43,0,0,1,1.18-2.78,21.51,21.51,0,0,1,1.85-2.79,23.8,23.8,0,0,1,2.32-2.57A19.49,19.49,0,0,1,93,31.43,14,14,0,0,1,95.73,30a7.09,7.09,0,0,1,2.6-.53,0.91,0.91,0,0,1,.6.16,1.07,1.07,0,0,1,.28.37l0.18,0.41a0.56,0.56,0,0,0,.28.29,1.36,1.36,0,0,0,.41.12l0.45,0h0.82a2.07,2.07,0,0,1,.49.05,0.59,0.59,0,0,1,.35.23,0.89,0.89,0,0,1,.13.5,3.18,3.18,0,0,1-.15.88,13.94,13.94,0,0,1-.73,1.92q-0.48,1.05-1,2.17t-1,2.22a15.7,15.7,0,0,0-.78,2.1,4.58,4.58,0,0,0-.23,1.33,0.45,0.45,0,0,0,.52.48,2.3,2.3,0,0,0,.85-0.19,7.14,7.14,0,0,0,1-.5c0.34-.2.69-0.44,1-0.69s0.7-.53,1-0.8q1.16-1,2.42-2.2Zm-15-1.43a6.39,6.39,0,0,0-.19.88,2.27,2.27,0,0,0,0,.76,1,1,0,0,0,.28.54,0.86,0.86,0,0,0,.63.21A2.19,2.19,0,0,0,92,42.71a8.52,8.52,0,0,0,1.34-1.39,14,14,0,0,0,1.12-1.68,13.26,13.26,0,0,0,.73-1.44l2.62-5.31a3.74,3.74,0,0,0-1.55.37,8.07,8.07,0,0,0-1.61,1,13.92,13.92,0,0,0-1.56,1.44,16.63,16.63,0,0,0-1.39,1.71,14.92,14.92,0,0,0-1.1,1.8A9.41,9.41,0,0,0,89.94,40.91Z" transform="translate(-10.67 -0.52)"/><path class="cls-1" d="M119.68,30.6a13.13,13.13,0,0,1-.49,1.33q-0.35.84-.81,1.84t-1,2.07l-0.94,2q-0.44.92-.74,1.61a9.15,9.15,0,0,0-.39,1q-0.15.51-.25,0.93a3.17,3.17,0,0,0-.1.74,0.75,0.75,0,0,0,.14.49,0.62,0.62,0,0,0,.5.17,3.53,3.53,0,0,0,1-.2A12.34,12.34,0,0,0,118,42q0.74-.33,1.53-0.76t1.53-.89q0.74-.47,1.37-0.93a11.28,11.28,0,0,0,1-.86c-0.11.4-.21,0.76-0.3,1.08s-0.17.64-.26,0.93-0.17.6-.25,0.91-0.18.66-.29,1c-0.34.26-.75,0.55-1.23,0.85s-1,.6-1.56.9-1.15.59-1.76,0.87-1.22.52-1.83,0.73a15.66,15.66,0,0,1-1.75.5,7.13,7.13,0,0,1-1.53.19,2,2,0,0,1-1.09-.27,1.69,1.69,0,0,1-.62-0.76,3.59,3.59,0,0,1-.26-1.16,10.83,10.83,0,0,1,0-1.51,23.34,23.34,0,0,1-1.82,1.56,16.91,16.91,0,0,1-1.83,1.24,10.05,10.05,0,0,1-1.75.82,4.78,4.78,0,0,1-1.57.3,2.69,2.69,0,0,1-1.06-.2,1.53,1.53,0,0,1-.74-0.67,2.56,2.56,0,0,1-.29-1.24,6.68,6.68,0,0,1,.31-1.9,28.71,28.71,0,0,1,1.35-3.54q0.95-2.15,2.23-4.91,0.11-.27.35-0.73t0.56-1q0.33-.54.74-1.1a7.74,7.74,0,0,1,.88-1,4.6,4.6,0,0,1,1-.74,2.54,2.54,0,0,1,1.13-.31,3.08,3.08,0,0,1,1.3.24,0.43,0.43,0,0,1,.27.51l-1,2.13L109.8,34.7l-1,2.32-0.9,2-0.63,1.43L107,41a3.2,3.2,0,0,0-.12.62,1.69,1.69,0,0,0,0,.53,0.74,0.74,0,0,0,.22.38,0.61,0.61,0,0,0,.43.14,2.19,2.19,0,0,0,.87-0.21,4.25,4.25,0,0,0,1-.6,6.09,6.09,0,0,0,.93-1,7,7,0,0,0,.8-1.29l4.42-9.17a1.71,1.71,0,0,1,.94-0.73,4,4,0,0,1,1.54-.3,2.35,2.35,0,0,1,1.37.32A0.71,0.71,0,0,1,119.68,30.6Z" transform="translate(-10.67 -0.52)"/><path class="cls-1" d="M120,43q0.23-.79.62-1.85c0.26-.7.56-1.45,0.88-2.23s0.68-1.58,1-2.39,0.74-1.59,1.11-2.32,0.72-1.41,1-2,0.63-1.12.9-1.52a5.28,5.28,0,0,1,.47-0.63,1.93,1.93,0,0,1,.44-0.37,1.44,1.44,0,0,1,.52-0.18,4.71,4.71,0,0,1,.71,0,4.29,4.29,0,0,1,.72,0,0.41,0.41,0,0,1,.33.22,0.84,0.84,0,0,1,0,.5c0,0.22-.12.51-0.23,0.88l-0.46,1.62q-0.27.95-.5,1.87h0.2l1.28-1.62a15.77,15.77,0,0,1,1.53-1.67A9.37,9.37,0,0,1,132.33,30a3.71,3.71,0,0,1,1.9-.53,1.69,1.69,0,0,1,.63.12,1.17,1.17,0,0,1,.47.33,1.1,1.1,0,0,1,.24.53,1.62,1.62,0,0,1-.06.71,7.21,7.21,0,0,1-.34.86l-0.53,1.16-0.54,1.17a7.48,7.48,0,0,0-.36.95,4,4,0,0,0-.18,1.08,1.55,1.55,0,0,0,.13.69,0.77,0.77,0,0,0,.36.37,1.2,1.2,0,0,0,.52.11,5.13,5.13,0,0,0,1.78-.36,15.08,15.08,0,0,0,1.82-.81,22,22,0,0,0,2-1.19l-1.48,4.22-1.26.69q-0.7.38-1.48,0.71a12.54,12.54,0,0,1-1.57.56,5.68,5.68,0,0,1-1.55.23,3.15,3.15,0,0,1-2-.55,2.68,2.68,0,0,1-.9-1.44,6.14,6.14,0,0,1-.15-2q0.08-1.11.27-2.25h-0.29l-5.81,9q-0.45.7-.81,1.16a6,6,0,0,1-.67.75,2,2,0,0,1-.62.41,1.72,1.72,0,0,1-.63.12,1.64,1.64,0,0,1-1.1-.32,1.41,1.41,0,0,1-.45-0.85,3.62,3.62,0,0,1,0-1.21A12.42,12.42,0,0,1,120,43Z" transform="translate(-10.67 -0.52)"/><path class="cls-1" d="M154.64,42.33q-0.58.58-1.5,1.35a20.75,20.75,0,0,1-2,1.48,14.22,14.22,0,0,1-2.2,1.19,5.39,5.39,0,0,1-2.12.49,2.06,2.06,0,0,1-1.76-.77,4.5,4.5,0,0,1-.73-2.23,13.53,13.53,0,0,1-1.36,1,14,14,0,0,1-1.65.95,12,12,0,0,1-1.76.69,5.86,5.86,0,0,1-1.7.27,3.58,3.58,0,0,1-1.59-.35,2.92,2.92,0,0,1-1.16-1,3.54,3.54,0,0,1-.55-1.61,5.53,5.53,0,0,1,.23-2.14A13.38,13.38,0,0,1,136,38.91a21.5,21.5,0,0,1,1.85-2.79,23.8,23.8,0,0,1,2.32-2.57,19.49,19.49,0,0,1,2.6-2.11,14,14,0,0,1,2.7-1.43,7.08,7.08,0,0,1,2.6-.53,0.92,0.92,0,0,1,.6.16,1.09,1.09,0,0,1,.28.37l0.18,0.41a0.56,0.56,0,0,0,.28.29,1.37,1.37,0,0,0,.41.12l0.45,0h0.82a2.06,2.06,0,0,1,.49.05,0.59,0.59,0,0,1,.35.23,0.89,0.89,0,0,1,.13.5,3.18,3.18,0,0,1-.15.88,13.94,13.94,0,0,1-.73,1.92q-0.48,1.05-1,2.17t-1,2.22a15.7,15.7,0,0,0-.78,2.1,4.58,4.58,0,0,0-.23,1.33,0.45,0.45,0,0,0,.52.48,2.3,2.3,0,0,0,.85-0.19,7.14,7.14,0,0,0,1-.5c0.34-.2.69-0.44,1-0.69s0.7-.53,1-0.8q1.16-1,2.42-2.2Zm-15-1.43a6.39,6.39,0,0,0-.19.88,2.27,2.27,0,0,0,0,.76,1,1,0,0,0,.28.54,0.86,0.86,0,0,0,.63.21,2.19,2.19,0,0,0,1.37-.58,8.52,8.52,0,0,0,1.34-1.39,13.88,13.88,0,0,0,1.12-1.68,13.26,13.26,0,0,0,.73-1.44l2.62-5.31a3.73,3.73,0,0,0-1.55.37,8.05,8.05,0,0,0-1.62,1,13.83,13.83,0,0,0-1.56,1.44,16.51,16.51,0,0,0-1.39,1.71,14.92,14.92,0,0,0-1.1,1.8A9.41,9.41,0,0,0,139.64,40.91Z" transform="translate(-10.67 -0.52)"/><path class="cls-1" d="M152.33,43q0.34-1.19.93-2.75t1.27-3.18q0.68-1.61,1.38-3.11t1.26-2.56A4.19,4.19,0,0,1,158.34,30a2.72,2.72,0,0,1,1.7-.56,1.09,1.09,0,0,1,1.18.6,2.68,2.68,0,0,1-.08,1.59,7.55,7.55,0,0,1-.26.73q-0.19.46-.43,1L160,34.49l-0.48,1.08-0.38.87a5.2,5.2,0,0,0-.2.5h0.36l0.53-.64,0.83-1,1-1.22,1-1.23,0.86-1,0.57-.67a4.94,4.94,0,0,1,1.7-1.34,4.39,4.39,0,0,1,1.75-.36,1.2,1.2,0,0,1,1.22.76,3.25,3.25,0,0,1-.07,2.09,5.43,5.43,0,0,1-.27.67l-0.53,1.12-0.69,1.43c-0.25.52-.5,1-0.73,1.59s-0.46,1.08-.67,1.61-0.37,1-.5,1.46A5.06,5.06,0,0,0,165,42a0.66,0.66,0,0,0,.67.72,1.86,1.86,0,0,0,.67-0.16,9.24,9.24,0,0,0,.88-0.42q0.48-.26,1-0.6l1-.7q1.2-.85,2.55-1.91l-0.85,4-1.1.69-1.83,1.12a19.44,19.44,0,0,1-1.88,1,13.33,13.33,0,0,1-1.94.72,7.18,7.18,0,0,1-2,.28q-1,0-1.26-1.43a9.93,9.93,0,0,1,.53-4.2,24,24,0,0,1,.82-2.34q0.5-1.25,1.13-2.7h-0.29l-7.42,9.38a3.54,3.54,0,0,1-1.1,1,2.44,2.44,0,0,1-1.12.27,1.64,1.64,0,0,1-1.1-.32,1.41,1.41,0,0,1-.45-0.85,3.65,3.65,0,0,1,0-1.21A12.42,12.42,0,0,1,152.33,43Z" transform="translate(-10.67 -0.52)"/><path class="cls-1" d="M184.15,42.71q-2,1-3.59,1.77t-2.77,1.26a18.57,18.57,0,0,1-2.09.76,5.87,5.87,0,0,1-1.56.25,2.9,2.9,0,0,1-2.18-.83,4.35,4.35,0,0,1-1.07-2.39,13.34,13.34,0,0,1,0-3.78,34.1,34.1,0,0,1,1.08-5q0.31-1.08.75-2.31t1-2.44q-0.52-.07-0.8-0.14l-0.6-.13-0.81-.14-1.44-.18a1.23,1.23,0,0,1-.61-0.21,0.66,0.66,0,0,1-.24-0.36,1,1,0,0,1,0-.43c0-.15.06-0.28,0.09-0.39a0.87,0.87,0,0,1,.51-0.55,3.73,3.73,0,0,1,1-.28,8.77,8.77,0,0,1,1.24-.1h1.26l1.08,0a3.64,3.64,0,0,0,.67,0q1.19-2.44,2.59-4.72a38.45,38.45,0,0,1,2.84-4.06,17,17,0,0,1,2.85-2.85,4.43,4.43,0,0,1,2.62-1.07,2,2,0,0,1,1.29.43A2.53,2.53,0,0,1,188,16a4.76,4.76,0,0,1,.21,1.69,8.45,8.45,0,0,1-.33,2,9.31,9.31,0,0,1-.79,1.87,19.22,19.22,0,0,1-1.26,2q-0.72,1-1.61,2.07t-1.83,2.08l0.53,0,0.87,0,1.06,0,1.11,0,1,0,0.77,0a0.41,0.41,0,0,1,.42.36,1.94,1.94,0,0,1-.09.87,2,2,0,0,1-.66,1,1.44,1.44,0,0,1-.91.4h-6.93L178.08,32l-1.34,1.25q-0.39,1.12-.76,2.2l-0.31,1-0.32,1-0.3.94c-0.09.3-.18,0.58-0.25,0.83a6.57,6.57,0,0,0-.29,1.64,2.27,2.27,0,0,0,.21,1.09,1.31,1.31,0,0,0,.66.61,2.68,2.68,0,0,0,1.06.19,3.74,3.74,0,0,0,1-.18,13.82,13.82,0,0,0,1.39-.5q0.77-.31,1.64-0.75t1.75-.95q0.88-.51,1.71-1.08t1.54-1.16Zm0.78-22.85a4.5,4.5,0,0,0,.1-0.44,1.57,1.57,0,0,0,0-.46,0.6,0.6,0,0,0-.18-0.36,0.69,0.69,0,0,0-.49-0.14,1.91,1.91,0,0,0-1.19.83,17.66,17.66,0,0,0-1.53,2.12q-0.81,1.29-1.64,2.84t-1.58,3L179,27.33l0.54,0.06q0.81-.92,1.7-2t1.66-2.11q0.77-1,1.33-1.94A6.24,6.24,0,0,0,184.93,19.87Z" transform="translate(-10.67 -0.52)"/><path class="cls-1" d="M27.88,65a3.52,3.52,0,0,1-1.6-.34,3.06,3.06,0,0,1-1.12-.95,4.26,4.26,0,0,1-.66-1.45,7.79,7.79,0,0,1,0-3.67,4.27,4.27,0,0,1,.66-1.45,3.13,3.13,0,0,1,1.12-1,3.88,3.88,0,0,1,3.19,0,3.12,3.12,0,0,1,1.12,1,4.19,4.19,0,0,1,.66,1.45,8,8,0,0,1,0,3.67,4.18,4.18,0,0,1-.66,1.45,3,3,0,0,1-1.12.95A3.52,3.52,0,0,1,27.88,65Zm0-1.08a2.07,2.07,0,0,0,1-.24,2,2,0,0,0,.72-0.7,3.48,3.48,0,0,0,.43-1.1A7.43,7.43,0,0,0,30,59a3.41,3.41,0,0,0-.43-1.1,2,2,0,0,0-.72-0.69,2.3,2.3,0,0,0-2,0,2,2,0,0,0-.72.69,3.43,3.43,0,0,0-.43,1.1,7.48,7.48,0,0,0,0,2.9,3.5,3.5,0,0,0,.43,1.1,2,2,0,0,0,.72.7A2.08,2.08,0,0,0,27.88,63.89Z" transform="translate(-10.67 -0.52)"/><path class="cls-1" d="M35.59,56l0.28,0h0.62l0.3,0v7.74h3.34a2.16,2.16,0,0,1,0,.28c0,0.1,0,.19,0,0.27a4.12,4.12,0,0,1,0,.55H35.59V56Z" transform="translate(-10.67 -0.52)"/><path class="cls-1" d="M43.82,56l1-.09c0.38,0,.75,0,1.11,0A4.37,4.37,0,0,1,49.25,57a4.79,4.79,0,0,1,1.11,3.4,4.65,4.65,0,0,1-1.13,3.43A4.59,4.59,0,0,1,45.86,65c-0.37,0-.74,0-1.1,0s-0.67-.06-0.93-0.1V56ZM45,63.79l0.41,0,0.51,0a4.56,4.56,0,0,0,1.27-.17,2.37,2.37,0,0,0,1-.56,2.57,2.57,0,0,0,.64-1.06,5.37,5.37,0,0,0,.22-1.68,4.87,4.87,0,0,0-.22-1.57,2.77,2.77,0,0,0-.63-1.06,2.4,2.4,0,0,0-1-.6A4,4,0,0,0,46,57H45.5A2.94,2.94,0,0,0,45,57v6.78Z" transform="translate(-10.67 -0.52)"/><path class="cls-1" d="M65,63.53a3.41,3.41,0,0,1,.33,1,4.58,4.58,0,0,1-1,.32,6.07,6.07,0,0,1-1.12.1,4.22,4.22,0,0,1-1.66-.31,3.38,3.38,0,0,1-1.25-.9,4,4,0,0,1-.78-1.42,6.09,6.09,0,0,1-.27-1.88,6.32,6.32,0,0,1,.27-1.91,4.21,4.21,0,0,1,.78-1.46,3.42,3.42,0,0,1,1.24-.93,4,4,0,0,1,1.64-.33,5.93,5.93,0,0,1,1.16.1,6.42,6.42,0,0,1,.86.23,2.37,2.37,0,0,1-.1.52c-0.05.16-.11,0.33-0.18,0.51l-0.34-.11L64.25,57l-0.42-.06-0.53,0a2.4,2.4,0,0,0-2,.91,4.16,4.16,0,0,0-.72,2.62,5.08,5.08,0,0,0,.2,1.51A2.9,2.9,0,0,0,61.35,63a2.32,2.32,0,0,0,.88.63,3,3,0,0,0,1.15.21,4.29,4.29,0,0,0,.9-0.09A3.71,3.71,0,0,0,65,63.53Z" transform="translate(-10.67 -0.52)"/><path class="cls-1" d="M72.28,65a3.52,3.52,0,0,1-1.6-.34,3.06,3.06,0,0,1-1.12-.95,4.24,4.24,0,0,1-.66-1.45,7.79,7.79,0,0,1,0-3.67,4.25,4.25,0,0,1,.66-1.45,3.13,3.13,0,0,1,1.12-1,3.88,3.88,0,0,1,3.19,0,3.12,3.12,0,0,1,1.12,1,4.17,4.17,0,0,1,.66,1.45,8,8,0,0,1,0,3.67A4.16,4.16,0,0,1,75,63.69a3.05,3.05,0,0,1-1.12.95A3.52,3.52,0,0,1,72.28,65Zm0-1.08a2.08,2.08,0,0,0,1-.24A2,2,0,0,0,74,63a3.5,3.5,0,0,0,.43-1.1,7.48,7.48,0,0,0,0-2.9,3.43,3.43,0,0,0-.43-1.1,2,2,0,0,0-.72-0.69,2.3,2.3,0,0,0-2,0,2,2,0,0,0-.72.69,3.41,3.41,0,0,0-.43,1.1,7.48,7.48,0,0,0,0,2.9,3.48,3.48,0,0,0,.43,1.1,2,2,0,0,0,.72.7A2.07,2.07,0,0,0,72.28,63.89Z" transform="translate(-10.67 -0.52)"/><path class="cls-1" d="M79.91,56a4.82,4.82,0,0,1,.62,0,4.44,4.44,0,0,1,.59,0v5a7.66,7.66,0,0,0,.09,1.3,2.45,2.45,0,0,0,.31.88,1.29,1.29,0,0,0,.56.5,2.06,2.06,0,0,0,.86.16,2,2,0,0,0,.85-0.16,1.3,1.3,0,0,0,.56-0.5,2.41,2.41,0,0,0,.31-0.88,7.66,7.66,0,0,0,.09-1.3V56a4.91,4.91,0,0,1,.6,0A4.83,4.83,0,0,1,86,56v5.24a7.17,7.17,0,0,1-.16,1.59A3.06,3.06,0,0,1,85.28,64a2.29,2.29,0,0,1-.94.73,4.06,4.06,0,0,1-2.81,0A2.29,2.29,0,0,1,80.59,64a3.08,3.08,0,0,1-.52-1.18,7.18,7.18,0,0,1-.16-1.59V56Z" transform="translate(-10.67 -0.52)"/><path class="cls-1" d="M90.33,56l0.28,0h0.56l0.28,0,3.7,6.64V56l0.3,0H96l0.27,0v8.85l-0.28,0H95.46l-0.28,0-3.71-6.61v6.61l-0.28,0H90.59l-0.27,0V56Z" transform="translate(-10.67 -0.52)"/><path class="cls-1" d="M102.2,57.07H100a2.28,2.28,0,0,1,0-.27q0-.15,0-0.28t0-.28a2.3,2.3,0,0,1,0-.26h5.63a2.32,2.32,0,0,1,0,.26q0,0.14,0,.27t0,0.29a2.28,2.28,0,0,1,0,.28h-2.21v7.75a4.45,4.45,0,0,1-.59,0,4.82,4.82,0,0,1-.62,0V57.07Z" transform="translate(-10.67 -0.52)"/><path class="cls-1" d="M109.35,56l0.47,0,0.42,0,0.43,0h0.5a5.86,5.86,0,0,1,1.2.12,3,3,0,0,1,1.05.43,2.35,2.35,0,0,1,.75.83,2.71,2.71,0,0,1,.29,1.32,2.38,2.38,0,0,1-.15.87,2.8,2.8,0,0,1-.93,1.24,4.25,4.25,0,0,1-.58.38l-0.14.07,2.47,3.73a6.39,6.39,0,0,1-.72,0,5.6,5.6,0,0,1-.64,0L111,60.73v0l0.09,0a5.54,5.54,0,0,0,.67-0.23,2.73,2.73,0,0,0,.66-0.39,2.11,2.11,0,0,0,.5-0.58,1.58,1.58,0,0,0,.2-0.82,1.64,1.64,0,0,0-.5-1.32,2,2,0,0,0-1.35-.43h-0.37l-0.38,0v7.89l-0.29,0h-0.61l-0.31,0V56Z" transform="translate(-10.67 -0.52)"/><path class="cls-1" d="M120.38,61.59L117.69,56l0.33,0h0.69L119,56l2,4.39L123,56l0.31,0h0.65l0.32,0-2.66,5.61v3.24l-0.31,0h-0.62l-0.29,0V61.59Z" transform="translate(-10.67 -0.52)"/><path class="cls-1" d="M133.07,56l0.47,0,0.42,0,0.43,0h0.5a5.84,5.84,0,0,1,1.19.12,3,3,0,0,1,1.05.43,2.34,2.34,0,0,1,.75.83,2.7,2.7,0,0,1,.29,1.32,2.4,2.4,0,0,1-.15.87,2.8,2.8,0,0,1-.93,1.24,4.19,4.19,0,0,1-.59.38l-0.14.07,2.47,3.73a6.37,6.37,0,0,1-.72,0,5.61,5.61,0,0,1-.64,0l-2.72-4.1v0l0.09,0a5.54,5.54,0,0,0,.67-0.23,2.75,2.75,0,0,0,.66-0.39,2.1,2.1,0,0,0,.5-0.58,1.58,1.58,0,0,0,.2-0.82,1.64,1.64,0,0,0-.5-1.32,2,2,0,0,0-1.35-.43h-0.37l-0.38,0v7.89l-0.29,0h-0.61l-0.31,0V56Z" transform="translate(-10.67 -0.52)"/><path class="cls-1" d="M145.57,65a3.52,3.52,0,0,1-1.6-.34,3.05,3.05,0,0,1-1.12-.95,4.24,4.24,0,0,1-.66-1.45,7.79,7.79,0,0,1,0-3.67,4.25,4.25,0,0,1,.66-1.45,3.12,3.12,0,0,1,1.12-1,3.88,3.88,0,0,1,3.19,0,3.13,3.13,0,0,1,1.12,1,4.17,4.17,0,0,1,.66,1.45,8,8,0,0,1,0,3.67,4.16,4.16,0,0,1-.66,1.45,3.06,3.06,0,0,1-1.12.95A3.52,3.52,0,0,1,145.57,65Zm0-1.08a2.08,2.08,0,0,0,1-.24,2,2,0,0,0,.72-0.7,3.48,3.48,0,0,0,.43-1.1,7.48,7.48,0,0,0,0-2.9,3.41,3.41,0,0,0-.43-1.1,2,2,0,0,0-.72-0.69,2.3,2.3,0,0,0-2,0,2,2,0,0,0-.72.69,3.41,3.41,0,0,0-.43,1.1,7.48,7.48,0,0,0,0,2.9,3.48,3.48,0,0,0,.43,1.1,2,2,0,0,0,.72.7A2.08,2.08,0,0,0,145.57,63.89Z" transform="translate(-10.67 -0.52)"/><path class="cls-1" d="M157.18,62.78h-3.23l-0.58,2-0.31,0h-0.63l-0.29,0L154.91,56l0.33,0h0.71l0.34,0L159,64.83l-0.32,0h-0.66l-0.3,0Zm-2.91-1.1h2.59l-1.3-4.52Z" transform="translate(-10.67 -0.52)"/><path class="cls-1" d="M162.66,56l1-.09q0.57,0,1.11,0A4.37,4.37,0,0,1,168.09,57a4.79,4.79,0,0,1,1.11,3.4,4.65,4.65,0,0,1-1.13,3.43A4.59,4.59,0,0,1,164.7,65q-0.56,0-1.1,0t-0.93-.1V56Zm1.21,7.81,0.41,0,0.51,0a4.56,4.56,0,0,0,1.27-.17,2.37,2.37,0,0,0,1-.56,2.55,2.55,0,0,0,.64-1.06,5.37,5.37,0,0,0,.22-1.68,4.87,4.87,0,0,0-.22-1.57,2.76,2.76,0,0,0-.63-1.06,2.39,2.39,0,0,0-1-.6,4,4,0,0,0-1.25-.18h-0.49a2.94,2.94,0,0,0-.47,0v6.78Z" transform="translate(-10.67 -0.52)"/><path class="cls-1" d="M58.17,128.33a7.69,7.69,0,0,0,.76.24,4,4,0,0,0,1,.1,2,2,0,0,0,1.36-.39,1.31,1.31,0,0,0,.45-1,1.47,1.47,0,0,0-.09-0.55,1.06,1.06,0,0,0-.28-0.4,2.06,2.06,0,0,0-.47-0.31l-0.66-.3-0.63-.27a4.36,4.36,0,0,1-.59-0.31,1.84,1.84,0,0,1-.46-0.41,1.89,1.89,0,0,1-.3-0.56,2.29,2.29,0,0,1-.11-0.76,2.06,2.06,0,0,1,.69-1.64,2.86,2.86,0,0,1,1.93-.59,5.3,5.3,0,0,1,1,.09,5.24,5.24,0,0,1,.84.23,3.72,3.72,0,0,1-.24,1,5.28,5.28,0,0,0-.69-0.21,3.93,3.93,0,0,0-.89-0.09,1.72,1.72,0,0,0-1.08.29,1.05,1.05,0,0,0-.38.88,1,1,0,0,0,.09.43,1.15,1.15,0,0,0,.25.33,1.84,1.84,0,0,0,.37.26,4.1,4.1,0,0,0,.44.21l0.62,0.25a6.43,6.43,0,0,1,.79.39,2.46,2.46,0,0,1,.59.47,1.85,1.85,0,0,1,.37.64,2.65,2.65,0,0,1,.13.87,2.36,2.36,0,0,1-.79,1.87,3.25,3.25,0,0,1-2.21.69l-0.62,0-0.52-.07-0.46-.12-0.45-.15a2.66,2.66,0,0,1,.1-0.52C58.05,128.67,58.11,128.5,58.17,128.33Z" transform="translate(-10.67 -0.52)"/><path class="cls-1" d="M66.63,121.29l0.28,0h0.58l0.28,0v8.29l-0.27,0H66.9l-0.27,0v-8.29Z" transform="translate(-10.67 -0.52)"/><path class="cls-1" d="M71.93,121.29l0.26,0h0.52l0.26,0,3.47,6.23v-6.23l0.28,0h0.54l0.25,0v8.29l-0.26,0H76.74l-0.26,0L73,123.39v6.19l-0.26,0H72.18l-0.25,0v-8.29Z" transform="translate(-10.67 -0.52)"/><path class="cls-1" d="M86.78,128.38a3.21,3.21,0,0,1,.31,1,4.29,4.29,0,0,1-1,.3,5.66,5.66,0,0,1-1.05.09,4,4,0,0,1-1.56-.29,3.16,3.16,0,0,1-1.17-.84,3.77,3.77,0,0,1-.73-1.33,5.69,5.69,0,0,1-.25-1.76,5.91,5.91,0,0,1,.25-1.79,3.94,3.94,0,0,1,.73-1.37,3.2,3.2,0,0,1,1.16-.87,3.75,3.75,0,0,1,1.54-.31,5.55,5.55,0,0,1,1.09.09,6,6,0,0,1,.81.22,2.25,2.25,0,0,1-.09.49q-0.07.23-.17,0.48l-0.32-.1L86,122.25l-0.39-.05-0.49,0a2.25,2.25,0,0,0-1.88.85,3.9,3.9,0,0,0-.67,2.46,4.78,4.78,0,0,0,.19,1.42,2.72,2.72,0,0,0,.53,1,2.17,2.17,0,0,0,.83.59,2.85,2.85,0,0,0,1.08.2,4,4,0,0,0,.84-0.08A3.51,3.51,0,0,0,86.78,128.38Z" transform="translate(-10.67 -0.52)"/><path class="cls-1" d="M90.76,121.29h4.38a3.54,3.54,0,0,1,0,.51c0,0.08,0,.17,0,0.27a1.77,1.77,0,0,1,0,.25H91.89v2.38h2.59c0,0.08,0,.16,0,0.25s0,0.17,0,.26,0,0.17,0,.27a2.48,2.48,0,0,1,0,.25H91.89v2.84h3.34a3.66,3.66,0,0,1,0,.51c0,0.08,0,.17,0,0.27a1.76,1.76,0,0,1,0,.25H90.76v-8.29Z" transform="translate(-10.67 -0.52)"/><path class="cls-1" d="M105.87,128.59v-5.65l-1.56.74a2.08,2.08,0,0,1-.43-0.85l2.93-1.45H107v7.22h1.74a4,4,0,0,1,0,.5,3.77,3.77,0,0,1,0,.5H104a1.85,1.85,0,0,1,0-.25c0-.08,0-0.16,0-0.25a4,4,0,0,1,0-.5h1.84Z" transform="translate(-10.67 -0.52)"/><path class="cls-1" d="M117.62,124.58a7.14,7.14,0,0,1-.25,1.91,4.89,4.89,0,0,1-.77,1.6,4,4,0,0,1-1.31,1.15,4.67,4.67,0,0,1-1.9.54,1.46,1.46,0,0,1-.09-0.54c0-.06,0-0.13,0-0.21a1.82,1.82,0,0,1,0-.22,3.41,3.41,0,0,0,1.23-.33,3.26,3.26,0,0,0,.95-0.7,3.36,3.36,0,0,0,.64-1,4.14,4.14,0,0,0,.31-1.19,2.17,2.17,0,0,1-.7.76,2,2,0,0,1-1.18.32,2.52,2.52,0,0,1-.88-0.16A2.14,2.14,0,0,1,113,126a2.33,2.33,0,0,1-.53-0.83,3.23,3.23,0,0,1-.2-1.19,3,3,0,0,1,.23-1.2,2.61,2.61,0,0,1,.6-0.87,2.55,2.55,0,0,1,.86-0.53,2.84,2.84,0,0,1,1-.18,3.2,3.2,0,0,1,1.14.19,2.09,2.09,0,0,1,.85.59,2.77,2.77,0,0,1,.54,1A5.33,5.33,0,0,1,117.62,124.58Zm-2.76,1.12a1.62,1.62,0,0,0,.61-0.12,1.38,1.38,0,0,0,.5-0.34,1.65,1.65,0,0,0,.33-0.55,2.05,2.05,0,0,0,.12-0.73,1.87,1.87,0,0,0-.39-1.3,1.4,1.4,0,0,0-1.09-.43,1.52,1.52,0,0,0-1.11.44,1.76,1.76,0,0,0-.45,1.31,2.31,2.31,0,0,0,.12.78,1.47,1.47,0,0,0,.32.53,1.16,1.16,0,0,0,.47.3A1.8,1.8,0,0,0,114.86,125.7Z" transform="translate(-10.67 -0.52)"/><path class="cls-1" d="M121.26,126.39a7.16,7.16,0,0,1,.25-1.92,4.9,4.9,0,0,1,.77-1.6,4,4,0,0,1,1.31-1.15,4.67,4.67,0,0,1,1.9-.54,1.75,1.75,0,0,1,.09.53c0,0.08,0,.15,0,0.23a1.81,1.81,0,0,1,0,.21,3.48,3.48,0,0,0-1.24.34,3.17,3.17,0,0,0-.93.7,3.49,3.49,0,0,0-.63,1,5.06,5.06,0,0,0-.34,1.19,2.22,2.22,0,0,1,.71-0.76,2.08,2.08,0,0,1,1.18-.32,2.51,2.51,0,0,1,.87.16,2.12,2.12,0,0,1,.76.48,2.34,2.34,0,0,1,.53.82,3.23,3.23,0,0,1,.2,1.19,3,3,0,0,1-.23,1.2,2.5,2.5,0,0,1-.6.87,2.59,2.59,0,0,1-.86.53,2.84,2.84,0,0,1-1,.18,3.2,3.2,0,0,1-1.14-.19,2.09,2.09,0,0,1-.85-0.59,2.77,2.77,0,0,1-.54-1A5.31,5.31,0,0,1,121.26,126.39Zm2.76-1.12a1.64,1.64,0,0,0-.61.12,1.37,1.37,0,0,0-.5.34,1.64,1.64,0,0,0-.33.55,2.06,2.06,0,0,0-.12.74,1.85,1.85,0,0,0,.39,1.29,1.41,1.41,0,0,0,1.09.43,1.61,1.61,0,0,0,.62-0.12,1.44,1.44,0,0,0,.49-0.33,1.6,1.6,0,0,0,.33-0.54,2.14,2.14,0,0,0,.12-0.75,2.36,2.36,0,0,0-.12-0.78,1.49,1.49,0,0,0-.32-0.53,1.22,1.22,0,0,0-.47-0.31A1.71,1.71,0,0,0,124,125.27Z" transform="translate(-10.67 -0.52)"/><path class="cls-1" d="M135.57,125.5a8.39,8.39,0,0,1-.16,1.7,4.13,4.13,0,0,1-.5,1.33,2.55,2.55,0,0,1-4.37,0,4.15,4.15,0,0,1-.5-1.33,8.94,8.94,0,0,1,0-3.38,4.23,4.23,0,0,1,.5-1.34,2.47,2.47,0,0,1,.89-0.88,2.86,2.86,0,0,1,2.59,0,2.47,2.47,0,0,1,.89.88,4.21,4.21,0,0,1,.5,1.34A8.34,8.34,0,0,1,135.57,125.5Zm-2.85-3.16q-1.63,0-1.63,3.16t1.63,3.17q1.63,0,1.63-3.17T132.72,122.34Z" transform="translate(-10.67 -0.52)"/><path class="cls-1" d="M76.69,0.66l0.3,0h0.67l0.3,0L80,5.85,82.1,0.66l0.28,0H83l0.3,0L83.69,9,83.42,9H82.86L82.6,9,82.34,2.51l-2,4.73a3,3,0,0,1-.45,0,2.62,2.62,0,0,1-.42,0L77.63,2.47,77.37,9,77.12,9H76.59L76.33,9Z" transform="translate(-10.67 -0.52)"/><path class="cls-1" d="M89.44,7h-3L85.87,9,85.58,9H85L84.71,9l2.59-8.29,0.31,0h0.67l0.32,0L91.19,9l-0.3,0H90.27L90,9ZM86.71,6h2.43L87.92,1.78Z" transform="translate(-10.67 -0.52)"/><path class="cls-1" d="M92.38,0.65l0.44,0,0.39,0,0.41,0h0.47A5.49,5.49,0,0,1,95.2.64a2.79,2.79,0,0,1,1,.4,2.2,2.2,0,0,1,.7.78,2.54,2.54,0,0,1,.27,1.24,2.24,2.24,0,0,1-.14.82A2.62,2.62,0,0,1,96.15,5a3.92,3.92,0,0,1-.55.35l-0.13.07L97.79,9a6,6,0,0,1-.68,0,5.25,5.25,0,0,1-.6,0L94,5.11v0L94,5a5.13,5.13,0,0,0,.63-0.22,2.57,2.57,0,0,0,.62-0.36,2,2,0,0,0,.47-0.54A1.48,1.48,0,0,0,96,3.15a1.54,1.54,0,0,0-.47-1.23,1.88,1.88,0,0,0-1.27-.4H93.87l-0.36,0V9L93.23,9H92.66L92.38,9V0.65Z" transform="translate(-10.67 -0.52)"/><path class="cls-1" d="M99,0.66l0.28,0h0.58l0.28,0V9L99.83,9H99.24L99,9V0.66Z" transform="translate(-10.67 -0.52)"/><path class="cls-1" d="M105.13,9.09a3.3,3.3,0,0,1-1.5-.32,2.87,2.87,0,0,1-1-.89A4,4,0,0,1,102,6.53a6.78,6.78,0,0,1-.21-1.72A6.78,6.78,0,0,1,102,3.09a4,4,0,0,1,.62-1.36,2.92,2.92,0,0,1,1-.89,3.63,3.63,0,0,1,3,0,2.91,2.91,0,0,1,1,.89,3.93,3.93,0,0,1,.62,1.36,7,7,0,0,1,.2,1.72,7,7,0,0,1-.2,1.72,3.93,3.93,0,0,1-.62,1.36,2.86,2.86,0,0,1-1,.89A3.3,3.3,0,0,1,105.13,9.09Zm0-1a2,2,0,0,0,1-.23,1.85,1.85,0,0,0,.67-0.65,3.25,3.25,0,0,0,.4-1,6.3,6.3,0,0,0,.13-1.36,6.32,6.32,0,0,0-.13-1.36,3.19,3.19,0,0,0-.4-1,1.86,1.86,0,0,0-.67-0.65,2.16,2.16,0,0,0-1.92,0,1.86,1.86,0,0,0-.67.65,3.21,3.21,0,0,0-.4,1A6.32,6.32,0,0,0,103,4.81a6.3,6.3,0,0,0,.13,1.36,3.28,3.28,0,0,0,.4,1,1.85,1.85,0,0,0,.67.65A2,2,0,0,0,105.13,8.08Z" transform="translate(-10.67 -0.52)"/><path class="cls-1" d="M110.26,0.66l0.27,0h0.54l0.28,0-0.69,2.57-0.28,0h-0.52l-0.26,0Z" transform="translate(-10.67 -0.52)"/><path class="cls-1" d="M112.69,7.7a7.56,7.56,0,0,0,.76.24,3.93,3.93,0,0,0,1,.1,2,2,0,0,0,1.36-.39,1.31,1.31,0,0,0,.45-1,1.47,1.47,0,0,0-.09-0.55,1.06,1.06,0,0,0-.28-0.4,2.08,2.08,0,0,0-.47-0.31l-0.66-.3-0.63-.27a4.31,4.31,0,0,1-.59-0.31A1.84,1.84,0,0,1,113,4.07a1.87,1.87,0,0,1-.3-0.56,2.29,2.29,0,0,1-.11-0.76,2.06,2.06,0,0,1,.69-1.64,2.86,2.86,0,0,1,1.93-.59,5.3,5.3,0,0,1,1,.09,5.19,5.19,0,0,1,.84.23,3.71,3.71,0,0,1-.24,1,5.36,5.36,0,0,0-.69-0.21,3.93,3.93,0,0,0-.89-0.09,1.72,1.72,0,0,0-1.08.29,1.05,1.05,0,0,0-.38.88,1,1,0,0,0,.09.43,1.15,1.15,0,0,0,.25.33,1.8,1.8,0,0,0,.37.26,3.84,3.84,0,0,0,.44.21l0.62,0.25a6.43,6.43,0,0,1,.79.39A2.45,2.45,0,0,1,117,5a1.85,1.85,0,0,1,.37.64,2.65,2.65,0,0,1,.13.87,2.36,2.36,0,0,1-.79,1.87,3.25,3.25,0,0,1-2.21.69l-0.62,0L113.34,9l-0.46-.12-0.45-.15a2.67,2.67,0,0,1,.1-0.52C112.57,8,112.63,7.87,112.69,7.7Z" transform="translate(-10.67 -0.52)"/><circle class="cls-2" cx="87.56" cy="90.8" r="18.8"/><line class="cls-3" x1="87.56" y1="71.99" x2="160" y2="71.99"/><line class="cls-3" x1="102.94" y1="79.01" x2="160" y2="79.01"/><line class="cls-3" x1="105.83" y1="85.06" x2="160" y2="85.06"/><line class="cls-3" x1="106.79" y1="91.11" x2="160" y2="91.11"/><line class="cls-3" x1="105.83" y1="97.17" x2="160" y2="97.17"/><line class="cls-3" x1="101.98" y1="103.22" x2="160" y2="103.22"/><line class="cls-3" x1="87.56" y1="109.6" x2="160" y2="109.6"/><line class="cls-3" x1="86.94" y1="71.99" x2="14.5" y2="71.99"/><line class="cls-3" x1="71.56" y1="79.01" x2="14.5" y2="79.01"/><line class="cls-3" x1="68.67" y1="85.06" x2="14.5" y2="85.06"/><line class="cls-3" x1="67.71" y1="91.11" x2="14.5" y2="91.11"/><line class="cls-3" x1="68.67" y1="97.17" x2="14.5" y2="97.17"/><line class="cls-3" x1="72.52" y1="103.22" x2="14.5" y2="103.22"/><line class="cls-3" x1="86.94" y1="109.6" x2="14.5" y2="109.6"/><path class="cls-1" d="M98.23,74.61m5.31,34.45,0.52-11.93a5.36,5.36,0,0,1-3.26-2.26c-0.91-1.35.7-13.32,0.7-13.32h1V92.79h1V81.55h1.12V92.79h1V81.55h1.17V92.79h1V81.55h0.8s1.6,12,.69,13.33a5.41,5.41,0,0,1-3.22,2.25l0,0,0.45,10.53M91,108.3l0.52-12s-1-.33-1.2-0.43c-2.09-.92-3.6-3.63-3.6-7.14,0-3.82,3-7.13,5.84-7.16h0c2.87,0,5.84,3.33,5.84,7.16,0,3.51-1.52,6.22-3.6,7.14l-1.21.44,0.59,13.15m4-34.83" transform="translate(-10.67 -0.52)"/><path class="cls-4" d="M89.21,87" transform="translate(-10.67 -0.52)"/></svg>