<svg id="Logo_6" data-name="Logo 6" xmlns="http://www.w3.org/2000/svg" viewBox="0 0 194.31 123.93"><defs><style>.cls-1{fill:#353531;}.cls-2,.cls-3,.cls-4{fill:none;stroke:#353531;}.cls-2,.cls-3{stroke-miterlimit:10;}.cls-2{stroke-width:1.66px;}.cls-3{stroke-width:1.1px;}.cls-4{stroke-linecap:round;stroke-linejoin:round;stroke-width:2.22px;}</style></defs><title>logo-6</title><path class="cls-1" d="M1.08,66.71a8.64,8.64,0,0,0,5.08,1.6c2.9-.09,4.58-2.22,4.56-5.23,0-2.79-1.23-4.36-4.14-5.37-3.48-1.21-5.76-3-5.76-6.81a9.94,9.94,0,0,1,7-9.46,6.46,6.46,0,0,1,4.8.11l-0.76,3.38a5.72,5.72,0,0,0-4.13-.37,5.42,5.42,0,0,0-4.07,5.27C3.66,52.42,5,53.4,8,54.45c3.69,1.29,5.59,3.6,5.62,8.09,0,4.72-2.46,8.81-7.64,8.81A10,10,0,0,1,.37,69.65C0.66,68.48.8,67.89,1.08,66.71Z" transform="translate(-0.33 -2.55)"/><path class="cls-1" d="M35.91,55.13c-0.21-5-.46-10.91-0.46-15.36l-0.1,0c-0.71,4.3-1.58,8.86-2.65,13.81-1.49,7-2.23,10.38-3.73,17H26.82c-1.48-6.43-2.21-9.57-3.68-15.69-1.08-4.53-2-8.57-2.63-12.28H20.45c0,4-.15,9.5-0.31,14.35-0.19,5.56-.29,8.32-0.48,13.83H17Q17.62,55,18.25,39.05l3.59-.89c1.54,6,2.31,9,3.86,15.35,0.94,4,1.73,7.7,2.31,11.21h0.1c0.52-3.46,1.27-7.27,2.21-11.74,1.5-6.87,2.25-10.38,3.75-17.54l3.61-.71q0.85,18,1.69,36.08H36.6C36.32,64.52,36.18,61.38,35.91,55.13Z" transform="translate(-0.33 -2.55)"/><path class="cls-1" d="M46.25,33.21q0.16,18.79.32,37.57H43.74q-0.16-18.55-.32-37.1Z" transform="translate(-0.33 -2.55)"/><path class="cls-1" d="M55.43,36.13c-2.68.32-4,.49-6.7,0.86l0-4.17c6.52-1,9.79-1.43,16.33-2.1l0,4.39c-2.7.25-4,.38-6.74,0.68q0.13,17.48.25,35H55.7Q55.57,53.44,55.43,36.13Z" transform="translate(-0.33 -2.55)"/><path class="cls-1" d="M70.34,30.22c0,6.78.05,10.17,0.09,17,4.27-.22,6.4-0.3,10.67-0.43,0-6.9,0-10.35-.06-17.25l2.89-.14Q84,50,84,70.72H81.18c0-7.73,0-11.6-.07-19.33-4.26.11-6.4,0.18-10.66,0.35,0,7.6.06,11.4,0.1,19H67.72q-0.12-20.13-.23-40.26Z" transform="translate(-0.33 -2.55)"/><path class="cls-1" d="M109.62,70.72c-0.62-1.17-1.2-2.34-2-4.06-1.9,3.32-4,4.74-6.43,4.74-4.27,0-6.75-5.44-6.75-11.68,0-5.68,1.79-9.59,4.31-12.18V47.35a22.81,22.81,0,0,1-1.83-8.72c0-5.07,1.94-10.28,5.62-10.22,2.76,0,4.89,3.56,4.88,8.92a13.92,13.92,0,0,1-4.87,11v0.19c1.86,4.09,3.94,8.68,5.34,11.64A50.56,50.56,0,0,0,110,48.11l2.62,0.06c-0.61,6.48-1.57,11.62-3.21,15.23,1.17,2.34,2.3,4.68,3.6,7.32h-3.39Zm-3.44-7.15c-1.3-2.72-3.74-7.8-6.19-13.12a12.74,12.74,0,0,0-2.85,8.46c0,4.76,1.86,8.41,4.5,8.41C103.54,67.32,105.14,65.72,106.18,63.57ZM99.5,38.15a18.19,18.19,0,0,0,1.67,7.49c2.23-2.39,3.68-4.59,3.68-8.1,0-2.53-.75-5.39-2.55-5.41S99.51,34.94,99.5,38.15Z" transform="translate(-0.33 -2.55)"/><path class="cls-1" d="M122.13,64.33a7.18,7.18,0,0,0,5.07,2.7c2.9,0,4.62-2.73,4.64-6.74a8.81,8.81,0,0,0-4.1-8.11c-3.47-2.51-5.79-6-5.76-11.78,0-6.34,2.91-10.85,7.2-10.41a7.47,7.47,0,0,1,4.87,2.47l-0.82,4.09a6.76,6.76,0,0,0-4.18-2.29c-3-.27-4.18,3-4.19,5.71,0,3.79,1.31,5.73,4.34,8,3.71,2.83,5.58,6.15,5.54,12,0,6.09-2.59,11.36-7.77,11.36a7.68,7.68,0,0,1-5.59-2.6Z" transform="translate(-0.33 -2.55)"/><path class="cls-1" d="M157.5,52.42c-0.11,12.4-4.77,19-10.37,19-5.8,0-9.82-8-9.73-19.87,0.09-12.44,4.51-20,10.38-19.08S157.59,41.73,157.5,52.42Zm-17.06-.82c-0.06,8.28,2.42,15.74,6.89,15.81s7.1-6.77,7.18-15.07c0.06-7.27-2.15-15.27-6.88-16S140.5,43.09,140.44,51.6Z" transform="translate(-0.33 -2.55)"/><path class="cls-1" d="M161,70.82q0.16-17.65.32-35.3l3.09,0.64c2.74,7.62,4.12,11.3,6.87,18.33,1.59,4.07,2.83,7.59,3.85,10.93l0.07,0c-0.23-4.31-.26-8.24-0.22-13.26l0.1-13.49,2.65,0.67q-0.11,15.79-.22,31.58h-2.87c-2.74-6.56-4.1-10-6.83-17.23-1.49-3.95-2.92-8.11-4-12.07l-0.1,0c0.12,4.42.15,8.6,0.1,14.38-0.05,5.94-.08,8.91-0.13,14.85H161Z" transform="translate(-0.33 -2.55)"/><path class="cls-1" d="M182.09,66.12a8.2,8.2,0,0,0,5.07,2.14c2.9,0.09,4.59-1.79,4.6-4.58,0-2.59-1.18-4.24-4.1-6.08-3.47-2.18-5.74-5.1-5.72-9.39,0-4.75,2.86-7.51,7.06-6.24a11.38,11.38,0,0,1,4.78,2.81L193,47.42A9.84,9.84,0,0,0,188.89,45c-3-.8-4.1,1.35-4.11,3.37,0,2.78,1.3,4.42,4.3,6.44,3.67,2.48,5.55,4.91,5.55,8.84,0,4.14-2.51,7.71-7.69,7.71a8.82,8.82,0,0,1-5.59-2Z" transform="translate(-0.33 -2.55)"/><path class="cls-1" d="M57.06,16.45a11.94,11.94,0,0,1-1.88,1.25,14.42,14.42,0,0,1-2,.9,13.09,13.09,0,0,1-2,.55,10.55,10.55,0,0,1-1.89.18,6.46,6.46,0,0,1-1.78-.23,3.25,3.25,0,0,1-1.32-.7,2.3,2.3,0,0,1-.69-1.19,3.39,3.39,0,0,1,.11-1.71,5.6,5.6,0,0,1,.77-1.61,5.69,5.69,0,0,1,1.33-1.37,6.79,6.79,0,0,1,1.91-1,8.55,8.55,0,0,1,2.5-.4,3.84,3.84,0,0,1-1.52-.26,2.17,2.17,0,0,1-.93-0.71,2.06,2.06,0,0,1-.38-1,3.43,3.43,0,0,1,.14-1.26,3.75,3.75,0,0,1,.54-1.14,4.77,4.77,0,0,1,.86-0.93,5.94,5.94,0,0,1,1.1-.72,7.89,7.89,0,0,1,1.27-.51,9.45,9.45,0,0,1,1.35-.31,9.18,9.18,0,0,1,1.37-.1,7.78,7.78,0,0,1,1.85.21A4.28,4.28,0,0,1,59.19,5a2.37,2.37,0,0,1,.86,1.06,2.25,2.25,0,0,1,0,1.49,1.42,1.42,0,0,1-.37.59,4,4,0,0,1-.64.52,3.87,3.87,0,0,1-.7.37,1.66,1.66,0,0,1-.56.14c-0.12,0-.15-0.1-0.09-0.31A4.56,4.56,0,0,1,58,8.16q0.21-.43.61-1.08a1.91,1.91,0,0,0-.55-0.37,6.07,6.07,0,0,0-.88-0.33,8.85,8.85,0,0,0-1.09-.25A7.42,7.42,0,0,0,54.9,6a6,6,0,0,0-1.09.1,3.69,3.69,0,0,0-1,.33,2.68,2.68,0,0,0-.79.6,2.32,2.32,0,0,0-.49.92,1.51,1.51,0,0,0-.05.76,1.11,1.11,0,0,0,.28.52,1.62,1.62,0,0,0,.52.35,6.23,6.23,0,0,0,.65.25l0.68,0.21a4.13,4.13,0,0,1,.6.23,1.26,1.26,0,0,1,.42.31,0.64,0.64,0,0,1,.14.46l-0.07.35c0,0.12-.05.23-0.08,0.35a1.42,1.42,0,0,1-.37.68,1.09,1.09,0,0,1-.74.21l-0.53,0-0.6,0A5.64,5.64,0,0,0,51,12.8a5.26,5.26,0,0,0-1.29.51,4.19,4.19,0,0,0-1.06.83A2.84,2.84,0,0,0,48,15.29a2.58,2.58,0,0,0-.12,1,1.19,1.19,0,0,0,.3.67,1.34,1.34,0,0,0,.63.36,3.38,3.38,0,0,0,.89.11A7.55,7.55,0,0,0,51,17.35,12.51,12.51,0,0,0,52.38,17q0.7-.2,1.4-0.48t1.31-.6a9.62,9.62,0,0,0,1.12-.67A4.84,4.84,0,0,0,57,14.56Z" transform="translate(-0.33 -2.55)"/><path class="cls-1" d="M57.31,14.66l-0.14.47L57,15.56a3.68,3.68,0,0,0-.09.36,0.78,0.78,0,0,0,0,.28,0.3,0.3,0,0,0,.1.18,0.36,0.36,0,0,0,.24.07,0.43,0.43,0,0,0,.24-0.11A3.65,3.65,0,0,0,57.86,16l0.47-.48,0.59-.6c-0.06-.4-0.1-0.83-0.13-1.3s0-1-.05-1.54a0.26,0.26,0,0,1,0-.08A0.74,0.74,0,0,1,59,11.72a2.26,2.26,0,0,1,.41-0.31,3,3,0,0,1,.49-0.24,1.34,1.34,0,0,1,.46-0.1,0.56,0.56,0,0,1,.27.06,0.26,0.26,0,0,1,.13.17L60.81,12q0.06,0.48.14,1.09,0.55-.45,1.2-0.9t1.39-.86a2.07,2.07,0,0,1,.45-0.2,1.28,1.28,0,0,1,.35-0.06,0.57,0.57,0,0,1,.31.08,0.49,0.49,0,0,1,.19.21,0.73,0.73,0,0,1,.06.31,1.33,1.33,0,0,1-.05.36,1.63,1.63,0,0,1-.25.51,1.31,1.31,0,0,1-.44.39,14.39,14.39,0,0,0-1.49.91q-0.72.5-1.4,1.05c0.05,0.24.11,0.47,0.17,0.69a5,5,0,0,0,.2.57,1.44,1.44,0,0,0,.23.38,0.35,0.35,0,0,0,.26.14,1.63,1.63,0,0,0,.47-0.09,5.77,5.77,0,0,0,.63-0.25l0.7-.35c0.24-.13.48-0.27,0.71-0.41s0.44-.29.63-0.43a5.16,5.16,0,0,0,.48-0.4l-0.14.5-0.12.43-0.12.42-0.13.48q-0.35.27-.88,0.61a11.08,11.08,0,0,1-1.14.63,9.22,9.22,0,0,1-1.27.5,4.24,4.24,0,0,1-1.26.2A1,1,0,0,1,60,18.07a4.25,4.25,0,0,1-.69-1.49l-0.9.77c-0.28.24-.55,0.44-0.79,0.62a4.7,4.7,0,0,1-.65.42,1.13,1.13,0,0,1-.5.15,0.81,0.81,0,0,1-.62-0.22,1.08,1.08,0,0,1-.27-0.55,2.47,2.47,0,0,1,0-.73,6,6,0,0,1,.13-0.76Z" transform="translate(-0.33 -2.55)"/><path class="cls-1" d="M68,17.05a7.19,7.19,0,0,0,1.58-.17,7.55,7.55,0,0,0,1.38-.45,7.75,7.75,0,0,0,1.21-.66A10.25,10.25,0,0,0,73.19,15l-0.45,1.91a6.7,6.7,0,0,1-.83.63,6.94,6.94,0,0,1-1,.53,6.68,6.68,0,0,1-1,.37,4.1,4.1,0,0,1-1,.14l-0.14,0-0.29-.06-0.59-.11-1-.17,0,0.15a16.63,16.63,0,0,1-1,2.75,12.47,12.47,0,0,1-1.28,2.11,6.32,6.32,0,0,1-1.36,1.35,2.29,2.29,0,0,1-1.28.47,1,1,0,0,1-.72-0.23,1.11,1.11,0,0,1-.32-0.63,2.91,2.91,0,0,1,0-.92A8.18,8.18,0,0,1,61,22.11a4,4,0,0,1,.33-0.77q0.23-.43.55-0.9t0.69-1q0.37-.49.74-0.95,0.87-1.07,1.92-2.2L65.78,15q0.29-.68.62-1.32a12,12,0,0,1,.72-1.22,5.36,5.36,0,0,1,.85-1,3.88,3.88,0,0,1,1-.67,3,3,0,0,1,1.24-.25,2.8,2.8,0,0,1,.91.14,1.38,1.38,0,0,1,.65.44,1.52,1.52,0,0,1,.3.8,3.23,3.23,0,0,1-.15,1.19,4.54,4.54,0,0,1-.48,1.09,5.11,5.11,0,0,1-.81,1,6.92,6.92,0,0,1-1.16.9,9,9,0,0,1-1.51.75v0.17Zm-5.42,5.15a1.37,1.37,0,0,0,0,.52,0.7,0.7,0,0,0,.1.27,0.26,0.26,0,0,0,.23.12A0.38,0.38,0,0,0,63.13,23a2,2,0,0,0,.27-0.41A5,5,0,0,0,63.65,22l0.23-.67c0.08-.23.15-0.45,0.21-0.67s0.13-.41.19-0.58l0.26-.76,0.17-.52,0.13-.39a8,8,0,0,0-.49.64q-0.25.36-.5,0.75t-0.46.78l-0.4.73-0.29.58A2.69,2.69,0,0,0,62.55,22.21Zm4.62-6a6.34,6.34,0,0,0,1-.56A6.26,6.26,0,0,0,69,15a5.68,5.68,0,0,0,.64-0.72,6.93,6.93,0,0,0,.49-0.77,3.24,3.24,0,0,0,.18-0.43,1.45,1.45,0,0,0,.08-0.46,0.63,0.63,0,0,0-.11-0.37,0.44,0.44,0,0,0-.38-0.15,1.13,1.13,0,0,0-.59.17,2.27,2.27,0,0,0-.54.46,4.16,4.16,0,0,0-.48.69,9.41,9.41,0,0,0-.43.86c-0.13.31-.26,0.62-0.37,1S67.26,15.89,67.17,16.21Z" transform="translate(-0.33 -2.55)"/><path class="cls-1" d="M74.08,18.54a2.6,2.6,0,0,1-1.29-.28A1.86,1.86,0,0,1,72,17.49a2.44,2.44,0,0,1-.27-1.11,4.4,4.4,0,0,1,.18-1.32,6.8,6.8,0,0,1,.38-1,7.63,7.63,0,0,1,.57-1,7.84,7.84,0,0,1,.74-1,5.76,5.76,0,0,1,.89-0.8,4.43,4.43,0,0,1,1-.55,3,3,0,0,1,1.1-.2,2.13,2.13,0,0,1,.82.15,1.43,1.43,0,0,1,.57.42,1.34,1.34,0,0,1,.27.65,2,2,0,0,1-.08.86,3.05,3.05,0,0,1-.55,1,5.73,5.73,0,0,1-1,1,7.42,7.42,0,0,1-1.3.82,7.7,7.7,0,0,1-1.5.56,1.85,1.85,0,0,0,.14.37,0.74,0.74,0,0,0,.18.23,0.58,0.58,0,0,0,.23.12,1.1,1.1,0,0,0,.29,0,3.61,3.61,0,0,0,1.11-.2,9.35,9.35,0,0,0,1.22-.5,13.36,13.36,0,0,0,1.18-.65q0.57-.35,1-0.67L80,15.86A16.66,16.66,0,0,1,78,17.2c-0.29.17-.59,0.33-0.91,0.49a9.7,9.7,0,0,1-1,.43,7.67,7.67,0,0,1-1,.3A4.79,4.79,0,0,1,74.08,18.54Zm0-3.91a2,2,0,0,0,.7-0.15,4.4,4.4,0,0,0,1.43-.92A1.31,1.31,0,0,0,76.59,13a1.14,1.14,0,0,0,0-.62,0.28,0.28,0,0,0-.27-0.24,1.56,1.56,0,0,0-.65.13,2,2,0,0,0-.52.35,2.66,2.66,0,0,0-.41.48,4.51,4.51,0,0,0-.31.55,5,5,0,0,0-.22.53C74.17,14.35,74.12,14.5,74.09,14.62Z" transform="translate(-0.33 -2.55)"/><path class="cls-1" d="M78.31,16.8q0.11-.37.29-0.85t0.41-1q0.23-.54.48-1.1T80,12.74q0.25-.51.48-0.93t0.42-.7a2.29,2.29,0,0,1,.22-0.29,0.88,0.88,0,0,1,.2-0.17,0.64,0.64,0,0,1,.24-0.08l0.33,0,0.33,0a0.19,0.19,0,0,1,.15.1,0.38,0.38,0,0,1,0,.23c0,0.1-.06.24-0.1,0.41L82.05,12q-0.13.44-.23,0.86h0.09l0.59-.75a7.47,7.47,0,0,1,.7-0.77,4.44,4.44,0,0,1,.8-0.6,1.72,1.72,0,0,1,.88-0.25,0.79,0.79,0,0,1,.29.05,0.54,0.54,0,0,1,.22.15,0.5,0.5,0,0,1,.11.25,0.75,0.75,0,0,1,0,.33,3.15,3.15,0,0,1-.16.4l-0.24.53-0.25.54a3.43,3.43,0,0,0-.17.44,1.82,1.82,0,0,0-.08.5,0.72,0.72,0,0,0,.06.32,0.36,0.36,0,0,0,.17.17,0.55,0.55,0,0,0,.24,0,2.37,2.37,0,0,0,.82-0.17,6.78,6.78,0,0,0,.84-0.37,10.27,10.27,0,0,0,.92-0.55l-0.68,1.95-0.58.32q-0.32.17-.68,0.33A5.72,5.72,0,0,1,85,16a2.61,2.61,0,0,1-.72.1,1.45,1.45,0,0,1-.93-0.25,1.23,1.23,0,0,1-.42-0.67,2.85,2.85,0,0,1-.07-0.92q0-.51.12-1H82.81l-2.68,4.15c-0.14.22-.26,0.4-0.37,0.54a2.7,2.7,0,0,1-.31.35,0.94,0.94,0,0,1-.29.19,0.79,0.79,0,0,1-.29.05,0.76,0.76,0,0,1-.51-0.15A0.65,0.65,0,0,1,78.15,18a1.66,1.66,0,0,1,0-.56A5.66,5.66,0,0,1,78.31,16.8Z" transform="translate(-0.33 -2.55)"/><path class="cls-1" d="M92.47,16.67l-1.66.82q-0.73.35-1.28,0.58a8.51,8.51,0,0,1-1,.35,2.69,2.69,0,0,1-.72.12,1.34,1.34,0,0,1-1-.38,2,2,0,0,1-.49-1.1,6.15,6.15,0,0,1,0-1.74,15.69,15.69,0,0,1,.5-2.31c0.1-.33.21-0.69,0.35-1.07s0.28-.75.44-1.12l-0.37-.06L87,10.69l-0.37-.06L86,10.54a0.55,0.55,0,0,1-.28-0.1,0.3,0.3,0,0,1-.11-0.17,0.47,0.47,0,0,1,0-.2l0-.18a0.4,0.4,0,0,1,.23-0.25,1.69,1.69,0,0,1,.45-0.13,4,4,0,0,1,.57,0h1.39q0.55-1.12,1.19-2.18a17.74,17.74,0,0,1,1.31-1.87,7.93,7.93,0,0,1,1.31-1.32,2,2,0,0,1,1.21-.5,0.9,0.9,0,0,1,.6.2,1.17,1.17,0,0,1,.35.53,2.19,2.19,0,0,1,.1.78,3.89,3.89,0,0,1-.15.93,4.28,4.28,0,0,1-.36.86,8.76,8.76,0,0,1-.58.92c-0.22.31-.47,0.63-0.74,1s-0.56.64-.84,1h0.65l0.49,0,0.51,0,0.46,0,0.35,0a0.19,0.19,0,0,1,.19.17,0.89,0.89,0,0,1,0,.4,0.94,0.94,0,0,1-.3.48,0.67,0.67,0,0,1-.42.18h-3.2l-0.67.65L89,12.31l-0.35,1-0.14.45-0.15.45-0.14.43L88.16,15a3,3,0,0,0-.13.76,1.05,1.05,0,0,0,.1.5,0.6,0.6,0,0,0,.31.28,1.24,1.24,0,0,0,.49.09,1.76,1.76,0,0,0,.46-0.08A6.58,6.58,0,0,0,90,16.36q0.35-.15.76-0.35t0.81-.44q0.4-.24.79-0.5t0.71-.54ZM92.82,6.13a1.87,1.87,0,0,0,0-.2,0.7,0.7,0,0,0,0-.21,0.28,0.28,0,0,0-.08-0.17,0.32,0.32,0,0,0-.23-0.07,0.89,0.89,0,0,0-.55.38,8.24,8.24,0,0,0-.7,1q-0.38.59-.76,1.31T89.83,9.54l0.24,0,0.25,0,0.78-.92q0.41-.49.77-1t0.62-.9A2.89,2.89,0,0,0,92.82,6.13Z" transform="translate(-0.33 -2.55)"/><path class="cls-1" d="M100,7.46a3.27,3.27,0,0,1,.64-1.22,4,4,0,0,1,1.06-.89,6.41,6.41,0,0,1,1.42-.6,12.13,12.13,0,0,1,1.71-.37c0.61-.09,1.25-0.15,1.93-0.18s1.37,0,2.08,0q1.45,0,3,.12a28.83,28.83,0,0,1,3.19.42,0.63,0.63,0,0,1,.48.3,0.68,0.68,0,0,1,0,.48,1,1,0,0,1-.17.32,1.75,1.75,0,0,1-.28.29,1.42,1.42,0,0,1-.35.21,1,1,0,0,1-.37.08q-0.64,0-1.32-.07l-1.41-.15L110.09,6q-0.77-.08-1.61-0.12-0.42.93-1,2t-1.14,2.19q-0.6,1.12-1.22,2.23L104,14.43,102.9,16.3q-0.49.86-.83,1.47a2.74,2.74,0,0,1-.35.52,3.14,3.14,0,0,1-.43.41,2.11,2.11,0,0,1-.43.27,0.92,0.92,0,0,1-.37.1,1,1,0,0,1-.72-0.23,0.67,0.67,0,0,1-.1-0.72,1.72,1.72,0,0,1,.15-0.35q0.33-.76.71-1.49t0.86-1.53q0.47-.79,1-1.69l1.25-2,1.49-2.36q0.81-1.29,1.77-2.87L106,5.95q-0.47,0-.92.11a8,8,0,0,0-.85.18,3.71,3.71,0,0,0-.73.27,2.14,2.14,0,0,0-.56.4,1.27,1.27,0,0,0-.32.55l-0.07.18a1.26,1.26,0,0,1-.25.36,1.75,1.75,0,0,1-.5.36,1.78,1.78,0,0,1-.82.16,1.25,1.25,0,0,1-.73-0.17A0.77,0.77,0,0,1,100,8,1,1,0,0,1,100,7.46Z" transform="translate(-0.33 -2.55)"/><path class="cls-1" d="M118.29,16.5c-0.18.18-.41,0.39-0.69,0.62a9.6,9.6,0,0,1-.92.68,6.61,6.61,0,0,1-1,.55,2.48,2.48,0,0,1-1,.22,1,1,0,0,1-.81-0.35,2.09,2.09,0,0,1-.34-1,6.15,6.15,0,0,1-.63.47,6.45,6.45,0,0,1-.76.44,5.52,5.52,0,0,1-.81.32,2.72,2.72,0,0,1-.79.13,1.65,1.65,0,0,1-.73-0.16,1.34,1.34,0,0,1-.54-0.47,1.63,1.63,0,0,1-.25-0.74,2.55,2.55,0,0,1,.11-1,6.19,6.19,0,0,1,.54-1.28,9.86,9.86,0,0,1,.85-1.29,11.13,11.13,0,0,1,1.07-1.19,9,9,0,0,1,1.2-1,6.45,6.45,0,0,1,1.24-.66,3.26,3.26,0,0,1,1.2-.25,0.42,0.42,0,0,1,.28.08,0.49,0.49,0,0,1,.13.17L115.73,11a0.25,0.25,0,0,0,.13.13,0.58,0.58,0,0,0,.19.05h0.59l0.23,0a0.27,0.27,0,0,1,.16.11,0.4,0.4,0,0,1,.06.23A1.45,1.45,0,0,1,117,12a6.3,6.3,0,0,1-.34.89l-0.47,1q-0.25.51-.48,1a7,7,0,0,0-.36,1,2.12,2.12,0,0,0-.11.61,0.21,0.21,0,0,0,.24.22,1.06,1.06,0,0,0,.39-0.09,3.28,3.28,0,0,0,.45-0.23l0.48-.32,0.48-.37q0.54-.45,1.12-1Zm-6.92-.66a3,3,0,0,0-.09.4,1.09,1.09,0,0,0,0,.35,0.47,0.47,0,0,0,.13.25,0.39,0.39,0,0,0,.29.1,1,1,0,0,0,.63-0.27A3.94,3.94,0,0,0,113,16a6.45,6.45,0,0,0,.52-0.77,6.34,6.34,0,0,0,.34-0.67L115,12.14a1.72,1.72,0,0,0-.71.17,3.66,3.66,0,0,0-.74.46,6.28,6.28,0,0,0-.72.67,7.6,7.6,0,0,0-.64.79,6.81,6.81,0,0,0-.51.83A4.27,4.27,0,0,0,111.37,15.84Z" transform="translate(-0.33 -2.55)"/><path class="cls-1" d="M122.29,16.76c-0.25.18-.56,0.38-0.91,0.59a11.25,11.25,0,0,1-1.12.57,9.86,9.86,0,0,1-1.18.44,3.76,3.76,0,0,1-1.07.17,1.67,1.67,0,0,1-.69-0.12,0.8,0.8,0,0,1-.38-0.34,1,1,0,0,1-.11-0.53,2.82,2.82,0,0,1,.12-0.69,8.9,8.9,0,0,1,.47-1.22q0.32-.69.71-1.44t0.8-1.49l0.74-1.36A1.12,1.12,0,0,1,120,11a2.22,2.22,0,0,1,.47-0.25,2.76,2.76,0,0,1,.5-0.14,2.52,2.52,0,0,1,.44,0,0.52,0.52,0,0,1,.44.13,0.4,0.4,0,0,1,0,.35,3,3,0,0,1-.23.53q-0.18.34-.43,0.78l-0.54.94q-0.29.5-.56,1c-0.18.34-.34,0.66-0.49,1a6.09,6.09,0,0,0-.33.86,1.73,1.73,0,0,0-.09.6,0.24,0.24,0,0,0,.28.22,1.72,1.72,0,0,0,.73-0.21,8.88,8.88,0,0,0,.89-0.5l0.91-.61,0.79-.54ZM121,8.2a1.77,1.77,0,0,1,.21-0.43,2.05,2.05,0,0,1,.4-0.45,2.19,2.19,0,0,1,.6-0.36,2.14,2.14,0,0,1,.82-0.15,2,2,0,0,1,.53.07,1,1,0,0,1,.39.2,0.66,0.66,0,0,1,.2.36,1.11,1.11,0,0,1,0,.53,2.13,2.13,0,0,1-.25.55,1.94,1.94,0,0,1-.43.48,2.23,2.23,0,0,1-.6.34,2.15,2.15,0,0,1-.77.13,1.15,1.15,0,0,1-1-.35A1,1,0,0,1,121,8.2Z" transform="translate(-0.33 -2.55)"/><path class="cls-1" d="M123,18.54a0.84,0.84,0,0,1-.72-0.4,2.47,2.47,0,0,1-.37-1.06,6.32,6.32,0,0,1,0-1.54,10.59,10.59,0,0,1,.37-1.84,15.6,15.6,0,0,1,.57-1.61q0.36-.87.83-1.79t1-1.86q0.56-.93,1.16-1.79T127.15,5a13.13,13.13,0,0,1,1.26-1.3,6.37,6.37,0,0,1,1.22-.87,2.41,2.41,0,0,1,1.12-.32,0.81,0.81,0,0,1,.55.16,0.75,0.75,0,0,1,.24.43,1.81,1.81,0,0,1,0,.6,4.62,4.62,0,0,1-.14.69A9.07,9.07,0,0,1,130.79,6a16.85,16.85,0,0,1-1,1.63q-0.54.82-1.17,1.64t-1.3,1.64L126,12.54q-0.66.79-1.26,1.54l-0.15.22-0.17.29-0.18.33c-0.06.12-.12,0.23-0.17,0.34l0,0.12a2,2,0,0,0-.08.42,2.12,2.12,0,0,0,0,.37,0.83,0.83,0,0,0,.07.26,0.14,0.14,0,0,0,.11.1,1.36,1.36,0,0,0,.38-0.07,4.5,4.5,0,0,0,.48-0.18L125.6,16l0.55-.3c0.42-.23.86-0.5,1.33-0.81l0.18,1.75q-0.89.53-1.74,0.95l-0.75.35q-0.39.17-.77,0.3a6.66,6.66,0,0,1-.73.21A2.85,2.85,0,0,1,123,18.54ZM125,11.88q0.56-.67,1.22-1.5t1.29-1.71q0.63-.88,1.15-1.76a10.76,10.76,0,0,0,.82-1.64c0-.16.08-0.3,0.11-0.41s0-.17,0-0.17a1.06,1.06,0,0,0-.61.31,6.46,6.46,0,0,0-.8.85,14.21,14.21,0,0,0-.89,1.24q-0.46.71-.89,1.51t-0.79,1.64A14.24,14.24,0,0,0,125,11.88Z" transform="translate(-0.33 -2.55)"/><path class="cls-1" d="M132.88,12.3a3.71,3.71,0,0,1,.07,1,4.83,4.83,0,0,1-.17,1,5.68,5.68,0,0,1-.39,1A7.09,7.09,0,0,1,131,17.18a5.39,5.39,0,0,1-.88.71,4.51,4.51,0,0,1-1,.47,3,3,0,0,1-1,.17,1.9,1.9,0,0,1-1.16-.32,1.76,1.76,0,0,1-.61-0.84,3,3,0,0,1-.15-1.16,5.78,5.78,0,0,1,.22-1.32,6.55,6.55,0,0,1,.76-1.71,6.18,6.18,0,0,1,1.18-1.38,5.39,5.39,0,0,1,1.52-.92,4.67,4.67,0,0,1,1.76-.34,3.82,3.82,0,0,1,1.41.25,4,4,0,0,1,1.11.66,4.83,4.83,0,0,1,.85.94,9.7,9.7,0,0,1,.65,1.1l-0.5,1.17a3.15,3.15,0,0,0-.42-0.65,8.58,8.58,0,0,0-.62-0.68q-0.33-.33-0.66-0.63l-0.57-.5ZM129,16.94a1,1,0,0,0,.63-0.29,4.1,4.1,0,0,0,.67-0.72,6.85,6.85,0,0,0,.6-1,5.52,5.52,0,0,0,.41-1,4.24,4.24,0,0,0,.15-0.71,1.87,1.87,0,0,0,0-.57,0.72,0.72,0,0,0-.19-0.38,0.54,0.54,0,0,0-.4-0.14,1.25,1.25,0,0,0-.73.29,4.08,4.08,0,0,0-.75.74,6.32,6.32,0,0,0-.65,1,5.56,5.56,0,0,0-.44,1.06,3.33,3.33,0,0,0-.12.66,1.42,1.42,0,0,0,.05.54,0.72,0.72,0,0,0,.27.37A0.88,0.88,0,0,0,129,16.94Z" transform="translate(-0.33 -2.55)"/><path class="cls-1" d="M133.75,16.8q0.11-.37.29-0.85t0.41-1q0.23-.54.48-1.1t0.51-1.07q0.25-.51.48-0.93t0.42-.7a2.34,2.34,0,0,1,.22-0.29,0.87,0.87,0,0,1,.2-0.17,0.64,0.64,0,0,1,.24-0.08l0.33,0,0.33,0a0.19,0.19,0,0,1,.15.1,0.39,0.39,0,0,1,0,.23c0,0.1-.06.24-0.1,0.41l-0.21.75q-0.12.44-.23,0.86h0.09l0.59-.75a7.41,7.41,0,0,1,.7-0.77,4.44,4.44,0,0,1,.8-0.6,1.73,1.73,0,0,1,.88-0.25,0.79,0.79,0,0,1,.29.05,0.54,0.54,0,0,1,.22.15,0.5,0.5,0,0,1,.11.25,0.74,0.74,0,0,1,0,.33,3.09,3.09,0,0,1-.16.4l-0.24.53-0.25.54a3.43,3.43,0,0,0-.17.44,1.82,1.82,0,0,0-.08.5,0.72,0.72,0,0,0,.06.32,0.37,0.37,0,0,0,.17.17,0.55,0.55,0,0,0,.24,0,2.38,2.38,0,0,0,.82-0.17,6.81,6.81,0,0,0,.84-0.37,10.35,10.35,0,0,0,.92-0.55l-0.68,1.95-0.58.32c-0.22.12-.44,0.23-0.68,0.33a5.72,5.72,0,0,1-.72.26,2.61,2.61,0,0,1-.72.1,1.44,1.44,0,0,1-.93-0.25,1.23,1.23,0,0,1-.42-0.67,2.87,2.87,0,0,1-.07-0.92c0-.34.07-0.69,0.12-1h-0.13l-2.68,4.15c-0.14.22-.26,0.4-0.37,0.54a2.7,2.7,0,0,1-.31.35,0.94,0.94,0,0,1-.29.19,0.79,0.79,0,0,1-.29.05,0.76,0.76,0,0,1-.51-0.15,0.65,0.65,0,0,1-.21-0.39,1.63,1.63,0,0,1,0-.56A5.87,5.87,0,0,1,133.75,16.8Z" transform="translate(-0.33 -2.55)"/><path class="cls-1" d="M141.09,15.34l0.95-.67,0.64-.49c0.18-.15.35-0.29,0.51-0.44l0.56-.53,0.78-.75,1.18-1.11a4.12,4.12,0,0,1,.33-0.29,2.73,2.73,0,0,1,.37-0.25,2.13,2.13,0,0,1,.41-0.18,1.45,1.45,0,0,1,.46-0.07,1.51,1.51,0,0,1,.59.09,0.5,0.5,0,0,1,.25.21,0.41,0.41,0,0,1,0,.26,2,2,0,0,1-.05.24,1.15,1.15,0,0,1-.29.44q-0.23.24-.48,0.47l-0.48.41a1.31,1.31,0,0,0-.28.28,3,3,0,0,0-.1.47,3.33,3.33,0,0,0,0,.42c0,0.14,0,.28,0,0.43s0,0.33,0,.53a6.36,6.36,0,0,1-.1.69c0,0.26-.12.57-0.23,0.92a7,7,0,0,1,.75-0.36l0.82-.34,0.88-.39a9.08,9.08,0,0,0,.94-0.51L149,16.67a11.35,11.35,0,0,1-1.41.75A15.86,15.86,0,0,1,146,18a13.59,13.59,0,0,1-1.63.42,8,8,0,0,1-1.49.15,4,4,0,0,1-.89-0.09,1.77,1.77,0,0,1-.66-0.29,1,1,0,0,1-.37-0.51,1.49,1.49,0,0,1,0-.77l-0.24,0H140.2a0.31,0.31,0,0,1-.18-0.06,0.25,0.25,0,0,1-.08-0.17,0.94,0.94,0,0,1,0-.35,1,1,0,0,1,.21-0.37,2.35,2.35,0,0,1,.32-0.3l0.33-.23Zm0.76,1.07a0.23,0.23,0,0,1,.18.13l0.2,0.27a1.37,1.37,0,0,0,.29.27,0.72,0.72,0,0,0,.44.13,1.38,1.38,0,0,0,.57-0.11,1.35,1.35,0,0,0,.42-0.29,1.6,1.6,0,0,0,.29-0.42,2.9,2.9,0,0,0,.19-0.49,4,4,0,0,0,.1-0.46c0-.16,0-0.3.05-0.45s0-.27,0-0.4,0-.23,0-0.32Z" transform="translate(-0.33 -2.55)"/><circle class="cls-1" cx="163.14" cy="10.2" r="1.66"/><circle class="cls-1" cx="30.32" cy="10.2" r="1.66"/><circle class="cls-2" cx="97.55" cy="90.27" r="17.07"/><path class="cls-3" d="M97.88,107.7a14.87,14.87,0,1,1,14.87-14.87A14.89,14.89,0,0,1,97.88,107.7Z" transform="translate(-0.33 -2.55)"/><line class="cls-4" x1="113.49" y1="83.3" x2="185.59" y2="83.3"/><line class="cls-4" x1="115.7" y1="90.66" x2="185.59" y2="90.66"/><line class="cls-4" x1="113.49" y1="98.02" x2="185.59" y2="98.02"/><line class="cls-4" x1="80.86" y1="83.3" x2="8.76" y2="83.3"/><line class="cls-4" x1="79.69" y1="90.66" x2="8.76" y2="90.66"/><line class="cls-4" x1="81.9" y1="98.02" x2="8.76" y2="98.02"/><path class="cls-1" d="M107,95H88.76c0-.11,0-0.21,0-0.32V94.54c0.16-7,4.18-9.06,9.11-9.06s9,2,9.11,9.06C107,94.68,107,94.83,107,95Zm3-.44a7.38,7.38,0,0,1-3,1.34,36.77,36.77,0,0,1-9.12,1,36.77,36.77,0,0,1-9.11-1,7.38,7.38,0,0,1-3-1.34,1.17,1.17,0,0,0-.44.84c0,1.76,5.6,3.18,12.52,3.18s12.52-1.43,12.52-3.18A1.17,1.17,0,0,0,110,94.54Z" transform="translate(-0.33 -2.55)"/><path class="cls-1" d="M5.71,125.14a3.2,3.2,0,0,1,.31,1,4.29,4.29,0,0,1-.95.3,5.61,5.61,0,0,1-1,.09,3.93,3.93,0,0,1-1.55-.29,3.13,3.13,0,0,1-1.16-.84A3.75,3.75,0,0,1,.58,124a5.66,5.66,0,0,1-.25-1.76,5.86,5.86,0,0,1,.25-1.78,3.92,3.92,0,0,1,.73-1.36,3.18,3.18,0,0,1,1.16-.87A3.73,3.73,0,0,1,4,118a5.57,5.57,0,0,1,1.08.09,5.81,5.81,0,0,1,.81.22,2.19,2.19,0,0,1-.09.49c0,0.15-.1.31-0.17,0.48l-0.32-.1L5,119,4.58,119l-0.49,0a2.24,2.24,0,0,0-1.87.85,3.88,3.88,0,0,0-.67,2.44,4.74,4.74,0,0,0,.19,1.41,2.7,2.7,0,0,0,.53,1,2.16,2.16,0,0,0,.82.59,2.84,2.84,0,0,0,1.08.19A4,4,0,0,0,5,125.37,3.5,3.5,0,0,0,5.71,125.14Z" transform="translate(-0.33 -2.55)"/><path class="cls-1" d="M7.77,118.09a4.56,4.56,0,0,1,.57,0,4.2,4.2,0,0,1,.55,0v4.68A7.22,7.22,0,0,0,9,124a2.27,2.27,0,0,0,.29.82,1.2,1.2,0,0,0,.52.46,1.91,1.91,0,0,0,.8.15,1.88,1.88,0,0,0,.79-0.15,1.21,1.21,0,0,0,.52-0.46,2.27,2.27,0,0,0,.29-0.82,7.22,7.22,0,0,0,.09-1.22v-4.68a4.63,4.63,0,0,1,.56,0,4.56,4.56,0,0,1,.57,0V123a6.71,6.71,0,0,1-.15,1.48,2.88,2.88,0,0,1-.49,1.1,2.15,2.15,0,0,1-.88.68,3.28,3.28,0,0,1-1.31.24,3.28,3.28,0,0,1-1.31-.24,2.14,2.14,0,0,1-.88-0.68,2.88,2.88,0,0,1-.49-1.1A6.71,6.71,0,0,1,7.77,123v-4.89Z" transform="translate(-0.33 -2.55)"/><path class="cls-1" d="M15.46,125.09a7.57,7.57,0,0,0,.76.24,3.94,3.94,0,0,0,1,.1,2,2,0,0,0,1.35-.38,1.3,1.3,0,0,0,.45-1,1.46,1.46,0,0,0-.09-0.55,1.06,1.06,0,0,0-.28-0.4,2.07,2.07,0,0,0-.47-0.3l-0.66-.3-0.63-.26a4.35,4.35,0,0,1-.58-0.3,1.82,1.82,0,0,1-.46-0.41,1.87,1.87,0,0,1-.3-0.56,2.28,2.28,0,0,1-.11-0.75,2,2,0,0,1,.68-1.64A2.85,2.85,0,0,1,18,118a5.33,5.33,0,0,1,1,.09,5.18,5.18,0,0,1,.84.23,3.72,3.72,0,0,1-.24,1,5.41,5.41,0,0,0-.69-0.21,3.94,3.94,0,0,0-.89-0.09,1.71,1.71,0,0,0-1.07.29,1,1,0,0,0-.37.88,1,1,0,0,0,.09.43,1.13,1.13,0,0,0,.25.33,1.8,1.8,0,0,0,.36.26,3.89,3.89,0,0,0,.44.21l0.62,0.25a6.41,6.41,0,0,1,.78.38,2.45,2.45,0,0,1,.58.47,1.85,1.85,0,0,1,.37.64,2.64,2.64,0,0,1,.13.86,2.35,2.35,0,0,1-.78,1.87,3.23,3.23,0,0,1-2.2.68l-0.62,0-0.51-.07-0.46-.12-0.45-.15a2.63,2.63,0,0,1,.1-0.52C15.34,125.44,15.4,125.26,15.46,125.09Z" transform="translate(-0.33 -2.55)"/><path class="cls-1" d="M23.41,119.12H21.35a2.2,2.2,0,0,1,0-.25c0-.09,0-0.18,0-0.26s0-.17,0-0.26a2.26,2.26,0,0,1,0-.25H26.6a2.41,2.41,0,0,1,0,.24c0,0.08,0,.17,0,0.25s0,0.17,0,.27a2.3,2.3,0,0,1,0,.26H24.54v7.23a4,4,0,0,1-.55,0,4.37,4.37,0,0,1-.57,0v-7.23Z" transform="translate(-0.33 -2.55)"/><path class="cls-1" d="M30.86,126.48a3.29,3.29,0,0,1-1.49-.32,2.86,2.86,0,0,1-1-.88,4,4,0,0,1-.62-1.35,7.27,7.27,0,0,1,0-3.42,4,4,0,0,1,.62-1.35,2.91,2.91,0,0,1,1-.89,3.61,3.61,0,0,1,3,0,2.92,2.92,0,0,1,1,.89,3.89,3.89,0,0,1,.61,1.35,7.47,7.47,0,0,1,0,3.42,3.89,3.89,0,0,1-.61,1.35,2.86,2.86,0,0,1-1,.88A3.29,3.29,0,0,1,30.86,126.48Zm0-1a1.94,1.94,0,0,0,1-.22,1.83,1.83,0,0,0,.67-0.65,3.25,3.25,0,0,0,.4-1,7,7,0,0,0,0-2.7,3.18,3.18,0,0,0-.4-1,1.85,1.85,0,0,0-.67-0.64,2.15,2.15,0,0,0-1.91,0,1.85,1.85,0,0,0-.67.64,3.19,3.19,0,0,0-.4,1,7,7,0,0,0,0,2.7,3.26,3.26,0,0,0,.4,1,1.83,1.83,0,0,0,.67.65A1.94,1.94,0,0,0,30.86,125.47Z" transform="translate(-0.33 -2.55)"/><path class="cls-1" d="M36.44,118.09l0.3,0H37.4l0.3,0,2.05,5.17,2.06-5.17,0.28,0h0.64l0.3,0,0.38,8.25-0.27,0H42.58l-0.26,0-0.25-6.42-1.94,4.71a3,3,0,0,1-.45,0,2.64,2.64,0,0,1-.42,0l-1.87-4.74-0.25,6.45-0.25,0H36.34l-0.25,0Z" transform="translate(-0.33 -2.55)"/><path class="cls-1" d="M53.65,125.14a3.2,3.2,0,0,1,.31,1,4.29,4.29,0,0,1-.95.3,5.61,5.61,0,0,1-1,.09,3.93,3.93,0,0,1-1.55-.29,3.13,3.13,0,0,1-1.16-.84,3.75,3.75,0,0,1-.73-1.33,5.66,5.66,0,0,1-.25-1.76,5.86,5.86,0,0,1,.25-1.78,3.92,3.92,0,0,1,.73-1.36,3.18,3.18,0,0,1,1.16-.87,3.73,3.73,0,0,1,1.53-.3A5.57,5.57,0,0,1,53,118a5.81,5.81,0,0,1,.81.22,2.19,2.19,0,0,1-.09.49c0,0.15-.1.31-0.17,0.48l-0.32-.1L52.91,119,52.52,119,52,119a2.24,2.24,0,0,0-1.87.85,3.88,3.88,0,0,0-.67,2.44,4.74,4.74,0,0,0,.19,1.41,2.7,2.7,0,0,0,.53,1,2.16,2.16,0,0,0,.82.59,2.84,2.84,0,0,0,1.08.19,4,4,0,0,0,.84-0.08A3.5,3.5,0,0,0,53.65,125.14Z" transform="translate(-0.33 -2.55)"/><path class="cls-1" d="M55.78,118.09l0.26,0h0.58l0.28,0v7.22H60a2.07,2.07,0,0,1,0,.26c0,0.09,0,.18,0,0.25a3.83,3.83,0,0,1,0,.52H55.78v-8.25Z" transform="translate(-0.33 -2.55)"/><path class="cls-1" d="M64.34,126.48a3.29,3.29,0,0,1-1.49-.32,2.86,2.86,0,0,1-1-.88,4,4,0,0,1-.62-1.35,7.27,7.27,0,0,1,0-3.42,4,4,0,0,1,.62-1.35,2.91,2.91,0,0,1,1-.89,3.61,3.61,0,0,1,3,0,2.92,2.92,0,0,1,1,.89,3.89,3.89,0,0,1,.61,1.35,7.47,7.47,0,0,1,0,3.42,3.89,3.89,0,0,1-.61,1.35,2.86,2.86,0,0,1-1,.88A3.29,3.29,0,0,1,64.34,126.48Zm0-1a1.94,1.94,0,0,0,1-.22A1.83,1.83,0,0,0,66,124.6a3.25,3.25,0,0,0,.4-1,7,7,0,0,0,0-2.7,3.18,3.18,0,0,0-.4-1,1.85,1.85,0,0,0-.67-0.64,2.15,2.15,0,0,0-1.91,0,1.85,1.85,0,0,0-.67.64,3.19,3.19,0,0,0-.4,1,7,7,0,0,0,0,2.7,3.26,3.26,0,0,0,.4,1,1.83,1.83,0,0,0,.67.65A1.94,1.94,0,0,0,64.34,125.47Z" transform="translate(-0.33 -2.55)"/><path class="cls-1" d="M70.65,119.12H68.59a2.2,2.2,0,0,1,0-.25c0-.09,0-0.18,0-0.26s0-.17,0-0.26a2.26,2.26,0,0,1,0-.25h5.25a2.41,2.41,0,0,1,0,.24c0,0.08,0,.17,0,0.25s0,0.17,0,.27a2.3,2.3,0,0,1,0,.26H71.77v7.23a4,4,0,0,1-.55,0,4.37,4.37,0,0,1-.57,0v-7.23Z" transform="translate(-0.33 -2.55)"/><path class="cls-1" d="M75.46,118.09l0.28,0h0.57l0.28,0v3.4H80v-3.4l0.27,0H80.8l0.28,0v8.25l-0.26,0H80.23l-0.27,0v-3.82H76.58v3.82l-0.27,0H75.73l-0.27,0v-8.25Z" transform="translate(-0.33 -2.55)"/><path class="cls-1" d="M83.4,118.09l0.28,0h0.57l0.28,0v8.25l-0.27,0H83.67l-0.27,0v-8.25Z" transform="translate(-0.33 -2.55)"/><path class="cls-1" d="M86.84,118.09l0.26,0h0.52l0.26,0,3.45,6.2v-6.2l0.28,0h0.54l0.25,0v8.25l-0.26,0H91.63l-0.26,0-3.46-6.16v6.16l-0.26,0H87.09l-0.25,0v-8.25Z" transform="translate(-0.33 -2.55)"/><path class="cls-1" d="M99.31,122.08l0.28,0h0.57l0.27,0v4a3.47,3.47,0,0,1-.51.18,4.56,4.56,0,0,1-.57.12l-0.6.06-0.56,0a4.18,4.18,0,0,1-1.59-.29,3.17,3.17,0,0,1-1.19-.83,3.73,3.73,0,0,1-.74-1.33,6.15,6.15,0,0,1,0-3.55,3.92,3.92,0,0,1,.76-1.36,3.35,3.35,0,0,1,1.17-.87,3.63,3.63,0,0,1,1.51-.3,6.12,6.12,0,0,1,1.09.09,4.56,4.56,0,0,1,.84.24,2.19,2.19,0,0,1-.09.49q-0.07.22-.17,0.48-0.31-.1-0.67-0.18a4.26,4.26,0,0,0-.9-0.08,2.56,2.56,0,0,0-1.06.22,2.21,2.21,0,0,0-.82.64,3,3,0,0,0-.52,1,4.82,4.82,0,0,0-.19,1.41,4.55,4.55,0,0,0,.19,1.41,2.73,2.73,0,0,0,.55,1,2.17,2.17,0,0,0,.83.59,2.88,2.88,0,0,0,1.06.19,4.08,4.08,0,0,0,.62,0,3.23,3.23,0,0,0,.45-0.1v-3.23Z" transform="translate(-0.33 -2.55)"/><path class="cls-1" d="M105.6,118.09h4.15c0,0.08,0,.16,0,0.25s0,0.17,0,.26,0,0.17,0,.26a2.44,2.44,0,0,1,0,.25h-3v2.42h2.53c0,0.08,0,.17,0,0.26s0,0.17,0,.26,0,0.17,0,.26,0,0.17,0,.26h-2.53v3.78l-0.27,0h-0.58l-0.27,0v-8.25Z" transform="translate(-0.33 -2.55)"/><path class="cls-1" d="M114.59,126.48a3.29,3.29,0,0,1-1.49-.32,2.86,2.86,0,0,1-1-.88,4,4,0,0,1-.62-1.35,7.27,7.27,0,0,1,0-3.42,4,4,0,0,1,.62-1.35,2.91,2.91,0,0,1,1-.89,3.61,3.61,0,0,1,3,0,2.91,2.91,0,0,1,1,.89,3.91,3.91,0,0,1,.61,1.35,7.47,7.47,0,0,1,0,3.42,3.91,3.91,0,0,1-.61,1.35,2.85,2.85,0,0,1-1,.88A3.29,3.29,0,0,1,114.59,126.48Zm0-1a1.94,1.94,0,0,0,1-.22,1.84,1.84,0,0,0,.67-0.65,3.26,3.26,0,0,0,.4-1,7,7,0,0,0,0-2.7,3.19,3.19,0,0,0-.4-1,1.85,1.85,0,0,0-.67-0.64,2.15,2.15,0,0,0-1.91,0,1.84,1.84,0,0,0-.67.64,3.17,3.17,0,0,0-.4,1,6.94,6.94,0,0,0,0,2.7,3.24,3.24,0,0,0,.4,1,1.83,1.83,0,0,0,.67.65A1.94,1.94,0,0,0,114.59,125.47Z" transform="translate(-0.33 -2.55)"/><path class="cls-1" d="M120,118.08l0.44,0,0.39,0,0.4,0h0.46a5.48,5.48,0,0,1,1.11.12,2.76,2.76,0,0,1,1,.4,2.18,2.18,0,0,1,.7.77,2.52,2.52,0,0,1,.27,1.23,2.22,2.22,0,0,1-.14.81,2.61,2.61,0,0,1-.87,1.15,3.89,3.89,0,0,1-.55.35l-0.13.07,2.31,3.48a5.83,5.83,0,0,1-.67,0,5.09,5.09,0,0,1-.6,0l-2.54-3.82v0l0.09,0a5.14,5.14,0,0,0,.63-0.22,2.58,2.58,0,0,0,.61-0.36,2,2,0,0,0,.47-0.54,1.48,1.48,0,0,0,.19-0.76,1.53,1.53,0,0,0-.47-1.23,1.88,1.88,0,0,0-1.26-.4h-0.35l-0.36,0v7.36l-0.27,0h-0.57l-0.29,0v-8.26Z" transform="translate(-0.33 -2.55)"/><path class="cls-1" d="M134.49,122.08l0.28,0h0.57l0.27,0v4a3.47,3.47,0,0,1-.51.18,4.56,4.56,0,0,1-.57.12l-0.6.06-0.56,0a4.18,4.18,0,0,1-1.59-.29,3.17,3.17,0,0,1-1.19-.83,3.72,3.72,0,0,1-.75-1.33,6.16,6.16,0,0,1,0-3.55,3.9,3.9,0,0,1,.75-1.36,3.35,3.35,0,0,1,1.17-.87,3.63,3.63,0,0,1,1.51-.3,6.12,6.12,0,0,1,1.09.09,4.56,4.56,0,0,1,.84.24,2.19,2.19,0,0,1-.09.49q-0.07.22-.17,0.48-0.31-.1-0.67-0.18a4.26,4.26,0,0,0-.9-0.08,2.56,2.56,0,0,0-1.07.22,2.22,2.22,0,0,0-.82.64,3.06,3.06,0,0,0-.52,1,4.82,4.82,0,0,0-.19,1.41,4.55,4.55,0,0,0,.19,1.41,2.73,2.73,0,0,0,.55,1,2.17,2.17,0,0,0,.83.59,2.88,2.88,0,0,0,1.06.19,4.07,4.07,0,0,0,.62,0,3.23,3.23,0,0,0,.45-0.1v-3.23Z" transform="translate(-0.33 -2.55)"/><path class="cls-1" d="M137.79,118.09h4.36a3.5,3.5,0,0,1,0,.5c0,0.08,0,.17,0,0.26a1.72,1.72,0,0,1,0,.25h-3.23v2.36h2.58c0,0.08,0,.16,0,0.25s0,0.17,0,.26,0,0.17,0,.26a2.44,2.44,0,0,1,0,.25h-2.58v2.82h3.32a3.64,3.64,0,0,1,0,.5q0,0.13,0,.26a1.74,1.74,0,0,1,0,.25h-4.45v-8.25Z" transform="translate(-0.33 -2.55)"/><path class="cls-1" d="M144.08,118.09l0.26,0h0.52l0.26,0,3.45,6.2v-6.2l0.28,0h0.54l0.25,0v8.25l-0.26,0h-0.52l-0.26,0-3.46-6.16v6.16l-0.26,0h-0.55l-0.25,0v-8.25Z" transform="translate(-0.33 -2.55)"/><path class="cls-1" d="M153.32,119.12h-2.06a2.21,2.21,0,0,1,0-.25c0-.09,0-0.18,0-0.26s0-.17,0-0.26a2.26,2.26,0,0,1,0-.25h5.25c0,0.08,0,.16,0,0.24s0,0.17,0,.25,0,0.17,0,.27a2.42,2.42,0,0,1,0,.26h-2.06v7.23a4,4,0,0,1-.55,0,4.37,4.37,0,0,1-.57,0v-7.23Z" transform="translate(-0.33 -2.55)"/><path class="cls-1" d="M158.13,118.09l0.26,0H159l0.28,0v7.22h3.11a2.07,2.07,0,0,1,0,.26q0,0.14,0,.25a3.9,3.9,0,0,1,0,.52h-4.23v-8.25Z" transform="translate(-0.33 -2.55)"/><path class="cls-1" d="M164,118.09h4.36a3.5,3.5,0,0,1,0,.5c0,0.08,0,.17,0,0.26a1.72,1.72,0,0,1,0,.25h-3.23v2.36h2.58c0,0.08,0,.16,0,0.25s0,0.17,0,.26,0,0.17,0,.26a2.44,2.44,0,0,1,0,.25h-2.58v2.82h3.32a3.64,3.64,0,0,1,0,.5q0,0.13,0,.26a1.74,1.74,0,0,1,0,.25H164v-8.25Z" transform="translate(-0.33 -2.55)"/><path class="cls-1" d="M170.48,118.09l0.3,0h0.66l0.3,0,2.05,5.17,2.06-5.17,0.28,0h0.64l0.3,0,0.38,8.25-0.27,0h-0.56l-0.26,0-0.25-6.42-1.94,4.71a3,3,0,0,1-.45,0,2.63,2.63,0,0,1-.42,0l-1.88-4.74-0.25,6.45-0.25,0h-0.53l-0.25,0Z" transform="translate(-0.33 -2.55)"/><path class="cls-1" d="M179.63,118.09H184a3.5,3.5,0,0,1,0,.5c0,0.08,0,.17,0,0.26a1.72,1.72,0,0,1,0,.25h-3.23v2.36h2.58c0,0.08,0,.16,0,0.25s0,0.17,0,.26,0,0.17,0,.26a2.44,2.44,0,0,1,0,.25h-2.58v2.82h3.32a3.64,3.64,0,0,1,0,.5q0,0.13,0,.26a1.74,1.74,0,0,1,0,.25h-4.45v-8.25Z" transform="translate(-0.33 -2.55)"/><path class="cls-1" d="M185.92,118.09l0.26,0h0.52l0.26,0,3.45,6.2v-6.2l0.28,0h0.54l0.25,0v8.25l-0.26,0H190.7l-0.26,0L187,120.18v6.16l-0.26,0h-0.55l-0.25,0v-8.25Z" transform="translate(-0.33 -2.55)"/></svg>